<svg width="454" height="575" fill="none" xmlns="http://www.w3.org/2000/svg"><path d="M453.546 509.448c0 3.208-11.287 7.067-18.021 7.85-6.734.783-19.738-.858-19.738-.858s-22.518 19.589-37.853 24.894-36.465 8.06-44.53 11.149c-8.065 3.089-28.935 12.958-40.333 15.447-11.398 2.488-43.576 6.865-53.206 6.865-9.63 0-93.055-6.797-98.688-7.724-5.633-.927-12.333-2.849-21.283-6.719-8.949-3.87-35.014-14.312-45.248-19.569-10.234-5.257-33.445-18.75-36.448-22.684-3.003-3.934-7.723-15.39-7.723-15.39s-5.53-4.772-10.665-9.807c-5.135-5.036-16.796-31.384-16.796-31.384l-1.716-20.596 8.582-6.865 38.617-6.007 3.147-9.606 1.143-19.571-.424-10.284 3.857-19.963-21.454-48.703 6.446-34.029 12.433-35.97-8.656-18.525.36-40.107-9.725-18.115 7.723-15.447-9.869-54.493-8.992-26.133 1.269-7.335s17.335-.872 26.603-1.716c9.267-.845 22.958-3.151 24.887-4.291 1.928-1.14 24.887-7.723 24.887-7.723l193.514-5.578s26.258.312 31.184-.014c4.926-.326 23.108 5.2 32.32 6.02 9.212.82 22.142 2.902 26.603 4.292 4.461 1.39 7.723 8.907 12.014 12.014 4.291 3.106 9.735 2.568 12.265 4.864 2.53 2.297-9.201 59.162-11.407 64.646-2.206 5.485-7.723 9.44-7.723 9.44l4.586 24.457s3.303 16.592 2.099 26.771c-1.254 10.602-7.542 34.588-7.542 34.588s-18.008 51.348-17.282 55.292c.726 3.944 6.84 7.139 10.392 9.521 3.553 2.382 6.449 6.08 6.889 10.706.44 4.625-2.774 11.048-7.473 15.102-4.7 4.053-11.645 9.622-12.859 13.129-1.214 3.507 8.762 16.513 12.609 26.691 3.847 10.178 3.361 30.781 1.716 36.043-1.644 5.261-7.723 29.177-7.723 29.177s11.813 7.776 22.386 14.046c10.573 6.27 32.285 22.396 35.969 26.287 4.376 4.622 6.673 14.612 8.581 18.879 1.907 4.267 10.296 13.828 10.296 17.036Z" fill="#CC7743"/><path d="m402.057 83.93-25.745 16.305s6.754 16.47 0 27.461c-6.754 10.99-37.037 35.117-43.983 39.856-6.946 4.739 9.132 3.693 13.948 3.051 4.816-.642 12.872-1.716 15.776-5.201 2.904-3.484 10.529-12.902 14.259-17.111 3.73-4.21 12.777-7.163 14.97-12.431 2.193-5.268 5.626-26.186 5.626-26.186l5.149-25.744Z" fill="#A35E35"/><path d="M407.748 82.254c-1.709 3.066-4.292 5.83-6.867 7.537-2.575 1.707-7.791 3.39-7.791 3.39l-18.794 5.87s-9.208 4.31-17.61 6.71c-8.403 2.4-14.97 9.01-26.704 16.787-11.734 7.777-53.993 18.755-63.504 25.316-9.51 6.561-8.344 23.459-12.014 28.319-3.67 4.86-15.006 10.757-36.276 11.585-21.27.828-126.523-6.573-126.523-6.573s-33.241-14.32-38.02-13.164c-4.779 1.156-10.365 4.383-12.523 6.268-2.158 1.885 4.498 8.983 10.927 15.238 6.429 6.254 34.046 12.308 59.625 15.756 25.579 3.448 52.429 1.394 77.852 2.781 25.423 1.387 82.467 14.298 97.109 15.756 14.642 1.458 38.035-2.288 52.777-1.854 14.741.434-33.955 16.926-46.392 20.39-12.437 3.463-70.459 19.451-78.092 23.17-7.634 3.719-13.042 4.846-16.885 12.268-3.843 7.422 11.407 28.426 18.653 35.257 7.246 6.831 45.911 23.256 54.922 25.745 9.011 2.489 20.693 6.187 30.572 6.585 9.879.398 25.565-4.081 38.518-12.471s24.378-15.675 30.782-20.287c6.404-4.612 1.231 9.492-5.355 16.648-6.586 7.156-32.366 23.268-38.72 26.363-6.354 3.095-38.507 4.497-54.804 6.853-16.297 2.356-40.148-.157-58.07-.584-17.922-.427-41.002-.563-51.052-2.768-10.05-2.205-24.864-10.041-35.442-15.189-10.578-5.149-25.171-16.803-34.601-24.063-9.43-7.26-18.422-16.549-29.04-42.925-3.77 12.708 3.466 53.284 13.696 66.988s56.989 41.191 69.94 48.057c12.951 6.865 34.874 2.857 45.482 1.257 12.151-1.832 39.393-9.254 51.398-12.051 12.004-2.796 25.272-5.937 41.712-9.532 16.44-3.596-6.759 8.84-15.573 14.029s-38.375 12.966-49.098 16.886c-10.723 3.92-36.882 12.944-42.992 18.712-6.109 5.768 2.538 19.082 8.545 30.77 6.007 11.688 35.533 46.189 42.453 51.06 6.92 4.871 18.166 7.058 27.83 6.144 9.664-.914 43.128-25.619 55.172-34.309 12.044-8.69 40.973-42.17 48.63-50.34 7.657-8.17 7.262 4.723-3.089 17.301-10.351 12.578-29.561 36.287-40.162 47.044-10.601 10.757-26.72 22.241-37.725 30.035-11.005 7.795-30.832 19.098-49.493 26.711-17.695 7.219-40.233-.307-53.595-1.386-13.363-1.079-33.045-4.096-43.725-18.46-10.68-14.363-22.087-33.827-26.105-42.135-7.279-15.05-9.222-21.471-16.322-29.357-7.1-7.886-2.9 11.477-.412 18.287 2.488 6.81 4.961 34.262 12.466 47.475 7.505 13.213 31.869 32.447 21.87 30.656-9.999-1.791-44.212-15.106-44.212-15.106l-7.716-9.82-21.38-77.94s-8.541 4.34-12.724 8.824c-4.182 4.484-9.938 15.453-11.376 23.908-1.439 8.456 2.572 22.037 2.572 22.037s-7.61-2.926-11.156-6.007c-3.546-3.081-14.589-27.019-16.305-35.184-1.716-8.166-3.143-17.541-1.716-20.596 1.427-3.055 5.684-6.415 8.582-6.865l38.617-6.007 1.708-9.966s3.012-14.901 2.582-19.212c-.294-2.949-2.574-6.175-3.433-10.298-.858-4.123 1.413-10.975 1.716-18.88.303-7.905-13.939-42.479-16.305-49.773-2.366-7.294-2.726-22.158 3.029-35.647 3.709-8.693 11.608-29.876 11.559-34.722-.049-4.845-4.846-11.187-6.883-17.795-2.037-6.608-.518-39.367-2.475-43.546-1.956-4.179-4.565-10.669-4.372-15.035.193-4.367 4.91-8.972 5.768-15.697.858-6.725-6.503-43.631-9.201-52.876-2.698-9.245-8.422-20.5-10.194-23.905-1.772-3.406-.736-10.64 3.758-10.93-1.269 7.336 4.042 6.409 7.813 7.257 3.772.848 10.637 1.754 10.637 1.754l6.865 9.44 12.014 6.865 46.34 10.298 34.326 4.291H275.05l57.497-6.865 48.915-12.872 2.54-1.588 5.612-3.51s3.949-3.08 5.578-3.484c1.629-.405 3.595.498 5.69-.326 2.095-.824 2.705-3.278 4.227-3.494 3.146-.451 4.348 1.65 2.639 4.716Z" fill="#ED9D67"/><path d="m395.191 81.355-11.19 6.994-2.54 1.588-48.915 12.872-57.497 6.865H143.752l-34.326-4.291-46.34-10.298-12.014-6.865-2.429-3.347-13.464-5.944s14.627-6.292 23.727-7.726c9.101-1.434 14.891-2.21 20.267-3.995 5.376-1.787 27.678-1.301 27.678-1.301s216.221-12.408 224.158-10.59c7.937 1.82 16.736 8.56 25.958 10.542 9.222 1.98 15.906-.445 21.92 1.765 6.014 2.21 16.304 13.73 16.304 13.73Z" fill="#A35E35"/><path d="m380.568 89.207-2.54 1.588-48.915 12.872-57.496 6.866H140.319l-34.326-4.291-46.341-10.298-12.014-6.865-2.428-3.347 23.453-10.813 54.922-25.745 43.766-24.028 58.355-12.014 48.915 24.886 47.198 27.46 31.752 12.016 26.997 11.713Z" fill="#F09765"/><path d="m322.677 73.369-1.789 1.118-34.449 9.065-40.492 4.835h-92.469l-24.174-3.022-32.636-7.252-8.461-4.835-1.711-2.357 16.167-9.06 35.706-20.01 32.636-15.713 47.141-7.857 35.657 13.296 28.442 20.548.254.115 25.093 11.368 15.085 9.76Z" fill="#F0A46A"/><path d="m271.431 43.48-.883.553-16.996 4.472-19.978 2.386h-45.621L176.026 49.4l-16.101-3.578-4.175-2.386-.844-1.163 7.976-4.47 17.617-9.872 16.101-7.752 23.258-3.877 17.592 6.56L251.483 33l.125.057 12.38 5.609 7.443 4.815Z" fill="#FFB57D"/><path d="M353.246 86.185c-1.314 7.587-4.616 13.35-7.375 12.873-2.759-.478-3.93-7.016-2.616-14.603s4.616-13.35 7.375-12.872c2.759.477 3.93 7.015 2.616 14.602Z" fill="#FFBAA1"/><path d="M352.859 74.004c.166 2.299.026 5.019-.471 7.89-1.314 7.587-4.616 13.35-7.375 12.873-.942-.163-1.693-1.045-2.229-2.422.273 3.776 1.373 6.415 3.087 6.712 2.759.478 6.061-5.285 7.375-12.873.865-4.996.647-9.525-.387-12.18Z" fill="#FFB48F"/><path d="M278.586 42.419c-1.314 7.587-4.616 13.35-7.375 12.872-2.759-.478-3.93-7.016-2.616-14.603s4.616-13.35 7.375-12.872c2.759.478 3.93 7.016 2.616 14.603Z" fill="#FFBAA1"/><path d="M278.199 30.238c.166 2.299.026 5.019-.471 7.89-1.314 7.587-4.616 13.35-7.375 12.873-.942-.163-1.693-1.046-2.229-2.422.273 3.776 1.373 6.416 3.087 6.713 2.759.478 6.061-5.286 7.375-12.873.866-4.997.648-9.526-.387-12.181Z" fill="#FFB48F"/><path d="M331.792 95.625c-1.314 7.587-4.616 13.35-7.375 12.873-2.759-.478-3.93-7.016-2.616-14.603s4.616-13.35 7.375-12.872c2.759.477 3.93 7.015 2.616 14.602Z" fill="#FFBAA1"/><path d="M331.405 83.444c.166 2.299.026 5.019-.471 7.89-1.314 7.587-4.616 13.35-7.375 12.873-.942-.163-1.693-1.045-2.229-2.422.273 3.776 1.373 6.415 3.088 6.712 2.759.478 6.061-5.285 7.375-12.873.864-4.996.646-9.525-.388-12.18Z" fill="#FFB48F"/><path d="M240.827 99.916c-1.314 7.587-4.616 13.35-7.375 12.873-2.759-.478-3.93-7.016-2.616-14.603s4.616-13.35 7.375-12.873c2.759.478 3.931 7.016 2.616 14.603Z" fill="#FFBAA1"/><path d="M240.441 87.734c.166 2.299.026 5.019-.471 7.89-1.314 7.587-4.616 13.35-7.375 12.873-.942-.163-1.693-1.045-2.229-2.422.273 3.776 1.373 6.415 3.088 6.712 2.759.478 6.061-5.285 7.375-12.873.864-4.995.646-9.524-.388-12.18Z" fill="#FFB48F"/><path d="M267.43 91.334c-1.314 7.587-4.616 13.35-7.375 12.873-2.759-.478-3.93-7.016-2.616-14.603s4.616-13.35 7.375-12.873c2.759.478 3.93 7.016 2.616 14.603Z" fill="#FFBAA1"/><path d="M267.043 79.153c.166 2.299.026 5.019-.471 7.89-1.314 7.587-4.616 13.35-7.375 12.873-.942-.163-1.693-1.045-2.229-2.422.273 3.775 1.373 6.415 3.088 6.712 2.759.478 6.061-5.286 7.375-12.873.865-4.996.647-9.525-.388-12.18Z" fill="#FFB48F"/><path d="M223.664 93.05c-1.314 7.587-4.616 13.35-7.375 12.873-2.759-.478-3.93-7.016-2.616-14.603s4.616-13.35 7.375-12.873c2.759.478 3.93 7.016 2.616 14.603Z" fill="#FFBAA1"/><path d="M223.277 80.869c.166 2.299.026 5.019-.471 7.89-1.314 7.587-4.616 13.35-7.375 12.873-.942-.163-1.693-1.045-2.229-2.422.273 3.775 1.373 6.415 3.088 6.712 2.759.478 6.061-5.285 7.375-12.873.865-4.996.647-9.525-.388-12.18Z" fill="#FFB48F"/><path d="M188.48 46.71c-1.314 7.587-4.616 13.35-7.375 12.873-2.759-.478-3.93-7.016-2.616-14.603s4.616-13.35 7.375-12.872c2.759.477 3.93 7.015 2.616 14.602Z" fill="#FFBAA1"/><path d="M188.093 34.529c.166 2.299.026 5.019-.471 7.89-1.314 7.587-4.616 13.35-7.375 12.873-.942-.163-1.693-1.045-2.229-2.422.273 3.776 1.373 6.416 3.088 6.713 2.759.478 6.061-5.285 7.375-12.873.864-4.997.646-9.526-.388-12.181Z" fill="#FFB48F"/><path d="M207.359 51.858c-1.314 7.588-4.616 13.35-7.375 12.874-2.759-.478-3.93-7.017-2.616-14.603 1.314-7.587 4.616-13.35 7.375-12.872 2.759.478 3.93 7.015 2.616 14.602Z" fill="#FFBAA1"/><path d="M206.973 39.678c.166 2.299.026 5.019-.471 7.89-1.314 7.587-4.616 13.35-7.375 12.873-.942-.163-1.693-1.046-2.229-2.422.273 3.776 1.373 6.416 3.087 6.713 2.759.478 6.061-5.286 7.375-12.873.865-4.997.647-9.526-.387-12.181Z" fill="#FFB48F"/><path d="M154.154 36.412c-1.314 7.587-4.616 13.35-7.375 12.873-2.759-.478-3.93-7.016-2.616-14.603s4.616-13.35 7.375-12.873c2.758.478 3.93 7.016 2.616 14.603Z" fill="#FFBAA1"/><path d="M153.767 24.23c.166 2.3.026 5.02-.471 7.89-1.314 7.588-4.616 13.35-7.375 12.874-.942-.163-1.693-1.046-2.229-2.422.273 3.776 1.373 6.416 3.087 6.713 2.759.478 6.061-5.286 7.375-12.873.865-4.997.647-9.526-.387-12.181Z" fill="#FFB48F"/><path d="M364.402 83.61c-1.314 7.588-4.616 13.35-7.375 12.874-2.759-.478-3.93-7.016-2.616-14.603s4.616-13.35 7.375-12.873c2.759.478 3.93 7.016 2.616 14.603Z" fill="#FFBAA1"/><path d="M364.015 71.429c.166 2.299.026 5.019-.471 7.89-1.314 7.587-4.616 13.35-7.375 12.873-.942-.163-1.693-1.045-2.229-2.422.273 3.775 1.373 6.415 3.087 6.712 2.759.478 6.061-5.285 7.375-12.873.865-4.995.647-9.524-.387-12.18Z" fill="#FFB48F"/><path d="M316.345 88.76c-1.314 7.587-4.616 13.35-7.375 12.872-2.759-.478-3.93-7.016-2.616-14.603s4.616-13.35 7.375-12.872c2.759.478 3.93 7.016 2.616 14.603Z" fill="#FFBAA1"/><path d="M315.958 76.578c.166 2.299.026 5.019-.471 7.89-1.314 7.587-4.616 13.35-7.375 12.873-.942-.163-1.693-1.045-2.229-2.422.273 3.776 1.373 6.415 3.087 6.712 2.759.478 6.061-5.285 7.375-12.873.866-4.995.647-9.524-.387-12.18Z" fill="#FFB48F"/><path d="M323.21 64.73c-1.314 7.588-4.616 13.35-7.375 12.873-2.759-.478-3.93-7.016-2.616-14.603s4.616-13.35 7.375-12.872c2.759.478 3.93 7.016 2.616 14.603Z" fill="#FFBAA1"/><path d="M322.823 52.55c.166 2.299.026 5.019-.471 7.89-1.314 7.587-4.616 13.35-7.375 12.873-.942-.163-1.693-1.045-2.229-2.422.273 3.776 1.373 6.416 3.088 6.713 2.759.478 6.061-5.286 7.375-12.873.865-4.997.647-9.526-.388-12.181Z" fill="#FFB48F"/><path d="M306.047 48.426c-1.314 7.587-4.616 13.35-7.375 12.872-2.759-.478-3.93-7.016-2.616-14.603s4.616-13.35 7.375-12.872c2.759.478 3.93 7.016 2.616 14.603Z" fill="#FFBAA1"/><path d="M305.66 36.245c.166 2.299.026 5.019-.471 7.89-1.314 7.587-4.616 13.35-7.375 12.873-.942-.163-1.693-1.045-2.229-2.422.273 3.776 1.373 6.416 3.087 6.713 2.759.478 6.061-5.286 7.375-12.873.866-4.997.648-9.526-.387-12.181Z" fill="#FFB48F"/><path d="M78.636 85.327c-1.314 7.587-4.616 13.35-7.375 12.873-2.759-.478-3.93-7.016-2.616-14.603s4.616-13.35 7.375-12.873c2.759.478 3.93 7.016 2.616 14.603Z" fill="#FFBAA1"/><path d="M78.249 73.146c.166 2.299.026 5.019-.471 7.89-1.314 7.587-4.616 13.35-7.375 12.873-.942-.163-1.693-1.045-2.229-2.422.273 3.775 1.373 6.415 3.087 6.712 2.759.478 6.061-5.285 7.375-12.873.865-4.996.647-9.525-.387-12.18Z" fill="#FFB48F"/><path d="M142.139 46.71c-1.314 7.587-4.616 13.35-7.375 12.873-2.759-.478-3.93-7.016-2.616-14.603s4.616-13.35 7.375-12.872c2.759.477 3.93 7.015 2.616 14.602Z" fill="#FFBAA1"/><path d="M141.753 34.529c.166 2.299.026 5.019-.471 7.89-1.314 7.587-4.616 13.35-7.375 12.873-.942-.163-1.693-1.045-2.229-2.422.273 3.776 1.373 6.416 3.087 6.713 2.759.478 6.061-5.285 7.375-12.873.865-4.997.647-9.526-.387-12.181Z" fill="#FFB48F"/><path d="M263.139 26.972c-1.314 7.587-4.616 13.35-7.375 12.872-2.759-.478-3.93-7.016-2.616-14.603s4.616-13.35 7.375-12.873c2.759.479 3.931 7.017 2.616 14.604Z" fill="#FFBAA1"/><path d="M262.753 14.79c.166 2.3.026 5.02-.471 7.89-1.314 7.588-4.616 13.35-7.375 12.874-.942-.163-1.693-1.046-2.229-2.422.273 3.776 1.373 6.416 3.088 6.713 2.759.478 6.061-5.286 7.375-12.873.864-4.996.646-9.526-.388-12.181Z" fill="#FFB48F"/><path d="M290.6 51.858c-1.314 7.588-4.616 13.35-7.375 12.874-2.759-.478-3.93-7.017-2.616-14.603 1.314-7.587 4.616-13.35 7.375-12.872 2.759.477 3.93 7.015 2.616 14.602Z" fill="#FFBAA1"/><path d="M290.214 39.678c.166 2.299.026 5.019-.471 7.89-1.314 7.587-4.616 13.35-7.375 12.873-.942-.163-1.693-1.046-2.229-2.422.273 3.776 1.373 6.416 3.087 6.713 2.759.478 6.061-5.286 7.375-12.873.865-4.997.647-9.526-.387-12.181Z" fill="#FFB48F"/><path d="M137.849 76.745c-1.314 7.587-4.616 13.35-7.375 12.873-2.759-.478-3.93-7.016-2.616-14.603 1.314-7.588 4.616-13.35 7.375-12.872 2.758.478 3.93 7.015 2.616 14.602Z" fill="#FFBAA1"/><path d="M137.462 64.564c.166 2.299.026 5.019-.471 7.89-1.314 7.587-4.616 13.35-7.375 12.873-.942-.163-1.693-1.045-2.229-2.422.273 3.775 1.373 6.415 3.088 6.712 2.759.478 6.061-5.285 7.375-12.873.864-4.995.646-9.525-.388-12.18Z" fill="#FFB48F"/><path d="M264.856 60.44c-1.314 7.587-4.616 13.35-7.375 12.873-2.759-.478-3.93-7.016-2.616-14.603s4.616-13.35 7.375-12.873c2.759.477 3.93 7.017 2.616 14.603Z" fill="#FFBAA1"/><path d="M264.469 48.259c.166 2.299.026 5.019-.471 7.89-1.314 7.587-4.616 13.35-7.375 12.873-.942-.163-1.693-1.045-2.229-2.422.273 3.775 1.373 6.415 3.088 6.712 2.759.478 6.061-5.285 7.375-12.873.864-4.995.646-9.525-.388-12.18Z" fill="#FFB48F"/><path d="M315.487 68.164c-1.314 7.587-4.616 13.35-7.375 12.873-2.759-.478-3.93-7.016-2.616-14.603s4.616-13.35 7.375-12.872c2.759.477 3.93 7.015 2.616 14.602Z" fill="#FFBAA1"/><path d="M315.1 55.983c.166 2.299.026 5.019-.471 7.89-1.314 7.587-4.616 13.35-7.375 12.873-.942-.163-1.693-1.045-2.229-2.422.273 3.775 1.373 6.415 3.087 6.712 2.759.478 6.061-5.285 7.375-12.873.865-4.996.647-9.525-.387-12.18Z" fill="#FFB48F"/><path d="M334.366 72.455c-1.314 7.587-4.616 13.35-7.375 12.873-2.759-.478-3.93-7.016-2.616-14.603s4.616-13.35 7.375-12.872c2.759.477 3.931 7.015 2.616 14.602Z" fill="#FFBAA1"/><path d="M333.98 60.273c.166 2.299.026 5.019-.471 7.89-1.314 7.587-4.616 13.35-7.375 12.873-.942-.163-1.693-1.045-2.229-2.422.273 3.776 1.373 6.416 3.087 6.713 2.759.478 6.061-5.286 7.375-12.873.865-4.996.647-9.525-.387-12.181Z" fill="#FFB48F"/><path d="M221.948 60.44c-1.314 7.587-4.616 13.35-7.375 12.873-2.759-.478-3.93-7.016-2.616-14.603s4.616-13.35 7.375-12.873c2.759.477 3.93 7.017 2.616 14.603Z" fill="#FFBAA1"/><path d="M221.561 48.259c.166 2.299.026 5.019-.471 7.89-1.314 7.587-4.616 13.35-7.375 12.873-.942-.163-1.693-1.045-2.229-2.422.273 3.775 1.373 6.415 3.087 6.712 2.759.478 6.061-5.285 7.375-12.873.865-4.995.647-9.525-.387-12.18Z" fill="#FFB48F"/><path d="M298.324 74.17c-1.314 7.588-4.616 13.35-7.375 12.873-2.759-.478-3.93-7.016-2.616-14.603s4.616-13.35 7.375-12.873c2.759.479 3.93 7.017 2.616 14.604Z" fill="#FFBAA1"/><path d="M297.937 61.99c.166 2.299.026 5.019-.471 7.89-1.314 7.587-4.616 13.35-7.375 12.873-.942-.163-1.693-1.045-2.229-2.422.273 3.775 1.373 6.415 3.087 6.712 2.759.478 6.061-5.286 7.375-12.873.865-4.996.647-9.525-.387-12.18Z" fill="#FFB48F"/><path d="M282.019 76.745c-1.314 7.587-4.616 13.35-7.375 12.873-2.759-.478-3.93-7.016-2.616-14.603 1.314-7.588 4.616-13.35 7.375-12.872 2.759.478 3.93 7.015 2.616 14.602Z" fill="#FFBAA1"/><path d="M281.632 64.564c.166 2.299.026 5.019-.471 7.89-1.314 7.587-4.616 13.35-7.375 12.873-.942-.163-1.693-1.045-2.229-2.422.273 3.775 1.373 6.415 3.088 6.712 2.759.478 6.061-5.285 7.375-12.873.864-4.995.646-9.525-.388-12.18Z" fill="#FFB48F"/><path d="M224.522 38.987c-1.314 7.587-4.616 13.35-7.375 12.871-2.759-.477-3.93-7.015-2.616-14.602 1.314-7.587 4.616-13.35 7.375-12.872 2.759.478 3.93 7.015 2.616 14.603Z" fill="#FFBAA1"/><path d="M224.136 26.805c.166 2.299.026 5.019-.471 7.89-1.314 7.587-4.616 13.35-7.375 12.873-.942-.163-1.693-1.045-2.229-2.422.273 3.776 1.373 6.416 3.088 6.713 2.759.478 6.061-5.286 7.375-12.873.864-4.996.646-9.526-.388-12.181Z" fill="#FFB48F"/><path d="M158.444 80.178c-1.314 7.587-4.616 13.35-7.375 12.873-2.759-.478-3.93-7.016-2.616-14.603s4.616-13.35 7.375-12.872c2.759.477 3.93 7.015 2.616 14.602Z" fill="#FFBAA1"/><path d="M158.058 67.997c.166 2.299.026 5.019-.471 7.89-1.314 7.587-4.616 13.35-7.375 12.873-.942-.163-1.693-1.045-2.229-2.422.273 3.776 1.373 6.416 3.087 6.713 2.759.478 6.061-5.286 7.375-12.873.865-4.997.647-9.526-.387-12.181Z" fill="#FFB48F"/><path d="M288.884 100.774c-1.314 7.587-4.616 13.35-7.375 12.873-2.759-.478-3.93-7.016-2.616-14.603s4.616-13.35 7.375-12.873c2.759.478 3.93 7.016 2.616 14.603Z" fill="#FFBAA1"/><path d="M288.497 88.593c.166 2.299.026 5.019-.471 7.89-1.314 7.587-4.616 13.35-7.375 12.873-.942-.163-1.693-1.045-2.229-2.422.273 3.775 1.373 6.416 3.087 6.712 2.759.478 6.061-5.285 7.375-12.873.866-4.996.647-9.525-.387-12.18Z" fill="#FFB48F"/><path d="M258.016 32.518c7.416-2.072 14.039-1.565 14.792 1.132.753 2.697-4.648 6.563-12.064 8.634-7.416 2.07-14.039 1.565-14.792-1.132-.754-2.697 4.647-6.563 12.064-8.634Z" fill="#FFBAA1"/><path d="M262.46 38.85c-7.416 2.073-14.039 1.566-14.792-1.131-.008-.03-.006-.062-.012-.092-1.341 1.235-1.999 2.469-1.704 3.524.753 2.697 7.376 3.203 14.792 1.132 7.334-2.05 12.687-5.85 12.076-8.543-2.087 1.923-5.845 3.85-10.36 5.11Z" fill="#FFADA6"/><path d="M121.569 57.404c7.416-2.072 14.039-1.565 14.792 1.132.753 2.697-4.648 6.563-12.064 8.634-7.416 2.072-14.039 1.565-14.792-1.132-.754-2.696 4.648-6.562 12.064-8.634Z" fill="#FFBAA1"/><path d="M126.013 63.737c-7.416 2.072-14.039 1.565-14.792-1.132-.008-.03-.006-.062-.012-.092-1.341 1.236-1.999 2.469-1.704 3.524.753 2.697 7.376 3.203 14.792 1.132 7.334-2.05 12.687-5.85 12.076-8.543-2.087 1.924-5.845 3.85-10.36 5.11Z" fill="#FFADA6"/><path d="M187.647 16.213c7.416-2.072 14.039-1.565 14.792 1.132.753 2.697-4.648 6.562-12.064 8.634s-14.039 1.565-14.792-1.132c-.754-2.697 4.648-6.563 12.064-8.634Z" fill="#FFBAA1"/><path d="M192.091 22.546c-7.416 2.072-14.039 1.565-14.792-1.132-.008-.03-.006-.062-.012-.092-1.341 1.236-1.999 2.469-1.704 3.524.753 2.697 7.376 3.204 14.792 1.132 7.334-2.05 12.687-5.851 12.076-8.543-2.087 1.923-5.845 3.85-10.36 5.11Z" fill="#FFADA6"/><path d="M288.051 84.007c7.416-2.072 14.039-1.565 14.792 1.13.753 2.698-4.648 6.564-12.064 8.635-7.416 2.072-14.039 1.565-14.792-1.132-.753-2.695 4.648-6.561 12.064-8.633Z" fill="#FFBAA1"/><path d="M292.496 90.34c-7.416 2.072-14.039 1.565-14.792-1.132-.008-.03-.006-.062-.012-.092-1.341 1.236-1.999 2.469-1.704 3.524.753 2.697 7.376 3.203 14.792 1.132 7.334-2.05 12.687-5.85 12.076-8.543-2.088 1.924-5.846 3.85-10.36 5.11Z" fill="#FFADA6"/><path d="M96.682 96.879c7.416-2.072 14.039-1.565 14.792 1.13.753 2.698-4.648 6.564-12.064 8.635-7.416 2.072-14.039 1.565-14.792-1.132-.753-2.695 4.648-6.561 12.064-8.633Z" fill="#FFBAA1"/><path d="M101.127 103.212c-7.416 2.072-14.039 1.565-14.792-1.132-.008-.03-.006-.062-.012-.092-1.34 1.236-1.999 2.469-1.704 3.524.753 2.697 7.376 3.203 14.792 1.132 7.334-2.049 12.687-5.85 12.076-8.542-2.088 1.923-5.845 3.849-10.36 5.11Z" fill="#FFADA6"/><path d="M137.874 101.17c7.416-2.072 14.039-1.565 14.792 1.131.753 2.697-4.648 6.563-12.064 8.634-7.416 2.072-14.039 1.565-14.792-1.132-.754-2.695 4.648-6.561 12.064-8.633Z" fill="#FFBAA1"/><path d="M142.318 107.503c-7.416 2.072-14.039 1.565-14.792-1.132-.008-.03-.006-.062-.012-.092-1.341 1.236-1.999 2.469-1.704 3.524.753 2.697 7.376 3.204 14.792 1.132 7.334-2.049 12.687-5.85 12.076-8.542-2.087 1.923-5.845 3.849-10.36 5.11Z" fill="#FFADA6"/><path d="M206.526 105.461c7.416-2.072 14.039-1.565 14.792 1.132.753 2.697-4.648 6.563-12.064 8.634-7.416 2.072-14.039 1.565-14.792-1.131-.753-2.698 4.648-6.563 12.064-8.635Z" fill="#FFBAA1"/><path d="M210.971 111.794c-7.416 2.072-14.039 1.565-14.792-1.132-.008-.03-.006-.062-.012-.092-1.341 1.235-1.999 2.469-1.704 3.524.753 2.697 7.376 3.203 14.792 1.131 7.334-2.049 12.687-5.85 12.076-8.542-2.088 1.923-5.845 3.85-10.36 5.111Z" fill="#FFADA6"/><path d="M125.859 85.723c7.416-2.072 14.039-1.565 14.792 1.13.754 2.698-4.648 6.564-12.064 8.635-7.416 2.07-14.039 1.565-14.792-1.132-.753-2.695 4.648-6.561 12.064-8.633Z" fill="#FFBAA1"/><path d="M130.304 92.056c-7.416 2.072-14.039 1.565-14.792-1.132-.008-.03-.006-.062-.012-.092-1.341 1.236-1.999 2.469-1.704 3.524.753 2.697 7.376 3.203 14.792 1.132 7.334-2.05 12.687-5.85 12.076-8.543-2.087 1.924-5.845 3.85-10.36 5.11Z" fill="#FFADA6"/><path d="M193.654 80.574c7.416-2.072 14.039-1.565 14.792 1.132.753 2.697-4.648 6.563-12.064 8.634-7.416 2.072-14.039 1.565-14.792-1.132-.753-2.696 4.648-6.562 12.064-8.634Z" fill="#FFBAA1"/><path d="M198.099 86.907c-7.416 2.072-14.039 1.565-14.792-1.132-.008-.03-.006-.062-.012-.092-1.341 1.236-1.999 2.469-1.704 3.524.753 2.697 7.376 3.204 14.792 1.132 7.334-2.05 12.687-5.85 12.076-8.542-2.088 1.923-5.846 3.849-10.36 5.11Z" fill="#FFADA6"/><path d="M116.656 96.727c7.648.894 13.584 3.873 13.26 6.654-.325 2.781-6.789 4.311-14.436 3.417-7.648-.894-13.585-3.873-13.26-6.654.325-2.781 6.788-4.311 14.436-3.417Z" fill="#FFBAA1"/><path d="M118.369 104.272c-7.648-.894-13.585-3.873-13.26-6.654.004-.031.018-.06.023-.09-1.71.635-2.785 1.528-2.913 2.615-.325 2.781 5.612 5.76 13.26 6.654 7.563.884 13.958-.605 14.413-3.328-2.66.989-6.868 1.347-11.523.803Z" fill="#FFADA6"/><path d="M103.547 74.567c7.416-2.072 14.039-1.565 14.792 1.132.753 2.697-4.648 6.563-12.064 8.634-7.416 2.072-14.039 1.565-14.792-1.132-.753-2.696 4.648-6.562 12.064-8.634Z" fill="#FFBAA1"/><path d="M107.992 80.9c-7.416 2.072-14.039 1.565-14.792-1.132-.008-.03-.006-.062-.012-.092-1.341 1.236-1.998 2.469-1.704 3.524.753 2.697 7.376 3.203 14.792 1.132 7.334-2.05 12.687-5.85 12.076-8.543-2.087 1.924-5.845 3.85-10.36 5.11Z" fill="#FFADA6"/><path d="M215.966 21.362c7.416-2.072 14.039-1.565 14.792 1.132.753 2.697-4.648 6.563-12.064 8.634-7.416 2.072-14.039 1.565-14.792-1.132-.753-2.697 4.648-6.563 12.064-8.634Z" fill="#FFBAA1"/><path d="M220.411 27.695c-7.416 2.072-14.039 1.565-14.792-1.131-.008-.03-.006-.062-.012-.092-1.341 1.235-1.999 2.469-1.704 3.524.753 2.697 7.376 3.203 14.792 1.132 7.334-2.05 12.687-5.85 12.076-8.543-2.088 1.922-5.846 3.849-10.36 5.11Z" fill="#FFADA6"/><path d="M236.562 12.78c7.416-2.072 14.039-1.565 14.792 1.132.753 2.697-4.648 6.563-12.064 8.634-7.416 2.072-14.039 1.565-14.792-1.132-.754-2.696 4.648-6.562 12.064-8.634Z" fill="#FFBAA1"/><path d="M241.006 19.113c-7.416 2.072-14.039 1.565-14.792-1.132-.008-.03-.006-.062-.012-.092-1.341 1.235-1.999 2.469-1.704 3.524.753 2.697 7.376 3.203 14.792 1.132 7.334-2.05 12.687-5.85 12.076-8.543-2.087 1.924-5.845 3.85-10.36 5.11Z" fill="#FFADA6"/><path d="M114.703 43.674c7.416-2.072 14.039-1.565 14.792 1.132.753 2.697-4.648 6.563-12.064 8.634-7.416 2.072-14.039 1.565-14.792-1.132-.753-2.697 4.648-6.562 12.064-8.634Z" fill="#FFBAA1"/><path d="M119.148 50.007c-7.416 2.072-14.039 1.565-14.792-1.132-.008-.03-.006-.062-.012-.092-1.341 1.235-1.999 2.469-1.704 3.524.753 2.697 7.376 3.203 14.792 1.132 7.334-2.05 12.687-5.85 12.076-8.543-2.087 1.923-5.845 3.85-10.36 5.11Z" fill="#FFADA6"/><path d="M53.774 81.432c7.416-2.072 14.039-1.565 14.792 1.132.753 2.697-4.648 6.563-12.064 8.634-7.416 2.072-14.039 1.565-14.792-1.132-.753-2.696 4.648-6.562 12.064-8.634Z" fill="#FFBAA1"/><path d="M58.219 87.766c-7.416 2.072-14.039 1.565-14.792-1.132-.008-.03-.006-.062-.012-.092-1.341 1.236-1.999 2.469-1.704 3.524.753 2.697 7.376 3.203 14.792 1.132 7.334-2.05 12.687-5.85 12.076-8.542-2.087 1.922-5.845 3.848-10.36 5.11Z" fill="#FFADA6"/><path d="M66.647 74.567c7.416-2.072 14.039-1.565 14.792 1.132.753 2.697-4.648 6.563-12.064 8.634-7.416 2.072-14.039 1.565-14.792-1.132-.753-2.696 4.648-6.562 12.064-8.634Z" fill="#FFBAA1"/><path d="M71.091 80.9c-7.416 2.072-14.039 1.565-14.792-1.132-.008-.03-.006-.062-.012-.092-1.341 1.236-1.999 2.469-1.704 3.524.753 2.697 7.376 3.203 14.792 1.132 7.334-2.05 12.687-5.85 12.076-8.543-2.087 1.924-5.845 3.85-10.36 5.11Z" fill="#FFADA6"/><path d="M293.2 49.68c7.416-2.071 14.039-1.564 14.792 1.133.754 2.697-4.648 6.563-12.064 8.634-7.416 2.07-14.039 1.565-14.792-1.132-.753-2.697 4.648-6.563 12.064-8.634Z" fill="#FFBAA1"/><path d="M297.645 56.014c-7.416 2.072-14.039 1.565-14.792-1.132-.008-.03-.006-.062-.012-.092-1.341 1.235-1.999 2.469-1.704 3.524.753 2.697 7.376 3.203 14.792 1.132 7.334-2.05 12.687-5.85 12.076-8.543-2.088 1.923-5.846 3.85-10.36 5.11Z" fill="#FFADA6"/><path d="M301.781 98.596c7.416-2.072 14.039-1.565 14.792 1.13.753 2.698-4.648 6.564-12.064 8.635-7.416 2.072-14.039 1.565-14.792-1.131-.753-2.697 4.649-6.563 12.064-8.634Z" fill="#FFBAA1"/><path d="M306.226 104.929c-7.416 2.072-14.039 1.565-14.792-1.132-.008-.03-.006-.062-.012-.092-1.341 1.236-1.999 2.469-1.704 3.525.753 2.697 7.376 3.203 14.792 1.131 7.334-2.049 12.687-5.85 12.076-8.542-2.087 1.922-5.845 3.848-10.36 5.11Z" fill="#FFADA6"/><path d="M171.342 102.028c7.416-2.072 14.039-1.565 14.792 1.132.753 2.697-4.648 6.563-12.064 8.634-7.416 2.072-14.039 1.565-14.792-1.132-.753-2.696 4.648-6.562 12.064-8.634Z" fill="#FFBAA1"/><path d="M175.786 108.361c-7.416 2.072-14.039 1.565-14.792-1.131-.008-.03-.006-.062-.012-.092-1.341 1.235-1.999 2.469-1.704 3.524.753 2.697 7.376 3.204 14.792 1.132 7.334-2.049 12.687-5.85 12.076-8.542-2.087 1.922-5.845 3.848-10.36 5.109Z" fill="#FFADA6"/><path d="M266.597 96.02c7.416-2.071 14.039-1.564 14.792 1.133.754 2.697-4.648 6.563-12.064 8.635s-14.039 1.565-14.792-1.132c-.753-2.697 4.648-6.563 12.064-8.635Z" fill="#FFBAA1"/><path d="M271.042 102.354c-7.416 2.072-14.039 1.565-14.792-1.132-.008-.03-.006-.062-.012-.092-1.341 1.235-1.999 2.469-1.704 3.524.753 2.697 7.376 3.204 14.792 1.132 7.334-2.049 12.687-5.85 12.076-8.542-2.088 1.923-5.846 3.849-10.36 5.11Z" fill="#FFADA6"/><path d="M168.767 90.872c7.416-2.072 14.039-1.565 14.792 1.13.753 2.698-4.648 6.564-12.064 8.635-7.416 2.072-14.039 1.565-14.792-1.131-.753-2.696 4.648-6.562 12.064-8.634Z" fill="#FFBAA1"/><path d="M173.212 97.205c-7.416 2.072-14.039 1.565-14.792-1.132-.008-.03-.006-.062-.012-.092-1.341 1.236-1.999 2.469-1.704 3.524.753 2.697 7.376 3.203 14.792 1.132 7.334-2.05 12.687-5.85 12.076-8.542-2.087 1.923-5.845 3.849-10.36 5.11Z" fill="#FFADA6"/><path d="M249.434 72.85c7.416-2.071 14.039-1.564 14.792 1.133.754 2.697-4.648 6.563-12.064 8.634-7.416 2.072-14.039 1.565-14.792-1.132-.753-2.696 4.648-6.562 12.064-8.634Z" fill="#FFBAA1"/><path d="M253.879 79.184c-7.416 2.072-14.039 1.565-14.792-1.132-.008-.03-.006-.062-.012-.092-1.341 1.236-1.999 2.469-1.704 3.524.753 2.697 7.376 3.203 14.792 1.132 7.334-2.05 12.687-5.85 12.076-8.542-2.088 1.923-5.846 3.849-10.36 5.11Z" fill="#FFADA6"/><path d="M242.569 52.255c7.416-2.072 14.039-1.565 14.792 1.132.753 2.697-4.648 6.563-12.064 8.634-7.416 2.072-14.039 1.565-14.792-1.132-.754-2.696 4.648-6.562 12.064-8.634Z" fill="#FFBAA1"/><path d="M247.013 58.588c-7.416 2.072-14.039 1.565-14.792-1.132-.008-.03-.006-.062-.012-.092-1.341 1.236-1.999 2.469-1.704 3.524.753 2.697 7.376 3.204 14.792 1.132 7.334-2.05 12.687-5.85 12.076-8.542-2.087 1.923-5.845 3.849-10.36 5.11Z" fill="#FFADA6"/><path d="M155.037 52.255c7.416-2.072 14.039-1.565 14.792 1.132.753 2.697-4.648 6.563-12.064 8.634-7.416 2.072-14.039 1.565-14.792-1.132-.753-2.696 4.648-6.562 12.064-8.634Z" fill="#FFBAA1"/><path d="M159.481 58.588c-7.416 2.072-14.039 1.565-14.792-1.132-.008-.03-.006-.062-.012-.092-1.341 1.236-1.999 2.469-1.704 3.524.753 2.697 7.376 3.204 14.792 1.132 7.334-2.05 12.687-5.85 12.076-8.542-2.087 1.923-5.845 3.849-10.36 5.11Z" fill="#FFADA6"/><path d="M170.484 19.645c7.416-2.072 14.039-1.565 14.792 1.132.753 2.697-4.648 6.562-12.064 8.634s-14.039 1.565-14.792-1.131c-.754-2.697 4.648-6.563 12.064-8.635Z" fill="#FFBAA1"/><path d="M174.928 25.979c-7.416 2.072-14.039 1.565-14.792-1.132-.008-.03-.006-.062-.012-.092-1.341 1.235-1.999 2.469-1.704 3.524.753 2.697 7.376 3.203 14.792 1.13 7.334-2.048 12.687-5.85 12.076-8.541-2.087 1.923-5.845 3.849-10.36 5.11Z" fill="#FFADA6"/><path d="M201.377 70.277c7.416-2.072 14.039-1.565 14.792 1.13.753 2.698-4.648 6.564-12.064 8.635-7.416 2.072-14.039 1.565-14.792-1.132-.753-2.696 4.648-6.562 12.064-8.633Z" fill="#FFBAA1"/><path d="M205.822 76.61c-7.416 2.072-14.039 1.565-14.792-1.132-.008-.03-.005-.062-.012-.092-1.341 1.235-1.999 2.469-1.704 3.524.753 2.697 7.376 3.203 14.792 1.132 7.334-2.05 12.687-5.85 12.076-8.542-2.087 1.922-5.845 3.848-10.36 5.11Z" fill="#FFADA6"/><path d="M328.384 88.298c7.416-2.072 14.039-1.565 14.792 1.132.753 2.697-4.648 6.563-12.064 8.634-7.416 2.072-14.039 1.565-14.792-1.132-.753-2.697 4.648-6.563 12.064-8.634Z" fill="#FFBAA1"/><path d="M332.829 94.63c-7.416 2.073-14.039 1.566-14.792-1.131-.008-.03-.006-.062-.012-.092-1.341 1.235-1.999 2.469-1.704 3.524.753 2.697 7.376 3.204 14.792 1.132 7.334-2.05 12.687-5.85 12.076-8.542-2.087 1.922-5.845 3.849-10.36 5.11Z" fill="#FFADA6"/><path d="M304.713 77.248c7.469 1.873 12.972 5.592 12.291 8.308-.681 2.716-7.288 3.4-14.757 1.527-7.469-1.873-12.972-5.593-12.291-8.308.681-2.716 7.288-3.4 14.757-1.527Z" fill="#FFE0CC"/><path d="M315.28 82.14c-.706 2.7-7.297 3.378-14.75 1.51-4.598-1.153-8.443-3.006-10.567-4.893-.002.006-.006.01-.007.018-.681 2.716 4.822 6.436 12.291 8.308 7.469 1.872 14.076 1.188 14.757-1.527.261-1.045-.397-2.236-1.724-3.416Z" fill="#FFC9C4"/><path d="M287.432 40.64c-3.404 6.907-8.2 11.503-10.712 10.265-2.512-1.238-1.788-7.841 1.617-14.747 3.404-6.906 8.2-11.502 10.712-10.264 2.511 1.238 1.787 7.84-1.617 14.747Z" fill="#FFE0CC"/><path d="M288.29 35.492c-3.404 6.907-8.2 11.502-10.712 10.264-1.024-.505-1.502-1.912-1.487-3.857-1.3 4.506-1.162 8.123.629 9.006 2.511 1.238 7.307-3.357 10.712-10.264 2.016-4.09 3.083-8.064 3.104-10.89a35.2 35.2 0 0 1-2.246 5.74Z" fill="#FFC6A1"/><path d="M169.342 24.163c2.072 7.416 1.565 14.039-1.132 14.792-2.697.753-6.562-4.648-8.634-12.064s-1.565-14.04 1.132-14.792c2.696-.754 6.562 4.648 8.634 12.064Z" fill="#FFE0CC"/><path d="M169.737 25.709c.153 3.91-.672 6.76-2.385 7.238-2.697.753-6.563-4.648-8.634-12.064a39.034 39.034 0 0 1-.395-1.546c.088 2.249.497 4.846 1.253 7.554 2.072 7.416 5.938 12.817 8.634 12.064 2.508-.701 3.118-6.477 1.527-13.246Z" fill="#FFB7A1"/><path d="M95.1 76.864c5.445 5.445 8.254 11.463 6.274 13.444-1.98 1.98-7.999-.83-13.444-6.274-5.445-5.445-8.254-11.463-6.274-13.443 1.981-1.981 8 .828 13.444 6.273Z" fill="#FFE0CC"/><path d="M101.374 86.017c-1.98 1.98-7.999-.83-13.444-6.273-3.119-3.12-5.366-6.422-6.351-9.051-1.806 2.07.989 7.98 6.351 13.34 5.445 5.446 11.464 8.255 13.444 6.275.846-.846.811-2.432.077-4.393-.028.032-.047.072-.077.102Z" fill="#FFC6A1"/><path d="M145.732 84.587c5.445 5.445 8.254 11.463 6.274 13.444-1.98 1.98-7.999-.83-13.444-6.274-5.445-5.445-8.254-11.463-6.274-13.443 1.98-1.98 7.999.829 13.444 6.273Z" fill="#FFE0CC"/><path d="M152.005 93.74c-1.98 1.98-7.999-.83-13.444-6.273-3.119-3.12-5.366-6.422-6.351-9.051-1.806 2.07.989 7.98 6.351 13.34 5.445 5.446 11.464 8.255 13.444 6.275.846-.846.811-2.432.077-4.393-.028.032-.047.072-.077.102Z" fill="#FFC6A1"/><path d="M194.647 27.09c5.445 5.446 8.254 11.465 6.274 13.445-1.98 1.98-7.999-.83-13.444-6.274-5.445-5.445-8.253-11.464-6.274-13.444 1.98-1.98 7.999.829 13.444 6.274Z" fill="#FFE0CC"/><path d="M200.92 36.244c-1.98 1.98-7.999-.83-13.444-6.273-3.118-3.12-5.366-6.423-6.351-9.051-1.806 2.07.989 7.98 6.351 13.34 5.445 5.446 11.464 8.255 13.444 6.275.846-.846.811-2.432.077-4.393-.028.032-.047.07-.077.102Z" fill="#FFC6A1"/><path d="M312.214 49.403c5.445 5.445 8.254 11.464 6.274 13.444-1.98 1.98-7.999-.83-13.443-6.274-5.445-5.445-8.254-11.464-6.274-13.443 1.979-1.981 7.998.828 13.443 6.273Z" fill="#FFE0CC"/><path d="M318.487 58.556c-1.98 1.98-7.999-.83-13.443-6.274-3.119-3.12-5.366-6.422-6.351-9.051-1.806 2.07.989 7.98 6.351 13.342 5.445 5.445 11.464 8.253 13.443 6.273.846-.846.812-2.432.077-4.393-.027.033-.046.072-.077.103Z" fill="#FFC6A1"/><path d="M123.42 94.885c5.445 5.445 8.254 11.464 6.274 13.443-1.98 1.98-7.999-.829-13.443-6.273-5.445-5.445-8.254-11.464-6.274-13.444 1.979-1.98 7.998.829 13.443 6.274Z" fill="#FFE0CC"/><path d="M129.693 104.038c-1.98 1.98-7.999-.829-13.443-6.273-3.119-3.12-5.366-6.422-6.351-9.051-1.806 2.07.989 7.98 6.351 13.342 5.445 5.445 11.464 8.253 13.443 6.273.846-.846.811-2.432.077-4.393-.028.032-.047.072-.077.102Z" fill="#FFC6A1"/><path d="M123.42 48.545c5.445 5.445 8.254 11.463 6.274 13.443-1.98 1.98-7.999-.83-13.443-6.274-5.445-5.445-8.254-11.464-6.274-13.444 1.979-1.98 7.998.83 13.443 6.275Z" fill="#FFE0CC"/><path d="M129.693 57.698c-1.98 1.98-7.999-.83-13.443-6.274-3.119-3.12-5.366-6.422-6.351-9.051-1.806 2.07.989 7.98 6.351 13.34 5.445 5.446 11.464 8.254 13.443 6.275.846-.846.811-2.432.077-4.393-.028.032-.047.072-.077.103Z" fill="#FFC6A1"/><path d="M360.271 75.148c5.445 5.445 8.254 11.463 6.274 13.443-1.98 1.98-7.999-.83-13.444-6.274-5.445-5.445-8.254-11.463-6.274-13.444 1.98-1.98 7.999.83 13.444 6.275Z" fill="#FFE0CC"/><path d="M366.544 84.3c-1.98 1.98-7.999-.83-13.444-6.273-3.119-3.12-5.366-6.422-6.351-9.051-1.806 2.07.989 7.98 6.351 13.34 5.445 5.446 11.464 8.255 13.444 6.275.846-.846.811-2.432.077-4.393-.028.032-.046.072-.077.102Z" fill="#FFC6A1"/><path d="M62.491 81.155c5.445 5.445 8.254 11.464 6.274 13.443-1.98 1.98-7.999-.83-13.443-6.273-5.445-5.445-8.254-11.464-6.274-13.444 1.979-1.98 7.998.829 13.443 6.274Z" fill="#FFE0CC"/><path d="M68.764 90.308c-1.98 1.98-7.999-.83-13.443-6.274-3.119-3.12-5.366-6.422-6.351-9.051-1.806 2.07.989 7.98 6.351 13.342 5.445 5.445 11.464 8.253 13.443 6.273.846-.846.811-2.432.077-4.393-.028.032-.047.072-.077.103Z" fill="#FFC6A1"/><path d="M194.647 87.162c5.445 5.445 8.254 11.464 6.274 13.443-1.98 1.98-7.999-.83-13.444-6.273-5.445-5.445-8.253-11.464-6.274-13.444 1.98-1.98 7.999.829 13.444 6.274Z" fill="#FFE0CC"/><path d="M200.92 96.314c-1.98 1.98-7.999-.83-13.444-6.273-3.118-3.12-5.366-6.422-6.351-9.051-1.806 2.07.989 7.98 6.351 13.342 5.445 5.445 11.464 8.253 13.444 6.273.846-.846.811-2.432.077-4.393-.028.032-.047.072-.077.102Z" fill="#FFC6A1"/><path d="M225.54 20.226c5.445 5.445 8.254 11.464 6.274 13.444-1.98 1.98-7.999-.83-13.444-6.274-5.445-5.445-8.254-11.464-6.274-13.444 1.981-1.98 7.999.829 13.444 6.274Z" fill="#FFE0CC"/><path d="M231.814 29.378c-1.98 1.98-7.999-.83-13.443-6.274-3.119-3.12-5.366-6.422-6.351-9.051-1.806 2.07.989 7.98 6.351 13.34 5.445 5.446 11.464 8.254 13.443 6.275.846-.846.811-2.432.077-4.393-.028.033-.047.073-.077.103Z" fill="#FFC6A1"/><path d="M269.306 76.864c5.445 5.445 8.253 11.463 6.274 13.444-1.98 1.98-7.999-.83-13.444-6.274-5.445-5.445-8.254-11.463-6.274-13.443 1.98-1.981 7.999.828 13.444 6.273Z" fill="#FFE0CC"/><path d="M275.58 86.017c-1.98 1.98-7.999-.83-13.444-6.273-3.119-3.12-5.366-6.422-6.351-9.051-1.806 2.07.989 7.98 6.351 13.34 5.445 5.446 11.464 8.255 13.444 6.275.846-.846.811-2.432.077-4.393-.028.032-.047.072-.077.102Z" fill="#FFC6A1"/><path d="M163.599 77.697c6.286-4.448 12.692-6.201 14.31-3.915 1.617 2.286-2.167 7.744-8.453 12.192s-12.692 6.2-14.31 3.915c-1.618-2.285 2.167-7.744 8.453-12.192Z" fill="#FFE0CC"/><path d="M171.172 81.684c-6.286 4.448-12.692 6.2-14.309 3.915-.223-.316-.334-.697-.359-1.123-1.597 2.259-2.181 4.249-1.357 5.414 1.617 2.286 8.024.533 14.31-3.915 5.417-3.833 8.967-8.413 8.812-11.07-1.539 2.174-4.014 4.597-7.097 6.779Z" fill="#FFB7A1"/><path d="M216.824 73.709c7.416-2.072 14.039-1.565 14.792 1.132.753 2.697-4.648 6.563-12.064 8.634-7.416 2.072-14.039 1.565-14.792-1.131-.753-2.698 4.648-6.563 12.064-8.635Z" fill="#FFE0CC"/><path d="M221.269 80.042c-7.416 2.072-14.039 1.565-14.792-1.132-.008-.03-.006-.062-.012-.092-1.341 1.236-1.999 2.469-1.704 3.524.753 2.697 7.376 3.203 14.792 1.132 7.334-2.05 12.687-5.85 12.076-8.542-2.088 1.923-5.846 3.849-10.36 5.11Z" fill="#FFC9C4"/><path d="M231.388 51.858c-1.314 7.588-4.616 13.35-7.375 12.874-2.759-.478-3.93-7.017-2.616-14.603 1.314-7.587 4.616-13.35 7.375-12.872 2.758.477 3.93 7.015 2.616 14.602Z" fill="#FFE0CC"/><path d="M231.001 39.678c.166 2.299.026 5.019-.471 7.89-1.314 7.587-4.616 13.35-7.375 12.873-.942-.163-1.693-1.046-2.229-2.422.273 3.776 1.373 6.416 3.087 6.713 2.759.478 6.061-5.286 7.375-12.873.865-4.997.647-9.526-.387-12.181Z" fill="#FFC6A1"/><path d="M106.479 52.36c7.469 1.873 12.972 5.593 12.291 8.309-.681 2.716-7.288 3.4-14.757 1.527-7.469-1.873-12.972-5.592-12.291-8.308.681-2.716 7.288-3.4 14.757-1.527Z" fill="#FFE0CC"/><path d="M117.046 57.254c-.706 2.7-7.297 3.378-14.749 1.51-4.598-1.153-8.444-3.006-10.567-4.893-.002.006-.006.01-.007.018-.681 2.716 4.822 6.436 12.291 8.308 7.469 1.873 14.076 1.189 14.756-1.527.261-1.045-.397-2.237-1.724-3.416Z" fill="#FFC9C4"/><path d="M155.394 59.226c7.469 1.873 12.972 5.592 12.291 8.308-.681 2.716-7.288 3.4-14.756 1.527-7.469-1.873-12.972-5.592-12.291-8.308.68-2.716 7.287-3.4 14.756-1.527Z" fill="#FFE0CC"/><path d="M165.961 64.119c-.706 2.7-7.297 3.378-14.75 1.51-4.598-1.153-8.443-3.006-10.567-4.893-.002.006-.005.01-.007.018-.681 2.716 4.822 6.436 12.291 8.308 7.469 1.873 14.076 1.189 14.756-1.527.262-1.045-.397-2.237-1.723-3.416Z" fill="#FFC9C4"/><path d="M156.252 101.276c7.469 1.873 12.972 5.592 12.291 8.308-.681 2.716-7.288 3.4-14.757 1.527-7.469-1.872-12.972-5.592-12.291-8.308.681-2.716 7.288-3.4 14.757-1.527Z" fill="#FFE0CC"/><path d="M166.819 106.169c-.706 2.7-7.297 3.378-14.749 1.51-4.598-1.153-8.444-3.006-10.567-4.893l-.007.018c-.681 2.716 4.822 6.436 12.291 8.308 7.469 1.873 14.076 1.189 14.757-1.527.26-1.045-.398-2.237-1.725-3.416Z" fill="#FFC9C4"/><path d="M184.571 99.56c7.469 1.873 12.972 5.592 12.291 8.308-.681 2.716-7.288 3.4-14.757 1.527-7.469-1.873-12.972-5.592-12.291-8.308.682-2.716 7.288-3.4 14.757-1.527Z" fill="#FFE0CC"/><path d="M195.138 104.453c-.706 2.7-7.297 3.378-14.749 1.51-4.598-1.153-8.444-3.006-10.567-4.893-.002.006-.006.012-.007.018-.681 2.716 4.822 6.436 12.291 8.308 7.469 1.873 14.076 1.189 14.757-1.527.261-1.046-.398-2.238-1.725-3.416Z" fill="#FFC9C4"/><path d="M209.458 63.517c7.469 1.872 12.972 5.592 12.291 8.308-.681 2.716-7.288 3.4-14.757 1.527-7.469-1.872-12.972-5.592-12.291-8.308.681-2.716 7.288-3.4 14.757-1.527Z" fill="#FFE0CC"/><path d="M220.025 68.41c-.706 2.7-7.297 3.378-14.749 1.51-4.598-1.153-8.443-3.006-10.567-4.893-.002.006-.006.01-.007.018-.681 2.716 4.822 6.436 12.291 8.308 7.469 1.873 14.076 1.189 14.757-1.527.26-1.045-.399-2.237-1.725-3.416Z" fill="#FFC9C4"/><path d="M225.763 9.453c7.469 1.873 12.972 5.592 12.291 8.308-.681 2.716-7.288 3.4-14.757 1.527-7.469-1.873-12.972-5.592-12.291-8.308.681-2.716 7.288-3.4 14.757-1.527Z" fill="#FFE0CC"/><path d="M236.33 14.346c-.706 2.7-7.297 3.378-14.749 1.51-4.598-1.153-8.443-3.006-10.567-4.893-.002.006-.006.01-.007.018-.681 2.716 4.822 6.436 12.291 8.308 7.469 1.873 14.076 1.189 14.757-1.527.26-1.045-.399-2.237-1.725-3.416Z" fill="#FFC9C4"/><path d="M256.656 42.92c7.469 1.874 12.972 5.593 12.291 8.309-.681 2.716-7.288 3.4-14.757 1.527-7.469-1.873-12.972-5.592-12.291-8.308.682-2.716 7.288-3.4 14.757-1.527Z" fill="#FFE0CC"/><path d="M267.224 47.814c-.706 2.7-7.297 3.378-14.75 1.51-4.598-1.153-8.443-3.006-10.567-4.893-.002.006-.006.01-.007.018-.681 2.716 4.822 6.436 12.291 8.308 7.469 1.873 14.076 1.189 14.756-1.527.262-1.045-.397-2.237-1.723-3.416Z" fill="#FFC9C4"/><path d="M226.621 99.56c7.469 1.873 12.972 5.592 12.291 8.308-.681 2.716-7.288 3.4-14.757 1.527-7.469-1.873-12.972-5.592-12.291-8.308.681-2.716 7.288-3.4 14.757-1.527Z" fill="#FFE0CC"/><path d="M237.188 104.453c-.706 2.7-7.297 3.378-14.749 1.51-4.598-1.153-8.443-3.006-10.567-4.893l-.007.018c-.681 2.716 4.822 6.436 12.291 8.308 7.469 1.873 14.076 1.189 14.757-1.527.26-1.046-.399-2.238-1.725-3.416Z" fill="#FFC9C4"/><path d="M255.798 103.85c7.469 1.873 12.972 5.592 12.291 8.308-.681 2.716-7.288 3.4-14.757 1.527-7.469-1.873-12.972-5.592-12.291-8.308.682-2.715 7.288-3.399 14.757-1.527Z" fill="#FFE0CC"/><path d="M266.365 108.743c-.706 2.7-7.297 3.378-14.749 1.51-4.598-1.153-8.443-3.006-10.567-4.893-.002.006-.006.011-.007.018-.681 2.716 4.822 6.435 12.291 8.308 7.469 1.873 14.076 1.189 14.757-1.527.261-1.045-.398-2.237-1.725-3.416Z" fill="#FFC9C4"/><path d="M309.862 93.552c7.469 1.873 12.972 5.592 12.291 8.308-.681 2.716-7.288 3.4-14.757 1.527-7.469-1.872-12.972-5.592-12.291-8.308.681-2.715 7.288-3.4 14.757-1.527Z" fill="#FFE0CC"/><path d="M320.429 98.446c-.706 2.7-7.297 3.378-14.749 1.51-4.598-1.153-8.444-3.006-10.567-4.893-.002.006-.006.01-.007.018-.681 2.716 4.822 6.436 12.291 8.308 7.469 1.873 14.076 1.189 14.757-1.527.26-1.046-.399-2.237-1.725-3.416Z" fill="#FFC9C4"/><path d="M300.304 97.279c-3.404 6.906-8.2 11.502-10.712 10.264-2.511-1.238-1.788-7.84 1.617-14.747 3.404-6.906 8.2-11.502 10.712-10.264 2.511 1.238 1.787 7.84-1.617 14.747Z" fill="#FFE0CC"/><path d="M301.162 92.13c-3.404 6.907-8.2 11.502-10.712 10.264-1.024-.505-1.501-1.911-1.487-3.857-1.3 4.505-1.162 8.123.629 9.006 2.511 1.238 7.307-3.358 10.712-10.264 2.016-4.09 3.083-8.063 3.104-10.89a35.11 35.11 0 0 1-2.246 5.74Z" fill="#FFC6A1"/><path d="M209.34 90.414c-3.405 6.906-8.2 11.502-10.712 10.264-2.512-1.238-1.788-7.84 1.617-14.747 3.404-6.907 8.2-11.502 10.712-10.264 2.511 1.238 1.787 7.84-1.617 14.747Z" fill="#FFE0CC"/><path d="M210.198 85.265c-3.404 6.906-8.2 11.502-10.712 10.264-1.024-.505-1.502-1.912-1.487-3.857-1.3 4.506-1.162 8.123.629 9.006 2.511 1.238 7.307-3.357 10.712-10.264 2.016-4.09 3.083-8.063 3.104-10.89a35.2 35.2 0 0 1-2.246 5.74Z" fill="#FFC6A1"/><path d="M235.084 91.272c-3.404 6.907-8.2 11.502-10.712 10.264-2.511-1.238-1.788-7.841 1.617-14.747 3.404-6.906 8.2-11.502 10.712-10.264 2.511 1.238 1.788 7.84-1.617 14.747Z" fill="#FFE0CC"/><path d="M235.942 86.123c-3.404 6.907-8.2 11.502-10.712 10.264-1.024-.505-1.502-1.912-1.487-3.857-1.3 4.506-1.162 8.123.629 9.006 2.512 1.238 7.307-3.357 10.712-10.264 2.016-4.09 3.083-8.063 3.104-10.89a35.083 35.083 0 0 1-2.246 5.74Z" fill="#FFC6A1"/><path d="M232.51 69.818c-3.404 6.906-8.2 11.502-10.712 10.264-2.511-1.238-1.788-7.84 1.617-14.747 3.404-6.906 8.2-11.502 10.712-10.264 2.512 1.238 1.787 7.84-1.617 14.747Z" fill="#FFE0CC"/><path d="M233.368 64.669c-3.404 6.907-8.2 11.502-10.712 10.264-1.024-.505-1.502-1.912-1.487-3.857-1.3 4.506-1.162 8.123.629 9.006 2.511 1.238 7.307-3.357 10.712-10.264 2.016-4.09 3.083-8.063 3.104-10.89a35.2 35.2 0 0 1-2.246 5.74Z" fill="#FFC6A1"/><path d="M80.616 73.25c-3.404 6.907-8.2 11.503-10.712 10.265-2.511-1.238-1.788-7.84 1.617-14.747 3.404-6.906 8.2-11.502 10.712-10.264 2.511 1.238 1.788 7.84-1.617 14.747Z" fill="#FFE0CC"/><path d="M81.474 68.102c-3.405 6.907-8.2 11.502-10.712 10.264-1.024-.505-1.502-1.912-1.487-3.857-1.299 4.506-1.162 8.123.629 9.006 2.512 1.238 7.307-3.357 10.712-10.264 2.016-4.09 3.083-8.063 3.104-10.89a35.11 35.11 0 0 1-2.246 5.74Z" fill="#FFC6A1"/><path d="M90.914 73.25c-3.404 6.907-8.2 11.503-10.712 10.265-2.51-1.238-1.788-7.84 1.617-14.747 3.404-6.906 8.2-11.502 10.712-10.264 2.511 1.238 1.787 7.84-1.617 14.747Z" fill="#FFE0CC"/><path d="M91.772 68.102c-3.404 6.907-8.2 11.502-10.712 10.264-1.024-.505-1.5-1.912-1.487-3.857-1.3 4.506-1.162 8.123.63 9.006 2.51 1.238 7.306-3.357 10.711-10.264 2.016-4.09 3.083-8.063 3.104-10.89a35.11 35.11 0 0 1-2.246 5.74Z" fill="#FFC6A1"/><path d="M149.269 54.37c-3.404 6.907-8.2 11.503-10.712 10.265-2.512-1.238-1.788-7.84 1.617-14.747 3.404-6.906 8.2-11.502 10.712-10.264 2.511 1.238 1.787 7.84-1.617 14.747Z" fill="#FFE0CC"/><path d="M150.127 49.222c-3.404 6.907-8.2 11.502-10.712 10.264-1.024-.505-1.502-1.912-1.487-3.857-1.3 4.505-1.163 8.123.629 9.006 2.511 1.238 7.307-3.357 10.712-10.264 2.016-4.09 3.083-8.064 3.104-10.89a35.2 35.2 0 0 1-2.246 5.74Z" fill="#FFC6A1"/><path d="M180.162 38.066c-3.404 6.906-8.2 11.502-10.712 10.264-2.511-1.238-1.788-7.84 1.617-14.747 3.404-6.906 8.2-11.502 10.712-10.264 2.512 1.238 1.788 7.84-1.617 14.747Z" fill="#FFE0CC"/><path d="M181.02 32.917c-3.404 6.907-8.2 11.502-10.712 10.264-1.024-.505-1.501-1.912-1.487-3.857-1.3 4.505-1.163 8.123.629 9.006 2.512 1.238 7.307-3.357 10.712-10.264 2.016-4.09 3.083-8.064 3.104-10.89a35.047 35.047 0 0 1-2.246 5.74Z" fill="#FFC6A1"/><path d="M201.616 18.329c-3.405 6.907-8.2 11.502-10.712 10.264-2.512-1.238-1.788-7.841 1.617-14.747 3.404-6.906 8.2-11.502 10.712-10.264 2.511 1.238 1.788 7.84-1.617 14.747Z" fill="#FFE0CC"/><path d="M202.474 13.18c-3.404 6.907-8.2 11.502-10.712 10.264-1.024-.505-1.502-1.912-1.487-3.857-1.3 4.506-1.162 8.123.629 9.006 2.511 1.238 7.307-3.357 10.712-10.264 2.016-4.09 3.083-8.064 3.104-10.89a35.083 35.083 0 0 1-2.246 5.74Z" fill="#FFC6A1"/><path d="M299.446 41.499c-3.404 6.907-8.2 11.502-10.712 10.264-2.512-1.238-1.788-7.841 1.617-14.747 3.404-6.907 8.2-11.502 10.712-10.264 2.511 1.238 1.787 7.84-1.617 14.747Z" fill="#FFE0CC"/><path d="M300.304 36.35c-3.404 6.907-8.2 11.502-10.712 10.264-1.024-.505-1.502-1.912-1.487-3.857-1.299 4.506-1.162 8.123.629 9.006 2.511 1.238 7.307-3.357 10.712-10.264 2.016-4.09 3.083-8.063 3.104-10.89a35.086 35.086 0 0 1-2.246 5.74Z" fill="#FFC6A1"/><path d="M343.212 70.676c-3.404 6.906-8.2 11.502-10.712 10.264-2.512-1.238-1.788-7.84 1.617-14.747 3.404-6.906 8.2-11.502 10.712-10.264 2.511 1.238 1.787 7.84-1.617 14.747Z" fill="#FFE0CC"/><path d="M344.07 65.527c-3.404 6.907-8.2 11.502-10.712 10.264-1.024-.505-1.502-1.912-1.487-3.857-1.299 4.505-1.162 8.123.629 9.006 2.512 1.238 7.307-3.357 10.712-10.264 2.016-4.09 3.083-8.064 3.104-10.89a35.11 35.11 0 0 1-2.246 5.74Z" fill="#FFC6A1"/><path d="M270.269 27.768c-3.404 6.907-8.2 11.502-10.712 10.264-2.512-1.238-1.788-7.841 1.617-14.747 3.404-6.906 8.2-11.502 10.712-10.264 2.511 1.239 1.787 7.84-1.617 14.747Z" fill="#FFE0CC"/><path d="M271.127 22.619c-3.404 6.907-8.2 11.502-10.712 10.264-1.024-.505-1.502-1.912-1.487-3.857-1.3 4.506-1.162 8.123.629 9.006 2.512 1.238 7.307-3.357 10.712-10.264 2.016-4.09 3.083-8.064 3.104-10.89a35.174 35.174 0 0 1-2.246 5.74Z" fill="#FFC6A1"/><path d="M271.462 68.787c2.072 7.416 1.565 14.039-1.132 14.792-2.697.753-6.563-4.648-8.634-12.064-2.072-7.416-1.565-14.04 1.132-14.792 2.697-.753 6.562 4.648 8.634 12.064Z" fill="#FFE0CC"/><path d="M271.857 70.333c.153 3.91-.672 6.76-2.385 7.239-2.697.753-6.562-4.648-8.634-12.064a39.077 39.077 0 0 1-.395-1.547c.088 2.249.497 4.846 1.253 7.554 2.072 7.416 5.938 12.817 8.634 12.064 2.508-.701 3.119-6.477 1.527-13.246Z" fill="#FFB7A1"/><path d="M327.242 82.517c2.072 7.416 1.565 14.039-1.132 14.792-2.697.753-6.562-4.648-8.634-12.064s-1.565-14.04 1.132-14.792c2.697-.753 6.563 4.648 8.634 12.064Z" fill="#FFE0CC"/><path d="M327.637 84.064c.153 3.91-.672 6.76-2.385 7.239-2.697.753-6.563-4.648-8.634-12.064a39.077 39.077 0 0 1-.395-1.547c.088 2.249.497 4.846 1.253 7.554 2.072 7.416 5.938 12.817 8.634 12.064 2.508-.701 3.119-6.477 1.527-13.246Z" fill="#FFB7A1"/><path d="M179.639 83.375c2.072 7.416 1.565 14.039-1.132 14.792-2.697.753-6.563-4.648-8.634-12.064-2.072-7.416-1.565-14.04 1.132-14.792 2.697-.753 6.563 4.648 8.634 12.064Z" fill="#FFE0CC"/><path d="M180.035 84.922c.153 3.91-.673 6.76-2.385 7.238-2.697.754-6.562-4.648-8.634-12.064a39.068 39.068 0 0 1-.395-1.547c.088 2.249.497 4.846 1.253 7.554 2.072 7.416 5.938 12.817 8.634 12.064 2.508-.7 3.118-6.476 1.527-13.245Z" fill="#FFB7A1"/><path d="M308.363 67.07c2.072 7.417 1.565 14.04-1.132 14.793-2.697.753-6.562-4.648-8.634-12.064s-1.565-14.04 1.131-14.792c2.697-.754 6.563 4.648 8.635 12.064Z" fill="#FFE0CC"/><path d="M308.758 68.617c.153 3.91-.672 6.76-2.385 7.239-2.697.753-6.563-4.648-8.634-12.064a39.064 39.064 0 0 1-.395-1.547c.088 2.249.497 4.846 1.253 7.554 2.072 7.416 5.938 12.817 8.634 12.064 2.508-.701 3.119-6.477 1.527-13.246Z" fill="#FFB7A1"/><path d="M324.002 53.108c2.072 7.416 1.565 14.039-1.132 14.792-2.697.753-6.562-4.648-8.634-12.064s-1.565-14.04 1.131-14.792c2.697-.754 6.563 4.648 8.635 12.064Z" fill="#FFE0CC"/><path d="M324.397 54.654c.153 3.91-.672 6.76-2.385 7.238-2.697.753-6.563-4.647-8.634-12.064a39.064 39.064 0 0 1-.395-1.547c.088 2.249.497 4.846 1.253 7.554 2.072 7.416 5.938 12.817 8.634 12.064 2.508-.7 3.118-6.476 1.527-13.245Z" fill="#FFB7A1"/><path d="M242.285 64.496c2.072 7.416 1.565 14.039-1.132 14.792-2.697.753-6.562-4.648-8.634-12.064s-1.565-14.04 1.132-14.792c2.696-.753 6.562 4.648 8.634 12.064Z" fill="#FFE0CC"/><path d="M242.68 66.043c.153 3.91-.672 6.76-2.385 7.239-2.697.753-6.563-4.648-8.634-12.064a39.077 39.077 0 0 1-.395-1.547c.088 2.249.497 4.846 1.253 7.554 2.072 7.416 5.938 12.817 8.634 12.064 2.508-.701 3.119-6.478 1.527-13.246Z" fill="#FFB7A1"/><path d="M271.462 47.333c2.072 7.416 1.565 14.039-1.132 14.792-2.697.753-6.563-4.648-8.634-12.064-2.072-7.416-1.565-14.04 1.132-14.792 2.697-.753 6.562 4.648 8.634 12.064Z" fill="#FFE0CC"/><path d="M271.857 48.88c.153 3.91-.672 6.76-2.385 7.239-2.697.753-6.562-4.648-8.634-12.064a39.068 39.068 0 0 1-.395-1.547c.088 2.249.497 4.846 1.253 7.554 2.072 7.416 5.938 12.817 8.634 12.064 2.508-.701 3.119-6.478 1.527-13.246Z" fill="#FFB7A1"/><path d="M177.923 60.205c2.072 7.416 1.565 14.039-1.132 14.792-2.697.754-6.563-4.648-8.634-12.064-2.072-7.416-1.565-14.04 1.132-14.792 2.697-.753 6.562 4.648 8.634 12.064Z" fill="#FFE0CC"/><path d="M178.318 61.752c.153 3.91-.672 6.76-2.385 7.238-2.697.754-6.562-4.648-8.634-12.064a39.077 39.077 0 0 1-.395-1.547c.088 2.249.497 4.846 1.253 7.554 2.072 7.416 5.938 12.817 8.634 12.064 2.508-.7 3.119-6.476 1.527-13.245Z" fill="#FFB7A1"/><path d="M238.852 37.893c2.072 7.416 1.565 14.039-1.132 14.792-2.697.753-6.563-4.648-8.634-12.064-2.072-7.416-1.565-14.04 1.132-14.792 2.697-.753 6.562 4.648 8.634 12.064Z" fill="#FFE0CC"/><path d="M239.247 39.44c.153 3.91-.673 6.76-2.385 7.238-2.697.753-6.562-4.648-8.634-12.064a39.077 39.077 0 0 1-.395-1.547c.088 2.249.497 4.846 1.253 7.554 2.072 7.416 5.938 12.817 8.634 12.064 2.508-.7 3.119-6.477 1.527-13.245Z" fill="#FFB7A1"/><path d="M195.944 39.61c2.072 7.416 1.565 14.039-1.132 14.792-2.697.753-6.563-4.648-8.634-12.064-2.072-7.416-1.565-14.04 1.131-14.792 2.698-.754 6.564 4.648 8.635 12.064Z" fill="#FFE0CC"/><path d="M196.34 41.156c.153 3.91-.672 6.76-2.385 7.238-2.697.753-6.563-4.648-8.634-12.064a39.077 39.077 0 0 1-.395-1.547c.088 2.249.497 4.846 1.253 7.554 2.072 7.416 5.938 12.817 8.634 12.064 2.507-.7 3.118-6.476 1.527-13.245Z" fill="#FFB7A1"/><path d="M151.32 75.652c2.072 7.416 1.565 14.039-1.132 14.792-2.697.753-6.563-4.648-8.634-12.064-2.072-7.416-1.565-14.04 1.132-14.792 2.697-.753 6.563 4.648 8.634 12.064Z" fill="#FFE0CC"/><path d="M151.715 77.199c.153 3.91-.673 6.76-2.385 7.238-2.697.754-6.562-4.648-8.634-12.064a39.077 39.077 0 0 1-.395-1.547c.088 2.249.497 4.846 1.253 7.554 2.072 7.416 5.938 12.817 8.634 12.064 2.508-.7 3.119-6.477 1.527-13.245Z" fill="#FFB7A1"/><path d="M137.59 50.766c2.072 7.416 1.565 14.039-1.132 14.792-2.697.753-6.562-4.648-8.634-12.064s-1.565-14.04 1.132-14.792c2.696-.754 6.562 4.648 8.634 12.064Z" fill="#FFE0CC"/><path d="M137.985 52.312c.153 3.91-.672 6.76-2.385 7.238-2.697.754-6.563-4.648-8.634-12.064a39.077 39.077 0 0 1-.395-1.547c.088 2.249.497 4.846 1.253 7.554 2.072 7.416 5.938 12.817 8.634 12.064 2.508-.7 3.118-6.476 1.527-13.245Z" fill="#FFB7A1"/><path d="M129.122 96.602c-5.445 5.445-8.254 11.464-6.274 13.443 1.98 1.98 7.999-.829 13.444-6.273 5.445-5.445 8.253-11.465 6.274-13.445-1.98-1.98-7.999.83-13.444 6.275Z" fill="#FFE0CC"/><path d="M122.848 105.754c1.98 1.98 7.999-.829 13.443-6.274 3.119-3.12 5.366-6.422 6.351-9.051 1.806 2.07-.989 7.98-6.351 13.342-5.445 5.445-11.464 8.253-13.443 6.273-.846-.846-.812-2.432-.077-4.393.028.033.047.073.077.103Z" fill="#FFC6A1"/><path d="M240.682 35.673c-5.445 5.445-8.254 11.463-6.274 13.443 1.98 1.98 7.999-.83 13.444-6.274 5.445-5.445 8.254-11.464 6.274-13.444-1.98-1.98-7.999.83-13.444 6.275Z" fill="#FFE0CC"/><path d="M234.409 44.825c1.98 1.98 7.999-.83 13.444-6.274 3.119-3.12 5.366-6.422 6.351-9.051 1.806 2.07-.989 7.98-6.351 13.34-5.445 5.446-11.464 8.254-13.444 6.275-.846-.846-.811-2.432-.077-4.393.027.033.046.073.077.103Z" fill="#FFC6A1"/><path d="M269.001 58.843c-5.445 5.445-8.254 11.464-6.274 13.444 1.98 1.98 7.999-.83 13.443-6.274 5.445-5.445 8.254-11.464 6.274-13.443-1.979-1.981-7.998.828-13.443 6.273Z" fill="#FFE0CC"/><path d="M262.728 67.995c1.98 1.98 7.999-.83 13.443-6.274 3.119-3.12 5.366-6.422 6.351-9.051 1.806 2.07-.989 7.98-6.351 13.342-5.445 5.445-11.464 8.253-13.443 6.273-.846-.846-.812-2.432-.077-4.393.028.033.047.073.077.103Z" fill="#FFC6A1"/><path d="M244.973 94.027c-5.445 5.445-8.254 11.463-6.274 13.444 1.98 1.98 7.999-.829 13.444-6.274 5.445-5.445 8.254-11.464 6.274-13.444-1.98-1.98-7.999.829-13.444 6.274Z" fill="#FFE0CC"/><path d="M238.699 103.18c1.98 1.98 7.999-.829 13.444-6.273 3.119-3.12 5.366-6.422 6.351-9.051 1.806 2.07-.989 7.98-6.351 13.341-5.445 5.445-11.464 8.253-13.444 6.274-.846-.846-.811-2.432-.077-4.393.028.032.047.072.077.102Z" fill="#FFC6A1"/><path d="M156.583 88.878c-5.445 5.445-8.254 11.464-6.274 13.443 1.98 1.98 7.999-.829 13.443-6.273 5.445-5.445 8.254-11.464 6.274-13.444-1.979-1.98-7.998.829-13.443 6.274Z" fill="#FFE0CC"/><path d="M150.309 98.03c1.98 1.981 7.999-.828 13.443-6.273 3.119-3.12 5.366-6.422 6.351-9.051 1.806 2.07-.989 7.98-6.351 13.342-5.445 5.445-11.464 8.253-13.443 6.273-.846-.846-.812-2.432-.077-4.393.028.033.047.073.077.103Z" fill="#FFC6A1"/><path d="M160.874 69.999c-5.445 5.445-8.254 11.464-6.274 13.443 1.98 1.98 7.999-.83 13.444-6.273 5.445-5.445 8.254-11.464 6.274-13.444-1.981-1.98-7.999.829-13.444 6.274Z" fill="#FFE0CC"/><path d="M154.6 79.15c1.98 1.98 7.999-.828 13.444-6.273 3.119-3.12 5.366-6.422 6.351-9.051 1.806 2.07-.989 7.98-6.351 13.342-5.445 5.445-11.464 8.253-13.444 6.273-.846-.846-.812-2.432-.077-4.393.028.033.047.073.077.103Z" fill="#FFC6A1"/><path d="M270.457 24.864c-6.221 4.538-9.926 10.05-8.276 12.313 1.65 2.262 8.031.417 14.252-4.121s9.926-10.05 8.276-12.313c-1.651-2.262-8.031-.417-14.252 4.12Z" fill="#FFE0CC"/><path d="M262.844 32.937c1.65 2.262 8.031.417 14.251-4.12 3.563-2.6 6.295-5.516 7.673-7.96 1.465 2.324-2.211 7.73-8.336 12.199-6.221 4.538-12.601 6.383-14.252 4.12-.705-.965-.426-2.528.603-4.351.023.035.036.077.061.112Z" fill="#FFC6A1"/><path d="M369.955 85.31c-6.954 3.307-11.616 8.038-10.413 10.566 1.203 2.529 7.815 1.897 14.768-1.41 6.954-3.307 11.616-8.038 10.413-10.567-1.203-2.53-7.814-1.896-14.768 1.41Z" fill="#FFE0CC"/><path d="M360.979 91.834c1.203 2.529 7.815 1.897 14.768-1.41 3.983-1.894 7.207-4.255 9.015-6.401 1.009 2.555-3.604 7.188-10.452 10.445-6.954 3.307-13.566 3.938-14.768 1.41-.514-1.08.05-2.563 1.398-4.165.016.038.02.082.039.12Z" fill="#FFC6A1"/><path d="M272.434 98.318c-5.445 5.445-8.254 11.464-6.274 13.443 1.98 1.98 7.999-.829 13.444-6.273 5.445-5.444 8.254-11.464 6.274-13.444-1.98-1.98-7.999.829-13.444 6.274Z" fill="#FFE0CC"/><path d="M266.16 107.471c1.98 1.98 7.999-.829 13.444-6.274 3.119-3.12 5.366-6.422 6.351-9.051 1.806 2.07-.989 7.98-6.351 13.342-5.445 5.445-11.464 8.253-13.444 6.273-.846-.846-.811-2.432-.077-4.393.028.033.047.072.077.103Z" fill="#FFC6A1"/><path d="M204.64 15.077c-5.445 5.445-8.254 11.464-6.274 13.444 1.98 1.98 7.999-.83 13.444-6.274 5.445-5.445 8.254-11.464 6.274-13.444-1.981-1.98-7.999.829-13.444 6.274Z" fill="#FFE0CC"/><path d="M198.366 24.229c1.98 1.98 7.999-.83 13.444-6.274 3.119-3.12 5.366-6.422 6.351-9.051 1.806 2.07-.989 7.98-6.351 13.34-5.445 5.446-11.464 8.254-13.444 6.275-.846-.846-.811-2.432-.077-4.393.028.033.047.073.077.103Z" fill="#FFC6A1"/><path d="M226.78 7.378c-5.445 5.445-8.253 11.464-6.274 13.444 1.98 1.98 7.999-.83 13.444-6.273 5.445-5.445 8.254-11.464 6.274-13.444-1.98-1.981-7.999.828-13.444 6.273Z" fill="#FFE0CC"/><path d="M220.507 16.53c1.98 1.98 7.999-.828 13.444-6.272 3.119-3.12 5.366-6.422 6.351-9.051 1.806 2.07-.989 7.98-6.351 13.342-5.445 5.445-11.464 8.253-13.444 6.273-.846-.846-.812-2.432-.077-4.393.027.032.046.07.077.102Z" fill="#FFC6A1"/><path d="M365.973 82.87c-5.445 5.446-8.253 11.465-6.274 13.444 1.98 1.98 7.999-.83 13.444-6.273 5.445-5.445 8.253-11.464 6.274-13.444-1.98-1.98-7.999.829-13.444 6.274Z" fill="#FFE0CC"/><path d="M359.7 92.024c1.98 1.98 7.999-.83 13.443-6.273 3.119-3.12 5.366-6.422 6.351-9.051 1.806 2.07-.989 7.98-6.351 13.342-5.445 5.445-11.464 8.253-13.443 6.273-.846-.846-.812-2.432-.077-4.393.027.032.046.072.077.102Z" fill="#FFC6A1"/><path d="M339.37 76.006c-5.445 5.445-8.254 11.464-6.274 13.443 1.98 1.98 7.999-.83 13.444-6.274 5.445-5.445 8.254-11.464 6.274-13.443-1.98-1.98-7.999.829-13.444 6.274Z" fill="#FFE0CC"/><path d="M333.097 85.158c1.98 1.98 7.999-.83 13.443-6.273 3.119-3.12 5.366-6.422 6.351-9.051 1.806 2.07-.989 7.98-6.351 13.342-5.445 5.445-11.464 8.253-13.443 6.273-.846-.846-.812-2.432-.077-4.393.027.032.046.072.077.102Z" fill="#FFC6A1"/><path d="M109.384 74.289c-5.445 5.445-8.254 11.464-6.274 13.444 1.98 1.98 7.999-.83 13.444-6.274 5.445-5.445 8.254-11.463 6.274-13.443-1.98-1.98-7.999.829-13.444 6.273Z" fill="#FFE0CC"/><path d="M103.111 83.442c1.98 1.98 7.999-.83 13.444-6.273 3.119-3.12 5.366-6.422 6.351-9.051 1.806 2.07-.989 7.98-6.351 13.342-5.445 5.445-11.464 8.253-13.444 6.273-.846-.846-.811-2.432-.077-4.393.028.032.047.072.077.102Z" fill="#FFC6A1"/><path d="M127.406 67.424c-5.445 5.445-8.254 11.463-6.274 13.443 1.98 1.98 7.999-.83 13.444-6.274 5.445-5.445 8.253-11.463 6.274-13.444-1.981-1.978-8 .83-13.444 6.275Z" fill="#FFE0CC"/><path d="M121.132 76.577c1.98 1.98 7.999-.83 13.444-6.273 3.119-3.12 5.366-6.422 6.351-9.051 1.806 2.07-.989 7.98-6.351 13.34-5.445 5.446-11.464 8.255-13.444 6.275-.846-.846-.811-2.432-.077-4.393.028.032.047.072.077.102Z" fill="#FFC6A1"/><path d="M76.775 84.587c-5.445 5.445-8.254 11.463-6.274 13.444 1.98 1.98 7.999-.83 13.444-6.274 5.445-5.445 8.254-11.463 6.274-13.443-1.981-1.98-8 .829-13.444 6.273Z" fill="#FFE0CC"/><path d="M70.501 93.74c1.98 1.98 7.999-.83 13.444-6.273 3.119-3.12 5.366-6.422 6.351-9.051 1.806 2.07-.989 7.98-6.351 13.34-5.445 5.446-11.464 8.255-13.444 6.275-.846-.846-.811-2.432-.077-4.393.028.032.047.072.077.102Z" fill="#FFC6A1"/><path d="M196.916 36.53c-5.445 5.446-8.254 11.465-6.274 13.445 1.98 1.98 7.999-.83 13.444-6.274 5.445-5.445 8.254-11.464 6.274-13.444-1.98-1.98-7.999.829-13.444 6.274Z" fill="#FFE0CC"/><path d="M190.643 45.683c1.98 1.98 7.999-.83 13.444-6.273 3.119-3.12 5.366-6.423 6.351-9.051 1.806 2.07-.989 7.98-6.351 13.342-5.445 5.445-11.464 8.254-13.444 6.274-.846-.846-.811-2.432-.077-4.393.028.03.046.07.077.1Z" fill="#FFC6A1"/><path d="M190.051 69.14c-5.445 5.445-8.254 11.464-6.274 13.444 1.98 1.98 7.999-.83 13.444-6.274 5.445-5.445 8.254-11.464 6.274-13.443-1.98-1.98-7.999.829-13.444 6.273Z" fill="#FFE0CC"/><path d="M183.777 78.293c1.98 1.98 7.999-.83 13.444-6.273 3.119-3.12 5.366-6.422 6.351-9.051 1.806 2.07-.989 7.98-6.351 13.34-5.445 5.446-11.464 8.255-13.444 6.275-.846-.846-.811-2.432-.077-4.393.028.032.047.072.077.102Z" fill="#FFC6A1"/><path d="M200.349 97.46c-5.445 5.445-8.254 11.464-6.274 13.444 1.98 1.98 7.999-.829 13.443-6.274 5.445-5.445 8.254-11.463 6.274-13.443-1.979-1.981-7.998.828-13.443 6.273Z" fill="#FFE0CC"/><path d="M194.075 106.612c1.98 1.98 7.999-.829 13.443-6.273 3.119-3.12 5.366-6.422 6.351-9.051 1.806 2.07-.989 7.98-6.351 13.342-5.445 5.445-11.464 8.253-13.443 6.273-.846-.846-.812-2.432-.077-4.393.028.032.047.072.077.102Z" fill="#FFC6A1"/><path d="M277.888 90.594c5.445 5.445 8.254 11.464 6.274 13.443-1.98 1.98-7.999-.829-13.443-6.273-5.445-5.445-8.254-11.464-6.274-13.444 1.979-1.98 7.998.83 13.443 6.274Z" fill="#FFE0CC"/><path d="M284.161 99.747c-1.98 1.98-7.999-.83-13.443-6.274-3.119-3.12-5.366-6.422-6.351-9.051-1.806 2.07.989 7.98 6.351 13.342 5.445 5.445 11.464 8.253 13.443 6.273.846-.846.812-2.432.077-4.393-.027.033-.046.073-.077.103Z" fill="#FFC6A1"/><path d="M104.54 57.126c5.445 5.445 8.254 11.464 6.274 13.444-1.98 1.98-7.999-.83-13.444-6.274-5.445-5.445-8.253-11.464-6.274-13.443 1.98-1.98 7.999.829 13.444 6.273Z" fill="#FFE0CC"/><path d="M110.814 66.279c-1.98 1.98-7.999-.83-13.444-6.274-3.119-3.12-5.366-6.422-6.351-9.051-1.806 2.07.989 7.98 6.351 13.342 5.445 5.445 11.464 8.253 13.444 6.273.846-.846.812-2.432.077-4.393-.028.033-.047.073-.077.103Z" fill="#FFC6A1"/><path d="M342.115 93.447c7.416-2.072 14.039-1.565 14.792 1.132.753 2.697-4.648 6.562-12.064 8.634s-14.039 1.565-14.792-1.132c-.754-2.697 4.648-6.562 12.064-8.634Z" fill="#FFE0CC"/><path d="M346.559 99.78c-7.416 2.072-14.039 1.565-14.792-1.132-.008-.03-.006-.062-.013-.092-1.341 1.236-1.999 2.469-1.704 3.524.753 2.697 7.376 3.203 14.792 1.132 7.334-2.049 12.687-5.85 12.076-8.542-2.086 1.922-5.844 3.849-10.359 5.11Z" fill="#FFC9C4"/><path d="M89.817 90.014c7.416-2.072 14.039-1.565 14.792 1.132.753 2.697-4.648 6.563-12.064 8.634-7.416 2.072-14.039 1.565-14.792-1.131-.753-2.697 4.648-6.563 12.064-8.635Z" fill="#FFE0CC"/><path d="M94.262 96.347c-7.416 2.072-14.039 1.565-14.792-1.132-.008-.03-.005-.062-.012-.092-1.34 1.236-1.999 2.469-1.704 3.524.753 2.697 7.376 3.203 14.792 1.132 7.334-2.05 12.687-5.85 12.076-8.542-2.088 1.923-5.846 3.849-10.36 5.11Z" fill="#FFC9C4"/><path d="M185.931 52.255c7.416-2.072 14.039-1.565 14.792 1.132.753 2.697-4.648 6.563-12.064 8.634-7.416 2.072-14.039 1.565-14.792-1.132-.754-2.696 4.647-6.562 12.064-8.634Z" fill="#FFE0CC"/><path d="M190.375 58.588c-7.416 2.072-14.039 1.565-14.792-1.132-.008-.03-.006-.062-.012-.092-1.341 1.236-1.999 2.469-1.704 3.524.753 2.697 7.376 3.204 14.792 1.132 7.334-2.05 12.687-5.85 12.076-8.542-2.087 1.923-5.845 3.849-10.36 5.11Z" fill="#FFC9C4"/><path d="M324.094 62.553c7.416-2.072 14.039-1.565 14.792 1.132.753 2.697-4.648 6.563-12.064 8.634-7.416 2.07-14.039 1.565-14.792-1.132-.754-2.697 4.647-6.562 12.064-8.634Z" fill="#FFE0CC"/><path d="M328.538 68.886c-7.416 2.072-14.039 1.565-14.792-1.132-.008-.03-.006-.062-.012-.092-1.341 1.235-1.999 2.469-1.704 3.524.753 2.697 7.376 3.203 14.792 1.132 7.334-2.05 12.687-5.85 12.076-8.542-2.087 1.923-5.845 3.849-10.36 5.11Z" fill="#FFC9C4"/><path d="M238.278 9.347c7.416-2.072 14.039-1.565 14.792 1.132.753 2.697-4.648 6.563-12.064 8.634-7.416 2.072-14.039 1.565-14.792-1.132-.753-2.696 4.648-6.562 12.064-8.634Z" fill="#FFE0CC"/><path d="M242.723 15.68c-7.416 2.073-14.039 1.566-14.792-1.131-.008-.03-.006-.062-.012-.092-1.341 1.235-1.999 2.469-1.704 3.524.753 2.697 7.376 3.203 14.792 1.132 7.334-2.05 12.687-5.851 12.076-8.543-2.088 1.923-5.846 3.849-10.36 5.11Z" fill="#FFC9C4"/><path d="M285.477 46.248c7.416-2.072 14.039-1.565 14.792 1.132.754 2.697-4.648 6.563-12.064 8.634-7.416 2.07-14.039 1.565-14.792-1.132-.754-2.696 4.647-6.562 12.064-8.634Z" fill="#FFE0CC"/><path d="M289.921 52.58c-7.416 2.073-14.039 1.566-14.792-1.131-.008-.03-.006-.062-.012-.092-1.341 1.236-1.999 2.469-1.704 3.524.753 2.697 7.376 3.203 14.792 1.132 7.334-2.05 12.687-5.85 12.076-8.543-2.087 1.924-5.845 3.85-10.36 5.11Z" fill="#FFC9C4"/><path d="M103.547 65.986c7.416-2.072 14.039-1.565 14.792 1.132.753 2.697-4.648 6.563-12.064 8.634-7.416 2.072-14.039 1.565-14.792-1.131-.753-2.698 4.648-6.563 12.064-8.635Z" fill="#FFE0CC"/><path d="M107.992 72.319c-7.416 2.072-14.039 1.565-14.792-1.132-.008-.03-.006-.062-.012-.092-1.341 1.236-1.998 2.469-1.704 3.524.753 2.697 7.376 3.203 14.792 1.132 7.334-2.05 12.687-5.85 12.076-8.542-2.087 1.922-5.845 3.849-10.36 5.11Z" fill="#FFC9C4"/><path d="M71.433 66.186c7.416-2.072 14.039-1.565 14.792 1.13.753 2.698-4.648 6.564-12.064 8.635-7.416 2.072-14.039 1.565-14.792-1.132-.753-2.696 4.648-6.561 12.064-8.633Z" fill="#FFE0CC"/><path d="M75.878 72.519c-7.416 2.072-14.039 1.565-14.792-1.132-.008-.03-.005-.062-.012-.092-1.34 1.236-1.999 2.469-1.704 3.524.753 2.697 7.376 3.203 14.792 1.132 7.334-2.05 12.687-5.85 12.076-8.543-2.088 1.923-5.846 3.85-10.36 5.11Z" fill="#FFC9C4"/><path d="M168.767 41.957c7.416-2.072 14.039-1.565 14.792 1.132.753 2.697-4.648 6.563-12.064 8.634-7.416 2.072-14.039 1.565-14.792-1.132-.753-2.696 4.648-6.562 12.064-8.634Z" fill="#FFE0CC"/><path d="M173.212 48.29c-7.416 2.073-14.039 1.566-14.792-1.131-.008-.03-.006-.062-.012-.092-1.341 1.235-1.999 2.469-1.704 3.524.753 2.697 7.376 3.203 14.792 1.132 7.334-2.05 12.687-5.85 12.076-8.543-2.087 1.923-5.845 3.849-10.36 5.11Z" fill="#FFC9C4"/><path d="M288.909 58.262c7.416-2.072 14.039-1.565 14.792 1.132.753 2.697-4.648 6.563-12.064 8.634-7.416 2.072-14.039 1.565-14.792-1.132-.753-2.696 4.648-6.562 12.064-8.634Z" fill="#FFE0CC"/><path d="M293.354 64.595c-7.416 2.072-14.039 1.565-14.792-1.132-.008-.03-.006-.062-.012-.092-1.341 1.236-1.999 2.469-1.704 3.524.753 2.697 7.376 3.203 14.792 1.132 7.334-2.05 12.687-5.851 12.076-8.542-2.088 1.923-5.846 3.849-10.36 5.11Z" fill="#FFC9C4"/><path d="M246.001 84.007c7.416-2.072 14.039-1.565 14.792 1.13.753 2.698-4.648 6.564-12.064 8.635-7.416 2.072-14.039 1.565-14.792-1.132-.753-2.695 4.648-6.561 12.064-8.633Z" fill="#FFE0CC"/><path d="M250.446 90.34c-7.416 2.072-14.039 1.565-14.792-1.132-.008-.03-.006-.062-.012-.092-1.341 1.236-1.999 2.469-1.704 3.524.753 2.697 7.376 3.203 14.792 1.132 7.334-2.05 12.687-5.85 12.076-8.543-2.087 1.924-5.845 3.85-10.36 5.11Z" fill="#FFC9C4"/><path d="M137.015 30.8c7.416-2.071 14.039-1.564 14.792 1.133.753 2.697-4.648 6.563-12.064 8.634-7.416 2.072-14.039 1.565-14.792-1.132-.753-2.696 4.648-6.562 12.064-8.634Z" fill="#FFE0CC"/><path d="M141.46 37.135c-7.416 2.072-14.039 1.565-14.792-1.132-.008-.03-.006-.062-.012-.092-1.341 1.235-1.999 2.469-1.704 3.524.753 2.697 7.376 3.203 14.792 1.132 7.334-2.05 12.687-5.85 12.076-8.543-2.087 1.923-5.845 3.849-10.36 5.11Z" fill="#FFC9C4"/><path d="M241.711 20.503c7.416-2.072 14.039-1.565 14.792 1.132.754 2.697-4.648 6.563-12.064 8.634-7.416 2.072-14.039 1.565-14.792-1.132-.754-2.696 4.647-6.562 12.064-8.634Z" fill="#FFE0CC"/><path d="M246.155 26.837c-7.416 2.072-14.039 1.565-14.792-1.132-.008-.03-.006-.062-.012-.092-1.341 1.235-1.999 2.469-1.704 3.524.753 2.697 7.376 3.203 14.792 1.132 7.334-2.05 12.687-5.85 12.076-8.543-2.087 1.923-5.845 3.849-10.36 5.11Z" fill="#FFC9C4"/><path d="M337.799 81.894c-1.314 7.587-4.616 13.35-7.375 12.873-2.759-.478-3.93-7.016-2.616-14.603s4.616-13.35 7.375-12.873c2.759.478 3.93 7.016 2.616 14.603Z" fill="#FFE0CC"/><path d="M337.412 69.713c.166 2.299.026 5.019-.471 7.89-1.314 7.587-4.616 13.35-7.375 12.873-.942-.163-1.693-1.045-2.229-2.422.273 3.775 1.373 6.415 3.088 6.712 2.759.478 6.061-5.286 7.375-12.873.864-4.996.646-9.525-.388-12.18Z" fill="#FFC6A1"/><path d="M288.026 73.313c-1.314 7.587-4.616 13.35-7.375 12.873-2.759-.478-3.93-7.016-2.616-14.603s4.616-13.35 7.375-12.873c2.759.478 3.93 7.016 2.616 14.603Z" fill="#FFE0CC"/><path d="M287.639 61.132c.166 2.299.026 5.019-.471 7.89-1.314 7.587-4.616 13.35-7.375 12.873-.942-.163-1.693-1.045-2.229-2.422.273 3.775 1.373 6.415 3.088 6.712 2.759.478 6.061-5.286 7.375-12.873.865-4.996.646-9.525-.388-12.18Z" fill="#FFC6A1"/><path d="M163.593 32.979c-1.314 7.587-4.616 13.35-7.375 12.872-2.759-.478-3.93-7.016-2.616-14.603s4.616-13.35 7.375-12.872c2.759.478 3.93 7.016 2.616 14.603Z" fill="#FFE0CC"/><path d="M163.207 20.798c.166 2.299.026 5.019-.471 7.89-1.314 7.587-4.616 13.35-7.375 12.873-.942-.163-1.693-1.046-2.229-2.422.273 3.776 1.373 6.416 3.087 6.713 2.759.478 6.061-5.286 7.375-12.873.865-4.996.647-9.525-.387-12.181Z" fill="#FFC6A1"/><path d="M188.48 72.455c-1.314 7.587-4.616 13.35-7.375 12.873-2.759-.478-3.93-7.016-2.616-14.603s4.616-13.35 7.375-12.872c2.759.477 3.93 7.015 2.616 14.602Z" fill="#FFE0CC"/><path d="M188.093 60.273c.166 2.299.026 5.019-.471 7.89-1.314 7.587-4.616 13.35-7.375 12.873-.942-.163-1.693-1.045-2.229-2.422.273 3.776 1.373 6.416 3.088 6.713 2.759.478 6.061-5.286 7.375-12.873.864-4.996.646-9.525-.388-12.181Z" fill="#FFC6A1"/><path d="M215.941 51c-1.314 7.588-4.616 13.35-7.375 12.873-2.759-.478-3.93-7.016-2.616-14.603s4.616-13.35 7.375-12.872c2.759.478 3.93 7.016 2.616 14.603Z" fill="#FFE0CC"/><path d="M215.554 38.82c.166 2.299.026 5.019-.471 7.89-1.314 7.587-4.616 13.35-7.375 12.873-.942-.163-1.693-1.045-2.229-2.422.273 3.775 1.373 6.415 3.088 6.712 2.759.478 6.061-5.286 7.375-12.873.864-4.996.646-9.525-.388-12.18Z" fill="#FFC6A1"/><path d="M255.416 25.256c-1.314 7.587-4.616 13.35-7.375 12.872-2.759-.478-3.93-7.017-2.616-14.604 1.314-7.587 4.616-13.35 7.375-12.871 2.759.478 3.93 7.016 2.616 14.603Z" fill="#FFE0CC"/><path d="M255.029 13.075c.166 2.299.026 5.019-.471 7.89-1.314 7.587-4.616 13.35-7.375 12.873-.942-.163-1.693-1.046-2.229-2.422.273 3.776 1.373 6.416 3.088 6.713 2.759.478 6.061-5.286 7.375-12.873.865-4.997.647-9.526-.388-12.181Z" fill="#FFC6A1"/><path d="M183.331 19.249c-1.314 7.587-4.616 13.35-7.375 12.872-2.759-.478-3.93-7.016-2.616-14.603s4.616-13.35 7.375-12.873c2.759.479 3.93 7.017 2.616 14.604Z" fill="#FFE0CC"/><path d="M182.944 7.068c.166 2.299.026 5.019-.471 7.89-1.314 7.587-4.616 13.35-7.375 12.873-.942-.163-1.693-1.046-2.229-2.422.273 3.776 1.373 6.416 3.087 6.712 2.759.478 6.061-5.285 7.375-12.872.866-4.997.647-9.526-.387-12.181Z" fill="#FFC6A1"/><path d="M254.558 63.014c-1.314 7.587-4.616 13.35-7.375 12.874-2.759-.478-3.93-7.017-2.616-14.604 1.314-7.587 4.616-13.35 7.375-12.871 2.759.477 3.93 7.015 2.616 14.602Z" fill="#FFE0CC"/><path d="M254.171 50.834c.166 2.299.026 5.019-.471 7.89-1.314 7.587-4.616 13.35-7.375 12.873-.942-.163-1.693-1.045-2.229-2.422.273 3.776 1.373 6.416 3.087 6.713 2.759.478 6.061-5.286 7.375-12.873.865-4.997.647-9.526-.387-12.181Z" fill="#FFC6A1"/><path d="M130.125 77.604c-1.314 7.587-4.616 13.35-7.375 12.873-2.759-.478-3.93-7.016-2.616-14.603s4.616-13.35 7.375-12.872c2.759.477 3.93 7.015 2.616 14.602Z" fill="#FFE0CC"/><path d="M129.738 65.422c.166 2.299.026 5.019-.471 7.89-1.314 7.587-4.616 13.35-7.375 12.873-.942-.163-1.693-1.045-2.229-2.422.273 3.776 1.373 6.415 3.088 6.712 2.759.478 6.061-5.285 7.375-12.873.865-4.995.647-9.525-.388-12.18Z" fill="#FFC6A1"/><path d="M111.246 96.483c-1.314 7.587-4.616 13.35-7.375 12.872-2.759-.478-3.93-7.016-2.616-14.603s4.616-13.35 7.375-12.873c2.759.478 3.93 7.016 2.616 14.603Z" fill="#FFE0CC"/><path d="M110.859 84.302c.166 2.299.026 5.019-.471 7.89-1.314 7.587-4.616 13.35-7.375 12.873-.942-.163-1.693-1.045-2.229-2.422.273 3.776 1.373 6.415 3.088 6.712 2.759.478 6.061-5.285 7.375-12.873.864-4.996.646-9.525-.388-12.18Z" fill="#FFC6A1"/><path d="M36.482 81.355c2.233 1.543 7.834 12.92 17.163 18.02 9.329 5.102 73.161 14.269 78.95 18.022 5.79 3.753 3.959 23.64 5.79 32.169 1.831 8.53 19.19 15.835 11.373 21.036-10.559 7.025-44.246 2.152-60.929 0s-28.455-8.907-34.316-18.879c-5.861-9.973-7.743-26.979-10.308-39.475-2.565-12.496-8.888-20.153-12.014-28.32-2.033-5.31 2.058-4.116 4.291-2.573ZM152.726 218.265c10.764 3.062 14.675 7.889 10.764 13.267-3.911 5.378-17.963 25.765-24.078 33.679-6.115 7.913-19.54 15.869-23.978 21.243-4.438 5.375 4.841 23.35 5.633 31.273.719 7.194-16.129 2.612-26.229-5.529-10.1-8.14-46.34-73.246-46.34-79.361 0-6.115 11.7 4.171 22.891-1.692 11.191-5.862 2.542-15.564-2.478-18.452-5.02-2.887-10.778-5.765-17.169-13.583-6.39-7.819 33.784 8.512 54.253 12.666 20.467 4.156 35.967 3.427 46.731 6.489ZM75.099 382.568c5.501 5.302 28.464 46.933 36.901 60.071 8.437 13.138 23.928 57.273 30.019 67.799 6.091 10.526 27.444 25.177 20.939 22.634-6.505-2.544-21.017-7.189-27.953-16.429-6.936-9.24-31.483-55.037-37.593-65.422-6.11-10.385-24.848-23.76-32.61-36.901-7.762-13.141-11.559-32.259-8.581-38.617 2.976-6.358 13.378 1.563 18.878 6.865Z" fill="#FAB083"/><path d="M50.924 454.594c-4.496 1.183-2.844 5.517-5.542 10.553-2.698 5.036-1.575 10.077-1.575 16.189s5.622 21.182 9.488 26.795c3.867 5.613 13.823 15.417 17.972 16.971 4.149 1.554 5.914 1.468 5.914 1.468l-7.554-16.762-6.368-20.829-8.055-23.414c.002 0 .217-12.154-4.28-10.971ZM189.589 565.742c-8.273-1.079 36.233-5.226 47.702-9.826 11.469-4.601 44.574-20.545 54.064-30.035 9.49-9.49 25.749-22.653 40.333-40.333 12.417-15.053 42.05-48.057 42.05-48.057s-.667 9.352-2.575 15.447c-1.908 6.095-11.936 39.093-18.879 51.489-6.944 12.396-35.574 42.269-48.057 48.915-12.482 6.646-50.22 14.536-62.645 15.447-12.426.909-43.72-1.968-51.993-3.047ZM53.645 168.029s18.107 5.312 30.894 7.723c12.787 2.411 114.672 8.256 137.603 10.415 22.931 2.158 63.149-3.469 78.652-4.407 15.503-.939 54.722-2.843 61.279-6.367 6.557-3.524 12.218-17.281 17.671-19.378l11.156-4.291 2.46 13.122s-11.032 2.283-14.479 5.757c-3.447 3.474-15.87 23.17-25.74 26.603s-32.226-.903-47.199 0c-14.973.903-54.09 3.433-73.801 3.433s-49.773-7.008-59.213-8.582c-9.44-1.574-29.081-.682-41.192-.858-12.11-.177-42.699-6.833-54.922-9.44-12.221-2.606-23.169-13.73-23.169-13.73Z" fill="#A35E35"/><path d="M367.335 213.517c-1 6.642-8.834 11.291-15.909 15.441-7.075 4.15-78.835 31.127-96.37 37.872-17.535 6.745-51.631 16.537-38.36 23.916 13.271 7.378 28.181 7.603 39.475 6.007s44.985-16.86 58.354-22.312c13.37-5.452 23.873-4.827 21.454 6.865-2.419 11.693-9.493 30.275-14.589 36.901-5.096 6.625-32.342 18.919-23.17 20.596 9.172 1.677 25.651-5.905 34.138-9.938 8.486-4.033 20.914-13.525 27.65-22.673 6.735-9.147 20.596-60.071 20.596-60.071l8.582-37.759s4.405-11.982 4.291-20.596c-.114-8.614-3.99-22.364-3.99-22.364h-12.229l-9.921 10.355c-.002.001.997 31.118-.002 37.76ZM358.831 347.193c-6.274 6.007-8.869 9.025-16.845 14.779-7.976 5.754-34.659 12.565-44.624 18.879-9.966 6.314-21.654 14.195-32.61 18.879-10.956 4.685-36.48 9.354-43.766 11.156-7.286 1.802-31.032 16.072-23.699 19.706 7.333 3.633 39.059 3.179 54.71-1.358 12.783-3.706 27.697-14.927 37.049-10.7 9.352 4.226 5.542 22.311-1.439 38.038-6.98 15.727-23.021 41.104-14.028 35.839 8.993-5.265 15.839-14.098 22.924-23.17 7.085-9.072 9.496-24.532 15.924-35.33 6.427-10.799 24.692-2.485 33.812-8.273 9.12-5.788 19.945-23.381 25.179-36.69 5.235-13.309-6.359-1.313-10.553-13.246-4.194-11.932 4.24-34.515-2.034-28.509ZM378.938 445.181c-2.78 5.281 14.243 22.902 13.973 27.488-.27 4.586-14.58 15.906-20.16 23.201-4.102 5.363 4.783 7.357-2.501 25.464-4.264 10.601 12.292 2.681 19.793-2.32 7.501-5 22.476-12.995 28.319-18.879 5.843-5.884 12.962-14.902 11.156-21.454-1.806-6.552-18.119-17.234-24.886-20.596-8.94-4.44-24.401-15.361-25.694-12.904ZM436.383 492.412s-2.361 9.166-6.865 13.73c-4.504 4.565-13.731 10.298-13.731 10.298s16.96-.877 20.557-2.495c3.597-1.619 7.762-5.369 7.762-9.519s-7.723-12.014-7.723-12.014Z" fill="#A35E35"/><path d="M48.496 431.157c0 6.475-.373 19.132.458 23.23 1.235 6.087 2.719 14.683 6.252 27.365 4.103 14.727 9.595 28.681 11.622 32.33 2.027 3.649 3.16 8.855 5.318 12.812 2.158 3.957 4.446 7.792 10.676 11s15.843 6.053 24.035 7.524c8.193 1.471 6.51-2.583-.899-7.194-8.093-5.036-19.69-12.77-25.603-24.819-5.912-12.05-14.684-26.618-16.482-36.869-1.798-10.252-.955-14.039-1.647-26.174-.691-12.135-9.44-51.49-9.44-51.49s-2.492 8.89-3.302 14.535c-.808 5.647-.988 11.275-.988 17.75Z" fill="#FAB083"/><path d="M22.508 486.248c-3.777-4.856-4.79-11.187-6.621-18.722-1.832-7.536-1.375-16.472 3.432-19.738 4.807-3.265 13.189-1.233 17.166-2.244 4.728-1.201 10.483-10.487 12.012-14.387 1.529-3.9 0 12.357 0 12.357s-5.567 4.875-10.298 9.423c-2.872 2.761-9.319 9.897-11.156 14.589-1.837 4.691-.758 23.578-4.535 18.722Z" fill="#BC6E3D"/><path d="m390.168 85.54-6.167 2.809s-1.938 1.22-4.265 2.375c-2.326 1.156-34.878 10.166-47.19 12.084-12.313 1.918-57.497 6.865-57.497 6.865s-80.696 2.802-100.979 2.12c-20.284-.683-46.925-3.317-64.645-6.411-17.72-3.093-36.498-6.784-41.419-8.541-4.921-1.757-13.934-5.063-17.172-7.795-3.237-2.732-3.507-9.002-6.629-10.267-4.744-1.922-13.323-1.676-12.561 2.72.821 4.738 10.2 8.416 10.2 8.416l22.099 19.758 96.972 12.872h50.734l1.613-3.433h75.518l71.339-11.765s13.684-3.397 17.002-4.82c3.318-1.423 5.498-4.828 8.237-5.58 2.738-.751 12.873-5.707 15.524-7.158 0 0 2.049-3.261 1.176-4.97-.873-1.71-5.099-2.415-5.099-2.415s-4.614 2.145-6.791 3.136Z" fill="#FAB083"/></svg>