<svg width="338" height="437" fill="none" xmlns="http://www.w3.org/2000/svg"><path d="M259.013 162.233s7.546 6.528 13.058 26.599c4.004 14.576 7.376 31.36 12.014 48.011 4.414 15.833 10.143 30.685 15.69 43.91 3.461 8.251-39.511 15.019-46.152 2.866-5.26-9.624-4.354-21.763-7.667-33.611-1.632-5.836-6.515-20.757-9.424-24.283-3.392-12.472-5.312-32.541 0-44.148 5.313-11.605 22.481-19.344 22.481-19.344Z" fill="#F4A98C"/><path d="M236.532 225.725c2.5 3.03 6.455 14.47 8.553 21.332.828-9.976 2.783-29.864 6.34-46.802 4.959-23.619 12.847-30.764 12.903-30.815l-.011-.019-.05-.084c-.448-.681-3.618-4.796-13.428-2.501a62.658 62.658 0 0 0-4.008 2.851l-.048.037a50.738 50.738 0 0 0-1.938 1.579l-.148.126a45.713 45.713 0 0 0-1.793 1.631l-.192.187a36.332 36.332 0 0 0-1.661 1.716l-.188.206a31.456 31.456 0 0 0-1.523 1.836l-.152.198a26.557 26.557 0 0 0-1.372 2l-.087.137a21.416 21.416 0 0 0-1.197 2.237c-5.312 11.607-10.276 29.258 0 44.148Z" fill="#F49B7F"/><path d="M237.423 227.064c.845 1.439 1.785 3.503 2.738 5.861 3.742-2.061 20.072-10.633 39.24-14.34a2392.96 2392.96 0 0 1-2.097-8.78c-5.476 1.03-23.207 5.126-39.881 17.259ZM242.584 239.417a216.02 216.02 0 0 1 2.117 6.398c4.542-2.456 19.971-10.284 38.059-13.89a525.584 525.584 0 0 1-2.241-8.772c-6.054 1.211-22.319 5.286-37.935 16.264Z" fill="#A05845"/><path d="M248.305 262.256s17.894-2.443 28.587 0c10.692 2.443 20.955 10.544 24.671 23.176-30.571-1.009-53.258-23.176-53.258-23.176Z" fill="#F49B7F"/><path d="M97.679 314.476H74.284s-4.17-.575-19.163 0c-14.99.576-15.716 4.669-25.389 8.667-9.672 3.998-13.299 14.638-18.135 27.454-4.836 12.816 67.222 28.412 96.963 28.412s75.443 9.794 82.333 5.803c6.892-3.99 57.307-17.048 62.747-17.048 5.443 0 73.268-26.113 73.268-26.113-9.432-10.519-19.587-11.97-30.104-14.146-10.519-2.176-11.245-3.989-21.4-7.617-10.156-3.627-16.685-2.844-26.115-5.412-9.43-2.567-18.55-2.913-22.125-5.244-3.575-2.329-9.068-11.668-26.477-11.387-17.41.282-103.008 16.631-103.008 16.631Z" fill="#DE7207"/><path d="M33.401 328.361s8.947-6.056 26.115-6.538c17.168-.484 26.115-.242 43.765 4.836 17.652 5.078 37.238 7.737 51.988 9.189 14.75 1.451 38.99.599 46.426.571 7.436-.028 20.844 1.437 20.844 1.437l-4.623 12.68s-29.277 7.617-39.796 7.617c-10.519 0-62.748-13.237-74.355-13.237-11.606 0-70.364-16.555-70.364-16.555Z" fill="#D85C00"/><path d="M147.491 103.959s-2.419 21.278-8.463 25.148c-6.047 3.868-27.324 12.332-38.931 18.377-11.606 6.044-24.181 14.749-24.181 14.749s14.51 46.426 18.861 55.372c4.352 8.947 8.263 25.632 12.132 35.304 3.868 9.671-1.693 42.074-2.418 51.504 74.958 7.979 126.622-6.568 126.622-6.568s-6.246-39.496-4.312-49.65c1.935-10.158-6.004-33.007 4.635-56.704 10.64-23.696 26.557-35.182 26.557-35.182s-57.306-21.036-62.746-26.114c-5.442-5.079-8.343-29.016-8.343-29.016l-39.413 2.78Z" fill="#F4A98C"/><path d="M198.408 132.201s7.599-.434 14.127 3.192c6.529 3.627 11.365 3.87 17.893 5.803 6.529 1.935 34.145 8.315 33.903 28.241-8.062-4.452-28.006 29.306-30.032 54.991-5.05 63.979-2.056 86.596-2.056 86.596-4.7-.548-8.975.46-13.122-.665-14.696-3.991-18.34-1.482-25.93-.995-10.171.655-19.707 3.393-19.707 3.393 6.529-25.512 15.233-58.277 15.233-95.393s9.691-85.163 9.691-85.163Z" fill="#DE7207"/><path d="M232.243 257.205s-3.71 24.419-18.134 37.888c-14.424 13.472-42.26 19.383-42.26 19.383s59.574 1.061 66.562-1.719c-3.647-2.778-6.168-55.552-6.168-55.552Z" fill="#D85C00"/><path d="M104.201 162.233s20.419 1.33 38.736 4.776c-.362-5.985 1.27-8.384 0-8.092-.274.064-1.978.058-4.536.05-9.262-.024-29.737-.05-34.2 3.266ZM126.733 235.48c-24.182 2.883-29.013-18.116-29.013-18.116s-.261 2.228-.657 5.683c3.458 9.234 6.665 21.913 9.846 29.862 1.354 3.386 1.551 9.559 1.206 16.554a84.383 84.383 0 0 0 6.048-.354c23.697-2.176 42.798-37.721 42.798-37.721s-6.044 1.209-30.228 4.092Z" fill="#F49B7F"/><path d="M92.097 173.116s13.57 8.621 15.692 29.217c.896 8.704-.149 11.599.839 20.998.988 9.398 13.109 14.505 24.525 11.372-9.076 7.93-29.844 1.797-33.968-9.01-4.125-10.808-7.088-52.577-7.088-52.577Z" fill="#F49B7F"/><path d="m188.645 111.879-1.986-1.602-41.282 5.422c-1.364 5.625-3.434 11.541-6.349 13.408-3.54 2.265-23.565 10.064-37.201 17.494 3.824-.345 15.304-4.036 15.902-1.445 4.114 17.795 3.43 13.623 12.688 21.853a49.803 49.803 0 0 0 5.918 4.507c21.124 13.777 10.048 49.655.426 58.207-5.773 5.13-13.624 6.64-20.845 6.381 16.14 8.524 33.187.039 33.187.039-14.508 21.178-29.346 25.637-36.452 19.366-3.686-3.254-7.168-9.196-9.67-14.164 1.324 4.271 2.628 8.316 3.928 11.564 2.247 5.618 1.311 18.898-.009 30.896 3.225 1.743 11.468 3.779 30.96-1.484 28.109-7.589 79.835-73.904 80.056-85.026.185-9.308 3.297-43.706 4.308-54.691-12.789-5.127-24.647-10.233-26.977-12.409-2.986-2.786-5.204-11.244-6.602-18.316Z" fill="#F49B7F"/><path d="m201.105 131.177-4.652 11.606s-11.725 50.438-29.498 82.942c-17.772 32.504-46.14 51.332-50.778 52.09-4.637.757-8.258-7.98-8.258-7.98-2.986 7.254-3.168 10.337-2.804 13.42.362 3.084-5.804 8.705-5.804 11.788 0 3.084-3.264 9.793-5.26 11.606-6.89.726-9.792 5.26-11.424 5.26-1.632 0-5.44-1.757-8.343 2.567 8.343 2.692 10.337 3.055 24.301 6.681 13.964 3.628 34.548.475 54.678-8.984 20.13-9.458 64.744-62.905 69.276-86.48 4.533-23.576 9.704-79.865 9.704-79.865l-31.138-14.651Z" fill="#D85C00"/><path d="m127.012 310.973-21.977-1.609s12.332 6.716 24.12 10.524c11.788 3.808 27.406 6.167 52.422 4.715 25.014-1.451 50.584-5.056 67.511-2.951 16.927 2.104 43.024 3.383 43.024 3.383s-9.128-5.194-23.053-8.435c-13.926-3.24-18.098-2.133-26.268-3.613-8.171-1.48-82.346 2.606-89.528 1.489-7.182-1.116-26.251-3.503-26.251-3.503Z" fill="#D85C00"/><path d="M259.037 157.609s-20.609-.574-30.865 19.555c-10.256 20.131-17.393 34.587-23.84 44.043 7.519-22.28 15.316-48.032 23.477-58.914 8.162-10.88 19.376-14.842 19.376-14.842s9.083 3.7 11.852 10.158Z" fill="#EF8800"/><path d="M105.115 283.255s27.457 18.881 71.19-29.078c-17.153 37.54-49.709 46.946-63.352 43.906-13.642-3.04-7.838-14.828-7.838-14.828Z" fill="#DE7207"/><path d="M206.073 132.981s-1.076 32.335-19.412 74.076c-18.334 41.742-58.856 81.752-74.036 84.556-15.18 2.804-10.19-52.03-10.19-52.03s8.632 2.513 20.473-4.196c11.841-6.711 39.452-31.342 53.156-67.578 13.701-36.236 21.672-37.856 21.672-37.856l8.337 3.028Z" fill="#D85C00"/><path d="M199.681 132.595s5.418 31.948-12.917 73.689c-18.336 41.741-57.216 76.056-72.397 78.859-15.179 2.804-12.839-15.694-12.839-15.694s.999 9.794 12.839 3.082c11.841-6.71 43.738-38.695 57.44-74.932 13.704-36.236 19.537-68.032 19.537-68.032l8.337 3.028Z" fill="#DE7207"/><path d="M264.331 169.437s-25.92-2.054-31.856 82.084c-3.28 46.518-31.203 43.382-41.379 53.136-5.659 5.427-4.905 13.791-21.96 15.231-13.608 1.149-63.125-8.395-75.084-13.239 39.817 4.171 64.649-.18 84.513-29.016 19.866-28.834 29.659-40.038 40.903-65.446 11.243-25.411 36.601-51.675 44.863-42.75Z" fill="#D85C00"/><path d="M37.028 324.073s23.655-2.205 33.57 1.763c9.913 3.967 8.22 4.724 17.167 4.707 8.947-.015 12.332 5.305 18.86 5.788 6.53.482 9.431-2.418 18.136 1.934 8.704 4.352 18.378 5.078 25.147 5.078 6.771 0 7.012.726 13.783 2.417 6.77 1.693 15.476-.965 19.344-.965 7.496 1.208 30.093 9.646 36.754 19.344 6.662 9.696 0 16.2-7.013 20.068-7.012 3.87-14.748 1.934-19.101 5.321-4.354 3.386-14.508 6.77-21.279 9.429-6.771 2.66-10.397 1.452-23.455 2.66-13.057 1.21-15.233 2.66-29.5 3.143-14.266.485-39.172-2.417-48.602-2.417s-28.291.484-36.754-2.66c-8.464-3.144-11.606-5.803-15.958-16.202-4.354-10.397-19.798-5.465-17.006-17.858 6.791-30.138 20.407-39.808 35.907-41.55Z" fill="#DE7207"/><path d="M26.39 336.419s22.002-15.019 51.502-8.642c-3.165-6.034-34.336-13.274-51.503 8.642ZM222.457 373.061l-20.278-8.922s-23.275 10.638-45.248 12.089c-21.974 1.451-17.731 6.287-41.131 7.253-23.4.968-45.759-3.785-68.19-5.518-20.48-1.584-38.051-13.979-42.095-26.927-3.687 5.325-7.487 21.531-3.358 31.393 4.354 10.399 13.296 17.02 21.76 20.163 8.463 3.144 40.938 5.783 50.367 5.783 9.43 0 30.891-3.13 45.157-3.615 14.266-.483 16.443-1.933 29.5-3.143 13.058-1.208 16.684 0 23.455-2.66 6.771-2.659 16.925-6.043 21.279-9.429 3.594-2.796 9.498-1.972 15.396-3.777a326.848 326.848 0 0 0 9.896-6.079c1.832-1.881 3.158-4.077 3.49-6.611Z" fill="#D85C00"/><path d="M102.031 395.875s-1.45 2.176-12.332-1.632c-10.88-3.81-18.316-4.354-22.306-1.995-3.989 2.357-8.524-1.753-13.36-.907-4.836.847-7.254 6.166-6.165 9.309 1.088 3.143 4.595 2.902 5.683 2.781 1.088-.122 11.484-1.899 12.572-1.069 1.089.827-.18 1.038-2.356 1.129-2.178.092-10.972.743-12.332 1.324-1.36.581-1.906 4.66 1.541 5.657 3.445.999 5.079-.543 7.979-.905 2.902-.363 6.348-.726 6.801.272.453.997-1.45 1.114-4.172.966-2.72-.15-7.979.484-9.43 1.754-1.45 1.269-.634 3.808 1.451 4.625 2.086.814 5.804.09 8.887-.453 3.083-.545 5.077-.085 4.533.819-.544.903-3.264-.276-6.076.448-2.81.728-5.712 1.27-4.442 4.082 1.27 2.811 5.077 2.267 7.073 1.632 1.995-.635 3.445-1.269 4.08-.635.635.635-2.448 1.632-5.893 2.176-3.446.544-2.178 3.627.816 4.806 2.992 1.18 11.696-1.179 13.692-2.449 1.994-1.269 8.341-2.447 17.772-1.994 9.43.453 21.309-.453 21.309-.453l-15.325-29.288Z" fill="#F4A98C"/><path d="M56.935 396.238s-.926 2.478-.684 4.776c.242 2.295-6.124 1.691-7.254.663-1.129-1.027-1.209-4.653.483-5.561 1.693-.907 7.455.122 7.455.122ZM55.848 407.169c.077.514.181 1.134.303 1.662.134.586-.186 1.19-.758 1.377-1.31.432-3.068.587-3.797-.037-.952-.814-1.193-2.78-.604-3.369.393-.394 2.361-.565 3.627-.637a1.178 1.178 0 0 1 1.229 1.004ZM58.727 413.837c.077.52.184 1.149.306 1.685a1.156 1.156 0 0 1-.748 1.362c-1.313.435-3.078.591-3.809-.033-.952-.815-1.193-2.78-.604-3.371.395-.395 2.373-.564 3.639-.635a1.163 1.163 0 0 1 1.216.992ZM63.51 420.788c.074.488.173 1.067.286 1.569.139.612-.195 1.244-.792 1.438-1.308.42-3.032.564-3.752-.052-.952-.815-1.195-2.782-.605-3.371.388-.388 2.31-.56 3.578-.632a1.227 1.227 0 0 1 1.286 1.048ZM66.879 427.063c.037.205.077.418.121.628.17.802-.323 1.617-1.123 1.804-1.177.273-2.542.314-3.154-.167-.916-.72-1.148-2.461-.582-2.983.342-.316 1.922-.469 3.122-.541.78-.048 1.48.489 1.616 1.259Z" fill="#F9B89B"/><path d="M102.031 395.874s-1.063 1.586-8.155-.326c1.344 1.14 2.439 2.454 2.957 3.489 3.695 9.608.47 19.794-6.528 26.503 1.76-.04 3.672-.023 5.742.076 9.43.453 21.309-.454 21.309-.454l-15.325-29.288Z" fill="#F49B7F"/><path d="M96.953 395.743s4.339 2.902 6.046 9.071c3.122 11.29 8.705 26.06 15.717 27.754 7.012 1.692 10.881-2.176 19.585 0 8.706 2.176 12.332 3.868 23.939 3.385 11.607-.482 37.237-3.144 72.057-7.496 34.819-4.352 67.222-6.286 83.664-12.09 16.443-5.803 23.212-43.041 17.894-59.967-5.322-16.927-13.307-22.817-26.179-25.857-12.872-3.038-26.656-9.567-34.272-10.655 3.081 7.073-1.815 18.136-7.255 24.301-5.441 6.167-4.352 8.342-17.773 10.882-13.419 2.538-27.717 3.513-33.081 9.373-5.364 5.86-7.587 9.224-38.007 13.518-30.423 4.294-82.335 17.781-82.335 17.781Z" fill="#DE7207"/><path d="M317.961 416.367c15.374-5.426 22.29-38.332 18.775-56.422-2.009 11.169-8.468 31.502-29.132 38.044-29.017 9.19-46.909 14.595-57.549 12.618-10.639-1.978 28.053-25.834 24.908-28.898-3.146-3.064-24.868 20.082-57.047 29.305-32.18 9.222-55.891 8.254-55.891 8.254s28.775-8.508 46.795-28.433c-26.953 14.41-62.984 24.082-82.448 21.663a2123.81 2123.81 0 0 1-22.336-2.884c2.731 10.434 8.613 21.49 14.68 22.954 7.012 1.692 10.881-2.176 19.585 0 8.706 2.176 12.332 3.868 23.939 3.385 11.607-.482 37.237-3.144 72.057-7.496 34.819-4.352 67.222-6.286 83.664-12.09ZM211.804 369.604s16.731-10.907 24.348-11.451c7.616-.544 12.853-.181 21.841-4.172 8.988-3.989 16.062-6.165 21.502-9.429 5.44-3.264 1.996-11-11.152-9.4-13.148 1.601-59.758 30.075-60.302 30.256-.542.18-1.221 4.196-1.221 4.196h4.984Z" fill="#D85C00"/><path d="M191.265 347.052s3.436.344 3.8-5.248c.362-5.595.182-11.397 11.063-10.309 10.88 1.089 20.673 2.282 31.011-5.659 10.336-7.943 17.409-5.948 20.854-5.948 6.71-3.627 15.223-3.116 17.894-.968 2.67 2.151 0 3.491-1.208 4.223 3.505.13 3.072 3.352 1.353 5.218 1.639 1.955.213 3.136-1.069 4.042 1.166 1.63.276 3.046-1.682 4.016.4 1.785-.054 2.922-2.82 4.802-2.765 1.88-11.652 5.326-17.273 6.415-5.621 1.087-34.124 14.327-42.345 20.855-8.222 6.529-19.578-21.439-19.578-21.439Z" fill="#F4A98C"/><path d="M191.265 347.052s3.436.344 3.8-5.248c.362-5.595.182-11.397 11.063-10.309 10.88 1.089 10.679 11.862 31.011-5.659 9.874-8.511 17.409-5.948 20.854-5.948 6.71-3.627 15.223-3.116 17.894-.968 2.67 2.151 0 3.491-1.208 4.223 3.505.13 3.072 3.352 1.353 5.218 1.639 1.955.213 3.136-1.069 4.042 1.166 1.63.276 3.046-1.682 4.016.4 1.785-.054 2.922-2.82 4.802-2.765 1.88-11.652 5.326-17.273 6.415-5.621 1.087-34.124 14.327-42.345 20.855-8.222 6.529-19.578-21.439-19.578-21.439Z" fill="#F4A98C"/><path d="M272.853 326.371s.696.997.836 2.404c1.792-.136 2.27-.386 2.972-.795.702-.407.702-2.331 0-2.945-.702-.614-3.808 1.336-3.808 1.336ZM272.853 330.635s.618.797.739 1.922c1.588-.109 2.009-.308 2.631-.636.622-.326.622-1.865 0-2.356-.622-.49-3.37 1.07-3.37 1.07ZM271.916 334.559s.616.798.739 1.921c1.588-.108 2.009-.307 2.632-.633.621-.327.621-1.867 0-2.358-.623-.49-3.371 1.07-3.371 1.07ZM270.367 337.765s.542.635.65 1.528c1.394-.086 1.764-.245 2.31-.504.546-.261.546-1.484 0-1.872-.546-.39-2.96.848-2.96.848ZM271.576 323.999s.155-2.267-.8-3.264c-.953-.998 4.732-1.699 5.577-1.394.844.304.935 2.059.724 2.844-.213.787-4.988 1.754-5.501 1.814Z" fill="#F9B89B"/><path d="M191.383 347.335c1.201 2.874 11.718 27.304 19.46 21.156 8.221-6.528 36.724-19.768 42.345-20.855 1.472-.285 3.169-.735 4.92-1.273-12.896 1.68-25.129 7.53-38.157 11.004-11.296 3.477-21.792-1.82-28.568-10.032Z" fill="#F49B7F"/><path d="M262.98 327.777c1.897-1.113 3.895-1.949 5.915-2.73 2.029-.754 4.084-1.444 6.242-1.859-1.892 1.117-3.886 1.963-5.908 2.744-2.032.753-4.09 1.432-6.249 1.845ZM265.52 331.676c1.676-.844 3.417-1.447 5.061-2.163.41-.162.778-.384 1.252-.582a8.061 8.061 0 0 1 1.383-.411c.931-.189 1.876-.263 2.816-.159-.893.288-1.768.56-2.613.87-.418.164-.835.32-1.222.52-.366.174-.792.433-1.234.628-.879.37-1.767.657-2.675.87-.907.216-1.825.379-2.768.427ZM266.697 335.848c1.239-.921 2.578-1.585 3.92-2.221.702-.308 1.291-.606 2.047-.912.735-.27 1.527-.419 2.299-.312a14.18 14.18 0 0 0-1.983.98c-.292.185-.608.388-.951.585-.334.185-.674.349-1.013.516-1.377.617-2.792 1.132-4.319 1.364ZM265.883 339.293l3.585-1.656c.599-.248 1.109-.577 1.779-.852.641-.256 1.337-.43 2.034-.366-.609.321-1.154.665-1.693 1.021l-.809.559a9.443 9.443 0 0 1-.914.497 9.825 9.825 0 0 1-1.936.652c-.662.143-1.353.251-2.046.145Z" fill="#B25B39"/><path d="M253.741 151.307s-16.709 6.044-20.757 47.182c-4.048 41.14 2.365 87.878 5.427 99.35 3.061 11.47-7.134 17.261-12.36 14.918-5.227-2.341-11.05 1.343-13.668 4.479-2.619 3.133-8.85-3.504-13.66 0-4.811 3.503-13.724 6.187-15.351 5.952-1.627-.237-1.755-32.981-.535-65.983 1.22-33.001 7.89-99.014 14.204-115.265 6.316-16.249 8.743-14.14 15.342-10.763 6.598 3.378 13.973 4.578 21.53 7.388 7.559 2.811 20.031 5.88 19.828 12.742Z" fill="#FF9517"/><path d="M230.841 167.132c-11.158 32.999-13.712 74.34-14.81 95.635-.882 17.116.444 41.534 1.018 50.748 2.238-1.186 4.847-1.851 7.411-1.272-.789-10.692-2.901-42.827-2.236-72.66.771-34.591 6.721-66.123 8.617-72.451ZM208.668 169.901c-11.232 33.071-10.628 76.087-11.729 97.46-.871 16.907.413 40.948.997 50.411.269-.177.536-.355.787-.536 2.082-1.517 4.432-1.132 6.638-.463-.792-10.758-2.893-42.826-2.229-72.597.785-35.268 3.963-68.751 5.536-74.275Z" fill="#DE7207"/><path d="M233.913 138.565a74.816 74.816 0 0 0-2.581-.9c-5.801 2.08-14.857 9.414-18.949 34.411-6.272 38.304-3.563 96.567-3.563 96.567s.391-33.807 6.917-78.068c5.01-33.966 14.602-47.379 18.795-51.786-.205-.074-.42-.15-.619-.224Z" fill="#DE7207"/><path d="M135.672 130.273c-.503 0-.985-.2-1.344-.55l-.237-.294-.171-.321a1.534 1.534 0 0 1-.104-.36 1.546 1.546 0 0 1-.037-.369c0-.503.197-.986.549-1.336.709-.71 1.969-.71 2.68 0 .351.35.559.833.559 1.336 0 .122-.019.256-.039.369a2.473 2.473 0 0 1-.113.36l-.171.321-.236.294c-.351.35-.843.55-1.336.55Z" fill="#562616"/><path d="M135.397 134.071a1.896 1.896 0 0 1-1.809-1.98 1.89 1.89 0 1 1 3.779.161 1.889 1.889 0 0 1-1.884 1.819h-.086Zm-.122 3.797a1.902 1.902 0 0 1-1.838-1.96 1.893 1.893 0 0 1 1.96-1.828 1.89 1.89 0 0 1 1.827 1.951 1.887 1.887 0 0 1-1.893 1.837h-.056Zm61.464.351a1.893 1.893 0 1 1 2.073 1.694l-.189.01c-.956 0-1.79-.728-1.884-1.704Zm-61.559 3.446a1.893 1.893 0 0 1-1.847-1.941c.019-1.041.89-1.865 1.942-1.847a1.902 1.902 0 0 1 1.846 1.942 1.897 1.897 0 0 1-1.894 1.846h-.047Zm61.861.275a1.876 1.876 0 0 1 1.763-2.008 1.885 1.885 0 0 1 2.016 1.763v.009a1.894 1.894 0 0 1-1.771 2.007h-.124a1.882 1.882 0 0 1-1.884-1.771Zm-61.918 3.524a1.883 1.883 0 0 1-1.866-1.924 1.892 1.892 0 0 1 1.923-1.856 1.88 1.88 0 0 1 1.865 1.913v.011a1.891 1.891 0 0 1-1.893 1.856h-.029Zm62.108.227a1.892 1.892 0 0 1 1.809-1.97 1.904 1.904 0 0 1 1.98 1.818 1.907 1.907 0 0 1-1.82 1.969h-.075a1.89 1.89 0 0 1-1.894-1.817Zm-62.136 3.58a1.902 1.902 0 0 1-1.884-1.914 1.89 1.89 0 0 1 1.912-1.874 1.891 1.891 0 0 1 1.876 1.902 1.893 1.893 0 0 1-1.895 1.886h-.009Zm62.26.189a1.891 1.891 0 0 1 1.845-1.941 1.9 1.9 0 0 1 1.943 1.846h-.01a1.89 1.89 0 0 1-1.846 1.942h-.048a1.88 1.88 0 0 1-1.884-1.847Zm-64.155 1.713a1.894 1.894 0 1 1 3.788.002 1.894 1.894 0 0 1-3.788-.002Zm64.22 2.066a1.882 1.882 0 0 1 1.867-1.914 1.896 1.896 0 0 1 1.921 1.875 1.907 1.907 0 0 1-1.875 1.915h-.018a1.896 1.896 0 0 1-1.895-1.876Zm-64.2 1.752a1.892 1.892 0 0 1 1.875-1.904 1.9 1.9 0 0 1 1.913 1.876 1.91 1.91 0 0 1-1.885 1.913h-.01a1.891 1.891 0 0 1-1.893-1.885Zm66.095 3.921a1.893 1.893 0 0 1-1.886-1.895c0-1.05.854-1.894 1.904-1.894a1.89 1.89 0 0 1 1.884 1.894 1.893 1.893 0 0 1-1.893 1.895h-.009Zm-66.058-.104a1.906 1.906 0 0 1 1.866-1.923 1.88 1.88 0 0 1 1.922 1.866 1.893 1.893 0 0 1-1.865 1.922h-.028a1.894 1.894 0 0 1-1.895-1.865Zm66.01 3.911a1.896 1.896 0 0 1-1.866-1.923 1.88 1.88 0 0 1 1.914-1.865 1.893 1.893 0 0 1-.028 3.788h-.02Zm-65.934-.095a1.89 1.89 0 0 1 1.847-1.932 1.889 1.889 0 0 1 1.941 1.847 1.887 1.887 0 0 1-1.846 1.932h-.048a1.895 1.895 0 0 1-1.894-1.847Zm65.83 3.892a1.886 1.886 0 0 1-1.838-1.941 1.883 1.883 0 0 1 1.942-1.838 1.887 1.887 0 0 1 1.837 1.942 1.897 1.897 0 0 1-1.895 1.848l-.046-.011Zm-65.726-.076a1.889 1.889 0 0 1 1.838-1.951 1.892 1.892 0 0 1 1.949 1.828 1.9 1.9 0 0 1-1.836 1.96h-.057a1.9 1.9 0 0 1-1.894-1.837Zm65.584 3.884a1.896 1.896 0 1 1 .075 0h-.075Zm-65.442-.067h-.008a1.893 1.893 0 0 1 1.817-1.97 1.898 1.898 0 0 1 1.971 1.82 1.903 1.903 0 0 1-1.819 1.969h-.076a1.89 1.89 0 0 1-1.885-1.819Zm65.262 3.874a1.902 1.902 0 0 1-1.8-1.99 1.893 1.893 0 0 1 1.98-1.798 1.88 1.88 0 0 1 1.799 1.978h.009a1.908 1.908 0 0 1-1.894 1.81h-.094Zm-65.101-.067a1.895 1.895 0 0 1 1.8-1.98 1.902 1.902 0 0 1 1.988 1.8 1.91 1.91 0 0 1-1.808 1.989h-.085a1.894 1.894 0 0 1-1.895-1.809Zm64.873 3.864a1.897 1.897 0 0 1-1.78-2.007 1.91 1.91 0 0 1 2.008-1.781 1.894 1.894 0 0 1 1.771 2.008 1.891 1.891 0 0 1-1.895 1.78h-.104Zm-64.674-.047a1.888 1.888 0 0 1 1.781-1.998 1.897 1.897 0 0 1 1.999 1.79v-.01a1.892 1.892 0 0 1-1.782 1.998l-.104.01a1.892 1.892 0 0 1-1.894-1.79Zm64.39 3.835a1.883 1.883 0 0 1-1.742-2.027h-.01a1.897 1.897 0 0 1 2.027-1.752 1.898 1.898 0 0 1-.132 3.79l-.143-.011Zm-64.162-.027a1.886 1.886 0 0 1 1.77-2.008 1.888 1.888 0 0 1 2.008 1.771 1.888 1.888 0 0 1-1.761 2.007h-.132a1.893 1.893 0 0 1-1.885-1.77Zm63.841 3.826a1.885 1.885 0 0 1-1.724-2.046 1.884 1.884 0 0 1 2.045-1.724 1.885 1.885 0 0 1 1.724 2.046 1.894 1.894 0 0 1-1.884 1.733l-.161-.009Zm-63.576-.01a1.91 1.91 0 0 1 1.752-2.036 1.895 1.895 0 0 1 .275 3.779l-.143.008a1.89 1.89 0 0 1-1.884-1.751Zm63.197 3.798a1.902 1.902 0 0 1-1.705-2.075h.009a1.894 1.894 0 0 1 2.075-1.695 1.886 1.886 0 0 1 1.685 2.075 1.888 1.888 0 0 1-1.876 1.704l-.188-.009Zm-62.894 0a1.89 1.89 0 0 1 1.724-2.047 1.9 1.9 0 0 1 2.045 1.733 1.89 1.89 0 0 1-1.724 2.046l-.161.01c-.976 0-1.81-.748-1.884-1.742Zm62.449 3.778a1.89 1.89 0 0 1-1.659-2.102 1.882 1.882 0 0 1 2.095-1.658 1.89 1.89 0 0 1 1.667 2.094 1.896 1.896 0 0 1-1.886 1.676l-.217-.01Zm-62.117.028a1.899 1.899 0 0 1 1.713-2.064 1.89 1.89 0 0 1 2.055 1.714 1.875 1.875 0 0 1-1.704 2.054l-.18.011c-.966 0-1.79-.739-1.884-1.715Zm61.614 3.742a1.891 1.891 0 1 1 .503-3.751 1.896 1.896 0 0 1 1.628 2.121 1.904 1.904 0 0 1-1.885 1.648l-.246-.018Zm-61.236.074a1.894 1.894 0 0 1 1.676-2.092 1.902 1.902 0 0 1 2.094 1.667 1.912 1.912 0 0 1-1.678 2.103l-.208.009c-.956 0-1.77-.72-1.884-1.687Zm60.668 3.686a1.878 1.878 0 0 1-1.59-2.15 1.892 1.892 0 0 1 2.158-1.592 1.906 1.906 0 0 1 1.591 2.159 1.907 1.907 0 0 1-1.875 1.611l-.284-.028Zm-60.157.16a1.888 1.888 0 0 1 1.581-2.159 1.89 1.89 0 0 1 2.16 1.581 1.887 1.887 0 0 1-1.581 2.16l-.293.028c-.92 0-1.724-.673-1.867-1.61Zm59.504 3.59a1.89 1.89 0 0 1-1.543-2.188 1.898 1.898 0 0 1 2.196-1.544 1.902 1.902 0 0 1 1.535 2.198 1.89 1.89 0 0 1-1.867 1.562l-.321-.028Zm-58.832.236a1.885 1.885 0 0 1 1.488-2.225 1.88 1.88 0 0 1 2.224 1.487 1.895 1.895 0 0 1-1.856 2.264 1.888 1.888 0 0 1-1.856-1.526Zm58.084 3.495a1.893 1.893 0 0 1-1.487-2.227 1.906 1.906 0 0 1 2.235-1.485 1.886 1.886 0 0 1 1.477 2.225h.01c-.18.9-.976 1.526-1.856 1.526-.123 0-.246-.011-.379-.039Zm-57.24.303a1.91 1.91 0 0 1 1.383-2.302 1.897 1.897 0 1 1 .454 3.742 1.91 1.91 0 0 1-1.837-1.44Zm56.396 3.41a1.906 1.906 0 0 1-1.429-2.274 1.907 1.907 0 0 1 2.273-1.42 1.891 1.891 0 0 1 1.42 2.273 1.89 1.89 0 0 1-2.264 1.421Zm-55.345.35h-.01a1.892 1.892 0 0 1 1.26-2.367 1.896 1.896 0 0 1 2.367 1.249 1.905 1.905 0 0 1-1.251 2.368 1.898 1.898 0 0 1-.557.084 1.88 1.88 0 0 1-1.809-1.334Zm54.361 3.324a1.88 1.88 0 0 1-1.336-2.311 1.883 1.883 0 0 1 2.312-1.344 1.897 1.897 0 0 1 1.344 2.32 1.9 1.9 0 0 1-2.32 1.335Zm-53.101.378a1.892 1.892 0 0 1 1.106-2.441 1.903 1.903 0 0 1 2.446 1.108 1.91 1.91 0 0 1-1.11 2.443 1.843 1.843 0 0 1-.662.122 1.906 1.906 0 0 1-1.78-1.232Zm51.973 3.259a1.891 1.891 0 0 1-1.239-2.368 1.89 1.89 0 0 1 2.367-1.251 1.905 1.905 0 0 1 1.251 2.378 1.905 1.905 0 0 1-2.379 1.241Zm-50.468.369a1.894 1.894 0 1 1 3.448-1.572 1.897 1.897 0 0 1-.929 2.51c-.255.113-.53.169-.795.169a1.898 1.898 0 0 1-1.724-1.107Zm49.152 3.202a1.886 1.886 0 0 1-1.117-2.434 1.891 1.891 0 0 1 2.433-1.117 1.896 1.896 0 0 1-.663 3.673c-.217 0-.436-.048-.653-.122Zm-47.361.321a1.891 1.891 0 1 1 3.304-1.837c.512.91.18 2.065-.728 2.576a1.939 1.939 0 0 1-.93.236 1.865 1.865 0 0 1-1.646-.975Zm45.789 3.144a1.891 1.891 0 0 1-.937-2.509 1.894 1.894 0 1 1 3.448 1.572 1.885 1.885 0 0 1-1.724 1.108c-.266 0-.53-.058-.787-.171Zm-43.705.237a1.887 1.887 0 0 1 .492-2.633 1.898 1.898 0 0 1 2.632.492 1.896 1.896 0 0 1-1.563 2.965 1.875 1.875 0 0 1-1.561-.824Zm41.81 3.059a1.89 1.89 0 0 1-.69-2.585 1.89 1.89 0 0 1 2.585-.691 1.902 1.902 0 0 1 .692 2.595 1.901 1.901 0 0 1-2.587.681Zm-39.396.124a1.892 1.892 0 0 1 .218-2.671 1.9 1.9 0 0 1 2.67.218 1.899 1.899 0 0 1-1.449 3.125 1.869 1.869 0 0 1-1.439-.672Zm2.775 2.907a1.89 1.89 0 1 1 2.575-2.766c.768.711.806 1.914.096 2.671a1.865 1.865 0 0 1-1.383.607c-.464 0-.928-.171-1.288-.512Zm3.133 2.566a1.896 1.896 0 1 1 2.643-.454 1.894 1.894 0 0 1-1.552.796 1.93 1.93 0 0 1-1.091-.342Zm3.487 2.103a1.897 1.897 0 0 1-.833-2.548 1.889 1.889 0 0 1 2.546-.833 1.892 1.892 0 0 1 .834 2.538 1.882 1.882 0 0 1-1.695 1.042c-.284 0-.577-.067-.852-.199Zm21.165-.861a1.89 1.89 0 0 1 .986-2.491 1.899 1.899 0 0 1 2.301.653 1.894 1.894 0 0 1 .54-2.273h.009a1.889 1.889 0 0 1 2.426.056 1.904 1.904 0 0 1-.086-2.452h.01a1.893 1.893 0 0 1 2.66-.304c.816.655.948 1.837.304 2.661a1.898 1.898 0 0 1-2.671.304l-.067-.057.087.095a1.9 1.9 0 0 1-2.976 2.358l-.065-.094.018.037a1.893 1.893 0 0 1-.984 2.491 1.882 1.882 0 0 1-2.492-.984Zm-3.645 1.098a1.89 1.89 0 0 1 1.269-2.358 1.888 1.888 0 0 1 2.359 1.269 1.886 1.886 0 0 1-1.269 2.357c-.18.058-.371.086-.542.086-.822 0-1.57-.531-1.817-1.354Zm-13.723 1.315a1.883 1.883 0 0 1-1.23-2.376 1.89 1.89 0 0 1 2.385-1.232 1.884 1.884 0 0 1 1.221 2.379 1.893 1.893 0 0 1-2.376 1.229Zm9.964-.709a1.891 1.891 0 0 1 1.571-2.17 1.89 1.89 0 0 1 2.169 1.574c.17 1.03-.54 1.997-1.572 2.168l-.304.02a1.896 1.896 0 0 1-1.864-1.592Zm-5.977 1.638a1.886 1.886 0 0 1-1.591-2.15 1.893 1.893 0 0 1 2.15-1.6 1.894 1.894 0 0 1 1.592 2.15 1.893 1.893 0 0 1-1.867 1.619l-.284-.019Zm2.169-1.6a1.9 1.9 0 0 1 1.876-1.913 1.893 1.893 0 0 1 1.912 1.875 1.888 1.888 0 0 1-1.874 1.913h-.02a1.89 1.89 0 0 1-1.894-1.875ZM139.888 133.535a1.628 1.628 0 0 1-1.553-1.7 1.621 1.621 0 0 1 1.692-1.554 1.628 1.628 0 0 1-.066 3.254h-.073Zm-.105 3.262a1.636 1.636 0 0 1-1.579-1.685 1.627 1.627 0 0 1 1.684-1.568c.895.032 1.603.78 1.569 1.675a1.621 1.621 0 0 1-1.626 1.578h-.048Zm52.788.3a1.626 1.626 0 1 1 1.781 1.456l-.163.008a1.627 1.627 0 0 1-1.618-1.464Zm-52.87 2.96a1.627 1.627 0 1 1 .042 0h-.042Zm53.128.238a1.613 1.613 0 0 1 1.514-1.726 1.62 1.62 0 0 1 1.733 1.514v.008a1.628 1.628 0 0 1-1.521 1.724h-.106c-.854 0-1.57-.659-1.62-1.52Zm-53.177 3.025a1.614 1.614 0 0 1-1.601-1.652 1.622 1.622 0 0 1 1.65-1.593 1.614 1.614 0 0 1 1.603 1.642v.008a1.626 1.626 0 0 1-1.627 1.595h-.025Zm53.34.195a1.627 1.627 0 1 1 3.253-.13 1.636 1.636 0 0 1-1.56 1.692h-.065a1.626 1.626 0 0 1-1.628-1.562Zm-53.364 3.074a1.633 1.633 0 0 1-1.619-1.642 1.627 1.627 0 0 1 1.643-1.611c.896.008 1.619.74 1.611 1.635 0 .894-.732 1.618-1.627 1.618h-.008Zm53.471.163a1.627 1.627 0 1 1 3.253-.081h-.008a1.625 1.625 0 0 1-1.587 1.668h-.04c-.878 0-1.602-.7-1.618-1.587ZM138 148.224a1.627 1.627 0 1 1 3.255 0 1.627 1.627 0 0 1-3.255 0Zm55.155 1.775a1.615 1.615 0 0 1 1.602-1.644 1.63 1.63 0 0 1 1.652 1.61 1.637 1.637 0 0 1-1.61 1.643h-.016a1.629 1.629 0 0 1-1.628-1.609Zm-55.138 1.504a1.626 1.626 0 0 1 1.611-1.636 1.632 1.632 0 0 1 1.643 1.61 1.64 1.64 0 0 1-1.619 1.644h-.008a1.625 1.625 0 0 1-1.627-1.618Zm56.766 3.366a1.624 1.624 0 0 1-1.619-1.626c0-.903.732-1.627 1.635-1.627.894 0 1.617.732 1.617 1.627 0 .902-.731 1.626-1.625 1.626h-.008Zm-56.732-.089a1.635 1.635 0 0 1 1.601-1.651c.904-.017 1.644.7 1.652 1.602.016.896-.7 1.636-1.603 1.652h-.024a1.625 1.625 0 0 1-1.626-1.603Zm56.692 3.359a1.625 1.625 0 0 1-1.603-1.651 1.61 1.61 0 0 1 1.643-1.601 1.625 1.625 0 0 1-.026 3.252h-.014Zm-56.628-.082a1.625 1.625 0 0 1 1.586-1.658 1.622 1.622 0 0 1 1.667 1.586 1.619 1.619 0 0 1-1.585 1.659h-.04a1.629 1.629 0 0 1-1.628-1.587Zm56.537 3.344a1.618 1.618 0 0 1-1.577-1.668 1.613 1.613 0 0 1 1.668-1.577 1.618 1.618 0 0 1 1.576 1.667 1.628 1.628 0 0 1-1.627 1.586l-.04-.008Zm-56.448-.065a1.623 1.623 0 0 1 1.579-1.676 1.625 1.625 0 0 1 1.674 1.571 1.634 1.634 0 0 1-1.577 1.684h-.049c-.879 0-1.594-.7-1.627-1.579Zm56.325 3.335a1.626 1.626 0 0 1-1.56-1.684 1.626 1.626 0 1 1 3.252.122 1.63 1.63 0 0 1-1.626 1.562h-.066Zm-56.202-.058h-.008a1.628 1.628 0 1 1 1.692 1.562h-.066c-.87 0-1.585-.691-1.618-1.562Zm56.049 3.328a1.635 1.635 0 0 1-1.547-1.709 1.627 1.627 0 0 1 1.7-1.545 1.617 1.617 0 0 1 1.547 1.7h.007a1.639 1.639 0 0 1-1.626 1.554h-.081Zm-55.911-.057a1.625 1.625 0 0 1 1.546-1.7 1.632 1.632 0 0 1 1.706 1.545 1.638 1.638 0 0 1-1.552 1.708h-.074c-.87 0-1.586-.684-1.626-1.553Zm55.715 3.317a1.627 1.627 0 0 1-1.529-1.724 1.641 1.641 0 0 1 1.725-1.529 1.63 1.63 0 0 1 1.521 1.725 1.624 1.624 0 0 1-1.628 1.528h-.089Zm-55.544-.04a1.625 1.625 0 1 1 3.245-.18v-.008a1.624 1.624 0 0 1-1.529 1.718l-.089.006a1.624 1.624 0 0 1-1.627-1.536Zm55.3 3.295a1.617 1.617 0 0 1-1.496-1.741h-.009a1.63 1.63 0 0 1 1.741-1.506 1.63 1.63 0 0 1-.113 3.255l-.123-.008Zm-55.105-.025a1.62 1.62 0 0 1 1.521-1.724 1.622 1.622 0 0 1 1.725 1.521 1.622 1.622 0 0 1-1.514 1.724h-.114a1.627 1.627 0 0 1-1.618-1.521Zm54.829 3.286a1.617 1.617 0 0 1-1.48-1.757 1.616 1.616 0 0 1 1.756-1.48 1.62 1.62 0 0 1 1.481 1.757 1.628 1.628 0 0 1-1.618 1.488l-.139-.008Zm-54.601-.009a1.639 1.639 0 0 1 1.504-1.748 1.631 1.631 0 0 1 1.741 1.505 1.63 1.63 0 0 1-1.504 1.74l-.123.008c-.846 0-1.553-.65-1.618-1.505Zm54.276 3.261a1.632 1.632 0 0 1-1.466-1.78h.01a1.625 1.625 0 0 1 1.781-1.456 1.62 1.62 0 0 1 1.447 1.782 1.62 1.62 0 0 1-1.61 1.464l-.162-.01Zm-54.016 0a1.624 1.624 0 0 1 1.481-1.756 1.631 1.631 0 0 1 1.756 1.488 1.624 1.624 0 0 1-1.48 1.758l-.139.008a1.623 1.623 0 0 1-1.618-1.498Zm53.633 3.247a1.62 1.62 0 0 1-1.423-1.805 1.615 1.615 0 0 1 1.798-1.424 1.625 1.625 0 0 1-.187 3.237l-.188-.008Zm-53.348.025a1.633 1.633 0 0 1 1.472-1.774 1.621 1.621 0 0 1 1.764 1.472 1.61 1.61 0 0 1-1.463 1.765l-.154.008a1.63 1.63 0 0 1-1.619-1.471Zm52.917 3.212a1.624 1.624 0 1 1 .431-3.221 1.63 1.63 0 0 1 1.4 1.823 1.64 1.64 0 0 1-1.62 1.414l-.211-.016Zm-52.593.066a1.629 1.629 0 0 1 3.237-.367 1.64 1.64 0 0 1-1.44 1.807l-.177.008a1.638 1.638 0 0 1-1.62-1.448Zm52.105 3.164a1.613 1.613 0 0 1-1.366-1.847 1.625 1.625 0 0 1 1.854-1.367 1.638 1.638 0 0 1 1.366 1.855 1.638 1.638 0 0 1-1.61 1.383l-.244-.024Zm-51.665.137a1.619 1.619 0 0 1 1.357-1.853 1.619 1.619 0 0 1 1.855 1.357 1.621 1.621 0 0 1-1.357 1.855l-.252.024c-.79 0-1.48-.578-1.603-1.383Zm51.104 3.084a1.625 1.625 0 0 1-1.327-1.88 1.637 1.637 0 0 1 1.888-1.327 1.636 1.636 0 0 1 1.319 1.888 1.624 1.624 0 0 1-1.603 1.342l-.277-.023Zm-50.527.203a1.62 1.62 0 0 1 1.278-1.912c.878-.179 1.74.39 1.91 1.277a1.626 1.626 0 0 1-1.276 1.911l-.317.032a1.62 1.62 0 0 1-1.595-1.308Zm49.884 3.001a1.627 1.627 0 0 1-1.277-1.912 1.637 1.637 0 0 1 1.92-1.277 1.622 1.622 0 0 1 1.269 1.912h.007a1.631 1.631 0 0 1-1.593 1.309l-.326-.032Zm-49.16.26a1.64 1.64 0 0 1 1.188-1.976 1.63 1.63 0 0 1 .788 3.163 1.686 1.686 0 0 1-.398.049 1.64 1.64 0 0 1-1.578-1.236Zm48.436 2.928a1.637 1.637 0 0 1-1.228-1.952 1.636 1.636 0 0 1 1.952-1.22 1.624 1.624 0 0 1 1.22 1.952 1.623 1.623 0 0 1-1.944 1.22Zm-47.533.301h-.008a1.63 1.63 0 0 1 3.115-.961 1.636 1.636 0 0 1-1.074 2.035 1.616 1.616 0 0 1-2.033-1.074Zm46.687 2.855a1.615 1.615 0 0 1-1.147-1.984 1.62 1.62 0 0 1 1.985-1.156 1.63 1.63 0 0 1 1.155 1.993 1.632 1.632 0 0 1-1.569 1.204c-.139 0-.276-.017-.424-.057Zm-45.604.325a1.625 1.625 0 0 1 .95-2.097 1.633 1.633 0 0 1 2.099.951 1.637 1.637 0 0 1-1.521 2.204 1.635 1.635 0 0 1-1.528-1.058Zm44.637 2.799a1.626 1.626 0 0 1-1.065-2.035 1.62 1.62 0 0 1 2.032-1.072 1.635 1.635 0 0 1 1.074 2.042 1.634 1.634 0 0 1-2.041 1.065Zm-43.345.316a1.631 1.631 0 0 1 .805-2.155 1.625 1.625 0 0 1 2.156.806 1.625 1.625 0 0 1-1.48 2.301 1.63 1.63 0 0 1-1.481-.952Zm42.214 2.749a1.62 1.62 0 0 1-.96-2.09 1.629 1.629 0 0 1 2.091-.96 1.633 1.633 0 0 1 .959 2.092 1.627 1.627 0 0 1-1.528 1.065 1.69 1.69 0 0 1-.562-.107Zm-40.676.278a1.623 1.623 0 1 1 2.838-1.579c.44.781.154 1.773-.627 2.212a1.646 1.646 0 0 1-.796.204c-.569 0-1.123-.3-1.415-.837Zm39.326 2.7a1.627 1.627 0 1 1 2.156-.806c-.27.602-.863.951-1.482.951a1.66 1.66 0 0 1-.674-.145Zm-37.536.202a1.62 1.62 0 0 1 .421-2.26 1.632 1.632 0 0 1 2.263.423 1.63 1.63 0 0 1-1.343 2.547c-.52 0-1.025-.246-1.341-.71Zm35.909 2.628a1.624 1.624 0 0 1-.593-2.22 1.623 1.623 0 0 1 2.22-.594 1.634 1.634 0 0 1 .594 2.228 1.634 1.634 0 0 1-1.408.806c-.276 0-.561-.066-.813-.22Zm-33.836.106a1.628 1.628 0 0 1 .187-2.295 1.632 1.632 0 0 1 2.293.188 1.632 1.632 0 0 1-1.244 2.685 1.61 1.61 0 0 1-1.236-.578Zm2.383 2.497a1.624 1.624 0 1 1 2.212-2.375c.66.61.693 1.643.081 2.294-.316.349-.756.52-1.187.52-.398 0-.797-.146-1.106-.439Zm2.692 2.204a1.63 1.63 0 0 1 1.88-2.66 1.63 1.63 0 0 1 .39 2.269 1.63 1.63 0 0 1-1.334.683c-.326 0-.651-.097-.936-.292Zm2.993 1.807a1.633 1.633 0 0 1-.715-2.19 1.626 1.626 0 0 1 2.188-.716 1.623 1.623 0 0 1 .715 2.18 1.613 1.613 0 0 1-1.456.896c-.244 0-.496-.057-.732-.17Zm18.179-.742a1.623 1.623 0 0 1 2.822-1.577 1.627 1.627 0 0 1 .464-1.952h.008a1.624 1.624 0 0 1 2.083.048 1.633 1.633 0 0 1-.073-2.105h.008a1.623 1.623 0 0 1 2.285-.26c.7.56.813 1.577.261 2.284a1.632 1.632 0 0 1-2.294.261l-.058-.049.075.081a1.629 1.629 0 0 1-.269 2.285c-.7.562-1.724.439-2.286-.26l-.057-.081.017.032a1.628 1.628 0 0 1-.846 2.14 1.544 1.544 0 0 1-.652.137 1.614 1.614 0 0 1-1.488-.984Zm-3.131.944a1.622 1.622 0 0 1 1.089-2.025 1.622 1.622 0 0 1 2.027 1.089 1.623 1.623 0 0 1-1.091 2.027 1.59 1.59 0 0 1-.462.072c-.71 0-1.351-.455-1.563-1.163Zm-11.785 1.131a1.618 1.618 0 0 1-1.058-2.041 1.624 1.624 0 0 1 2.05-1.058 1.618 1.618 0 0 1 1.049 2.042 1.627 1.627 0 0 1-1.555 1.13 1.71 1.71 0 0 1-.486-.073Zm8.556-.611a1.622 1.622 0 0 1 1.349-1.862 1.627 1.627 0 1 1 .513 3.212l-.26.017a1.628 1.628 0 0 1-1.602-1.367Zm-5.132 1.407a1.619 1.619 0 0 1-1.367-1.845 1.625 1.625 0 1 1 3.213.47 1.623 1.623 0 0 1-1.602 1.391l-.244-.016Zm1.862-1.375a1.63 1.63 0 0 1 1.611-1.641 1.625 1.625 0 0 1 1.643 1.609 1.62 1.62 0 0 1-1.61 1.643h-.017a1.622 1.622 0 0 1-1.627-1.611Z" fill="#562616"/><path d="M198.092 136.144c-.121 0-.245-.009-.368-.037l-.351-.106-.332-.178-.284-.238-.236-.284-.17-.322a2.615 2.615 0 0 1-.114-.359 2.333 2.333 0 0 1-.038-.369c0-.124.018-.247.038-.37.028-.124.067-.237.114-.35.046-.123.104-.228.17-.332l.236-.284.284-.236.332-.18.351-.106c.247-.046.501-.046.739 0 .121.02.245.058.358.106l.323.18.293.236a1.89 1.89 0 0 1 .512 1.705 1.8 1.8 0 0 1-.104.359l-.17.322-.238.284-.293.238-.323.178a1.601 1.601 0 0 1-.358.106 1.567 1.567 0 0 1-.371.037Z" fill="#562616"/><path d="M171.792 40.367s-15.96.725-25.027 3.445c-9.068 2.72-10.7 26.84-11.062 32.1-.363 5.259 2.278 33.836 4.766 39.677 2.487 5.842 13.368 17.267 26.607 16.542 13.239-.726 23.576-11.426 27.747-20.675 4.17-9.249 3.445-33.007 4.17-37.721.727-4.715-4.352-21.218-10.698-27.384-6.348-6.166-16.503-5.984-16.503-5.984Z" fill="#F9B89B"/><path d="M159.611 79.72s-.274 2.553-3.266 4.592c-2.992 2.041-8.589 1.952-10.134-5.835 7.554 8.078 13.4 1.243 13.4 1.243Z" fill="#F4A98C"/><path d="M138.197 83.533c.338.49-1.064-6.929 4.015-13.14 5.077-6.21 4.327-9.137 6.347-15.822 2.02-6.684 10.337-9.792 20.584-6.8 10.608-1.088 16.23.181 18.769 6.709 2.54 6.53 1.813 10.247 4.897 14.69 3.083 4.442 5.031 5.85 4.103 14.849 2.853-5.771 5.807-16.814 2.152-26.244-3.656-9.431-8.983-21.279-28.685-18.86-19.704 2.417-28.723 0-32.314 12.089-3.59 12.09-4.606 25.647.132 32.53ZM139.472 87.633s3.465 3.571 4.916 8.558c1.451 4.988 4.421 6.62 8.603 6.076 4.182-.544 5.452-.635 7.537-4.263 2.085-3.627 4.86-6.485 4.86-6.485s-3.733 9.088 4.045 9.962c0 0 4.426-.03 6.872-4.746 3.81.726 6.802 4.009 8.343 5.632 1.541 1.622 4.352-.282 5.712-4.452 1.36-4.172 5.079-7.26 5.079-7.26s-1.088 13.208-4.806 15.401c-3.718 2.195-3.809 3.283-9.432 1.741-5.62-1.541-8.613-3.481-15.414-1.741-6.8 1.741-16.14 3.101-19.042 2.013-2.901-1.088-7.273-20.436-7.273-20.436Z" fill="#F4A98C"/><path d="M137.275 85.16s-5.32-8.825-10.278-6.89c-4.957 1.933-1.088 11.969.726 15.837 1.813 3.87 1.693 7.253 3.748 8.462 2.056 1.21 6.77 1.21 7.133-1.933.363-3.144-1.329-15.476-1.329-15.476ZM197.403 85.16s5.32-8.825 10.277-6.89c4.957 1.933 1.088 11.969-.725 15.837-1.815 3.87-1.694 7.253-3.75 8.462-2.054 1.21-6.769 1.21-7.132-1.933-.364-3.144 1.33-15.476 1.33-15.476Z" fill="#F9B89B"/><path d="M130.725 96.705s-.542-3.154-1.994-6.05c-1.451-2.896-2.599-7.551-.907-8.822 1.693-1.268 3.264.606 4.232 1.634.968 1.028 3.204 3.745 2.237 5.589-.968 1.845-.521 2.51.707 2.933 1.227.424 1.529 2.419 1.045 3.628-.484 1.21-1.632 1.148-2.236-.726-.605-1.874-1.676-1.33-1.382-3.928.293-2.6-1.882-1.935-1.943-.606-.785-1.873 1.269-3.324 2.236-2.297-1.087-3.748-2.659-4.836-3.596-4.896-.936-.06-.936 2.288-.332 4.47.604 2.18 2.236 6.895 1.933 9.071ZM204.775 96.705s.544-3.153 1.994-6.05c1.451-2.896 2.599-7.551.908-8.822-1.693-1.268-3.264.606-4.232 1.634-.968 1.028-3.204 3.745-2.237 5.589.968 1.845.521 2.51-.707 2.933-1.228.424-1.529 2.419-1.045 3.628.483 1.21 1.631 1.148 2.236-.726.605-1.874 1.676-1.33 1.383-3.928-.295-2.6 1.881-1.935 1.942-.606.786-1.873-1.269-3.324-2.237-2.297 1.088-3.748 2.66-4.836 3.596-4.896.937-.06.937 2.288.333 4.47-.605 2.18-2.237 6.894-1.934 9.071Z" fill="#ED9174"/><path d="M149.813 31.843S148.121.529 164.201.529s21.578 13.211 20.674 29.5c-2.055 8.706-35.062 1.814-35.062 1.814Z" fill="#fff"/><mask id="a" style="mask-type:luminance" maskUnits="userSpaceOnUse" x="149" y="0" width="20" height="25"><path d="M149.936 24.2c.629-9.27 3.36-23.67 14.265-23.67h.068c1.375.003 2.668.109 3.89.3a9.264 9.264 0 0 0-2.139 1.027c-.12-.414-.245-.782-.375-1.094.035.398.067.829.098 1.284a8.617 8.617 0 0 0-1.447 1.297c.351-.73.727-1.48 1.125-2.272-6.356 5.21-5.85 14.653-4.978 19.836-.668.1-1.339.215-2.01.344a39.815 39.815 0 0 0-3.264.781c-.088-5.78.93-17.602 10.252-21.476-7.316 2.152-12.736 9.148-10.701 21.607-1.939.573-3.76 1.275-4.775 1.953a1.16 1.16 0 0 1-.009.083Zm11.092-3.376c-.145-3.645-.007-6.455.381-8.855-.097 2.827.315 5.848 1.024 8.686-.468.049-.934.105-1.405.169Z" fill="#fff"/></mask><g mask="url(#a)"><path d="M149.936 24.2h18.223V.53h-18.223V24.2Z" fill="#F4F4F4"/></g><path d="M154.72 22.164C152.685 9.705 158.105 2.709 165.421.557c-9.322 3.874-10.34 15.696-10.252 21.476l-.449.131Z" fill="#E7E7E7"/><path d="M161.409 11.97c.118-3.369.96-6.46 2.887-8.626-1.367 2.84-2.357 5.353-2.887 8.625Z" fill="#EAEAEA"/><path d="M160.443 20.908c-.872-5.183-1.378-14.625 4.978-19.836-.398.792-.774 1.543-1.125 2.272-1.927 2.167-2.769 5.257-2.887 8.625-.388 2.4-.526 5.21-.381 8.855l-.585.084Z" fill="#E7E7E7"/><path d="M173.737 20.847a49.71 49.71 0 0 0-.657-.092c.305-9.458-1.385-13.162-4.415-19.168 6.128 5.024 5.879 13.978 5.072 19.26ZM166.228 20.405c-.029-4.4-.133-13.088-.485-18.358a6.13 6.13 0 0 1 .277-.19c1.221 4.192 1.999 13.24 2.012 18.538a52.757 52.757 0 0 0-1.804.01Z" fill="#EAEAEA"/><path d="M165.743 2.047a66.936 66.936 0 0 0-.098-1.284c.13.312.255.68.375 1.094a6.13 6.13 0 0 0-.277.19Z" fill="#E7E7E7"/><path d="M158.433 21.252c-2.968.572-6.82 1.75-8.488 2.865-.664 5.891-.132 7.726-.132 7.726s33.007 6.892 35.062-1.814c.105-1.886.12-3.729.046-5.517-6.541-3.77-16.454-5.195-26.488-3.26Z" fill="#D85C00"/><path d="M139.601 92.415s-1.269-7.98-1.813-11.516c-.544-3.538-.453-11.063 2.539-13.783 2.992-2.721 3.898-12.332 7.073-16.867 3.173-4.533 17.228-5.621 22.305-3.536 6.802-2.629 15.93-2.297 20.04 7.375 4.111 9.672 4.091 10.156 6.278 14.025 2.185 3.868 2.086 24.302 2.086 24.302s1.31-13.128 7.958-14.423c.845-10.363.484-37.324-16.202-46.512-16.682-9.188-43.496-5.077-52.336 5.561-8.838 10.64-9.016 36.787-7.96 41.094 3.903 2.358 9.398 12.466 10.032 14.28Z" fill="#fff"/><path d="M188.801 52.177c-1.116-1.957-2.48-3.426-3.993-4.496.001-.001.003-.002.003-.004 1.513 1.071 2.874 2.543 3.99 4.5Z" fill="#F0DBD2"/><path d="M188.911 52.37a3.107 3.107 0 0 0-.076-.134l-.012-.021-.018-.03a.03.03 0 0 0-.004-.008c-1.116-1.957-2.477-3.429-3.99-4.5 1.213-1.797 4.478-8.037.16-18.421v.001c6.221 4.888 6.432 14.514 3.94 23.114ZM134.591 83.637c-.33-.474-.664-.94-1.002-1.389.368.313.7.79 1.002 1.39Z" fill="#F4F4F4"/><path d="M147.459 50.167c.348-.472.814-.906 1.376-1.303v.001c-.562.396-1.028.83-1.376 1.302Zm1.378-1.304c1.695-1.194 4.26-2.046 7.063-2.563h.001c-2.804.517-5.368 1.37-7.064 2.563Zm7.064-2.563Z" fill="#F0DBD2"/><path d="m137.567 36.999.026-.032-.026.032Zm.032-.039.026-.032-.026.032Zm.094-.112.031-.036a.469.469 0 0 1-.031.036Zm.032-.036.032-.037-.032.037Zm.876-.941.024-.024-.024.024Zm.036-.036.022-.022-.022.022Zm.039-.039a.346.346 0 0 1 .016-.016c-.005.007-.011.01-.016.016Zm.073-.072.003-.003-.003.003Z" fill="#F4EEE7"/><path d="M138.008 82.315c-.019-.008-.717-.327-2.099-.327h-.012c-.592 0-1.308.059-2.148.224-.053.01-.108.021-.161.033-1.363-1.812-2.772-3.357-4.019-4.11-.26-1.06-.445-3.443-.445-6.591 0-5.187.504-12.45 2.005-19.305-1.082 6.525 5.215 14.794 9.198 14.877-2.146 1.95-2.799 6.368-2.798 10.017.002 1.443.104 2.764.259 3.766l.22 1.416Zm2.319-15.199s-8.75-7.608-8.98-15.84c0 .001 0 .003-.002.004 1.299-5.54 3.271-10.73 6.184-14.239l.032-.037c.002-.001.003-.004.006-.005l.026-.032a.036.036 0 0 1 .006-.007l.026-.032a.01.01 0 0 0 .004-.005l.028-.034a.762.762 0 0 0 .034-.039l.002-.002a.45.45 0 0 0 .031-.036h.001l.032-.037v-.002c.232-.266.475-.528.728-.786l.035-.035c.001-.003.004-.004.007-.007a.74.74 0 0 1 .037-.037l.025-.027a.089.089 0 0 0 .012-.01l.024-.024.012-.012.022-.022a.376.376 0 0 1 .017-.017l.016-.016c.007-.005.013-.012.019-.019l.014-.013.024-.024.003-.003c5.455-5.325 15.603-8.74 26.287-9.253l-.004.004c-6.488 4.328-5.908 12.42-3.84 19.25-1.756.069-3.571.26-5.294.578-.025-.219-1.553-13.417 6.551-18.541-5.248 1.725-10.751 9.489-6.552 18.541-2.803.517-5.368 1.37-7.063 2.563-.077-.348-3.224-14.848 8.003-20.104-5.937.206-14.791 12.649-8.005 20.105-.562.397-1.028.83-1.376 1.303v.001l-.012.016v.001a.071.071 0 0 0-.011.015l-.003.003-.009.013-.004.004-.008.013-.012.016c-.729 1.042-1.339 2.351-1.881 3.783-.167-.22-9.01-11.957 1.649-22.856-6.165 3.99-11.029 18.39-1.649 22.857-1.82 4.803-2.887 10.987-5.192 13.083Zm-4.659-26.75c-2.901 3.357.796 20.553 7.236 21.822 0 0-8.685-12.121-7.236-21.823Z" fill="#F4F4F4"/><path d="M197.783 79.673c-.038-.649-.079-1.298-.124-1.94h.001c.045.634.085 1.272.121 1.915l.002.025Z" fill="#F0DBD2"/><path d="M200.577 82.088a706.156 706.156 0 0 1-2.86-3.501c.034.345.055.7.064 1.061-.036-.643-.076-1.281-.121-1.915 7.576-6.83 7.411-20.362 7.401-20.853 1.047 5.73 1.311 11.353 1.246 15.837-.551 3.842-3.316 7.148-5.73 9.371Z" fill="#F4F4F4"/><path d="M159.611 78.679c-.68-1.25-1.686-2.247-2.818-2.958a8.276 8.276 0 0 0-3.796-1.157c-1.325-.09-2.67.117-3.86.741a8.678 8.678 0 0 0-3.086 2.691 6.777 6.777 0 0 1 2.718-3.332c1.248-.836 2.814-1.135 4.295-1.045 1.477.094 2.956.601 4.147 1.496 1.186.896 2.062 2.174 2.4 3.564ZM175.417 78.679c.336-1.39 1.214-2.668 2.399-3.564 1.192-.895 2.669-1.402 4.148-1.496 1.48-.09 3.047.209 4.293 1.045a6.774 6.774 0 0 1 2.719 3.332 8.664 8.664 0 0 0-3.087-2.69c-1.189-.625-2.533-.833-3.86-.742a8.284 8.284 0 0 0-3.796 1.157c-1.132.711-2.137 1.708-2.816 2.958Z" fill="#F4A382"/><path d="M138.008 82.315s2.744 11.014 4.907 14.39c2.165 3.375 2.397 3.946 3.136 7.932.737 3.987 9.357 3.418 10.876 2.278 1.518-1.139 5.676.526 5.676.526s6.51 4.306 13.461.026c5.695 1.802 13.592.208 14.579-1.995.989-2.201.272-4.505 2.354-8.125 2.083-3.62 5.308-12.64 4.72-18.76a624.778 624.778 0 0 0 3.047 3.728s-2.547 12.602-1.7 17.462c.845 4.86 2.753 8.506 4.001 11.582 1.247 3.074-.221 4.897 0 6.72.223 1.822 3.252 2.278 3.504 4.442.25 2.164-1.129 3.872-.496 5.354.631 1.481 3.04 1.708 2.747 5.353-.292 3.645-1.905 4.543-.301 6.544 1.604 2 4.906 8.379 3.54 12.252-1.367 3.872-2.831 2.64-3.239 4.852-.405 2.209-.905 8.037-4.488 8.445-3.583.408-6.377 1.442-7.755 2.956-1.377 1.516-2.288 2.998-4.68 2.998s-2.734-2.188-5.468-1.095c-2.734 1.095-3.608 2.936-7.024 2.936-5.262 0-5.24-2.936-7.67-2.776-4.636.305-3.418 4.436-8.43 3.637-5.012-.796-3.754-2.104-6.374-3.224-1.155-.493-2.019.302-2.939 1.095-1.167 1.008-2.423 2.016-4.469.388-2.522-2.007-4.078-1.653-5.602-1.3-1.366.316-2.708.633-4.696-.756-2.088-1.457-1.901-4.853-6.464-6.536-4.562-1.683-5.137-6.372-4.568-8.195.571-1.821-4.1-5.005-4.214-8.768-.114-3.761 5.266-7.736 5.609-10.537.341-2.801-2.051-4.16-1.936-7.753.113-3.591 2.363-7.236 3.972-9.743 1.609-2.507 2.771-5.351 1.963-8.371-.81-3.02 1.381-3.932 2.678-6.209 1.296-2.279 1.368-2.901 1.104-5.437-.262-2.538-1.037-14.059-3.782-16.386 2.949-.617 4.421.07 4.421.07Z" fill="#fff"/><path d="m146.439 170.713-.018-.002.018.002Z" fill="#F0D7CE"/><path d="M127.716 127.549c.311-2.588 1.616-5.156 2.879-7.256l.001-.001c-1.264 2.101-2.569 4.669-2.88 7.257Z" fill="#F4EEE7"/><path d="M130.595 120.293c.354-.589.704-1.14 1.029-1.645.113-.177.225-.356.333-.537h.002c-.11.181-.222.36-.335.537a66.285 66.285 0 0 0-1.028 1.644l-.001.001ZM131.957 118.111c1.082-1.794 1.89-3.75 1.894-5.81-.004 2.06-.812 4.016-1.892 5.81h-.002Z" fill="#F4EADF"/><path d="M169.508 109.361c-3.857 0-6.697-1.785-6.895-1.913.21.127 3.19 1.883 6.998 1.913h-.103Z" fill="#F2DFD7"/><path d="M152.512 107.755c1.936-.002 3.719-.358 4.376-.812-.657.454-2.439.81-4.376.812Z" fill="#F0DBD2"/><path d="M164.487 174.08c-.148 0-.303-.005-.466-.017a7.832 7.832 0 0 1-.716-.086c-5.012-.796-3.754-2.104-6.374-3.224l-.015-.005a1.798 1.798 0 0 0-.687-.147h-.024c-.772.01-1.428.568-2.105 1.154l-.007.006-.062.054-.039.033-.028.024c-.711.613-1.457 1.22-2.397 1.223h-.015c-.563-.002-1.196-.22-1.932-.783a7.382 7.382 0 0 1-.189-.148l-.024-.019-.022-.017-.041-.032h-.001c-1.138-.871-2.075-1.255-2.904-1.383l-.018-.002h-.001a4.472 4.472 0 0 0-.663-.048c-.653 0-1.246.136-1.836.273a.783.783 0 0 0-.066.015l-.056.013c-.546.125-1.091.244-1.678.244H142.095c-.823-.004-1.731-.24-2.84-1.007a.321.321 0 0 0-.03-.021c-2.06-1.439-1.906-4.76-6.28-6.467l-.184-.069c-3.653-1.348-4.749-4.623-4.749-6.811 0-.544.068-1.02.181-1.384.034-.102.048-.21.05-.322.006-1.862-4.156-4.896-4.264-8.446-.002-.036-.002-.073-.002-.109-.006-3.729 5.272-7.653 5.611-10.428.023-.187.033-.365.033-.54.002-2.391-1.973-3.788-1.973-6.964a9.54 9.54 0 0 1 .068-1.091c.311-2.588 1.616-5.156 2.88-7.257.353-.587.704-1.139 1.028-1.644.113-.177.225-.356.335-.537 1.08-1.794 1.888-3.75 1.892-5.81a7.818 7.818 0 0 0-.264-2.024 4.702 4.702 0 0 1-.175-1.217c-.004-2.104 1.748-3.052 2.853-4.992.927-1.629 1.228-2.412 1.227-3.652 0-.495-.048-1.063-.123-1.785-.262-2.538-1.037-14.059-3.782-16.386l.162-.033c.84-.165 1.556-.224 2.148-.224h.012c1.4.001 2.099.327 2.099.327s2.744 11.014 4.907 14.39c2.165 3.375 2.397 3.946 3.136 7.932l.008.046.006.029.011.048c.52 2.252 3.625 2.992 6.417 2.995h.019c1.937-.002 3.719-.358 4.376-.812l.004-.003.005-.004.011-.008.019-.013.024-.018.006-.004c.386-.273.931-.376 1.532-.376 1.806 0 4.114.924 4.114.924l.01.007c.198.128 3.038 1.913 6.895 1.913h.207c1.988 0 4.196-.474 6.349-1.894 0 0-2.585 2.817-6.6 2.817-.115 0-.232-.001-.351-.007-.062-.002-.124-.004-.186-.004-4.151 0-8.251 5.576-6.324 8.831 1.956 3.303 5.942 5.923 3.778 10.024-2.164 4.1-6.32 8.175-4.356 13.655 1.964 5.482 3.39 6.506 0 9.468-3.39 2.962-.998 8.757 1.964 10.701 2.962 1.943 2.164 3.485 1.936 5.333-.173 1.407.183 3.67 1.514 4.519-.684.699-1.46 1.276-2.952 1.276Z" fill="#F4F4F4"/><path d="M172.077 113.18c-.752 2.231-.706 4.693.164 6.811l.351.781.419.745c.301.512.605 1.046.849 1.604a8.793 8.793 0 0 1 .761 3.595c.015 2.509-.966 4.78-1.756 6.977-.893 2.155-1.32 4.388-1.062 6.644.097 1.123.34 2.24.67 3.344.315 1.132.759 2.139 1.103 3.375a7.255 7.255 0 0 1 0 3.752c-.304 1.212-.821 2.289-1.281 3.365-.44 1.09-.992 2.146-1.058 3.207-.049 1.088.334 2.18.814 3.232.474 1.061 1.033 2.12 1.417 3.253.393 1.127.567 2.35.368 3.518.069-1.184-.209-2.34-.663-3.406-.454-1.07-1.078-2.06-1.645-3.108-.548-1.049-1.037-2.225-1.043-3.512a6.38 6.38 0 0 1 .358-1.85c.188-.564.394-1.123.604-1.676.408-1.11.866-2.19 1.13-3.268a6.155 6.155 0 0 0-.049-3.23c-.704-2.12-1.695-4.438-1.909-6.882-.254-2.447.29-4.971 1.237-7.144.848-2.187 1.74-4.367 1.855-6.607a7.996 7.996 0 0 0-.544-3.296c-.203-.532-.46-1.035-.732-1.551a11.18 11.18 0 0 1-.739-1.664c-.735-2.31-.623-4.866.381-7.009ZM178.199 118.533a16.608 16.608 0 0 1 3.97 5.247c.923 2.011 1.244 4.467.478 6.641a78.244 78.244 0 0 0-.892 3.122c-.259 1.034-.451 2.077-.332 3.038.105.958.594 1.85 1.186 2.73.59.884 1.264 1.733 1.903 2.662.631.926 1.2 2.039 1.332 3.255.135 1.207-.072 2.381-.401 3.46-.316 1.077-.772 2.128-1.207 3.109-.44.99-.713 1.892-.472 2.878.193.988.711 1.938 1.192 2.922.483.98.977 1.964 1.392 2.994.403 1.029.727 2.118.776 3.241.071 1.123-.252 2.241-.809 3.177.444-1 .638-2.094.493-3.152-.133-1.06-.523-2.069-.996-3.034-.459-.974-.988-1.923-1.521-2.875-.518-.948-1.126-1.912-1.418-3.067a4.342 4.342 0 0 1-.113-1.812c.096-.608.309-1.154.512-1.67.423-1.027.813-1.996 1.089-3.023.283-1.011.451-2.035.33-3.007-.115-.972-.568-1.862-1.166-2.732-.59-.877-1.269-1.748-1.884-2.685-.605-.924-1.226-2.007-1.334-3.244-.114-1.221.152-2.361.444-3.431.294-1.076.66-2.11 1.032-3.141.797-1.957.62-4.14-.15-6.135-.752-2.004-1.985-3.837-3.434-5.468ZM186.611 126.333c1.605.823 2.984 2.086 4.044 3.595 1.001 1.543 1.62 3.405 1.574 5.291-.006.968-.136 1.814-.122 2.677-.008.86.081 1.711.333 2.496.448 1.6 1.669 2.852 2.779 4.337.54.75 1.044 1.55 1.436 2.402.384.83.749 1.652 1.077 2.508.629 1.701 1.197 3.538 1.056 5.449a8.57 8.57 0 0 1-.655 2.74c-.176.432-.398.841-.62 1.245a9.447 9.447 0 0 0-.556 1.167c-.665 1.591-.613 3.496.243 5.081-1.096-1.448-1.328-3.488-.796-5.269.133-.448.321-.875.52-1.297.187-.398.371-.788.507-1.198a7.726 7.726 0 0 0 .442-2.504c0-1.697-.514-3.377-1.188-4.998-.337-.811-.7-1.634-1.081-2.424-.365-.778-.831-1.498-1.345-2.199-.992-1.385-2.387-2.797-2.898-4.724-.557-1.865-.209-3.841-.042-5.519.276-3.454-1.791-6.804-4.708-8.856ZM186.611 115.915c2.04.628 3.982 1.708 5.528 3.278a8.552 8.552 0 0 1 1.777 2.794c.432 1.052.495 2.204.524 3.286.021 1.102-.116 2.208-.297 3.26-.171 1.054-.332 2.06-.04 2.918.26.866.93 1.63 1.689 2.305.765.663 1.627 1.3 2.481 1.939.85.649 1.71 1.278 2.55 2.016.413.381.832.798 1.157 1.334a3.85 3.85 0 0 1 .541 1.76c.039.584.016 1.148-.036 1.691-.036.292-.022.512-.018.731-.022.221.056.458.101.69.236.938.715 1.882 1.197 2.816.995 1.867 2.107 3.767 2.654 5.902.55 2.121.264 4.465-.852 6.294.87-1.96.992-4.17.292-6.137-.631-1.993-1.783-3.773-2.891-5.611-.544-.93-1.103-1.881-1.412-3.012-.173-.526-.187-1.26-.152-1.752a9.328 9.328 0 0 0-.005-1.506c-.056-.964-.574-1.651-1.35-2.332-.77-.666-1.64-1.292-2.492-1.935-.849-.647-1.702-1.284-2.545-2.028-.808-.744-1.644-1.633-1.984-2.84-.359-1.213-.096-2.391.092-3.419.196-1.049.372-2.062.408-3.098.023-1.039.02-2.07-.32-3.026-.312-.962-.839-1.86-1.503-2.653-1.318-1.616-3.156-2.793-5.094-3.665ZM189.732 111.016c1.795.105 3.58.544 5.24 1.339a7.739 7.739 0 0 1 2.255 1.636 5.543 5.543 0 0 1 1.422 2.474c.136.484.223.926.298 1.347.085.429.17.856.288 1.271.221.834.525 1.626.952 2.352.841 1.446 2.118 2.762 3.17 4.256 1.052 1.458 2.046 3.105 2.551 4.913.532 1.807.556 3.687.663 5.42.07.868.204 1.712.541 2.489.325.784.824 1.498 1.348 2.23.512.734 1.016 1.528 1.315 2.398.317.867.392 1.794.334 2.687-.072-.895-.254-1.776-.626-2.569-.367-.796-.906-1.484-1.487-2.164-.568-.686-1.149-1.419-1.568-2.271-.431-.849-.636-1.791-.767-2.697-.248-1.822-.28-3.57-.833-5.2-.497-1.647-1.385-3.114-2.437-4.543-.987-1.455-2.246-2.727-3.186-4.401-.937-1.66-1.186-3.636-1.44-5.295-.301-1.631-1.581-2.96-3.07-3.827-1.49-.922-3.214-1.477-4.963-1.845ZM193.321 103.725c2.04.016 4.095.894 5.603 2.38a8.123 8.123 0 0 1 1.728 2.62c.423.958.564 2.008.556 3.022-.477-.914-.849-1.804-1.384-2.6-.517-.796-1.073-1.547-1.74-2.2-1.317-1.335-2.951-2.287-4.763-3.222ZM195.439 95.41c.777-.033 1.496.443 2.029.973.547.541.952 1.198 1.256 1.878.291.688.497 1.4.595 2.127a7.239 7.239 0 0 1-.006 2.199c-.368-.658-.628-1.312-.89-1.959-.272-.64-.508-1.279-.787-1.888a14.778 14.778 0 0 0-.889-1.777c-.35-.559-.712-1.115-1.308-1.552Z" fill="#EFEFEF"/><path d="M165.031 113.18c1.004 2.143 1.114 4.699.38 7.009a11.074 11.074 0 0 1-.738 1.664c-.272.516-.529 1.019-.732 1.551a8.014 8.014 0 0 0-.545 3.296c.116 2.24 1.008 4.42 1.856 6.607.947 2.173 1.491 4.697 1.237 7.144-.214 2.444-1.205 4.762-1.909 6.882a6.155 6.155 0 0 0-.049 3.23c.262 1.078.722 2.158 1.13 3.268.21.553.415 1.112.604 1.676.199.568.336 1.22.356 1.85-.005 1.287-.493 2.463-1.04 3.512-.569 1.048-1.192 2.038-1.646 3.108-.454 1.066-.732 2.222-.663 3.406-.199-1.168-.025-2.391.368-3.518.383-1.133.943-2.192 1.417-3.253.48-1.052.863-2.144.814-3.232-.066-1.061-.618-2.117-1.058-3.207-.46-1.076-.977-2.153-1.281-3.365a7.234 7.234 0 0 1 0-3.752c.344-1.236.788-2.243 1.101-3.375.331-1.104.575-2.221.672-3.344.258-2.256-.17-4.489-1.062-6.644-.791-2.197-1.771-4.468-1.758-6.977a8.828 8.828 0 0 1 .763-3.595c.244-.558.547-1.092.849-1.604l.418-.745.352-.781c.869-2.118.914-4.58.164-6.811ZM158.909 118.533c-1.449 1.631-2.682 3.464-3.434 5.468-.77 1.995-.947 4.178-.15 6.135.372 1.031.738 2.065 1.034 3.141.29 1.07.556 2.21.442 3.431-.106 1.237-.73 2.32-1.334 3.244-.616.937-1.295 1.808-1.884 2.685-.598.87-1.051 1.76-1.166 2.732-.121.972.046 1.996.33 3.007.276 1.027.665 1.996 1.088 3.023.204.516.417 1.062.513 1.67a4.358 4.358 0 0 1-.113 1.812c-.292 1.155-.9 2.119-1.418 3.067-.533.952-1.062 1.901-1.522 2.875-.472.965-.862 1.974-.996 3.034-.144 1.058.05 2.152.493 3.152-.557-.936-.879-2.054-.808-3.177.049-1.123.372-2.212.776-3.241.415-1.03.908-2.014 1.392-2.994.481-.984.999-1.934 1.191-2.922.241-.986-.031-1.888-.471-2.878-.435-.981-.891-2.032-1.207-3.109-.329-1.079-.537-2.253-.401-3.46.131-1.216.701-2.329 1.332-3.255.639-.929 1.312-1.778 1.903-2.662.592-.88 1.081-1.772 1.186-2.73.119-.961-.074-2.004-.332-3.038a76.628 76.628 0 0 0-.893-3.122c-.765-2.174-.444-4.63.479-6.641a16.608 16.608 0 0 1 3.97-5.247ZM150.497 126.333c-2.917 2.052-4.984 5.402-4.709 8.856.167 1.678.517 3.654-.043 5.519-.51 1.927-1.905 3.339-2.897 4.724-.513.701-.979 1.421-1.345 2.199-.38.79-.743 1.613-1.08 2.424-.674 1.621-1.19 3.301-1.188 4.998.004.847.157 1.692.441 2.504.137.41.321.8.507 1.198.2.422.388.849.521 1.297.532 1.781.299 3.821-.797 5.269.857-1.585.909-3.49.244-5.081a9.305 9.305 0 0 0-.556-1.167 12.027 12.027 0 0 1-.62-1.245 8.544 8.544 0 0 1-.655-2.74c-.141-1.911.428-3.748 1.056-5.449a39.66 39.66 0 0 1 1.077-2.508c.392-.852.895-1.652 1.436-2.402 1.11-1.485 2.331-2.737 2.778-4.337.253-.785.342-1.636.334-2.496.012-.863-.116-1.709-.122-2.677-.046-1.886.573-3.748 1.573-5.291 1.06-1.509 2.44-2.772 4.045-3.595ZM150.497 115.915c-1.94.872-3.776 2.049-5.094 3.665-.664.793-1.191 1.691-1.504 2.653-.34.956-.342 1.987-.32 3.026.036 1.036.212 2.049.409 3.098.187 1.028.451 2.206.092 3.419-.341 1.207-1.177 2.096-1.984 2.84-.843.744-1.696 1.381-2.547 2.028-.85.643-1.72 1.269-2.492 1.935-.774.681-1.292 1.368-1.348 2.332a9.328 9.328 0 0 0-.005 1.506c.033.492.02 1.226-.152 1.752-.311 1.131-.868 2.082-1.412 3.012-1.108 1.838-2.261 3.618-2.889 5.611-.702 1.967-.58 4.177.29 6.137-1.116-1.829-1.402-4.173-.852-6.294.546-2.135 1.658-4.035 2.654-5.902.481-.934.961-1.878 1.197-2.816.045-.232.123-.469.101-.69.004-.219.018-.439-.018-.731a10.396 10.396 0 0 1-.036-1.691c.032-.582.21-1.225.54-1.76.326-.536.745-.953 1.158-1.334.84-.738 1.7-1.367 2.548-2.016.856-.639 1.718-1.276 2.483-1.939.757-.675 1.429-1.439 1.688-2.305.293-.858.132-1.864-.04-2.918-.18-1.052-.317-2.158-.297-3.26.03-1.082.093-2.234.526-3.286a8.506 8.506 0 0 1 1.778-2.794c1.544-1.57 3.485-2.65 5.526-3.278ZM147.375 111.016c-1.75.368-3.474.923-4.96 1.845-1.491.867-2.771 2.196-3.074 3.827-.252 1.659-.502 3.635-1.438 5.295-.94 1.674-2.199 2.946-3.186 4.401-1.052 1.429-1.94 2.896-2.437 4.543-.555 1.63-.585 3.378-.835 5.2-.129.906-.334 1.848-.766 2.697-.418.852-.999 1.585-1.567 2.271-.581.68-1.12 1.368-1.487 2.164-.372.793-.556 1.674-.626 2.569-.058-.893.017-1.82.334-2.687.299-.87.803-1.664 1.315-2.398.523-.732 1.023-1.446 1.348-2.23.337-.777.469-1.621.541-2.489.107-1.733.131-3.613.663-5.42.505-1.808 1.499-3.455 2.551-4.913 1.05-1.494 2.329-2.81 3.17-4.256.426-.726.731-1.518.952-2.352.118-.415.202-.842.288-1.271.075-.421.162-.863.298-1.347a5.543 5.543 0 0 1 1.422-2.474 7.748 7.748 0 0 1 2.254-1.636 14.036 14.036 0 0 1 5.24-1.339ZM143.787 103.725c-1.812.935-3.447 1.887-4.763 3.222-.667.653-1.223 1.404-1.741 2.2-.534.796-.906 1.686-1.384 2.6-.007-1.014.134-2.064.557-3.022a8.136 8.136 0 0 1 1.727-2.62c1.509-1.486 3.562-2.364 5.604-2.38ZM141.669 95.41c-.597.438-.958.994-1.308 1.553-.328.57-.636 1.153-.889 1.777-.279.61-.516 1.248-.787 1.888-.262.647-.522 1.301-.892 1.959a7.336 7.336 0 0 1-.005-2.199 8.361 8.361 0 0 1 .596-2.127c.304-.68.708-1.337 1.256-1.878.533-.53 1.251-1.006 2.029-.972Z" fill="#E0E0E0"/><path d="M185.085 106.571c-2.088-6.667-9.568-7.51-9.89-7.295-.324.215-1.235 1.212-2.608 2.137-1.347.91-3.468.862-3.468.862l-.08.058c-.763-.018-1.79-.189-2.468-.92-1.188-1.277-1.762-1.994-2.084-2.209-.323-.215-8.326.7-10.415 7.367-2.091 6.666-2.876 16.22-6.625 17.984 6 1.585 11.234-3.783 13.844-8.992 2.344-4.679 6.642-5.983 8.288-8.914 1.645 2.931 5.945 4.235 8.288 8.914 2.609 5.209 7.844 10.577 13.844 8.992-3.75-1.764-4.535-11.318-6.626-17.984Z" fill="#E5E5E5"/><path d="M185.085 106.571c-2.088-6.667-9.689-7.935-9.957-7.655-.909.947-1.205.828-2.577 1.753-1.348.91-3.396.51-3.396.51l-.082.057c-.762-.017-1.672.221-2.35-.511-1.188-1.277-1.424-1.758-1.747-1.973-.323-.215-8.815 1.152-10.904 7.819-2.091 6.666-2.876 16.22-6.625 17.984 6 1.585 8.585-6.78 11.194-11.99 2.344-4.678 9.292-6.121 10.938-9.05 1.645 2.929 8.605 4.842 10.948 9.52 2.609 5.209 5.184 13.105 11.184 11.52-3.75-1.764-4.535-11.318-6.626-17.984Z" fill="#fff"/><path d="M162.603 74.944c2.544 1.959 4.276 4.908 4.65 8.065.222 1.579-.004 3.187-.322 4.707-.322 1.53-.743 3.021-1.087 4.516-.348 1.49-.667 2.992-.649 4.468.008.735.117 1.459.402 2.103.286.645.792 1.161 1.424 1.534 1.314.707 2.996.9 4.51.482 1.536-.388 2.937-1.258 4.094-2.344a8.827 8.827 0 0 1-3.948 2.784c-1.609.532-3.452.457-5.032-.299-.786-.395-1.452-1.061-1.818-1.835-.37-.773-.511-1.601-.54-2.405-.028-1.613.286-3.164.636-4.68.366-1.515.788-3.004 1.133-4.495.363-1.489.577-2.974.473-4.473a11.463 11.463 0 0 0-1.197-4.35 13.246 13.246 0 0 0-2.729-3.778Z" fill="#CC7350"/><path d="M191.765 72.18s-3.552-4.719-13.057-2.317c-5.531 1.548-4.569 5.438-4.872 6.104 6.1-2.507 13.819-4.634 17.929-3.787ZM145.663 72.18s3.55-4.719 13.057-2.317c5.531 1.548 4.569 5.438 4.872 6.104-6.101-2.507-13.819-4.634-17.929-3.787ZM149.647 64.848s5.077-1.935 9.43 0c4.352 1.933 8.524 2.116 13.964.363 5.44-1.754 12.876.544 15.598 1.208-4.535-2.539-11.608-3.654-16.263-2.431-4.653 1.223-6.649.624-12.332-.497-5.683-1.122-10.397 1.357-10.397 1.357ZM149.647 60.616s5.077-1.935 9.43 0c4.352 1.935 8.524 2.116 13.964.363 5.44-1.754 12.876.544 15.598 1.209-4.535-2.539-11.608-3.655-16.263-2.432-4.653 1.223-6.649.624-12.332-.497-5.683-1.122-10.397 1.357-10.397 1.357ZM149.647 54.879s5.077-1.935 9.43 0c4.352 1.934 8.524 2.116 13.964.362 5.44-1.753 12.876.544 15.598 1.208-4.535-2.537-11.608-3.653-16.263-2.43-4.653 1.222-6.649.624-12.332-.498-5.683-1.121-10.397 1.358-10.397 1.358Z" fill="#F4EFED"/><path d="m167.456 26.396-.001-.001.002.001h-.001Z" fill="#E8C4AA"/><path d="M169.705 46.713s2.318-13.673-2.249-20.317h.001c6.13 3.333 5.322 16.753 2.248 20.317ZM163.725 45.713c-2.878-4.444-3.016-14.882 1.31-19.241l.005-.004h-.001l.006-.007c-4.482 7.364-1.329 19.216-1.32 19.252Z" fill="#F4F4F4"/><path d="M165.035 26.472a.017.017 0 0 1 .004-.004h.001l-.005.004Z" fill="#F0F0F0"/><path d="M155.901 46.3h-.001.001Z" fill="#E6E0DD"/><path d="M155.9 46.3c-4.199-9.052 1.304-16.816 6.552-18.541-8.104 5.124-6.576 18.322-6.551 18.541h-.001Z" fill="#E7E7E7"/><path d="m148.839 48.87-.004-.005.002-.002a.017.017 0 0 1 .002.006Z" fill="#E7D1C9"/><path d="M148.835 48.865c.001 0 .002 0 .002-.002l-.002.002Z" fill="#E6E0DD"/><path d="M148.835 48.864c-6.786-7.456 2.068-19.899 8.005-20.105-11.227 5.256-8.08 19.756-8.003 20.104l-.002.001Z" fill="#E7E7E7"/><path d="m145.521 54.035-.002-.001v-.001c.002 0 .002.002.002.002Z" fill="#E7D1C9"/><path d="M145.519 54.033c-9.38-4.466-4.516-18.866 1.649-22.857-10.659 10.899-1.816 22.636-1.649 22.856v.001ZM142.904 62.188c-6.44-1.27-10.137-18.465-7.236-21.823-1.449 9.702 7.236 21.823 7.236 21.823Z" fill="#E7E7E7"/><path d="M131.129 52.239a8.67 8.67 0 0 1 .216-.959c-.073.319-.146.639-.216.959Z" fill="#EAE1D6"/><path d="M140.327 67.116c-3.983-.083-10.28-8.352-9.198-14.877.07-.32.143-.64.216-.959.002-.001.002-.003.002-.004.23 8.232 8.98 15.84 8.98 15.84Z" fill="#E7E7E7"/><path d="M75.93 162.233s-7.545 6.528-13.057 26.599c-4.004 14.576-7.376 31.36-12.016 48.011-4.413 15.833-10.142 30.685-15.689 43.91-3.46 8.251 39.51 15.019 46.153 2.866 5.259-9.624 4.352-21.763 7.667-33.611 1.632-5.836 6.513-20.757 9.423-24.283 3.392-12.472 5.312-32.541 0-44.148-5.312-11.605-22.48-19.344-22.48-19.344Z" fill="#F4A98C"/><path d="M57.632 209.835s20.617 3.024 39.463 17.974c-1.358 2.843-2.543 5.684-2.543 5.684s-17.881-11.07-38.985-15.002c.948-3.958 2.065-8.656 2.065-8.656ZM52.256 231.653c18.463 3.522 34.373 12.432 37.883 14.494.584-1.874 1.281-4.01 2.037-6.199-16.747-12.785-34.499-16.375-37.715-16.94a546.478 546.478 0 0 1-2.205 8.645Z" fill="#A05845"/><path d="M86.639 262.256s-17.895-2.443-28.587 0S37.097 272.8 33.38 285.432c30.57-1.009 53.259-23.176 53.259-23.176Z" fill="#F49B7F"/><path d="M160.001 79.564c-.61 1.303-1.742 2.372-3.078 3.032-1.352.652-2.855.97-4.419.732-1.527-.287-2.861-1.056-3.965-2.003-1.106-.95-2.042-2.069-2.719-3.333 1.056.957 2.135 1.843 3.272 2.599 1.14.74 2.353 1.353 3.613 1.566.624.12 1.258.092 1.922.016.66-.054 1.294-.236 1.926-.438a9.39 9.39 0 0 0 3.448-2.171Z" fill="#B55A3E"/><path d="M175.624 79.72s.272 2.553 3.264 4.592c2.992 2.041 8.588 1.952 10.135-5.835-7.554 8.078-13.399 1.243-13.399 1.243Z" fill="#F4A98C"/><path d="M175.232 79.564c.611 1.303 1.743 2.372 3.079 3.032 1.352.652 2.854.97 4.418.732 1.527-.287 2.862-1.056 3.966-2.003 1.105-.95 2.042-2.069 2.72-3.333-1.056.957-2.135 1.843-3.274 2.599-1.14.74-2.352 1.353-3.613 1.566-.623.12-1.256.092-1.921.016-.659-.054-1.295-.236-1.926-.438a9.393 9.393 0 0 1-3.449-2.171Z" fill="#B55A3E"/><path d="M230.841 167.132c.091-.272.18-.548.272-.819-.077.191-.17.478-.272.819ZM208.668 169.901c.052-.153.1-.31.152-.464-.048.122-.1.279-.152.464Z" fill="#DE7207"/><path d="M151.467 274.303a2.695 2.695 0 0 1-2.696 2.694 2.696 2.696 0 1 1 2.696-2.694ZM137.964 248.868a2.696 2.696 0 1 1-5.392.002 2.696 2.696 0 0 1 5.392-.002Z" fill="#562616"/><path d="M56.855 266.22c-6.704 1.24-16.367 5.149-21.687 14.533-5.32 9.386-1.279 23.755 15.504 28.611 16.785 4.859 81.8-20.332 102.012-38.396 6.94-4.056 12.472-6.483 14.283-13.763.529-2.129.881-72.542.881-72.542s-1.031-3.15-3.961-3.351c-2.931-.2-4.926 6.86-5.45 8.101-.522 1.239-16.508 53.719-20.61 57.59-4.103 3.87-33.966 10.508-47.792 14.378-13.826 3.871-24.934 3.314-33.18 4.839Z" fill="#F4A98C"/><path d="M165.267 239.583c-.146-5.071 1.941-29.495 1.828-32.648-.114-3.154-1.952-3.012-1.952-3.012s1.928-14.02 1.166-18.079c-.76-4.061-2.87-4.276-2.87-4.276.244-.103.485-.161.726-.2 2.704.383 3.683 3.295 3.683 3.295s-.352 70.413-.881 72.542c-1.198 4.816-4.03 7.506-7.815 9.95 6.556-6.116 6.259-22.503 6.115-27.572Z" fill="#EF8A6F"/><path d="M167.288 204.587c-1.013-.607-1.815-.914-2.815-.56-.99.325-1.342 1.457-1.578 2.576-.419 2.302-.539 4.737-.758 7.149-.234 2.416-.472 4.873-1.097 7.276l-.873 3.523-.435 1.772c-.161.578-.216 1.224-.58 1.738.265-1.157.185-2.413.316-3.625.115-1.217.265-2.433.469-3.639.382-2.356.554-4.753.762-7.173.252-2.417.422-4.857 1.108-7.293.208-.607.378-1.224.792-1.807.381-.571.997-1.065 1.712-1.181.713-.119 1.373.093 1.93.378.567.283.626.42 1.047.866ZM167.105 186.523c-.481-.846-.648-1.266-1.552-1.396a2.436 2.436 0 0 0-1.324.185c-.214.065-.409.211-.612.308a1.896 1.896 0 0 0-.448.421c-.522.707-.834 1.635-1.094 2.548-.258.924-.45 1.876-.619 2.831-.66 3.835-1.103 7.732-1.763 11.631-.332 1.924-.79 3.945-1.369 5.793-.552 1.867-1.009 3.772-1.524 5.663l-1.441 5.705-1.498 5.705c.444-3.914 1.099-7.793 1.855-11.658.359-1.938.812-3.854 1.289-5.776.552-1.914.95-3.732 1.267-5.68.687-3.84 1.169-7.752 2.103-11.611.237-.964.5-1.927.834-2.876.347-.941.707-1.904 1.428-2.733.195-.199.424-.384.684-.511.248-.092.474-.22.738-.273.5-.16 1.061-.175 1.572-.046 1.05.272 1.464.936 1.474 1.77Z" fill="#C16548"/><path d="M166.955 183.049c-.787-.662-1.69-1.226-2.65-1.441-.477-.092-.973-.065-1.333.173-.377.243-.701.615-.976 1.023-1.123 1.637-1.832 3.6-2.52 5.517-1.336 3.882-2.429 7.847-3.504 11.838-1.107 3.98-2.175 7.974-3.34 11.942l-1.743 5.956c-.628 1.974-1.206 3.962-1.87 5.926.346-2.046.788-4.066 1.184-6.1l1.353-6.06c.913-4.039 1.945-8.046 3.025-12.046 1.11-3.984 2.255-7.996 3.863-11.85.833-1.912 1.651-3.854 2.995-5.555.349-.411.756-.807 1.28-1.069.552-.275 1.168-.219 1.68-.063 1.045.34 1.872 1.037 2.556 1.809Z" fill="#C16548"/><path d="M183.893 274.303a2.695 2.695 0 0 0 2.696 2.694 2.696 2.696 0 1 0-2.696-2.694ZM197.397 248.868a2.695 2.695 0 1 0 5.392 0 2.695 2.695 0 0 0-5.392 0Z" fill="#562616"/><path d="M278.089 266.22c6.703 1.24 16.366 5.149 21.686 14.533 5.32 9.386 1.28 23.755-15.504 28.611-16.784 4.859-81.799-20.332-102.012-38.396-6.939-4.056-12.472-6.483-14.282-13.763-.53-2.129-.882-72.542-.882-72.542s1.032-3.15 3.962-3.351c2.931-.2 4.924 6.86 5.45 8.101.522 1.239 16.508 53.719 20.61 57.59 4.103 3.87 33.966 10.508 47.792 14.378 13.826 3.871 24.934 3.314 33.18 4.839Z" fill="#F4A98C"/><path d="M200.945 249.791a2.696 2.696 0 1 0 5.391 0 2.696 2.696 0 0 0-5.391 0Z" fill="#562616"/><path d="M201.637 254.813a2.696 2.696 0 1 0 5.392.004 2.696 2.696 0 0 0-5.392-.004Z" fill="#562616"/><path d="M200.945 260.205a2.697 2.697 0 1 0 5.394.002 2.697 2.697 0 0 0-5.394-.002Z" fill="#562616"/><path d="M199.471 265.415a2.694 2.694 0 0 0 5.39 0 2.695 2.695 0 1 0-5.39 0Z" fill="#562616"/><path d="M196.06 269.463a2.696 2.696 0 1 0 5.392 0 2.696 2.696 0 0 0-5.392 0Z" fill="#562616"/><path d="M192.604 273.38a2.697 2.697 0 1 0 5.393-.001 2.697 2.697 0 0 0-5.393.001Z" fill="#562616"/><path d="M187.995 275.639a2.694 2.694 0 0 0 2.697 2.694 2.696 2.696 0 1 0-2.697-2.694Z" fill="#562616"/><path d="M169.676 239.583c.145-5.071-1.941-29.495-1.828-32.648.115-3.154 1.953-3.012 1.953-3.012s-1.928-14.02-1.168-18.079c.76-4.061 2.872-4.276 2.872-4.276a3.129 3.129 0 0 0-.728-.2c-2.704.383-3.682 3.24-3.682 3.24s.352 70.468.881 72.597c1.199 4.816 4.031 7.506 7.815 9.95-6.556-6.116-6.259-22.503-6.115-27.572Z" fill="#EF8A6F"/><path d="M167.288 204.587c1.015-.607 2.183-.914 3.183-.56.99.325 1.341 1.457 1.577 2.576.42 2.302.539 4.737.759 7.149.233 2.416.47 4.873 1.097 7.276l.873 3.523.435 1.772c.161.578.215 1.224.579 1.738-.263-1.157-.184-2.413-.316-3.625a50.613 50.613 0 0 0-.468-3.639c-.382-2.356-.554-4.753-.763-7.173-.252-2.417-.423-4.857-1.107-7.293-.209-.607-.38-1.224-.792-1.807-.381-.571-.997-1.065-1.712-1.181-.713-.119-1.373.093-1.932.378-.566.283-.99.42-1.413.866ZM167.219 186.815c.48-.844 1.268-1.558 2.17-1.688.447-.06.906-.003 1.324.185.216.065.41.211.614.308.172.111.31.253.446.421.524.707.835 1.635 1.095 2.548.257.924.449 1.876.619 2.831.66 3.835 1.104 7.732 1.764 11.631.33 1.924.789 3.945 1.368 5.793.553 1.867 1.01 3.772 1.525 5.663l1.441 5.705 1.498 5.705c-.444-3.914-1.1-7.793-1.856-11.658-.359-1.938-.81-3.854-1.288-5.776a47.143 47.143 0 0 1-1.267-5.68c-.688-3.84-1.169-7.752-2.103-11.611a31.03 31.03 0 0 0-.834-2.876c-.348-.941-.707-1.904-1.43-2.733a2.494 2.494 0 0 0-.682-.511c-.25-.092-.475-.22-.739-.273a2.904 2.904 0 0 0-1.572-.046c-1.051.272-1.749 1.158-2.093 2.062Z" fill="#C16548"/><path d="M167.988 183.049c.787-.662 1.691-1.226 2.651-1.441.477-.092.973-.065 1.333.173.377.243.701.615.976 1.023 1.123 1.637 1.832 3.6 2.52 5.517 1.335 3.882 2.428 7.847 3.504 11.838 1.107 3.98 2.175 7.974 3.34 11.942l1.743 5.956c.628 1.974 1.205 3.962 1.869 5.926-.345-2.046-.787-4.066-1.183-6.1l-1.354-6.06c-.914-4.039-1.946-8.046-3.024-12.046-1.111-3.984-2.255-7.996-3.863-11.85-.833-1.912-1.651-3.854-2.996-5.555-.349-.411-.753-.807-1.279-1.069-.552-.275-1.168-.219-1.681-.063-1.044.34-1.871 1.037-2.556 1.809Z" fill="#C16548"/><path d="M134.416 249.791a2.697 2.697 0 1 1-5.393-.001 2.697 2.697 0 0 1 5.393.001Z" fill="#562616"/><path d="M133.724 254.813a2.696 2.696 0 1 1-5.393.003 2.696 2.696 0 0 1 5.393-.003Z" fill="#562616"/><path d="M134.416 260.205a2.697 2.697 0 1 1-5.39.002 2.697 2.697 0 0 1 5.39-.002Z" fill="#562616"/><path d="M135.889 265.415a2.694 2.694 0 0 1-5.39 0 2.696 2.696 0 1 1 5.39 0Z" fill="#562616"/><path d="M139.3 269.463a2.696 2.696 0 1 1-5.392 0 2.696 2.696 0 0 1 5.392 0Z" fill="#562616"/><path d="M142.756 273.38a2.697 2.697 0 1 1-5.393-.001 2.697 2.697 0 0 1 5.393.001Z" fill="#562616"/><path d="M147.365 275.639a2.694 2.694 0 0 1-2.696 2.694 2.695 2.695 0 1 1 0-5.392 2.696 2.696 0 0 1 2.696 2.698Z" fill="#562616"/></svg>