<svg width="244" height="465" fill="none" xmlns="http://www.w3.org/2000/svg"><g clip-path="url(#a)"><path d="M123.344 176.429c-10.438 0-20.564-2.033-30.096-6.041a77.085 77.085 0 0 1-24.577-16.472c-7.101-7.059-12.675-15.279-16.57-24.432-4.032-9.477-6.077-19.543-6.077-29.92 0-10.377 2.045-20.443 6.077-29.92 3.895-9.153 9.469-17.373 16.57-24.432A77.074 77.074 0 0 1 93.248 28.74c9.533-4.008 19.659-6.041 30.096-6.041 10.438 0 20.564 2.032 30.096 6.041a77.102 77.102 0 0 1 24.577 16.472c7.101 7.059 12.676 15.279 16.57 24.432 4.032 9.477 6.077 19.543 6.077 29.92 0 10.377-2.044 20.443-6.077 29.92-3.894 9.153-9.469 17.373-16.57 24.432a77.063 77.063 0 0 1-24.577 16.472c-9.532 4.008-19.658 6.041-30.096 6.041Zm0-152.092c-41.726 0-75.672 33.747-75.672 75.227 0 41.48 33.947 75.227 75.672 75.227 41.726 0 75.672-33.747 75.672-75.227 0-41.481-33.946-75.227-75.672-75.227Z" fill="#F38601"/><path d="M125.145 2.106c0 .988-.806 1.79-1.8 1.79a1.796 1.796 0 0 1-1.801-1.79c0-.989.806-1.79 1.801-1.79.994 0 1.8.801 1.8 1.79ZM99.641 4.972a1.79 1.79 0 0 1-1.273 2.192 1.802 1.802 0 0 1-2.205-1.266 1.79 1.79 0 0 1 1.273-2.192 1.802 1.802 0 0 1 2.205 1.266ZM75.753 14.303a1.784 1.784 0 0 1-.659 2.445 1.806 1.806 0 0 1-2.459-.655 1.784 1.784 0 0 1 .659-2.445 1.806 1.806 0 0 1 2.459.655ZM55.109 29.463a1.782 1.782 0 0 1 0 2.531 1.808 1.808 0 0 1-2.546 0 1.782 1.782 0 0 1 0-2.531c.703-.7 1.843-.7 2.546 0ZM39.114 49.417a1.784 1.784 0 0 1 .659 2.445 1.806 1.806 0 0 1-2.459.655 1.784 1.784 0 0 1-.659-2.445 1.806 1.806 0 0 1 2.459-.655ZM28.86 72.807a1.788 1.788 0 0 1 1.273 2.192 1.802 1.802 0 0 1-2.205 1.266 1.788 1.788 0 0 1-1.273-2.192 1.801 1.801 0 0 1 2.205-1.266ZM25.044 98.038c.994 0 1.8.801 1.8 1.79s-.806 1.79-1.8 1.79-1.8-.801-1.8-1.79.806-1.79 1.8-1.79ZM27.928 123.392a1.802 1.802 0 0 1 2.205 1.265 1.789 1.789 0 0 1-1.273 2.192 1.801 1.801 0 0 1-2.205-1.265 1.788 1.788 0 0 1 1.273-2.192ZM37.314 147.139a1.806 1.806 0 0 1 2.459.655 1.784 1.784 0 0 1-.659 2.445 1.806 1.806 0 0 1-2.459-.655 1.783 1.783 0 0 1 .659-2.445ZM52.562 167.663a1.808 1.808 0 0 1 2.546 0 1.782 1.782 0 0 1 0 2.531 1.808 1.808 0 0 1-2.546 0 1.782 1.782 0 0 1 0-2.531ZM72.635 183.564a1.806 1.806 0 0 1 2.459-.655 1.784 1.784 0 0 1 .659 2.445 1.806 1.806 0 0 1-2.46.655 1.785 1.785 0 0 1-.658-2.445ZM170.935 185.353a1.784 1.784 0 0 1 .659-2.445 1.806 1.806 0 0 1 2.459.655 1.784 1.784 0 0 1-.659 2.445 1.804 1.804 0 0 1-2.459-.655ZM191.58 170.194a1.782 1.782 0 0 1 0-2.531 1.808 1.808 0 0 1 2.546 0 1.782 1.782 0 0 1 0 2.531 1.808 1.808 0 0 1-2.546 0ZM207.575 150.24a1.784 1.784 0 0 1-.659-2.445 1.807 1.807 0 0 1 2.46-.655 1.784 1.784 0 0 1 .659 2.445 1.807 1.807 0 0 1-2.46.655ZM217.829 126.85a1.79 1.79 0 0 1-1.273-2.192 1.8 1.8 0 0 1 2.205-1.265 1.788 1.788 0 0 1 1.273 2.192 1.801 1.801 0 0 1-2.205 1.265ZM221.645 101.618c-.994 0-1.8-.801-1.8-1.79s.806-1.79 1.8-1.79c.995 0 1.801.801 1.801 1.79s-.807 1.79-1.801 1.79ZM218.761 76.265a1.802 1.802 0 0 1-2.205-1.266 1.789 1.789 0 0 1 1.273-2.192 1.801 1.801 0 0 1 2.205 1.266 1.79 1.79 0 0 1-1.273 2.192ZM209.375 52.517a1.807 1.807 0 0 1-2.46-.655 1.784 1.784 0 0 1 .659-2.445 1.806 1.806 0 0 1 2.459.655 1.783 1.783 0 0 1-.658 2.445ZM194.126 31.994a1.808 1.808 0 0 1-2.546 0 1.782 1.782 0 0 1 0-2.531 1.808 1.808 0 0 1 2.546 0 1.782 1.782 0 0 1 0 2.531ZM174.054 16.093a1.806 1.806 0 0 1-2.459.655 1.784 1.784 0 0 1-.659-2.445 1.807 1.807 0 0 1 2.46-.655 1.785 1.785 0 0 1 .658 2.445ZM150.525 5.899a1.802 1.802 0 0 1-2.205 1.266 1.788 1.788 0 0 1-1.273-2.192 1.802 1.802 0 0 1 2.205-1.266 1.787 1.787 0 0 1 1.273 2.192ZM96.163 193.758a1.802 1.802 0 0 1 2.205-1.266 1.788 1.788 0 0 1 1.273 2.192 1.802 1.802 0 0 1-2.205 1.266 1.79 1.79 0 0 1-1.273-2.192ZM121.767 197.022c0-.989.806-1.79 1.801-1.79.994 0 1.8.801 1.8 1.79s-.806 1.79-1.8 1.79a1.795 1.795 0 0 1-1.801-1.79ZM147.047 194.684a1.79 1.79 0 0 1 1.273-2.192 1.801 1.801 0 0 1 2.205 1.266 1.79 1.79 0 0 1-1.273 2.192 1.802 1.802 0 0 1-2.205-1.266ZM212.926 105.674c.102-5.379 4.605-6.37 4.605-6.37s-4.463-1.161-4.36-6.541c.055-2.863-1.989-4.296-3.779-5.001 1.414-1.114 2.692-2.855 2.071-5.345-1.286-5.161 2.696-7.288 2.789-7.339-.093 0-4.624-.027-5.912-5.195-.693-2.78-3.04-3.638-4.953-3.858 1.076-1.44 1.856-3.451.608-5.697-2.616-4.709.785-7.807.785-7.807s-4.449 1.213-7.065-3.496c-1.393-2.507-3.883-2.732-5.788-2.452.664-1.668.894-3.811-.896-5.659-3.753-3.877-1.274-7.743-1.274-7.743s-3.981 2.316-7.734-1.56c-1.999-2.063-4.463-1.639-6.231-.88.209-1.781-.128-3.911-2.337-5.236-4.579-2.744-3.278-7.048-3.248-7.149-.085.085-3.303 3.223-7.875.483-2.468-1.479-4.739-.437-6.247.752-.263-1.774-1.142-3.745-3.621-4.455-5.2-1.492-4.998-6.073-4.998-6.073s-2.283 3.986-7.483 2.495c-2.769-.794-4.689.798-5.838 2.335-.715-1.647-2.078-3.324-4.658-3.373-5.411-.101-6.409-4.578-6.409-4.578s-1.167 4.436-6.578 4.334c-2.88-.055-4.321 1.977-5.031 3.757-1.12-1.405-2.873-2.676-5.376-2.059-5.191 1.279-7.332-2.68-7.383-2.773 0 .093-.027 4.599-5.226 5.879-2.798.688-3.659 3.021-3.881 4.922-1.449-1.069-3.473-1.845-5.731-.604-4.737 2.601-7.853-.781-7.853-.781s1.22 4.423-3.517 7.024c-2.522 1.385-2.748 3.86-2.467 5.755-1.677-.66-3.834-.889-5.694.89-3.898 3.731-7.787 1.266-7.787 1.266s2.329 3.957-1.569 7.69c-2.076 1.985-1.65 4.437-.885 6.192-1.791-.206-3.934.127-5.267 2.324-2.762 4.554-7.09 3.259-7.192 3.229.085.084 3.242 3.283.486 7.829-1.488 2.454-.439 4.711.756 6.211-1.785.262-3.767 1.135-4.482 3.6-1.5 5.17-6.108 4.968-6.108 4.968s4.008 2.269 2.509 7.438c-.799 2.753.803 4.662 2.349 5.804-1.657.712-3.344 2.066-3.394 4.63-.101 5.379-4.605 6.371-4.605 6.371s4.463 1.16 4.36 6.539c-.055 2.864 1.989 4.296 3.779 5.001-1.414 1.113-2.692 2.856-2.072 5.346 1.286 5.16-2.696 7.287-2.789 7.338.093 0 4.625.027 5.912 5.195.693 2.781 3.04 3.638 4.953 3.859-1.076 1.44-1.856 3.451-.608 5.696 2.616 4.711-.785 7.807-.785 7.807s4.449-1.213 7.065 3.496c1.393 2.508 3.883 2.732 5.787 2.452-.665 1.669-.894 3.811.896 5.66 3.753 3.876 1.274 7.743 1.274 7.743s3.981-2.317 7.734 1.558c1.999 2.064 4.463 1.641 6.231.88-.209 1.782.128 3.911 2.338 5.236 4.579 2.746 3.278 7.048 3.248 7.149.085-.085 3.303-3.223 7.875-.482 2.468 1.479 4.738.435 6.247-.753.264 1.774 1.142 3.744 3.621 4.456 5.2 1.492 4.998 6.073 4.998 6.073s2.283-3.985 7.482-2.495c2.769.794 4.689-.798 5.838-2.333.715 1.646 2.078 3.323 4.658 3.372 5.411.102 6.409 4.579 6.409 4.579s1.167-4.438 6.578-4.335c2.881.055 4.321-1.977 5.031-3.757 1.12 1.405 2.873 2.676 5.377 2.059 5.191-1.279 7.331 2.68 7.382 2.773 0-.093.027-4.597 5.226-5.877 2.797-.689 3.659-3.023 3.88-4.923 1.45 1.07 3.473 1.845 5.731.604 4.737-2.601 7.853.781 7.853.781s-1.22-4.421 3.517-7.023c2.522-1.384 2.748-3.86 2.467-5.753 1.678.66 3.834.888 5.694-.891 3.898-3.731 7.787-1.266 7.787-1.266s-2.329-3.957 1.569-7.688c2.075-1.987 1.65-4.437.885-6.193 1.791.206 3.934-.128 5.267-2.325 2.762-4.553 7.09-3.259 7.191-3.229-.085-.085-3.242-3.283-.486-7.829 1.488-2.454.439-4.709-.756-6.211 1.784-.262 3.766-1.135 4.482-3.6 1.5-5.169 6.108-4.969 6.108-4.969s-4.008-2.269-2.509-7.439c.799-2.752-.803-4.661-2.348-5.802 1.661-.714 3.348-2.068 3.397-4.633Zm-7.392-4.559c-.859 45.053-38.429 81.011-83.749 80.156-45.321-.854-81.491-38.204-80.632-83.257.861-45.054 38.43-81.012 83.749-80.158 45.321.856 81.492 38.204 80.632 83.259Z" fill="#FFB000"/><path d="M123.344 13.951c-47.562 0-86.118 38.331-86.118 85.614s38.556 85.612 86.118 85.612c47.563 0 86.12-38.329 86.12-85.612 0-47.283-38.557-85.614-86.12-85.614Zm-1.558 167.32c-45.321-.854-81.491-38.204-80.632-83.257.861-45.054 38.43-81.012 83.749-80.158 45.32.856 81.491 38.204 80.631 83.258-.859 45.053-38.429 81.011-83.748 80.157Z" fill="#F38601"/><path d="M123.344 162.343c-8.724 0-17.197-1.703-25.184-5.061a64.46 64.46 0 0 1-20.555-13.774 64.044 64.044 0 0 1-13.855-20.435c-3.378-7.939-5.091-16.362-5.091-25.036 0-8.674 1.713-17.096 5.091-25.036a64.055 64.055 0 0 1 13.855-20.435A64.452 64.452 0 0 1 98.16 38.793c7.986-3.358 16.46-5.061 25.184-5.061 8.725 0 17.198 1.703 25.184 5.061a64.474 64.474 0 0 1 20.555 13.773 64.028 64.028 0 0 1 13.855 20.435c3.378 7.939 5.09 16.363 5.09 25.036 0 8.673-1.713 17.096-5.09 25.036a64.06 64.06 0 0 1-13.855 20.435 64.472 64.472 0 0 1-20.555 13.774c-7.986 3.358-16.459 5.061-25.184 5.061Z" fill="#EFC998"/><path d="M99.155 444.099a60.738 60.738 0 0 0-4.559-.967c-14.368-2.474-26.654.747-35.764 2.898-5.486 1.298-9.822 2.203-12.766 1.247-8.342-2.716-12.266 5.451-15.837.591-2.872-3.912-1.221 1.198-6.441-4.28-4.61-4.841-.982-7.328-.074-7.842-.974.489-5.412 2.521-8.903.682-3.939-2.076-4.714-5.288-2.572-10.156 2.125-4.828 7.48-5.544 12.772-9.8l.133-.108c5.334-4.354 23.532-2.978 31.499-1.043 2.919.709 5.874-.459 8.842-2.102 5.137-2.843 10.315-7.104 15.401-5.506 5.618 1.763 8.725 5.091 10.135 10.429 1.412 5.338 9.659 12.387 9.659 12.387 8.155 12.85-1.525 13.57-1.525 13.57Z" fill="#5D8DFC"/><path opacity=".5" d="M94.595 443.132c-14.368-2.474-26.654.747-35.764 2.898-10.406-5.245-15.069-15.039-20.371-21.879-3.922-5.059-9.125-7.013-13.45-7.681l.133-.108c5.334-4.354 23.532-2.978 31.499-1.043 2.919.709 5.874-.459 8.842-2.102 12.647 4.801 22.323 10.935 22.323 10.935s10.488 11.421 6.788 18.98Z" fill="#5D8DFC"/><path d="M32.312 448.732s-2.2-.896-1.324-2.009c.876-1.114 3.043-1.603 3.734-.499.69 1.103.863 1.821-2.41 2.508ZM17.677 435.537s-1.815-4.742-.223-6.766c1.592-2.024 6.641-1.041 7.896.965s-.069 5.266-7.673 5.801ZM25.328 443.433s-2.17-2.654-.791-4.407c1.379-1.753 5.528-1.725 6.616.013s.763 3.931-5.825 4.394Z" fill="#6CABFF"/><path d="M23.622 436.309c5.696.829 11.586-.413 16.895-2.482.729-.284.412-1.472-.327-1.185-5.08 1.98-10.779 3.278-16.242 2.482-.773-.112-1.107 1.071-.326 1.185ZM40.982 439.704c-4.575 2.421-9.692 4.081-14.868 4.474-.783.06-.79 1.289 0 1.228 5.402-.41 10.711-2.114 15.488-4.642.699-.369.079-1.43-.62-1.06ZM45.65 443.569c-2.363 1.125-4.773 1.802-7.354 2.221-.778.126-.448 1.31.327 1.185 2.69-.437 5.186-1.173 7.647-2.345.714-.34.091-1.4-.62-1.061Z" fill="#5D8DFC" opacity=".5"/><path d="M200.72 276.781c-2.728 19.658-.927 102.247-78.341 102.247-72.32 0-79.429-92.427-83.874-109.413-4.445-16.988 7.195-35.314 30.691-35.39 23.496-.078 23.256-21.729 23.256-21.729l29.928 13.019 29.926-13.019s-.239 21.651 23.259 21.729c23.495.075 27.569 25.162 25.155 42.556Z" fill="#5D8DFC"/><path d="m187.452 308.089-.309-45.38 11.737-17.935s7.089 6.229 14.322 15.793c.631.834 1.264 1.693 1.892 2.578 6.587 9.254 12.785 21.082 13.289 33.273 1.103 26.685-40.931 11.671-40.931 11.671Z" fill="#5D8DFC"/><path opacity=".5" d="M215.094 263.145c-.322 4.03-1.852 11.966-8.681 16.898-9.453 6.828-13.727 4.949-13.727 4.949l-.785-3.207c-.173 1.915 18.131-8.274 21.301-21.218.63.834 1.263 1.693 1.892 2.578ZM155.241 225.351s-19.886 24.681-42.084 26.798c-22.198 2.117-27.893-28.576-27.893-28.576l69.977 1.778Z" fill="#5D8DFC"/><path d="M197.174 313.478c-1.818 23.961-23.155 27.263-23.155 27.263s-53.322-6.086-77.311-39.636c-15.801-22.094-23.923-45.219-27.627-58.432-1.92-6.85-2.652-11.036-2.652-11.036 7.675-5.902 18.9-7.335 27.894-5.542 5.671 21.794 15.452 38.167 26.796 50.465 31.864 34.547 76.055 36.918 76.055 36.918Z" fill="#EB4168"/><path d="M121.118 276.56c-.654.597-1.52 1.027-2.633 1.251-12.84 2.599-22.401-7.682-27.547-19.11-5.144-11.43-4.38-11.43-14.942-13.172-2.312-.381-4.659-1.437-6.915-2.855-1.92-6.85-2.652-11.036-2.652-11.036 7.675-5.902 18.9-7.335 27.894-5.542 5.67 21.793 15.451 38.166 26.795 50.464Z" fill="#A2244D"/><path d="M87.811 222.253c.633 10.165 1.401 20.533 5.791 29.884 3.708 7.897 10.029 14.1 18.362 16.887 7.523 2.516 16.083 2.203 23.452-.695 7.736-3.043 14.001-8.845 18.032-16.086 4.652-8.356 6.277-18.117 4.935-27.551-.145-1.02-1.442-1.578-2.344-1.33-1.096.301-1.476 1.321-1.331 2.343 2.09 14.693-4.587 31.268-18.293 38.049-6.37 3.151-13.969 3.986-20.875 2.33-3.501-.84-6.801-2.308-9.715-4.431-3.21-2.339-5.745-5.545-7.676-8.989-5.178-9.237-5.885-20.07-6.53-30.412-.15-2.434-3.961-2.451-3.808.001Z" fill="#FFB000"/><path d="M56.62 180.665s3.464 4.376-1.276 9.481c-4.741 5.105-9.664 12.946-5.288 19.692 4.376 6.746 14.222 2.735 13.128 12.581-1.094 9.846 6.382 17.322 18.416 16.592 12.034-.729 9.299-20.057 22.792-16.592 13.493 3.464 14.04-24.068 9.664-30.085-4.377-6.017-57.436-11.669-57.436-11.669ZM192.458 180.665s-3.464 4.376 1.276 9.481c4.741 5.105 9.664 12.946 5.288 19.692-4.376 6.746-14.222 2.735-13.128 12.581 1.094 9.846-6.382 17.322-18.416 16.592-12.034-.729-9.299-20.057-22.791-16.592-13.493 3.464-14.04-24.068-9.664-30.085 4.376-6.017 57.435-11.669 57.435-11.669ZM127.02 67.392s-11.122-4.326-25.891-1.18c-14.769 3.146-11.487 9.831-21.333 16.123-9.846 6.292-20.786 4.719-23.703 15.337-2.917 10.618 8.023 16.91-1.459 25.365-9.481 8.455-11.81 30.138-6.725 35.912 5.084 5.773 24.229 11.869 24.229 11.869s32.455-56.629 51.965-55.646c19.51.983 4.26-17.386 4.26-17.386l-1.343-30.394Z" fill="#1C1E5B"/><path d="M122.279 85.089s-5.652-23.202 18.233-19.466c23.885 3.736 25.891 21.039 40.842 28.904 14.951 7.865 6.897 21.027 15.316 28.511 13.493 11.994-2.735 19.073 2.735 26.152 5.47 7.079-10.94 16.517-22.062 1.966-11.122-14.551-55.976-46.404-58.529-46.011-2.552.393 3.465-20.056 3.465-20.056Z" fill="#1C1E5B"/><path d="m187.452 152.442-.745.241-2.5.811C175.844 98.553 125.86 95.9 122.28 95.477c-3.581.423-53.085 2.822-61.448 57.763l-2.805-.239-.722-.061s1.778-35.489 21.106-51.254c22.003-17.948 43.869-16.597 43.869-16.597s21.864-1.35 43.867 16.597c19.33 15.765 21.305 50.756 21.305 50.756Z" fill="#EB4168"/><path d="m186.707 152.684-2.5.811c-8.363-54.941-58.347-57.594-61.927-58.017-3.581.423-53.085 2.822-61.448 57.763l-2.805-.239c1.564-11.102 6.342-32.966 20.384-44.419 22.003-17.948 43.869-16.597 43.869-16.597s21.864-1.351 43.867 16.597c14.08 11.484 18.953 33.17 20.56 44.101Z" fill="#A2244D"/><path d="M94.8 76.206s-5.789-7.208-7.923-15.021c-2.312-8.467 2.755-18.316 11.371-23.396 8.616-5.08 12.705 0 21.932-1.587 9.226-1.588 23.831-1.905 31.133 5.715s6.624 28.257-4.308 33.019c-10.931 4.762-36.33 11.43-52.205 1.27Z" fill="#1C1E5B"/><path d="M90.719 67.896a2.671 2.671 0 1 1 4.649-2.639 2.671 2.671 0 0 1-4.649 2.639Zm58.717.458a2.672 2.672 0 1 1 3.559-1.266 2.677 2.677 0 0 1-2.417 1.527 2.668 2.668 0 0 1-1.142-.261ZM97.3 64.331a2.675 2.675 0 0 1 1.473-3.481 2.672 2.672 0 1 1-1.473 3.481Zm45.478 1.28a2.674 2.674 0 0 1 1.778-5.043 2.674 2.674 0 0 1-1.778 5.043Zm-6.904-2.038a2.672 2.672 0 1 1 1.238-5.198 2.672 2.672 0 0 1-1.238 5.198Zm-31.587-1.924a2.673 2.673 0 0 1 5.17-1.353 2.669 2.669 0 0 1-1.91 3.26v.002a2.67 2.67 0 0 1-3.26-1.909Zm24.518.639a2.671 2.671 0 1 1 .662-5.302 2.675 2.675 0 0 1 2.322 2.984 2.674 2.674 0 0 1-2.984 2.318Zm-17.242-2.395a2.672 2.672 0 1 1 2.978 2.324 2.673 2.673 0 0 1-2.978-2.324Zm10.09 1.917a2.673 2.673 0 1 1 .024 0h-.024Z" fill="#FFEBC7"/><path d="M73.049 162.431s-16.045-18.78-25.709-5.47c-8.738 12.035 6.929 34.096 16.957 39.384 10.028 5.288 12.581-1.641 12.581-1.641l-3.829-32.273Z" fill="#5D8DFC"/><path d="M62.202 183.208c-1.187-3.273-3.375-6.19-4.944-6.622-1.885-.52-2.443-2.485-.437-3.214 2.975-1.082 5.195-6.521 1.223-12.293-3.972-5.772-8.554.967-7.929 7.005.92 8.881 4.807 15.203 10.488 19.957 1.47 1.23 3.145-.241 2.423-2.352-.161-.471-.34-.982-.538-1.534-.116-.33-.179-.653-.286-.947Z" fill="#5D8DFC" opacity=".5"/><path d="M176.802 162.431s16.045-18.78 25.709-5.47c8.738 12.035-6.929 34.096-16.957 39.384-10.028 5.288-12.581-1.641-12.581-1.641l3.829-32.273Z" fill="#5D8DFC"/><path d="M182.005 216.124c-2.218-.166-4.133-1.422-5.392-3.536-1.563-2.624-.955-6.769 1.806-12.319a57.168 57.168 0 0 1 4.316-7.196l1.307-1.808 1.16 1.906c.337.554 8.188 13.635 2.682 20.353-1.362 1.662-3.349 2.619-5.392 2.619a7.231 7.231 0 0 1-.487-.019Zm-2.846-5.052c.762 1.279 1.822 2.004 3.067 2.097 1.249.095 2.507-.476 3.366-1.524 2.898-3.536.3-10.701-1.792-14.872-3.055 4.743-6.292 11.526-4.641 14.299Z" fill="#FFB000"/><path d="M183.524 196.169s4.462 6.572 1.997 9.906c-1.128 1.525-3.447 1.805-4.759-.168-1.802-2.711 2.762-9.738 2.762-9.738Z" fill="#EB4168"/><path d="M187.649 183.208c1.187-3.273 3.375-6.19 4.944-6.622 1.885-.52 2.443-2.485.437-3.214-2.975-1.082-5.195-6.521-1.223-12.293 3.972-5.772 8.554.967 7.929 7.005-.92 8.881-4.807 15.203-10.489 19.957-1.47 1.23-3.145-.241-2.423-2.352.161-.471.34-.982.538-1.534.117-.33.18-.653.287-.947Z" fill="#5D8DFC" opacity=".5"/><path d="M105.103 107.745c18.381-5.286 56.829-.775 73.619 28.931s-6.483 99.418-52.978 99.418c-52.939 0-61.349-65.393-62.365-76.012a24.002 24.002 0 0 1-.108-2.812c.232-11.524 3.897-38.616 41.832-49.525Z" fill="#5D8DFC"/><path d="M135.256 131.329c0 5.871-4.759 10.632-10.63 10.632-5.872 0-10.632-4.761-10.632-10.632 0-1.869.484-3.627 1.331-5.154a9.594 9.594 0 0 0 9.3 11.965c5.299 0 9.595-4.296 9.595-9.596 0-.817-.103-1.611-.295-2.368a10.57 10.57 0 0 1 1.331 5.153Z" fill="#EB4168"/><path d="M130.122 152.193a5.497 5.497 0 1 1-10.994 0 5.497 5.497 0 0 1 10.994 0ZM64.636 171.545a62.059 62.059 0 0 0 7.972 26.674c.391.687 1.453.069 1.061-.62a60.649 60.649 0 0 1-7.804-26.054c-.051-.785-1.28-.79-1.229 0ZM183.564 171.545a60.663 60.663 0 0 1-7.804 26.054c-.391.688.67 1.308 1.061.62a62.059 62.059 0 0 0 7.972-26.674c.051-.789-1.178-.786-1.229 0Z" fill="#5D8DFC" opacity=".5"/><path d="M164.089 121.063s-3.155 7.454 3.773 11.83c6.929 4.376 9.664 10.211 10.211 16.41.547 6.199-7.111 14.951-2.735 21.698 4.376 6.746 7.282 6.38 7.282 6.38s4.205-14.038.559-29.718c-3.648-15.681-9.371-26.761-19.09-26.6Z" fill="#1C1E5B"/><path d="M88.533 188.87c8.808 0 15.948-3.664 15.948-8.183s-7.14-8.183-15.948-8.183-15.948 3.664-15.948 8.183 7.14 8.183 15.948 8.183ZM162.954 187.367c8.808 0 15.948-3.664 15.948-8.183s-7.14-8.183-15.948-8.183-15.948 3.664-15.948 8.183 7.14 8.183 15.948 8.183Z" fill="#5D8DFC" opacity=".3"/><path d="M114.07 172.703s-3.371-25.236-18.918-21.484c-12.345 2.98-11.258 17.513-11.258 17.513s16.927-14.576 30.176 3.971Z" fill="#5D8DFC" opacity=".5"/><path d="M114.07 173.736s-.917-11.006-11.923-12.688c-11.006-1.682-19.719 9.019-19.719 9.019s.277 3.934 3.057 2.446c3.508-1.877 5.923-6.774 14.675-7.184 9.782-.459 13.91 8.407 13.91 8.407Z" fill="#1C1E5B"/><path d="M84.906 167.526s-4.771-.974-7.064-4.796c0 0 2.105 8.022 5.867 9.973 0 0 2.453-2.063 1.197-5.177ZM105.586 146.029c2.291-2.041 1.99-5.737-.615-7.358-1.399-.87-3.396-1.574-6.245-1.749-8.757-.536-24.125 11.08-20.372 15.19 3.298 3.614 19.58.736 27.232-6.083Z" fill="#1C1E5B"/><path d="M134.8 172.703s3.371-25.236 18.918-21.484c12.345 2.98 11.258 17.513 11.258 17.513s-16.928-14.576-30.176 3.971Z" fill="#5D8DFC" opacity=".5"/><path d="M134.134 173.736s.917-11.006 11.923-12.688c11.006-1.682 19.719 9.019 19.719 9.019s-.277 3.934-3.057 2.446c-3.508-1.877-5.923-6.774-14.675-7.184-9.783-.459-13.91 8.407-13.91 8.407Z" fill="#1C1E5B"/><path d="M163.297 167.526s4.771-.974 7.064-4.796c0 0-2.105 8.022-5.867 9.973 0 0-2.452-2.063-1.197-5.177ZM140.971 146.029c-2.291-2.041-1.99-5.737.615-7.358 1.399-.87 3.396-1.574 6.245-1.749 8.757-.536 24.125 11.08 20.372 15.19-3.298 3.614-19.58.736-27.232-6.083ZM117.975 102.558s-4.63 13.196 7.769 17.572c12.399 4.376 16.592-4.923 21.333 0s11.069 20.602 26.985 21.333c0 0-13.939-5.464-7.476-17.504 3.776-7.034-2.735-16.957-16.775-21.333-14.039-4.376-31.836-.068-31.836-.068Z" fill="#1C1E5B"/><path d="M132.777 91.59c0 7.87-4.381 14.25-9.785 14.25s-9.785-6.38-9.785-14.25 4.381-14.25 9.785-14.25 9.785 6.38 9.785 14.25Z" fill="#FFB000"/><path d="M129.712 90.844c0 5.404-3.008 9.785-6.72 9.785-3.711 0-6.719-4.381-6.719-9.785s3.008-9.785 6.719-9.785c3.711 0 6.72 4.381 6.72 9.785Z" fill="#F38601"/><path d="M128.875 88.868c0 4.731-2.634 8.567-5.883 8.567s-5.883-3.835-5.883-8.567c0-4.731 2.634-8.566 5.883-8.566 3.249-.001 5.883 3.834 5.883 8.566Z" fill="#EB4168"/><path d="M122.569 107.755c.825.69 2.232 16.501-15.439 16.261-17.671-.239-33.534 4.319-34.081 14.712-.547 10.393-4.537 19.546-9.78 18.542-3.155-.605-3.506-9.397 1.981-25.202 3.899-11.23 27.706-49.087 57.319-24.313Z" fill="#1C1E5B"/><path d="M83.848 121.063s3.155 7.454-3.773 11.83c-6.929 4.376-9.664 10.211-10.211 16.41-.547 6.199 7.111 14.951 2.735 21.698-4.376 6.746-7.282 6.38-7.282 6.38s-4.205-14.038-.559-29.718c3.648-15.681 9.371-26.761 19.09-26.6Z" fill="#1C1E5B"/><path d="M118.762 224.303c3.968 2.165 9.191 2.164 13.202.102 1.407-.723.165-2.844-1.24-2.122-3.21 1.65-7.554 1.626-10.722-.102-1.389-.756-2.63 1.364-1.24 2.122ZM136.691 183.602s-2.328-.635-3.81.847c-1.09 1.09-4.288 2.678-7.303 2.485-3.014.193-6.213-1.395-7.303-2.485-1.482-1.482-3.81-.847-3.81-.847-2.117.212-1.693 2.752 1.482 2.117 2.198-.44 2.064 1.389 4.233 2.461 3.942 2.037 8.353 1.464 10.24.132 2.169-1.072 2.591-3.033 4.789-2.593 3.175.635 3.598-1.905 1.482-2.117Z" fill="#5D8DFC" opacity=".5"/><path d="M148.652 191.641s0 13.426-8.242 21.226c-3.374 3.194-8.13 5.444-14.832 5.444-6.917 0-11.761-2.396-15.152-5.753-7.923-7.84-7.923-20.917-7.923-20.917s.612.279 1.719.705c3.471 1.331 11.811 4.089 21.356 4.089 8.954 0 16.845-2.426 20.655-3.827 1.545-.567 2.419-.967 2.419-.967Z" fill="#1C1E5B"/><path d="M140.414 212.865c-3.377 3.198-8.138 5.449-14.833 5.449-6.923 0-11.764-2.401-15.151-5.758 1.454-1.056 3.526-2.132 6.455-2.849 2.251-.558 4.991-.917 8.348-.917 4.174 0 7.491.628 10.121 1.534 2.111.728 3.765 1.624 5.06 2.541Z" fill="#EB4168"/><path opacity=".5" d="M140.414 212.865c-3.377 3.198-8.138 5.449-14.833 5.449-6.923 0-11.764-2.401-15.151-5.758 1.454-1.056 3.526-2.132 6.455-2.849-.847.827-1.295 1.972-.389 3.477 2.231 3.696 14.452 3.713 17.876.04.967-1.037 1.28-2.172.981-2.899 2.112.727 3.766 1.623 5.061 2.54Z" fill="#A2244D"/><path d="M146.233 192.608c-.303 2.832-.87 6.217-1.886 7.146-1.835 1.679-9.244 4.375-19.679 4.375-10.435 0-15.812-3.033-17.787-4.742-1.344-1.162-2.229-4.818-2.659-7.042 3.471 1.331 11.811 4.089 21.356 4.089 8.954.001 16.845-2.425 20.655-3.826Z" fill="#FFEBC7"/><path d="M144.173 417.365c-.889 2.542-1.704 4.96-1.907 7.135-.76 8.116-10.404 21.696-30.542 22.465-2.28.087-4.693.011-7.243-.258a235.56 235.56 0 0 1-12.444-1.638c-21.836-3.48-43.882-10.395-46.754-22.073-.639-2.599-2.498-4.674-5.122-6.471-11.433-7.836-37.383-10.401-40.137-28.159-3.387-21.83 12.7-28.982 21.591-41.403 1.554-2.17 3.653-4.145 6.062-5.927 5.741-4.246 13.234-7.394 19.247-9.472 7.347 2.885 15.708 6.93 24.332 11.676 9.506 8.497 21.19 16.286 35.692 22.761a174.292 174.292 0 0 0 16.451 6.346s-.578 3.666 1.732 8.475c1.587 3.302 4.54 7.146 9.98 10.708a43.682 43.682 0 0 0 2.889 1.729c12.507 6.859 8.972 16.1 6.173 24.106Z" fill="#EB4168"/><path d="M92.036 445.068c-21.836-3.48-43.882-10.395-46.754-22.073-.639-2.599-2.498-4.674-5.122-6.471 2.799-4.953 13.774-9.13 19.664-9.163 7.286-.041-10.753 4.89-8.848 13.992 1.905 9.102 5.986 9.542 21.978 16.371 6.697 2.859 13.471 5.38 19.082 7.344Z" fill="#A2244D"/><path d="M243.555 388.366c-1.719 11.083-12.474 16.248-23.096 20.469-10.302 4.096-20.477 7.303-22.164 14.161-2.163 8.799-15.213 14.893-30.855 18.852-9.115 2.307-19.11 3.891-28.345 4.86-10.41 1.094-18.542-.988-24.554-4.445-8.473-4.875-12.734-12.476-13.23-17.761-.847-9.034-12.209-22.206 4.267-31.241 16.477-9.034 17.818-20.913 17.818-20.913a159.215 159.215 0 0 0 9.929-3.641c25.477-10.344 40.569-24.736 52.945-40.186 0 0 4.511 1.014 10.446 3.067 8.53 2.951 20.003 8.05 25.246 15.376 8.893 12.42 24.98 19.572 21.593 41.402Z" fill="#EB4168"/><path d="M220.46 408.834c-10.302 4.096-20.477 7.303-22.164 14.161 0 0 .368-4.917 6.386-11.106 6.016-6.189 13.001-12.707 12.366-19.607-.635-6.9 3.493 2.517 1.588 7.967-1.091 3.12-.204 6.325 1.824 8.585ZM188.891 379.524c-3.708 16.051-17.245 15.698-19.017 20.725-1.77 5.027 16.057 13.071 10.586 24.184-2.972 6.035-7.377 12.539-13.02 17.414-9.115 2.307-19.11 3.891-28.345 4.86-10.41 1.094-18.542-.988-24.554-4.445-6.545-21.464 5.618-50.575 18.786-73.556 25.477-10.344 40.569-24.736 52.945-40.186 0 0 4.511 1.014 10.446 3.067-.212 3.74-2.089 9.39-7.828 16.148-8.47 9.978 3.71 15.738.001 31.789Z" fill="#A2244D"/><path d="M144.173 417.365c-.889 2.542-1.704 4.96-1.907 7.135-.76 8.116-10.404 21.696-30.542 22.465-4.824-5.135-2.629-11.989-2.324-18.562.453-9.75.652-13.496-16.347-16.515-16.999-3.019-27.45-14.762-38.605-27.229-11.155-12.47-31.451-10.92-14.095-19.648 5.807-2.921-.31-15.144-12.678-23.975 5.741-4.246 13.234-7.394 19.247-9.472 7.347 2.885 15.708 6.93 24.332 11.676 12.07 6.642 24.651 14.652 35.692 22.761 6.81 5.002 13.033 10.042 18.183 14.821 4.079 3.783 7.485 7.4 9.98 10.708 3.006 3.979 4.695 7.51 4.655 10.334-.07 4.809 2.335 9.316 4.409 15.501Z" fill="#A2244D"/><path d="M51.036 330.228s-2.963-4.065 0-11.45c0 0 26.67 16.516 73.026 16.516 46.356 0 71.374-16.516 71.374-16.516s-.643 9.942-7.009 14.923c0 0-13.707 42.575-68.247 38.646-54.539-3.93-69.144-42.119-69.144-42.119Z" fill="#EB4168"/><path d="M64.154 214.869c-2.043 0-4.03-.957-5.392-2.619-5.505-6.717 2.346-19.799 2.682-20.353l1.16-1.906 1.307 1.808a57.13 57.13 0 0 1 4.316 7.196c2.761 5.55 3.369 9.695 1.806 12.319-1.259 2.114-3.174 3.37-5.392 3.536a6.098 6.098 0 0 1-.487.019ZM62.846 195.5c-2.092 4.171-4.69 11.335-1.792 14.872.859 1.048 2.117 1.619 3.366 1.524 1.245-.093 2.306-.818 3.067-2.097 1.651-2.773-1.586-9.556-4.641-14.299Z" fill="#FFB000"/><path d="M63.122 194.896s-4.462 6.572-1.997 9.905c1.128 1.525 3.447 1.805 4.759-.168 1.802-2.71-2.762-9.737-2.762-9.737Z" fill="#EB4168"/><path d="M204.193 459.316c-3.901.411-7.258-3.086-8.003-3.924.667.838 3.059 4.473-2.989 7.241-6.881 3.152-3.45-.98-7.572 1.585-5.118 3.188-5.732-5.851-14.487-6.428-8.037-.529-18.039-17.006-38.385-17.753a40.56 40.56 0 0 0-5.683.197s-14.883-13.649-2.54-22.558c0 0 12.387.811 15.678-3.624 3.292-4.432 7.411-6.369 13.282-5.923 2.91.222 5.194 2.085 7.275 4.471 3.916 4.489 7.112 10.833 12.413 11.591 8.117 1.16 25.523 6.636 28.861 12.658 3.338 6.022 8.124 8.674 8.308 13.992.184 5.315-1.728 8.009-6.158 8.475Z" fill="#5D8DFC"/><path opacity=".5" d="M160.77 412.6c-1.274.279-2.993.118-5.017-.711-6.663-2.731-6.632.997-11.183 6.782-4.549 5.787-10.408 3.952-13.477 9.733-1.916 3.605-.03 8.478 1.664 11.634a40.56 40.56 0 0 0-5.683.197s-14.883-13.649-2.54-22.558c0 0 12.387.811 15.678-3.624 3.292-4.432 7.411-6.369 13.282-5.923 2.912.222 5.196 2.084 7.276 4.47Z" fill="#5D8DFC"/><path d="M183.375 464.248s2.375-.015 1.975-1.375c-.4-1.359-2.23-2.618-3.282-1.849-1.051.769-1.478 1.372 1.307 3.224ZM201.862 457.427s3.445-3.73 2.718-6.2c-.727-2.47-5.78-3.431-7.69-2.034-1.911 1.397-1.891 4.915 4.972 8.234ZM191.826 461.92s3-1.659 2.37-3.799c-.63-2.14-4.493-3.653-6.148-2.443-1.655 1.21-2.168 3.367 3.778 6.242Z" fill="#6CABFF"/><path d="M196.286 454.735c-5.381-1.293-10.195-4.559-14.192-8.296-.577-.539-1.448.327-.869.869 4.149 3.879 9.15 7.27 14.735 8.612.768.184 1.096-1 .326-1.185ZM177.756 453.459c3.454 4.068 7.723 7.604 12.526 9.962.707.347 1.331-.712.62-1.061-4.722-2.318-8.882-5.771-12.278-9.77-.512-.603-1.377.27-.868.869ZM171.986 455.315c1.849 1.999 3.91 3.598 6.242 5 .679.408 1.298-.654.62-1.061-2.244-1.349-4.215-2.884-5.993-4.807-.538-.582-1.405.288-.869.868Z" fill="#5D8DFC" opacity=".5"/><path d="M180.785 357.651a58.703 58.703 0 0 1-4.921 18.727 58.472 58.472 0 0 1-6.179 10.626 58.767 58.767 0 0 1-7.491 8.407 60.833 60.833 0 0 1-15.792 10.562 61.191 61.191 0 0 1-5.485 2.24s-.002 0-.002.002c-.491.174-.987.342-1.482.504-12.745 4.162-27.042 4.365-40.848-.235a65.987 65.987 0 0 1-3.286-1.19c-15.509-6.071-27.407-17.28-34.348-30.73a62.83 62.83 0 0 1-.7-1.398v-.002a61.343 61.343 0 0 1-2.798-6.752 60.88 60.88 0 0 1-2.525-9.793 59.094 59.094 0 0 1-.839-8.729 59.146 59.146 0 0 1 .356-7.903l.002-.021a58.487 58.487 0 0 1 3.673-14.778 58.597 58.597 0 0 1 8.061-14.307 59.278 59.278 0 0 1 12.074-11.791 60.82 60.82 0 0 1 3.945-2.655 62.747 62.747 0 0 1 3.536-2.029 63.034 63.034 0 0 1 10.796-4.49c2.285-3.063 4.009-6.763 5.135-9.604 1.036-2.613 1.568-4.5 1.568-4.5l74.147 29.028s-.653 1.284-1.48 3.302c-.735 1.802-1.607 4.189-2.271 6.773-.405 1.566-.731 3.208-.905 4.832a62.812 62.812 0 0 1 5.301 11.877c.426 1.3.807 2.617 1.143 3.941a60.118 60.118 0 0 1 1.29 6.592 59.06 59.06 0 0 1 .325 13.494Z" fill="#FFB000"/><path d="m186.405 300.915-3.296 8.419c-.834 2.13-20.711-3.659-44.396-12.932-23.686-9.273-42.21-18.517-41.376-20.648l3.296-8.419a.391.391 0 0 1 .078-.124c1.59-1.764 21.129 3.976 44.319 13.055 23.353 9.143 41.689 18.258 41.398 20.555a.36.36 0 0 1-.023.094Z" fill="#FFB000"/><path d="M186.428 300.821c-7.682-1.056-24.655-6.331-43.902-13.866-19.418-7.602-35.576-15.323-41.815-19.743 1.59-1.764 21.129 3.976 44.319 13.055 23.353 9.142 41.689 18.258 41.398 20.554Z" fill="#F38601"/><path d="M175.773 296.646a45.748 45.748 0 0 1-1.021-.244c-6.052-1.522-18.153-5.678-31.903-11.061-14.703-5.756-27.07-11.263-31.981-14.129l.002-.001c.622-.475 6.676 1.267 15.473 4.346 5.135 1.796 11.203 4.049 17.673 6.582l.074.029a569.287 569.287 0 0 1 12.236 4.95c7.17 3.002 12.969 5.633 16.314 7.397 2.007 1.059 3.13 1.806 3.133 2.131Z" fill="#1C1E5B"/><path d="M174.751 296.401c-6.052-1.522-18.153-5.678-31.903-11.061-14.703-5.756-27.07-11.263-31.981-14.129l.002-.001c.081.006 3.427-1.16 7.067.913 1.775 1.011 4.057-1.656 7.351-.423 9.537 3.569 9.953.727 13.441 1.022 5.01.423 6.194 5.34 8.066 6.669 2.157 1.53 3.686 2.723 7.056 3.665 2.235.624 2.931 2.653 3.81 3.25 1.976 1.341 5.128-.396 8.538 1.058 4.798 2.046 5.483 5.613 7.126 6.907 1.333 1.051 1.427 2.13 1.427 2.13ZM133.184 310.675a1.953 1.953 0 1 0-1.441 3.631l.008.003a1.953 1.953 0 0 0 1.433-3.634ZM119.117 304.388a1.953 1.953 0 1 0-1.746 3.495 1.953 1.953 0 0 0 1.746-3.495ZM126.083 307.68a1.952 1.952 0 1 0-1.593 3.567l.087.036a1.952 1.952 0 0 0 1.506-3.603ZM112.305 300.796a1.953 1.953 0 1 0-1.9 3.413 1.953 1.953 0 0 0 1.9-3.413ZM99.254 292.671a1.954 1.954 0 1 0-2.24 3.201 1.954 1.954 0 0 0 2.24-3.201ZM105.67 296.895a1.953 1.953 0 1 0-2.061 3.32 1.953 1.953 0 0 0 2.061-3.32ZM170.235 321.212a1.952 1.952 0 1 0-.72 3.838 1.952 1.952 0 0 0 .72-3.838ZM162.671 319.657a1.954 1.954 0 1 0-.852 3.815 1.954 1.954 0 0 0 .852-3.815ZM140.406 313.361a1.954 1.954 0 0 0-1.355 3.663l.072.027a1.953 1.953 0 1 0 1.283-3.69ZM147.741 315.742a1.954 1.954 0 1 0-1.132 3.74 1.954 1.954 0 0 0 1.132-3.74ZM155.167 317.836a1.952 1.952 0 1 0-.991 3.776 1.952 1.952 0 0 0 .991-3.776Z" fill="#FFEBC7"/><path d="M179.169 337.565c-2.934-.347-6.582-.84-10.748-1.529-10.039-1.664-25.049-4.836-39.536-10.508-14.777-5.785-27.88-13.811-36.27-19.527a205.61 205.61 0 0 1-10.416-7.566 62.774 62.774 0 0 1 3.537-2.029c2.37 1.811 5.435 4.06 9.047 6.52 8.219 5.595 21.044 13.45 35.474 19.099 17.939 7.023 36.886 10.229 47.771 11.599a59.833 59.833 0 0 1 1.141 3.941ZM146.402 405.974a62.072 62.072 0 0 1-5.484 2.24s-.001-.001-.002.001c-.492.175-.987.343-1.483.504-10.032-1.685-24.786-4.846-39.036-10.425-14.776-5.785-27.88-13.811-36.269-19.526a216.219 216.219 0 0 1-3.176-2.204 67.56 67.56 0 0 1-.7-1.399l-.001-.002a61.459 61.459 0 0 1-2.343-5.489 205.302 205.302 0 0 0 8.387 6.019c8.219 5.595 21.044 13.45 35.473 19.099 16.32 6.39 33.475 9.62 44.634 11.182ZM179.505 365.59l-9.878-9.156-11.723 7.914-8.995-10.892-12.568 6.407-7.657-11.84-13.221 4.968-6.035-12.429-13.374 3.686-4.655-13.083-13.77 2.073-2.914-13.649-12.971-.01a58.288 58.288 0 0 1 4.436-6.695l.011 1.056 13.09.01 2.758 12.918 13.118-1.974 4.456 12.521 12.84-3.538 5.839 12.024 12.662-4.758 7.36 11.382 12.065-6.149 8.614 10.431 11.188-7.552 9.841 9.123.763-.725a58.119 58.119 0 0 1-1.28 7.937Z" fill="#F38601"/><path d="M175.865 376.378a58.307 58.307 0 0 1-6.179 10.627l-8.825-8.18-11.723 7.914-8.995-10.892-12.568 6.407-7.657-11.841-13.222 4.969-6.035-12.429-13.374 3.685-4.655-13.083-13.77 2.073-2.913-13.651-11.501-.01a58.414 58.414 0 0 1 2.905-12.706l.072 7.066 13.09.012 2.757 12.918 13.118-1.974 4.456 12.521 12.84-3.538 5.839 12.024 12.662-4.758 7.36 11.382 12.065-6.149 8.614 10.431 11.188-7.552 9.842 9.121 4.609-4.387Z" fill="#F38601"/><path d="M69.567 329.12a2.112 2.112 0 1 1-3.934-1.54 2.112 2.112 0 0 1 3.934 1.54ZM81.033 337.947a2.113 2.113 0 1 1-3.935-1.54 2.113 2.113 0 0 1 3.935 1.54ZM92.907 345.677a2.112 2.112 0 1 1-3.935-1.541 2.112 2.112 0 1 1 3.935 1.541ZM105.185 352.318a2.114 2.114 0 1 1-3.936-1.54 2.114 2.114 0 0 1 3.936 1.54ZM117.866 357.878a2.114 2.114 0 1 1-3.936-1.54 2.114 2.114 0 0 1 3.936 1.54ZM130.947 362.364a2.112 2.112 0 1 1-3.935-1.541 2.113 2.113 0 1 1 3.935 1.541ZM144.426 365.781a2.112 2.112 0 1 1-3.935-1.541 2.113 2.113 0 1 1 3.935 1.541ZM158.298 368.139a2.112 2.112 0 1 1-3.934-1.54 2.112 2.112 0 0 1 3.934 1.54ZM172.563 369.443a2.114 2.114 0 1 1-3.934-1.543 2.114 2.114 0 0 1 3.934 1.543Z" fill="#FFEBC7"/><path d="M180.46 344.158a225.187 225.187 0 0 1-7.941-1.08c-11.496-1.766-29.022-5.37-47.242-12.503-18.093-7.083-32.057-16.302-40.586-22.788a151.151 151.151 0 0 1-7.387-5.987c.315-.24.631-.476.949-.71a149.568 149.568 0 0 0 7.165 5.794c8.465 6.435 22.325 15.583 40.28 22.612 18.121 7.094 35.558 10.678 46.995 12.437 2.751.423 5.294.763 7.589 1.037.066.396.125.793.178 1.188ZM163.249 394.41c-.347.339-.698.673-1.054 1.001a261.462 261.462 0 0 1-10.237-1.904c-10.914-2.251-27.746-6.432-45.953-13.56-18.077-7.077-32.256-15.294-40.969-20.94-4.721-3.06-8.396-5.72-10.896-7.62a53.512 53.512 0 0 1-.051-1.496c2.468 1.903 6.389 4.784 11.6 8.16 8.664 5.612 22.765 13.782 40.739 20.819 18.132 7.099 34.895 11.261 45.765 13.505a260.39 260.39 0 0 0 11.056 2.035Z" fill="#F38601"/><path d="M98.984 298.416s-26.981 6.371-36.942 31.163c-9.961 24.791 2.062 50.865 11.119 57.242l13.947 5.46s-16.207-25.16-8.445-50.939c8.823-29.304 36.951-34.026 36.951-34.026l-16.63-8.9Z" fill="url(#b)"/><path d="M57.159 362.3a1.964 1.964 0 0 1-.64-.413 1.9 1.9 0 0 1-.35-.453 2.516 2.516 0 0 1-.087-.172 1.74 1.74 0 0 1-.117-.364 2.11 2.11 0 0 1-.046-.38 2.22 2.22 0 0 1 .03-.382 2.008 2.008 0 0 1 .516-1.009 2.019 2.019 0 0 1 .624-.436 1.882 1.882 0 0 1 .745-.162 1.935 1.935 0 0 1 .925.211c.055.03.113.061.166.096a1.965 1.965 0 0 1 .804 1.042 2.023 2.023 0 0 1 .094.564c.001.128-.008.256-.03.382a2.008 2.008 0 0 1-.516 1.01 2.028 2.028 0 0 1-.624.436c-.058.025-.12.048-.18.068a1.85 1.85 0 0 1-.565.094 1.935 1.935 0 0 1-.749-.132ZM99.038 386.472a1.954 1.954 0 1 1 .014.005l-.014-.005Zm6.452.394a1.952 1.952 0 1 1 3.671 1.333 1.952 1.952 0 0 1-2.502 1.169c-.017-.005-.031-.011-.046-.017a1.952 1.952 0 0 1-1.123-2.485Zm-13.975-3.61a1.953 1.953 0 1 1 1.618-3.556 1.953 1.953 0 0 1-1.618 3.556Zm21.599 6.311a1.954 1.954 0 0 1 2.465-1.248l.001-.001a1.953 1.953 0 0 1-1.216 3.713c-.036-.011-.071-.025-.106-.039a1.953 1.953 0 0 1-1.144-2.425Zm-28.964-9.872a1.953 1.953 0 1 1 1.781-3.476 1.953 1.953 0 0 1-1.781 3.476Zm36.675 12.32a1.952 1.952 0 1 1 1.336 2.417 1.954 1.954 0 0 1-1.336-2.417Zm-43.868-16.217a1.954 1.954 0 1 1 1.942-3.39 1.954 1.954 0 0 1-1.942 3.39Zm51.663 18.379a1.952 1.952 0 0 1 2.362-1.432 1.953 1.953 0 1 1-2.362 1.432Zm7.881 1.828a1.954 1.954 0 1 1 3.837.74 1.954 1.954 0 0 1-3.837-.74Zm-66.55-24.437a1.953 1.953 0 1 1 2.098-3.294 1.953 1.953 0 0 1-2.098 3.294Zm74.515 25.856a1.953 1.953 0 1 1 3.874.496 1.953 1.953 0 0 1-3.874-.496Zm-81.311-30.432a1.952 1.952 0 1 1 2.266-3.18 1.952 1.952 0 0 1-2.266 3.18ZM153.752 400.116a1.964 1.964 0 0 1-.64-.413 1.907 1.907 0 0 1-.438-.625 1.96 1.96 0 0 1 1.007-2.571 1.96 1.96 0 0 1 2.572 1.007 1.723 1.723 0 0 1 .117.364c.028.124.042.253.046.38a2.22 2.22 0 0 1-.03.382 2.008 2.008 0 0 1-.516 1.009 2.084 2.084 0 0 1-.453.351 1.813 1.813 0 0 1-.351.153 1.923 1.923 0 0 1-.565.094 1.935 1.935 0 0 1-.749-.131Z" fill="#FFEBC7"/><path opacity=".4" d="M176.98 373.723a57.475 57.475 0 0 1-1.116 2.655 58.307 58.307 0 0 1-6.179 10.627 58.677 58.677 0 0 1-7.491 8.406 60.876 60.876 0 0 1-14.584 9.988 62.604 62.604 0 0 1-6.694 2.816s-.001-.001-.002.001c-13.112 4.644-27.986 5.048-42.331.268 18.939 5.629 54.492-11.256 64.984-40.757 8.335-23.438.63-46.465-3.401-55.896-23.369-9.746-50.595-25.005-58.502-29.517.336-.846.619-1.616.847-2.271 7.02 4.058 20.471 10.202 36.2 16.36 15.727 6.157 29.776 10.779 37.685 12.566-.154.354-.321.748-.495 1.173l-.059.146a54.535 54.535 0 0 0-1.869 5.366l-.022.075c-.069.24-.137.484-.202.729-.042.151-.082.304-.121.456-.404 1.568-.73 3.21-.903 4.834a62.595 62.595 0 0 1 5.3 11.876 60.28 60.28 0 0 1 1.142 3.941 60.617 60.617 0 0 1 1.291 6.593c.617 4.444.737 8.967.325 13.493a58.249 58.249 0 0 1-1.279 7.939 58.498 58.498 0 0 1-2.524 8.133Z" fill="#7F1708"/><path opacity=".4" d="M120.749 353.662s-1.114 6.075-9.883 6.818c-8.767.743-14.829-1.411-20.495-1.259-5.512.15-25.286 4.836-35.443-.602a59.094 59.094 0 0 1-.839-8.729 59.146 59.146 0 0 1 .356-7.903l66.304 11.675Z" fill="#7F1708"/><path d="M187.13 223.977s-12.365-18.096-18.005-21.731c-5.639-3.635-1.324 12.3 8.13 24.876 0 0-10.048 3.98-10.648 6.123-.6 2.143.57 4.928.57 4.928s-4.414 3.74-1.998 6.909c0 0-3.619 5.71-2.507 8.568 1.112 2.858 4.287 8.416 7.94 9.21 3.652.794 4.183-3.017 4.183-3.017s.698 6.669 9.77 9.528c9.072 2.858 23.978-14.578 23.978-14.578s-5.954-8.082-11.428-17.368c-5.254-8.913-1.724-8.027-9.985-13.448Z" fill="#5D8DFC"/><path opacity=".5" d="M197.483 297.726a71.209 71.209 0 0 1-2.257-5.084c-1.164.591-2.074 1.549-2.654 2.739-.358.734-1.452.091-1.096-.641a7.112 7.112 0 0 1 3.296-3.279 70.115 70.115 0 0 1-4.413-21.14c-3.169 1.029-6.644.383-9.489-1.361-2.769-1.7-4.839-4.261-6.566-6.981-.851 1.689-3.055 2.519-4.86 1.482-1.302-.749-2.328-2.087-3.315-3.188-1.185-1.325-2.32-2.743-3.103-4.35-1.49-3.057-1.446-6.183.354-9.068.626-1.005 1.039-1.943 1.168-3.133.087-.792.108-1.59.252-2.375.246-1.333.876-2.58 2.089-3.262a.71.71 0 0 1 .214-.074c.021-.027.04-.055.068-.083a14.929 14.929 0 0 1 10.759-4.538c.819.002.817 1.272 0 1.27a13.63 13.63 0 0 0-9.862 4.166.599.599 0 0 1-.334.184.661.661 0 0 1-.203.174c-1.772.991-1.626 3.332-1.89 5.326a18.079 18.079 0 0 1 11.341-4.564c.819-.032.815 1.238 0 1.27a16.736 16.736 0 0 0-11.011 4.718.588.588 0 0 1-.692.118c-.023.061-.051.123-.078.184-.563 1.211-1.471 2.199-1.816 3.516-.345 1.321-.229 2.724.155 4.022.796 2.693 2.743 4.835 4.629 6.833.781.828 1.744 2.083 2.997 2.093 1.279.011 2.28-1.171 2.225-2.396-.017-.406.339-.637.679-.618a13.786 13.786 0 0 0-2.504-8.461.704.704 0 0 1-.091-.182 6.811 6.811 0 0 0-2.576 2.481c-.425.698-1.522.059-1.096-.641 1.95-3.211 5.715-4.661 9.316-3.558.781.239.445 1.465-.339 1.225-1.412-.434-2.845-.417-4.145-.002.008.011.019.023.027.036a14.917 14.917 0 0 1 2.665 9.428.614.614 0 0 1-.402.561c1.592 2.623 3.461 5.165 6.014 6.917 2.798 1.918 6.509 2.79 9.712 1.378.571-.254 1.088.341.948.777a68.798 68.798 0 0 0 4.432 21.571.687.687 0 0 1 .231.597 67.191 67.191 0 0 0 2.32 5.271c.357.733-.739 1.376-1.099.642Z" fill="#5D8DFC"/><path d="M213.748 261.295c-3.672 20.428-21.847 20.49-21.847 20.49-3.516-5.07-1.609-11.255-1.545-11.46l.002-.004c17.812-9.354 13.958-21.563 13.958-21.563 1.626.254 2.974.718 4.094 1.323 6.282 3.392 5.338 11.214 5.338 11.214Z" fill="#FFB000"/><path opacity=".5" d="M213.748 261.295c-3.672 20.428-21.847 20.49-21.847 20.49-3.516-5.07-1.609-11.255-1.545-11.46-.044.227-1.469 7.701 8.662 4.919 9.028-2.479 12.601-16.714 9.392-25.164 6.282 3.393 5.338 11.215 5.338 11.215Z" fill="#F38601"/><path d="M165.521 201.44s-1.245 4.657 1.225 9.419c1.431 2.759 3.585 2.991 3.999 5.647.414 2.656 2.745 4.133 3.06 2.651.314-1.482-1.908-4.445-.532-5.398 1.376-.952 3.069-1.264 1.905-3.49-1.164-2.225 3.111-1.273 1.449-3.495-1.661-2.222-6.314-7.197-8.803-7.408-2.489-.211-2.303 2.074-2.303 2.074Z" fill="#FFEBC7"/><path d="M100.71 339.236c0 8.157-3.206 14.94-21.213 13.593-3.728-.276-8.089-.903-13.192-1.939a121.694 121.694 0 0 1-4.003-.88c-27.409-6.515-44.525-21.013-43.311-47.271.369-8.005 2.707-16.332 5.837-24.115a121.391 121.391 0 0 1 1.998-4.676c7.602-16.805 17.958-30.019 17.958-30.019 15.237-8.81 23.314 11.394 23.148 27.483-.072 7.078-2.287 15.071-4.603 21.961-.917 2.731-1.851 5.291-2.672 7.551-1.816 4.992-3.085 8.523-2.43 9.23 2.682 2.897 10.104 6.566 18.013 10.567 1.566.792 3.151 1.597 4.721 2.412 10.174 5.272 19.749 10.95 19.749 16.103Z" fill="#5D8DFC"/><path d="M63.4 293.515c-.268.749-.532 1.501-.796 2.252-.614 1.751-1.255 3.503-1.861 5.266l-.084-.111a27.688 27.688 0 0 0-.825-1.009c-3.614-4.211-13.14-12.925-35.005-21.289a121.391 121.391 0 0 1 1.998-4.676c5.46 1.826 30.025 10.317 34.999 16.981.28.377.532.743.76 1.102a13.434 13.434 0 0 1 .814 1.484ZM80.964 323.13l-1.467 29.7c-3.727-.277-8.09-.904-13.191-1.939a121.684 121.684 0 0 1-4.003-.881c-3.046-16.694 9.311-26.326 13.939-29.291a514.54 514.54 0 0 1 4.722 2.411Z" fill="#5D8DFC" opacity=".5"/><path d="M80.371 340.741c-.292 3.416.135 7.485 1.829 12.235 0 0-4.712 3.023-13.153-1.554 0 0-7.476-17.876 9.081-29.748 0 0 2.432-.011 4.921.984 1.786.713 3.601 1.945 4.566 4.07 0 0-6.431 4.454-7.244 14.013Z" fill="#FFB000"/><path opacity=".5" d="M82.2 352.976s-4.712 3.023-13.153-1.554c0 0-7.476-17.876 9.081-29.748 0 0 2.432-.011 4.921.984-.715.631-11.25 10.046-9.832 16.578 1.467 6.761 7.154 1.505 7.154 1.505-.292 3.417.136 7.485 1.829 12.235Z" fill="#F38601"/><path d="M59.281 305.642c-.524 1.871-.479 3.667.964 5.104 1.188 1.177 2.807 1.765 4.345 2.33.762.281.432 1.507-.338 1.224-2.135-.786-4.59-1.818-5.811-3.775a.66.66 0 0 1-.686-.088c-5.684-4.461-13.304-6.103-20.329-4.439-.794.188-1.132-1.038-.336-1.226 5.338-1.265 10.927-.723 15.89 1.409-1.294-3.043-3.796-5.477-6.924-6.642-.76-.283-.428-1.509.34-1.224a13.521 13.521 0 0 1 8.214 8.632c1.1.565 2.16 1.212 3.174 1.939a3.433 3.433 0 0 1-.055-.303c-.266-1.785.389-3.53.94-5.198.383-1.159.772-2.316 1.165-3.47a431.225 431.225 0 0 1 2.752-7.883 475.594 475.594 0 0 1 6.216-16.363c.301-.749 1.527-.422 1.226.338a477.018 477.018 0 0 0-6.628 17.51c-.268.749-.532 1.501-.796 2.252-.614 1.751-1.255 3.503-1.861 5.266a80.13 80.13 0 0 0-1.462 4.607Z" fill="#5D8DFC" opacity=".5"/><path d="M127.568 337.936c1.261-1.704 1.457-3.176-.328-3.51-4.524-.847-9.728 2.681-11.625 2.75-1.897.069-6.947-4.297-6.947-4.297 4.139.428 8.137-1.063 6.302-3.616-1.835-2.553-12.347-7.396-15.207-7.584-2.861-.188-12.811 5.948-12.811 5.948s-10.647 23.734-1.029 25.327 17.617 5.745 22.744 5.181c5.127-.564 10.677-2.117 12.079-4.472.706-1.185.561-2.248.244-3.012.99-.709 1.855-1.406 2.34-1.971 1.057-1.231.814-2.714.47-3.674a19.217 19.217 0 0 0 2.2-2.001c2.908-3.127 2.12-4.559 1.568-5.069Z" fill="#5D8DFC"/><path d="M127.445 337.415c-3.582.845-6.18 3.75-9.702 4.7-3.693.996-6.187-1.924-9.451-2.974-.78-.251-1.114.975-.338 1.225 1.704.548 3.119 1.654 4.72 2.418 1.505.718 3.055 1.016 4.711.714 3.866-.704 6.606-3.963 10.397-4.858.796-.188.459-1.412-.337-1.225ZM123.07 344.613c-2.473 1.56-5.186 3.287-8.237 3.077-2.651-.182-4.833-2.061-7.387-2.65-.795-.183-1.135 1.041-.338 1.225 2.811.648 5.134 2.673 8.11 2.711 3.149.04 5.923-1.643 8.493-3.266.689-.436.053-1.535-.641-1.097ZM120.374 350.297c-2.132 1.307-4.156 2.331-6.711 1.753-1.983-.449-3.882-1.295-5.956-1.027-.799.103-.81 1.374 0 1.27 2.353-.303 4.491.914 6.786 1.184 2.426.286 4.52-.857 6.522-2.084.696-.426.059-1.524-.641-1.096Z" fill="#5D8DFC" opacity=".5"/><path d="M62.712 295.456c-3.346-6.689-20.398-14.492-36.962-19.055.854-8.374 5.065-14.031 7.655-16.779 1.208-1.28 2.062-1.929 2.062-1.929 13.138 1.435 22.12 5.931 27.818 10.069 2.512 1.822 4.384 3.577 5.694 4.967 1.663 1.765 2.416 2.946 2.416 2.946 2.901 10.181-8.683 19.781-8.683 19.781Z" fill="#FFB000"/><path d="M62.712 295.456c-3.346-6.689-20.398-14.492-36.962-19.055.854-8.374 5.065-14.031 7.655-16.779 0 0-3.583 5.647 0 8.513 3.585 2.866 14.711 6.142 26.416 12.42 11.703 6.28 10.219-4.723 9.158-7.825 1.663 1.765 2.416 2.946 2.416 2.946 2.901 10.18-8.683 19.78-8.683 19.78Z" fill="#F38601"/></g><defs><linearGradient id="b" x1="27.48" y1="305.083" x2="84.107" y2="340.617" gradientUnits="userSpaceOnUse"><stop stop-color="#fff"/><stop offset="1" stop-color="#fff" stop-opacity="0"/></linearGradient><clipPath id="a"><path fill="#fff" d="M0 0h244v465H0z"/></clipPath></defs></svg>