<svg width="415" height="308" fill="none" xmlns="http://www.w3.org/2000/svg"><g clip-path="url(#a)"><path d="M363.221 261.223a39.834 39.834 0 0 0-.271-3.2v.005c-.416-3.527-1.237-7.007-2.929-10.348a26.59 26.59 0 0 0-3.473-5.222 26.235 26.235 0 0 0 5.833 2.206 29.02 29.02 0 0 0 6.963.831c1.296 0 2.577-.083 3.83-.239h-.006a46.048 46.048 0 0 0 3.137-.476c.253 1.946.412 3.892.533 5.791.125 2.977.143 5.824.371 8.381a70.06 70.06 0 0 0-3.6.633l-4.683.83c-1.873.308-3.774.61-5.705.808Z" fill="#FEF1E5"/><path d="M363.261 262.558c-.007-.444-.02-.889-.04-1.335 1.931-.198 3.832-.5 5.705-.808l4.683-.83a70.06 70.06 0 0 1 3.6-.633c-.228-2.557-.246-5.404-.371-8.381-.121-1.899-.28-3.845-.533-5.791.438-.08.876-.166 1.31-.257.267 2.02.43 4.026.555 5.972v.014c.136 3.263.148 6.327.427 8.947l.069.651-.648.081c-1.297.164-2.689.416-4.152.705l-.005.002-.008.001-4.699.832-.004.001h-.002c-1.91.315-3.872.628-5.887.829Z" fill="#FAC08E"/><path d="m343.516 292.67-9.726-12.173-6.777-8.481a26.64 26.64 0 0 0 5.224 3.469c3.334 1.682 6.821 2.508 10.347 2.922 1.067.123 2.134.204 3.196.256-.196 1.936-.5 3.84-.808 5.72l-.824 4.685a70.47 70.47 0 0 0-.632 3.602Z" fill="#FEF1E5"/><path d="M348.259 277.395h-.004l-.38-.002h-.014.015a51.122 51.122 0 0 1-5.137-.311c-3.425-.401-6.745-1.196-9.902-2.788-3.02-1.528-5.83-3.701-8.363-6.744.012-.009.025-.018.037-.029l.006-.004.005-.005c.428-.351 1.164-.874 2.027-1.623l.002-.003.003-.002c1.643-1.462 4.103-3.488 6.925-6.067 5.505-5.038 12.362-12.162 18.598-19.899 3.047 2.533 5.224 5.342 6.755 8.365 1.6 3.161 2.389 6.474 2.794 9.902v.002l.002.004c.224 1.761.308 3.514.308 5.242.001 4.752-.638 9.296-.684 13.266-2.577.044-5.439.31-8.424.504h.004c-1.516.091-3.021.192-4.573.192Zm-18.949-15.661 16.871-16.882c-4.742 5.407-9.55 10.273-13.602 13.981a166.292 166.292 0 0 1-3.269 2.901Z" fill="#FEF1E5"/><path d="m348.255 278.729-.395-.003h-.003a46.018 46.018 0 0 1-.741-.015c-.444-.01-.889-.026-1.336-.048a48.705 48.705 0 0 1-3.196-.256c-3.526-.414-7.013-1.24-10.347-2.922a26.64 26.64 0 0 1-5.224-3.469l-.031-.027a29.234 29.234 0 0 0-2.733-4.263l.225-.176c2.533 3.043 5.343 5.216 8.363 6.744 3.157 1.592 6.477 2.387 9.902 2.788 1.707.197 3.428.287 5.137.311h-.015.014l.38.002h.004c1.552 0 3.057-.101 4.573-.192h-.004c2.985-.194 5.847-.46 8.424-.504.046-3.97.685-8.514.684-13.266 0-1.728-.084-3.481-.308-5.242l-.002-.004v-.002c-.405-3.428-1.194-6.741-2.794-9.902-1.531-3.023-3.708-5.832-6.755-8.365.158-.195.315-.391.471-.588l.004-.004v.001l.355-.453a29.312 29.312 0 0 1 3.641 3.584 26.59 26.59 0 0 1 3.473 5.222c1.692 3.341 2.513 6.821 2.929 10.348v-.005c.136 1.074.223 2.142.271 3.199a51.33 51.33 0 0 1 .048 2.211c-.003 5.043-.689 9.773-.687 13.697v.225l.006.671-.671.001c-2.652.002-5.734.292-9.001.507h-.004c-1.509.089-3.047.195-4.657.195Z" fill="#FAC08E"/><path d="M343.408 292.746c-2.554-.227-5.397-.246-8.369-.37-1.877-.121-3.8-.276-5.721-.525.197-1.059.364-2.131.489-3.211l-.001.007c.158-1.261.237-2.531.237-3.802a29.19 29.19 0 0 0-.836-6.992 26.133 26.133 0 0 0-1.981-5.387l6.469 8.107 9.713 12.173ZM58.202 261.306c-1.936-.196-3.84-.5-5.72-.807l-4.686-.826a70.037 70.037 0 0 0-3.595-.63c.225-2.556.247-5.407.364-8.38.121-1.9.279-3.847.532-5.793a47.28 47.28 0 0 0 3.137.476l-.006-.002c1.26.158 2.53.238 3.8.238 2.317 0 4.68-.264 6.994-.836a26.342 26.342 0 0 0 5.83-2.208 26.603 26.603 0 0 0-3.471 5.223v.002c-1.683 3.336-2.508 6.821-2.923 10.348v.001a47.925 47.925 0 0 0-.256 3.194Z" fill="#FEF1E5"/><path d="M58.153 262.641c-2.016-.2-3.977-.515-5.888-.828h-.002l-.006-.001-4.7-.827-.007-.001-.006-.002c-1.464-.289-2.856-.539-4.152-.703l-.648-.082.07-.649c.275-2.621.292-5.691.42-8.945v-.018c.124-1.945.286-3.953.552-5.973.435.091.872.176 1.311.258-.253 1.946-.41 3.893-.532 5.793-.117 2.973-.139 5.824-.364 8.38 1.152.165 2.353.385 3.595.63l4.686.825c1.88.308 3.784.612 5.72.808-.021.446-.037.891-.05 1.335Z" fill="#FAC08E"/><path d="M77.822 292.668a70.626 70.626 0 0 0-.632-3.601l-.824-4.684c-.304-1.852-.604-3.726-.8-5.632a39.93 39.93 0 0 0 3.275-.274l-.005.001c3.527-.417 7.008-1.239 10.348-2.929a26.574 26.574 0 0 0 4.83-3.147l-6.467 8.093-9.725 12.173Z" fill="#FEF1E5"/><path d="M77.244 294.055a.66.66 0 0 1-.562-.309.666.666 0 0 1-.098-.274c-.164-1.296-.414-2.688-.704-4.15l-.001-.008-.001-.007-.827-4.7-.001-.004v-.004c-.31-1.886-.619-3.821-.82-5.81.442-.007.888-.019 1.336-.038.196 1.906.496 3.78.8 5.632l.823 4.684a70.52 70.52 0 0 1 .633 3.601l.011.086c.026.185.051.369.074.552a.665.665 0 0 1-.663.749Zm20.933-25.847.023-.028c.012-.004.022-.01.034-.015-.018.016-.037.029-.057.043Z" fill="#FAC08E"/><path d="M73.414 277.462c-4.746 0-9.284-.637-13.25-.684-.042-2.578-.309-5.438-.503-8.424l.001.004c-.09-1.514-.192-3.018-.192-4.569l.001-.388v.001c.024-1.709.115-3.43.311-5.137v.002c.403-3.427 1.197-6.747 2.79-9.904v.001c1.529-3.024 3.704-5.836 6.751-8.37 6.22 7.709 13.05 14.801 18.537 19.822 2.823 2.58 5.282 4.606 6.925 6.068l.005.005c.862.749 1.598 1.272 2.026 1.623l.005.005.005.004.115.089c-2.532 3.044-5.34 5.219-8.36 6.75-3.161 1.599-6.474 2.389-9.902 2.794h-.005c-1.76.224-3.514.308-5.242.308h-.018ZM92.103 261.8c-1.03-.892-2.154-1.88-3.344-2.968-4.032-3.688-8.814-8.527-13.533-13.901L92.103 261.8Z" fill="#FEF1E5"/><path d="M73.432 278.795c-5.033-.001-9.757-.686-13.677-.686h-.246l-.672.005v-.672c0-2.652-.292-5.733-.506-9.001v-.001l-.001-.003c-.09-1.507-.193-3.039-.193-4.648l.001-.404v-.001l.015-.743c.012-.444.028-.889.049-1.335.05-1.062.133-2.129.256-3.194v-.001c.415-3.527 1.24-7.012 2.923-10.348v-.002a26.603 26.603 0 0 1 3.472-5.223 29.2 29.2 0 0 0 4.3-2.755c.055.071.113.141.17.211-3.046 2.534-5.222 5.346-6.752 8.37v-.001c-1.592 3.157-2.386 6.477-2.789 9.904v-.002a51.418 51.418 0 0 0-.31 5.137v-.001c-.002.129-.002.259-.002.388 0 1.551.101 3.055.192 4.569l-.001-.004c.194 2.986.461 5.845.504 8.424 3.965.047 8.503.684 13.249.684h.018c1.728 0 3.482-.084 5.242-.308h.005c3.428-.405 6.741-1.195 9.902-2.795 3.02-1.53 5.828-3.705 8.36-6.749l.603.474a.668.668 0 0 0 .656.096l-.023.028c-.063.076-.124.152-.187.226a29.304 29.304 0 0 1-3.555 3.618c-.14.118-.28.236-.422.35a26.574 26.574 0 0 1-4.83 3.147c-3.339 1.69-6.82 2.512-10.347 2.929l.005-.001c-1.1.14-2.193.226-3.275.274a50.274 50.274 0 0 1-2.134.044Z" fill="#FAC08E"/><path d="M344.21 234.243h-.004c-1.331 0-2.739-.185-4.091-.486l-.004-.002c-1.911-.41-3.683-1.002-4.972-1.489a37.649 37.649 0 0 1-1.532-.617c-.164-.071-.295-.13-.387-.171l13.45-15.664a4.85 4.85 0 0 0-.049.712c0 .699.131 1.403.338 2.111.434 1.559 1.242 3.156 2.005 4.768l-.001-.002c.976 2.054 1.882 4.167 1.874 5.966-.004 1-.253 1.892-.908 2.744-.602.757-1.412 1.284-2.392 1.63-.977.346-2.118.5-3.327.5ZM331.774 250.323c-1.589 0-3.421-.511-5.224-1.07h.001c-1.708-.53-3.394-1.092-5.005-1.314l.004.001a8.825 8.825 0 0 0-1.255-.096h-.025c-.528 0-1.053.063-1.554.209l13.595-15.527c.417.655 2.061 3.334 3.232 6.501l.001.003c.704 1.87 1.188 3.901 1.187 5.705-.001 1.715-.425 3.188-1.424 4.244-.979.99-2.133 1.337-3.518 1.344h-.015Z" fill="#FEF1E5"/><path d="M331.825 251.656h-.036c-1.868-.004-3.802-.567-5.632-1.129h-.002c-1.72-.538-3.358-1.074-4.79-1.267h-.004a7.346 7.346 0 0 0-1.065-.083c-.96.004-1.719.223-2.379.79l-.007.006.01-.008a.667.667 0 0 0-.878-1.005c-.001.003-.003.004-.005.005l.007-.006a4.384 4.384 0 0 1 1.672-.906 5.554 5.554 0 0 1 1.554-.209h.026c.411 0 .83.035 1.254.096l-.004-.001c1.611.222 3.297.784 5.005 1.314h-.001c1.803.559 3.635 1.07 5.224 1.07h.015c1.385-.007 2.539-.354 3.518-1.344.999-1.056 1.423-2.529 1.424-4.244.001-1.804-.483-3.835-1.187-5.705l-.001-.003c-1.171-3.167-2.814-5.846-3.232-6.501a.213.213 0 0 0-.016-.025l-.081-.127-.001-.003-.019-.028a.673.673 0 0 1-.089-.27v-.004a.67.67 0 0 1 .133-.47l.001-.001.003-.004a.631.631 0 0 1 .159-.145.489.489 0 0 1 .069-.042h.001l.002-.001a.641.641 0 0 1 .294-.069.642.642 0 0 1 .273.058c.002 0 .002.002.003.002l.004.002.007.002c.105.05.2.13.271.236.006.01.446.676 1.058 1.768.709 1.265 1.648 3.101 2.411 5.159l-.002-.002c.742 1.977 1.271 4.134 1.272 6.173.002 1.923-.482 3.778-1.79 5.162l-.004.003-.004.004c-1.248 1.288-2.841 1.752-4.441 1.752Z" fill="#FAC08E"/><path d="M293.532 279.699c-1.954 0-4.188-1.338-6.325-2.762h.001c-1.488-.984-2.957-2.018-4.44-2.665l.004.002c-.894-.397-1.812-.677-2.757-.681l17.429-11.095c.217.746 1.043 3.776 1.275 7.143l.001.004v.001c.044.566.068 1.136.068 1.703.001 1.677-.213 3.324-.715 4.69-.504 1.371-1.272 2.442-2.381 3.09a4.157 4.157 0 0 1-2.121.57h-.039ZM311.318 267.945c-2.098 0-4.561-.888-6.725-2.072l-.001-.001c-1.72-.932-3.257-1.998-4.359-2.828a33.709 33.709 0 0 1-1.622-1.296l17.303-11.265c-.069.152-.13.308-.184.465-.25.745-.338 1.544-.34 2.372.003 1.619.336 3.364.6 5.089v.004c.215 1.351.406 2.712.406 3.957 0 .988-.12 1.899-.418 2.682a4.294 4.294 0 0 1-1.505 1.997c-.885.623-1.944.895-3.136.896h-.019Z" fill="#FEF1E5"/><path d="M154.089 263.148c-2.015 0-3.867-.35-5.456-1.094a.641.641 0 0 0 .231.059h.009l.035.001a.662.662 0 0 0 .606-.39l.006-.012.28-.611c1.245.475 2.692.713 4.289.713h.005c1.616 0 3.382-.246 5.231-.729a29.885 29.885 0 0 0 3.918-1.333l.002-.001c5.508-2.271 11.339-6.51 16.389-12.008l-.003.003a69.452 69.452 0 0 0 7.003-9.14l-.003.004a76.852 76.852 0 0 0 5.556-10.501c3.072-7.015 5.07-14.507 6.128-21.594l.086-.595a.673.673 0 0 1 .26-.44.666.666 0 0 1 1.06.627c-.007.05-.013.1-.021.149a90.52 90.52 0 0 1-2.095 10.284c-1.08 4.077-2.47 8.161-4.196 12.102a78.134 78.134 0 0 1-5.653 10.682l.003-.004-.004.007a70.858 70.858 0 0 1-7.137 9.316l.004-.004-.006.006c-5.166 5.622-11.126 9.97-16.862 12.338h.001c-.786.327-1.569.619-2.344.874-2.433.803-4.786 1.241-6.957 1.287-.122.002-.244.004-.365.004Z" fill="#FAC08E"/><path d="M110.021 267.945h-.019c-1.193-.001-2.251-.273-3.137-.896a4.314 4.314 0 0 1-1.505-1.997c-.298-.783-.418-1.694-.418-2.68 0-1.247.191-2.607.406-3.959l.001-.004c.263-1.725.597-3.47.599-5.089 0-.828-.088-1.627-.34-2.372a5.136 5.136 0 0 0-.183-.464l17.302 11.264c-.589.505-3.009 2.514-5.981 4.124l-.001.001c-2.163 1.184-4.627 2.072-6.724 2.072Z" fill="#FEF1E5"/><path d="M109.993 269.278c-1.394 0-2.752-.329-3.905-1.146l-.006-.004-.005-.004a5.648 5.648 0 0 1-1.964-2.599c-.375-.992-.503-2.063-.504-3.153.001-1.379.205-2.799.421-4.165.271-1.751.586-3.455.584-4.887 0-.732-.081-1.388-.269-1.945-.191-.556-.476-1.015-.923-1.407a.67.67 0 0 0 .939-.068.668.668 0 0 0-.06-.935c.5.436.868.955 1.124 1.519.069.151.129.307.183.464.252.745.34 1.544.34 2.372-.002 1.619-.336 3.364-.599 5.089l-.001.004c-.215 1.352-.406 2.712-.406 3.959 0 .986.12 1.897.418 2.68.3.784.762 1.445 1.505 1.997.886.623 1.944.895 3.137.896h.019c2.097 0 4.561-.888 6.724-2.072l.001-.001c2.972-1.61 5.392-3.619 5.981-4.124l.023-.02.109-.095a.663.663 0 0 0-.188.296c-.003.013-.24.775-.52 1.995-1.152.881-2.838 2.072-4.769 3.12h.001c-2.294 1.248-4.916 2.229-7.381 2.234h-.009Zm13.951-6.954.002-.002c.001-.005.002-.012.005-.018l-.007.02Zm-1.017-.746Z" fill="#FAC08E"/><path d="M89.565 250.323h-.014c-1.387-.007-2.544-.355-3.523-1.348-.997-1.055-1.42-2.527-1.421-4.24-.002-1.804.482-3.835 1.186-5.704l.002-.004c.678-1.833 1.514-3.504 2.18-4.713a37.635 37.635 0 0 1 1.052-1.788l13.597 15.527a5.573 5.573 0 0 0-1.556-.209h-.026c-.412 0-.83.035-1.254.096l.005-.001c-1.612.221-3.299.784-5.007 1.314h.002c-1.801.558-3.633 1.07-5.223 1.07Z" fill="#FEF1E5"/><path d="M89.515 251.656c-1.602 0-3.195-.465-4.443-1.752l-.004-.004-.003-.003c-1.309-1.384-1.793-3.239-1.792-5.162.002-2.039.531-4.196 1.272-6.173l-.001.002c.763-2.058 1.701-3.894 2.41-5.159 1.169-.451 1.889-.794 1.902-.799a.65.65 0 0 0 .267-.229l-.08.124-.016.025a37.773 37.773 0 0 0-1.052 1.788c-.666 1.209-1.502 2.88-2.18 4.713l-.002.004c-.704 1.869-1.188 3.9-1.186 5.704.001 1.713.424 3.185 1.421 4.24.979.993 2.136 1.341 3.523 1.348h.014c1.59 0 3.422-.512 5.223-1.07h-.001c1.707-.53 3.394-1.093 5.006-1.314l-.005.001a8.819 8.819 0 0 1 1.254-.096h.026c.529 0 1.053.063 1.556.209a4.384 4.384 0 0 1 1.67.906l.007.006a.666.666 0 0 1-.879 1.003l-.001-.001-.001-.002-.003-.002c-.659-.564-1.417-.782-2.375-.786-.334 0-.692.028-1.065.083h-.004c-1.43.193-3.07.729-4.79 1.267h-.002c-1.83.562-3.764 1.125-5.63 1.129h-.036Zm-.328-19.906-.014-.032a.67.67 0 0 0 .014.032Zm-.904-.347a.344.344 0 0 1 .026-.013l-.024.012-.002.001Z" fill="#FAC08E"/><path d="M77.127 234.243c-1.208 0-2.35-.154-3.327-.5-.978-.346-1.788-.873-2.392-1.63-.654-.852-.904-1.746-.906-2.744-.01-1.799.897-3.912 1.873-5.966l-.001.002c.762-1.61 1.569-3.204 2.002-4.761.208-.711.34-1.416.342-2.119 0-.237-.016-.475-.05-.711l13.45 15.664c-.707.32-3.591 1.568-6.891 2.277l-.005.002c-1.35.301-2.756.486-4.086.486h-.01Z" fill="#FEF1E5"/><path fill-rule="evenodd" clip-rule="evenodd" d="M198.217 42.01s-40.185 95.34-39.355 98.11c.832 2.772 48.604 70.53 48.604 70.53l40.362-67.618-30.231-101.653-19.38.632Z" fill="#C0976C"/><path fill-rule="evenodd" clip-rule="evenodd" d="M381.667 240.928c-2.494.554-85.916-19.401-101.436-25.22-15.521-5.822-15.522-15.521-13.582-31.596 1.941-16.075 2.772-46.561-.276-52.658-3.049-6.097-23.006-60.976-27.994-75.942-4.989-14.965-9.892-28.209-11-30.842-1.109-2.634-5.934-20.426-10.618-22.232-5.648-2.177-12.699 18.176-7.885 25.085 0 0-.154.55-1.4 8.865-1.248 8.315 1.041 22.129.813 22.618-.227.49-1.368 3.71-2.06 12.717-.693 9.008 2.771 18.432 2.771 19.678 0 1.247.969 8.176 2.77 14.412 1.801 6.236 7.345 24.111 7.345 24.111s-4.989 9.702-8.315 37.416c-3.326 27.715-4.158 59.587 3.879 72.336 8.038 12.748 54.322 28.824 55.984 29.101 1.663.277 133.032 39.632 133.032 39.632l11.639-60.418-33.667-7.063Z" fill="#FCD78C"/><path fill-rule="evenodd" clip-rule="evenodd" d="M381.667 240.928c-2.494.554-85.916-19.401-101.436-25.22-15.521-5.822-15.522-15.521-13.582-31.596 1.941-16.075 2.772-46.561-.276-52.658-3.049-6.097-22.868-59.867-27.857-74.833-4.988-14.966-11.312-29.4-12.419-32.034-.526-1.247-3.996-7.025-5.875-11.816-1.019-2.597-1.677-4.954-2.323-6.687-2.57 9.073-4.277 18.478-4.046 19.531.485 2.21 3.418 29.774 3.418 29.774s-1.296 12.35 3.166 28.99c4.461 16.64 17.462 37.415 20.094 46.284 2.633 8.869 3.465 35.337 1.525 51.688-1.94 16.352-7.76 48.224 28.823 62.081 28.49 10.792 105.543 28.473 138.25 35.769l6.205-32.21-33.667-7.063Z" fill="#FDE8A5"/><path fill-rule="evenodd" clip-rule="evenodd" d="M208.249 59.1c.195-.872 1.935-1.796 3.503-2.516a10.449 10.449 0 0 1 2.313-.763c.744-.145 1.444-.177 2.01-.05.526.117.934.374 1.135.814 2.389 5.198 5.407 15.478 7.225 21.671.43 1.464.794 2.7 1.071 3.606 1.597 5.21 3.428 10.834 6.696 18.065 3.266 7.226 6.412 12.701 13.754 24.335l2.267 2.916c-7.319-11.596-12.005-20.397-15.259-27.594-3.25-7.193-5.072-12.788-6.661-17.968-.266-.872-.633-2.118-1.066-3.594-1.823-6.213-4.851-16.525-7.267-21.785-.323-.703-.936-1.108-1.715-1.283-.685-.153-1.502-.12-2.35.046-.826.162-1.692.454-2.5.825-2.451 1.125-3.179 1.963-3.156 3.274Zm48.5 57.841c-.045-.08-15.913-27.677-21.446-43.169-2.764-7.74-4.551-12.578-5.852-15.854-1.301-3.273-2.104-4.95-2.907-6.38-1.55-2.765-3.425-7.737-3.501-7.94-.082-.257-4.697-14.74-6.053-16.544-2.043-2.719-5.281-1.127-6.465.605 1.623-.765 4.17-2.308 5.622-.376 1.283 1.708 6.09 16.534 6.103 16.576l.005.013c.006.015 1.954 5.21 3.559 8.073.79 1.41 1.581 3.06 2.861 6.281 1.279 3.219 3.061 8.048 5.84 15.828 5.552 15.546 18.521 37.472 18.567 37.551l3.667 5.336Z" fill="#F5B675"/><path fill-rule="evenodd" clip-rule="evenodd" d="M222.302 41.513s-5.128-15.937-6.167-16.698c-5.566-4.081-4.975 20.677 6.167 16.698Zm5.077-16.843s-7.134-22.173-8.58-23.233c-7.745-5.679-6.922 28.769 8.58 23.233Zm-4.786 44.808s-4.12-14.921-5.159-15.682c-5.565-4.08-5.984 19.66 5.159 15.682Z" fill="#F14F1B"/><path fill-rule="evenodd" clip-rule="evenodd" d="M216.515 229.838c3.603 10.532 13.027 15.798 34.366 26.329 21.341 10.531 154.336 44.337 154.336 44.337l-1.522 7.905s-131.369-39.355-133.032-39.632c-1.662-.277-46.205-14.032-55.984-29.101-9.778-15.07-7.205-44.621-3.879-72.336 3.326-27.714 8.315-37.416 8.315-37.416s-5.544-17.875-7.345-24.111c-1.801-6.236-2.77-13.165-2.77-14.412 0-1.246-3.464-10.67-2.771-19.678.657-8.56 1.721-11.893 2.02-12.623l.04-.094.013-.068c.198-.457.786-.924 1.52-1.364-.548 3.578-2.321 15.656-1.969 20.177.416 5.336 4.575 10.878 4.575 10.878s-1.664 1.871-1.94 5.404c-.278 3.534 7.551 25.914 9.63 31.318 2.079 5.404 7.344 4.297 7.344 4.297l-6.513 1.663s-3.187 14.689-6.236 31.041c-3.048 16.353-1.8 56.954 1.802 67.486ZM209.98 56.562c-1.064.642-1.548 1.242-1.687 1.979-.171-2.541-1.949-14.61-.817-22.153 1.246-8.314 3.049-8.729 3.049-8.729.34-.161.723-.356 1.125-.547-.309.338-.665.8-.904 1.342-.508 1.15-2.548 9.597-2.269 16.04.277 6.444 1.503 12.068 1.503 12.068Z" fill="#F5B675"/><path fill-rule="evenodd" clip-rule="evenodd" d="M33.25 239.718c2.494.554 85.917-19.4 101.437-25.221 15.521-5.82 15.522-15.52 13.581-31.595-1.94-16.074-2.771-46.56.277-52.658 3.049-6.098 22.868-59.867 27.855-74.832 4.99-14.967 11.312-29.401 12.421-32.034.524-1.247 3.996-7.025 5.875-11.816 2.088-5.324 2.665-9.641 4.708-9.641 7.744 0 9.552 18.513 7.414 25.082 0 0-.624-.14.624 8.176 1.248 8.314-1.041 22.129-.813 22.618.227.49 1.368 3.71 2.06 12.717.693 9.008-2.771 18.431-2.771 19.678 0 1.247-.969 8.175-2.77 14.41-1.802 6.236-7.345 24.113-7.345 24.113s4.989 9.7 8.315 37.415c3.326 27.716 4.158 59.588-3.879 72.336-8.039 12.749-54.322 28.824-55.984 29.102-1.663.276-133.032 39.632-133.032 39.632l-11.64-60.42 33.668-7.062Z" fill="#FCD78C"/><path fill-rule="evenodd" clip-rule="evenodd" d="M33.25 239.718c2.494.554 85.917-19.4 101.437-25.221 15.521-5.82 15.522-15.52 13.581-31.595-1.94-16.074-2.771-46.56.277-52.658 3.049-6.098 22.868-59.867 27.855-74.832 4.99-14.967 11.312-29.4 12.421-32.034.524-1.247 3.996-7.025 5.875-11.816 1.019-2.597 1.677-4.954 2.323-6.688 2.569 9.072 4.277 18.479 4.045 19.532-.486 2.21-3.417 29.772-3.417 29.772s1.294 12.352-3.166 28.992c-4.461 16.638-17.462 37.415-20.095 46.284-2.632 8.869-3.464 35.336-1.524 51.688 1.94 16.351 7.76 48.224-28.823 62.081-28.49 10.792-105.544 28.471-138.25 35.768L-.418 246.78l33.668-7.062Z" fill="#FDE8A5"/><path fill-rule="evenodd" clip-rule="evenodd" d="M206.669 57.89c-.195-.872-1.936-1.796-3.503-2.516a10.46 10.46 0 0 0-2.313-.762c-.744-.146-1.445-.179-2.01-.052-.527.117-.935.376-1.135.814-2.389 5.2-5.407 15.48-7.225 21.673-.43 1.464-.794 2.7-1.071 3.605-1.597 5.21-3.429 10.835-6.696 18.065-3.266 7.227-6.412 12.701-13.755 24.336l-2.266 2.916c7.319-11.596 12.005-20.397 15.259-27.596 3.25-7.193 5.071-12.786 6.659-17.967.267-.871.634-2.119 1.067-3.594 1.824-6.213 4.852-16.524 7.268-21.784.323-.704.936-1.11 1.713-1.283.687-.153 1.504-.121 2.352.045.825.162 1.692.454 2.5.824 2.451 1.126 3.179 1.964 3.156 3.276Zm-48.501 57.84c.046-.079 15.914-27.675 21.446-43.168 2.765-7.74 4.552-12.578 5.853-15.853 1.3-3.273 2.104-4.95 2.906-6.383 1.551-2.762 3.424-7.734 3.502-7.938.081-.256 4.697-14.74 6.053-16.545 2.042-2.719 5.28-1.125 6.465.607-1.623-.767-4.171-2.308-5.622-.376-1.283 1.708-6.09 16.534-6.104 16.575l-.004.014c-.006.014-1.954 5.21-3.559 8.073-.791 1.409-1.581 3.06-2.861 6.28-1.279 3.22-3.063 8.049-5.84 15.827-5.552 15.548-18.521 37.473-18.568 37.553l-3.667 5.334Z" fill="#F5B675"/><path fill-rule="evenodd" clip-rule="evenodd" d="M192.616 40.304s5.128-15.937 6.167-16.698c5.566-4.082 4.975 20.677-6.167 16.698Zm-3.795-16.926S197.493 1.76 199.009.804c8.124-5.122 4.888 29.183-10.188 22.574Zm3.504 44.89s4.12-14.92 5.159-15.682c5.565-4.08 5.982 19.661-5.159 15.683Z" fill="#F14F1B"/><path fill-rule="evenodd" clip-rule="evenodd" d="M198.403 228.629c-3.603 10.53-13.027 15.797-34.368 26.328-21.339 10.532-154.334 44.338-154.334 44.338l1.522 7.905s131.369-39.356 133.032-39.632c1.662-.278 45.036-13.304 55.984-29.102 10.947-15.797 7.205-44.62 3.879-72.336-3.326-27.715-8.315-37.415-8.315-37.415s5.543-17.877 7.345-24.113c1.801-6.235 2.77-13.163 2.77-14.41 0-1.246 3.464-10.67 2.771-19.678-.657-8.561-1.721-11.893-2.02-12.624l-.04-.093-.013-.07c-.198-.455-.786-.922-1.52-1.362.548 3.577 2.321 15.654 1.969 20.177-.416 5.336-4.575 10.877-4.575 10.877s1.663 1.872 1.94 5.405c.278 3.533-7.551 25.913-9.63 31.318-2.079 5.404-7.344 4.297-7.344 4.297l6.512 1.663s3.188 14.689 6.237 31.04c3.048 16.353 1.8 56.955-1.802 67.487Zm6.534-173.277c1.065.642 1.549 1.24 1.688 1.98.171-2.542 1.949-14.61.817-22.153-1.248-8.316-3.049-8.73-3.049-8.73-.341-.16-.723-.355-1.127-.546.311.337.667.8.906 1.341.508 1.151 2.546 9.597 2.269 16.041-.277 6.444-1.504 12.067-1.504 12.067Z" fill="#F5B675"/><path fill-rule="evenodd" clip-rule="evenodd" d="M203.077 3.6c.435 2.19.34 5.209-.288 8.26.823 1.927 1.523 3.798 1.765 5.063.624 3.24-.354 7.73-.646 8.941.185.188.349.386.485.586 0 0 1.801.413 3.049 8.729-1.248-8.316-.624-8.176-.624-8.176.296-.908.516-2.043.655-3.327.205-1.89.236-4.1.075-6.374-.375-5.308-1.795-10.964-4.471-13.701Z" fill="#F5B675"/><path fill-rule="evenodd" clip-rule="evenodd" d="M215.125 2.397c-.523 1.016-.87 2.452-1.024 4.116-1.011 1.457-2.023 3.285-2.581 5.353-1.42 5.267.398 14.47.398 14.47a4.952 4.952 0 0 0-1.393 1.323s-1.736.399-2.979 8.273a30.04 30.04 0 0 0-.104-.753c-1.248-8.316-.624-8.176-.624-8.176.296-.908.516-2.043.655-3.327.205-1.89.236-4.1.075-6.374.958-6.743 4.29-13.898 7.577-14.905Z" fill="#F5B675"/><path fill-rule="evenodd" clip-rule="evenodd" d="M98.16 211.217c4.954 0 9.007 4.053 9.007 9.007v60.142c0 4.955-4.053 9.006-9.007 9.006-4.955 0-9.008-4.051-9.008-9.006v-60.142c0-4.954 4.053-9.007 9.008-9.007Z" fill="#BC1491"/><mask id="b" style="mask-type:luminance" maskUnits="userSpaceOnUse" x="89" y="211" width="19" height="79"><path d="M98.16 211.217c4.954 0 9.007 4.053 9.007 9.007v60.142c0 4.955-4.053 9.006-9.007 9.006-4.955 0-9.008-4.051-9.008-9.006v-60.142c0-4.954 4.053-9.007 9.008-9.007Z" fill="#fff"/></mask><g mask="url(#b)" fill-rule="evenodd" clip-rule="evenodd"><path d="M88.456 214.714c3.892 0 7.066-1.182 7.066-2.633 0-1.449-3.174-2.633-7.066-2.633-3.893 0-7.068 1.184-7.068 2.633 0 1.451 3.175 2.633 7.068 2.633Zm0 9.145c3.892 0 7.066-1.182 7.066-2.632 0-1.45-3.174-2.633-7.066-2.633-3.893 0-7.068 1.183-7.068 2.633s3.175 2.632 7.068 2.632Zm0 9.147c3.892 0 7.066-1.183 7.066-2.633s-3.174-2.634-7.066-2.634c-3.893 0-7.068 1.184-7.068 2.634s3.175 2.633 7.068 2.633Zm0 9.146c3.892 0 7.066-1.184 7.066-2.633 0-1.451-3.174-2.633-7.066-2.633-3.893 0-7.068 1.182-7.068 2.633 0 1.449 3.175 2.633 7.068 2.633Zm0 9.145c3.892 0 7.066-1.182 7.066-2.633 0-1.449-3.174-2.632-7.066-2.632-3.893 0-7.068 1.183-7.068 2.632 0 1.451 3.175 2.633 7.068 2.633Zm0 9.147c3.892 0 7.066-1.184 7.066-2.633 0-1.451-3.174-2.634-7.066-2.634-3.893 0-7.068 1.183-7.068 2.634 0 1.449 3.175 2.633 7.068 2.633Zm0 9.145c3.892 0 7.066-1.183 7.066-2.633s-3.174-2.632-7.066-2.632c-3.893 0-7.068 1.182-7.068 2.632 0 1.45 3.175 2.633 7.068 2.633Zm0 9.146c3.892 0 7.066-1.182 7.066-2.633s-3.174-2.633-7.066-2.633c-3.893 0-7.068 1.182-7.068 2.633s3.175 2.633 7.068 2.633Zm0 9.146c3.892 0 7.066-1.183 7.066-2.634 0-1.449-3.174-2.632-7.066-2.632-3.893 0-7.068 1.183-7.068 2.632 0 1.451 3.175 2.634 7.068 2.634Zm18.711-68.872c3.892 0 7.067-1.183 7.067-2.632 0-1.451-3.175-2.633-7.067-2.633-3.893 0-7.067 1.182-7.067 2.633 0 1.449 3.174 2.632 7.067 2.632Zm0 9.146c3.892 0 7.067-1.182 7.067-2.633s-3.175-2.633-7.067-2.633c-3.893 0-7.067 1.182-7.067 2.633s3.174 2.633 7.067 2.633Zm0 9.145c3.892 0 7.067-1.182 7.067-2.632 0-1.45-3.175-2.633-7.067-2.633-3.893 0-7.067 1.183-7.067 2.633s3.174 2.632 7.067 2.632Zm0 9.147c3.892 0 7.067-1.183 7.067-2.633s-3.175-2.634-7.067-2.634c-3.893 0-7.067 1.184-7.067 2.634s3.174 2.633 7.067 2.633Zm0 9.146c3.892 0 7.067-1.184 7.067-2.633 0-1.451-3.175-2.633-7.067-2.633-3.893 0-7.067 1.182-7.067 2.633 0 1.449 3.174 2.633 7.067 2.633Zm0 9.145c3.892 0 7.067-1.182 7.067-2.633 0-1.449-3.175-2.632-7.067-2.632-3.893 0-7.067 1.183-7.067 2.632 0 1.451 3.174 2.633 7.067 2.633Zm0 9.147c3.892 0 7.067-1.183 7.067-2.633 0-1.451-3.175-2.634-7.067-2.634-3.893 0-7.067 1.183-7.067 2.634 0 1.45 3.174 2.633 7.067 2.633Zm0 9.145c3.892 0 7.067-1.183 7.067-2.633s-3.175-2.632-7.067-2.632c-3.893 0-7.067 1.182-7.067 2.632 0 1.45 3.174 2.633 7.067 2.633Zm0 9.146c3.892 0 7.067-1.182 7.067-2.633s-3.175-2.633-7.067-2.633c-3.893 0-7.067 1.182-7.067 2.633s3.174 2.633 7.067 2.633Z" fill="#BBDE15"/><path d="M88.597 214.16c3.894 0 7.068-1.183 7.068-2.634 0-1.449-3.175-2.632-7.068-2.632-3.892 0-7.068 1.183-7.068 2.632 0 1.451 3.176 2.634 7.068 2.634Zm0 9.146c3.894 0 7.068-1.183 7.068-2.633 0-1.451-3.175-2.633-7.068-2.633-3.892 0-7.068 1.182-7.068 2.633 0 1.45 3.176 2.633 7.068 2.633Zm0 9.145c3.894 0 7.068-1.182 7.068-2.633 0-1.449-3.175-2.632-7.068-2.632-3.892 0-7.068 1.183-7.068 2.632 0 1.451 3.176 2.633 7.068 2.633Zm0 9.147c3.894 0 7.068-1.183 7.068-2.634 0-1.45-3.175-2.633-7.068-2.633-3.892 0-7.068 1.183-7.068 2.633 0 1.451 3.176 2.634 7.068 2.634Zm0 9.145c3.894 0 7.068-1.183 7.068-2.632 0-1.451-3.175-2.633-7.068-2.633-3.892 0-7.068 1.182-7.068 2.633 0 1.449 3.176 2.632 7.068 2.632Zm0 9.146c3.894 0 7.068-1.182 7.068-2.633 0-1.449-3.175-2.633-7.068-2.633-3.892 0-7.068 1.184-7.068 2.633 0 1.451 3.176 2.633 7.068 2.633Zm0 9.145c3.894 0 7.068-1.182 7.068-2.632 0-1.45-3.175-2.633-7.068-2.633-3.892 0-7.068 1.183-7.068 2.633s3.176 2.632 7.068 2.632Zm0 9.147c3.894 0 7.068-1.183 7.068-2.634 0-1.449-3.175-2.633-7.068-2.633-3.892 0-7.068 1.184-7.068 2.633 0 1.451 3.176 2.634 7.068 2.634Zm0 9.146c3.894 0 7.068-1.184 7.068-2.633 0-1.451-3.175-2.633-7.068-2.633-3.892 0-7.068 1.182-7.068 2.633 0 1.449 3.176 2.633 7.068 2.633Z" fill="#BBDE15"/><path d="M97.914 219.978c.744 0 1.351-.544 1.351-1.212 0-.668-.607-1.212-1.35-1.212-.745 0-1.353.544-1.353 1.212 0 .668.608 1.212 1.352 1.212Zm.174 8.835c.744 0 1.35-.544 1.35-1.212 0-.668-.606-1.214-1.35-1.214-.744 0-1.352.546-1.352 1.214 0 .668.608 1.212 1.352 1.212Zm-.278 9.285c.744 0 1.351-.546 1.351-1.214 0-.668-.607-1.212-1.35-1.212-.746 0-1.353.544-1.353 1.212 0 .668.607 1.214 1.352 1.214Zm.278 9.318c.744 0 1.35-.544 1.35-1.212 0-.668-.606-1.212-1.35-1.212-.744 0-1.352.544-1.352 1.212 0 .668.608 1.212 1.352 1.212Zm-.139 9.46c.744 0 1.35-.545 1.35-1.213s-.606-1.212-1.35-1.212c-.744 0-1.352.544-1.352 1.212 0 .668.608 1.213 1.352 1.213Zm-.07 9.076c.745 0 1.351-.544 1.351-1.212 0-.668-.606-1.214-1.352-1.214-.744 0-1.35.546-1.35 1.214 0 .668.606 1.212 1.35 1.212Zm-.415 8.799c.744 0 1.35-.545 1.35-1.213s-.606-1.212-1.35-1.212c-.744 0-1.352.544-1.352 1.212 0 .668.608 1.213 1.352 1.213Zm.622 9.146c.746 0 1.352-.544 1.352-1.212 0-.668-.606-1.212-1.352-1.212-.744 0-1.35.544-1.35 1.212 0 .668.606 1.212 1.35 1.212Z" fill="#F14F1B"/></g><path fill-rule="evenodd" clip-rule="evenodd" d="M133.912 202.487c4.955 0 9.008 4.053 9.008 9.007v60.142c0 4.954-4.053 9.007-9.008 9.007-4.954 0-9.006-4.053-9.006-9.007v-60.142c0-4.954 4.052-9.007 9.006-9.007Z" fill="#F14F1B"/><mask id="c" style="mask-type:luminance" maskUnits="userSpaceOnUse" x="124" y="202" width="19" height="79"><path d="M133.912 202.487c4.955 0 9.008 4.053 9.008 9.006v60.143c0 4.954-4.053 9.007-9.008 9.007-4.954 0-9.006-4.053-9.006-9.007v-60.143c0-4.953 4.052-9.006 9.006-9.006Z" fill="#fff"/></mask><g mask="url(#c)" fill-rule="evenodd" clip-rule="evenodd"><path d="M125.556 226.719c3.97 0 7.206-3.237 7.206-7.206 0-3.969-3.236-7.205-7.206-7.205-3.969 0-7.206 3.236-7.206 7.205s3.237 7.206 7.206 7.206Z" fill="#ED1B28"/><path d="M125.556 225.437a5.934 5.934 0 0 0 5.923-5.924 5.934 5.934 0 0 0-5.923-5.923 5.934 5.934 0 0 0-5.923 5.923 5.934 5.934 0 0 0 5.923 5.924Z" fill="#F7F566"/><path d="M125.556 223.947a4.443 4.443 0 0 0 4.434-4.434 4.443 4.443 0 0 0-4.434-4.433 4.443 4.443 0 0 0-4.434 4.433 4.443 4.443 0 0 0 4.434 4.434Z" fill="#F14F1B"/><path d="M143.439 233.302c3.969 0 7.206-3.237 7.206-7.207 0-3.969-3.237-7.205-7.206-7.205-3.97 0-7.207 3.236-7.207 7.205 0 3.97 3.237 7.207 7.207 7.207Z" fill="#ED1B28"/><path d="M143.439 232.019c3.262 0 5.923-2.661 5.923-5.924 0-3.262-2.661-5.922-5.923-5.922-3.263 0-5.924 2.66-5.924 5.922a5.935 5.935 0 0 0 5.924 5.924Z" fill="#F7F566"/><path d="M143.439 230.53a4.443 4.443 0 0 0 4.434-4.435 4.442 4.442 0 0 0-4.434-4.433 4.442 4.442 0 0 0-4.435 4.433 4.443 4.443 0 0 0 4.435 4.435Z" fill="#F14F1B"/><path d="M125.038 243.816c3.968 0 7.205-3.237 7.205-7.206 0-3.969-3.237-7.207-7.205-7.207-3.97 0-7.207 3.238-7.207 7.207s3.237 7.206 7.207 7.206Z" fill="#ED1B28"/><path d="M125.038 242.534c3.262 0 5.922-2.662 5.922-5.924 0-3.263-2.66-5.924-5.922-5.924a5.935 5.935 0 0 0-5.924 5.924 5.935 5.935 0 0 0 5.924 5.924Z" fill="#F7F566"/><path d="M125.038 241.044a4.443 4.443 0 0 0 4.433-4.434 4.443 4.443 0 0 0-4.433-4.435 4.443 4.443 0 0 0-4.435 4.435 4.443 4.443 0 0 0 4.435 4.434Z" fill="#F14F1B"/><path d="M142.92 250.399c3.969 0 7.206-3.237 7.206-7.207 0-3.969-3.237-7.206-7.206-7.206-3.969 0-7.207 3.237-7.207 7.206 0 3.97 3.238 7.207 7.207 7.207Z" fill="#ED1B28"/><path d="M142.92 249.116c3.262 0 5.924-2.661 5.924-5.924 0-3.262-2.662-5.924-5.924-5.924-3.263 0-5.924 2.662-5.924 5.924a5.935 5.935 0 0 0 5.924 5.924Z" fill="#F7F566"/><path d="M142.92 247.627a4.442 4.442 0 0 0 4.434-4.435 4.442 4.442 0 0 0-4.434-4.434 4.443 4.443 0 0 0-4.435 4.434 4.443 4.443 0 0 0 4.435 4.435Z" fill="#F14F1B"/><path d="M124.518 260.912c3.969 0 7.206-3.237 7.206-7.207 0-3.968-3.237-7.205-7.206-7.205-3.968 0-7.205 3.237-7.205 7.205 0 3.97 3.237 7.207 7.205 7.207Z" fill="#ED1B28"/><path d="M124.518 259.629a5.934 5.934 0 0 0 5.924-5.924c0-3.262-2.66-5.922-5.924-5.922a5.933 5.933 0 0 0-5.923 5.922 5.934 5.934 0 0 0 5.923 5.924Z" fill="#F7F566"/><path d="M124.518 258.14a4.443 4.443 0 0 0 4.434-4.435 4.443 4.443 0 0 0-4.434-4.433 4.443 4.443 0 0 0-4.435 4.433 4.444 4.444 0 0 0 4.435 4.435Z" fill="#F14F1B"/><path d="M142.401 267.494c3.97 0 7.207-3.237 7.207-7.206 0-3.969-3.237-7.205-7.207-7.205-3.969 0-7.206 3.236-7.206 7.205s3.237 7.206 7.206 7.206Z" fill="#ED1B28"/><path d="M142.401 266.212a5.935 5.935 0 0 0 5.924-5.924 5.934 5.934 0 0 0-5.924-5.923c-3.262 0-5.924 2.66-5.924 5.923a5.935 5.935 0 0 0 5.924 5.924Z" fill="#F7F566"/><path d="M142.401 264.722a4.443 4.443 0 0 0 4.435-4.434 4.443 4.443 0 0 0-4.435-4.433 4.443 4.443 0 0 0-4.434 4.433 4.443 4.443 0 0 0 4.434 4.434Z" fill="#F14F1B"/><path d="M123.999 278.009c3.969 0 7.207-3.238 7.207-7.207s-3.238-7.206-7.207-7.206c-3.968 0-7.205 3.237-7.205 7.206 0 3.969 3.237 7.207 7.205 7.207Z" fill="#ED1B28"/><path d="M123.999 276.726a5.935 5.935 0 0 0 5.924-5.924 5.935 5.935 0 0 0-5.924-5.924c-3.263 0-5.922 2.662-5.922 5.924 0 3.263 2.659 5.924 5.922 5.924Z" fill="#F7F566"/><path d="M123.999 275.237a4.443 4.443 0 0 0 4.435-4.435 4.443 4.443 0 0 0-4.435-4.434 4.444 4.444 0 0 0-4.435 4.434 4.444 4.444 0 0 0 4.435 4.435Z" fill="#F14F1B"/><path d="M141.883 284.591c3.969 0 7.206-3.237 7.206-7.206 0-3.969-3.237-7.207-7.206-7.207-3.97 0-7.207 3.238-7.207 7.207s3.237 7.206 7.207 7.206Z" fill="#ED1B28"/><path d="M141.883 283.309c3.262 0 5.923-2.662 5.923-5.924 0-3.263-2.661-5.924-5.923-5.924a5.935 5.935 0 0 0-5.924 5.924c0 3.262 2.661 5.924 5.924 5.924Z" fill="#F7F566"/><path d="M141.883 281.819a4.443 4.443 0 0 0 4.434-4.434 4.443 4.443 0 0 0-4.434-4.435 4.443 4.443 0 0 0-4.435 4.435 4.443 4.443 0 0 0 4.435 4.434Z" fill="#F14F1B"/><path d="M125.586 208.202c3.969 0 7.205-3.237 7.205-7.206 0-3.969-3.236-7.206-7.205-7.206-3.97 0-7.207 3.237-7.207 7.206 0 3.969 3.237 7.206 7.207 7.206Z" fill="#ED1B28"/><path d="M125.586 206.92c3.262 0 5.922-2.661 5.922-5.924 0-3.263-2.66-5.924-5.922-5.924a5.935 5.935 0 0 0-5.924 5.924 5.935 5.935 0 0 0 5.924 5.924Z" fill="#F7F566"/><path d="M125.586 205.431a4.443 4.443 0 0 0 4.433-4.435 4.443 4.443 0 0 0-4.433-4.435 4.443 4.443 0 0 0-4.435 4.435 4.443 4.443 0 0 0 4.435 4.435Z" fill="#F14F1B"/><path d="M143.468 214.785c3.969 0 7.206-3.237 7.206-7.206 0-3.97-3.237-7.207-7.206-7.207-3.969 0-7.207 3.237-7.207 7.207 0 3.969 3.238 7.206 7.207 7.206Z" fill="#ED1B28"/><path d="M143.468 213.502c3.263 0 5.924-2.661 5.924-5.923a5.935 5.935 0 0 0-5.924-5.924 5.935 5.935 0 0 0-5.924 5.924c0 3.262 2.661 5.923 5.924 5.923Z" fill="#F7F566"/><path d="M143.468 212.013a4.442 4.442 0 0 0 4.434-4.434 4.442 4.442 0 0 0-4.434-4.435 4.444 4.444 0 0 0-4.435 4.435 4.444 4.444 0 0 0 4.435 4.434Z" fill="#F14F1B"/></g><path fill-rule="evenodd" clip-rule="evenodd" d="M116.174 207.06c4.954 0 9.008 4.053 9.008 9.008v60.141c0 4.954-4.054 9.008-9.008 9.008-4.955 0-9.008-4.054-9.008-9.008v-60.141c0-4.955 4.053-9.008 9.008-9.008Z" fill="#30AD41"/><mask id="d" style="mask-type:luminance" maskUnits="userSpaceOnUse" x="107" y="207" width="19" height="79"><path d="M116.174 207.06c4.954 0 9.008 4.053 9.008 9.008v60.141c0 4.954-4.054 9.008-9.008 9.008-4.955 0-9.008-4.054-9.008-9.008v-60.141c0-4.955 4.053-9.008 9.008-9.008Z" fill="#fff"/></mask><g mask="url(#d)" fill-rule="evenodd" clip-rule="evenodd"><path d="m107.462 192.136 5.388 5.388 5.387 5.387-5.387 5.387-5.388 5.387-5.386-5.387-5.388-5.387 5.388-5.387 5.386-5.388Z" fill="#F14F1B"/><path d="m107.462 196.848 3.032 3.032 3.031 3.031-3.031 3.032-3.032 3.031-3.03-3.031-3.032-3.032 3.032-3.031 3.03-3.032Z" fill="#F2F358"/><path d="m107.314 216.384 5.388 5.386 5.387 5.388-5.387 5.387-5.388 5.387-5.386-5.387-5.388-5.387 5.388-5.388 5.386-5.386Z" fill="#F14F1B"/><path d="m107.314 221.094 3.032 3.032 3.031 3.032-3.031 3.031-3.032 3.032-3.03-3.032-3.032-3.031 3.032-3.032 3.03-3.032Z" fill="#F2F358"/><path d="m107.166 240.63 5.388 5.388 5.387 5.386-5.387 5.387-5.388 5.387-5.386-5.387-5.388-5.387 5.388-5.386 5.386-5.388Z" fill="#F14F1B"/><path d="m107.166 245.342 3.032 3.03 3.032 3.032-3.032 3.032-3.032 3.031-3.03-3.031-3.032-3.032 3.032-3.032 3.03-3.03Z" fill="#F2F358"/><path d="m107.018 264.876 5.388 5.388 5.387 5.386-5.387 5.388-5.388 5.387-5.386-5.387-5.388-5.388 5.388-5.386 5.386-5.388Z" fill="#F14F1B"/><path d="m107.018 269.588 3.032 3.032 3.032 3.03-3.032 3.032-3.032 3.031-3.03-3.031-3.032-3.032 3.032-3.03 3.03-3.032Z" fill="#F2F358"/><path d="m125.33 205.851 5.386 5.387 5.388 5.387-5.388 5.388-5.386 5.386-5.388-5.386-5.387-5.388 5.387-5.387 5.388-5.387Z" fill="#F14F1B"/><path d="m125.33 210.562 3.03 3.032 3.032 3.031-3.032 3.032-3.03 3.03-3.032-3.03-3.032-3.032 3.032-3.031 3.032-3.032Z" fill="#F2F358"/><path d="m125.182 230.097 5.386 5.387 5.388 5.387-5.388 5.388-5.386 5.388-5.388-5.388-5.387-5.388 5.387-5.387 5.388-5.387Z" fill="#F14F1B"/><path d="m125.182 234.808 3.03 3.032 3.032 3.031-3.032 3.032-3.03 3.032-3.032-3.032-3.032-3.032 3.032-3.031 3.032-3.032Z" fill="#F2F358"/><path d="m125.034 254.344 5.386 5.387 5.388 5.387-5.388 5.387-5.386 5.388-5.388-5.388-5.387-5.387 5.387-5.387 5.388-5.387Z" fill="#F14F1B"/><path d="m125.034 259.055 3.03 3.031 3.032 3.032-3.032 3.031-3.03 3.032-3.032-3.032-3.032-3.031 3.032-3.032 3.032-3.031Z" fill="#F2F358"/><path d="m124.886 278.59 5.386 5.388 5.388 5.386-5.388 5.387-5.386 5.388-5.388-5.388-5.387-5.387 5.387-5.386 5.388-5.388Z" fill="#F14F1B"/><path d="m124.886 283.302 3.03 3.031 3.032 3.031-3.032 3.032-3.03 3.031-3.032-3.031-3.031-3.032 3.031-3.031 3.032-3.031Z" fill="#F2F358"/></g><path fill-rule="evenodd" clip-rule="evenodd" d="M79.57 216.784c4.954 0 9.006 4.053 9.006 9.007v60.142c0 4.954-4.052 9.007-9.006 9.007-4.955 0-9.008-4.053-9.008-9.007v-60.142c0-4.954 4.053-9.007 9.008-9.007Z" fill="#F9E605"/><mask id="e" style="mask-type:luminance" maskUnits="userSpaceOnUse" x="70" y="216" width="19" height="79"><path d="M79.568 216.784h.002c4.954 0 9.006 4.053 9.006 9.007v60.142c0 4.954-4.052 9.007-9.006 9.007h-.002c-4.953 0-9.006-4.053-9.006-9.007v-60.142c0-4.954 4.053-9.007 9.006-9.007Z" fill="#fff"/></mask><g mask="url(#e)" fill-rule="evenodd" clip-rule="evenodd"><path d="M70.562 239.547c5.19 0 9.424-4.235 9.424-9.424 0-5.19-4.234-9.424-9.424-9.424-5.19 0-9.424 4.234-9.424 9.424 0 5.189 4.235 9.424 9.424 9.424Z" fill="#B43221"/><path d="M70.562 236.575c3.554 0 6.452-2.898 6.452-6.452s-2.898-6.452-6.452-6.452c-3.553 0-6.452 2.898-6.452 6.452s2.898 6.452 6.452 6.452Z" fill="#3E3965"/><path d="M70.562 232.687a2.57 2.57 0 0 0 2.564-2.564 2.57 2.57 0 0 0-2.564-2.564 2.57 2.57 0 0 0-2.564 2.564 2.57 2.57 0 0 0 2.564 2.564Z" fill="#F14F1B"/><path d="M70.562 261.094c5.19 0 9.424-4.233 9.424-9.423 0-5.191-4.234-9.423-9.424-9.423-5.19 0-9.424 4.232-9.424 9.423 0 5.19 4.235 9.423 9.424 9.423Z" fill="#B43221"/><path d="M70.562 258.123c3.554 0 6.452-2.899 6.452-6.452 0-3.554-2.898-6.452-6.452-6.452-3.553 0-6.452 2.898-6.452 6.452 0 3.553 2.898 6.452 6.452 6.452Z" fill="#3E3965"/><path d="M70.562 254.235a2.57 2.57 0 0 0 2.564-2.564 2.57 2.57 0 0 0-2.564-2.564 2.57 2.57 0 0 0-2.564 2.564 2.57 2.57 0 0 0 2.564 2.564Z" fill="#F14F1B"/><path d="M70.562 282.643c5.19 0 9.424-4.234 9.424-9.423 0-5.191-4.234-9.424-9.424-9.424-5.19 0-9.424 4.233-9.424 9.424 0 5.189 4.235 9.423 9.424 9.423Z" fill="#B43221"/><path d="M70.562 279.67c3.554 0 6.452-2.897 6.452-6.45 0-3.555-2.898-6.452-6.452-6.452-3.553 0-6.452 2.897-6.452 6.452 0 3.553 2.898 6.45 6.452 6.45Z" fill="#3E3965"/><path d="M70.562 275.783a2.569 2.569 0 0 0 2.564-2.563 2.57 2.57 0 0 0-2.564-2.564 2.57 2.57 0 0 0-2.564 2.564 2.569 2.569 0 0 0 2.564 2.563Z" fill="#F14F1B"/><path d="M70.562 304.191c5.19 0 9.424-4.233 9.424-9.424s-4.234-9.422-9.424-9.422c-5.19 0-9.424 4.231-9.424 9.422 0 5.191 4.235 9.424 9.424 9.424Z" fill="#B43221"/><path d="M70.562 301.219c3.554 0 6.452-2.899 6.452-6.452s-2.898-6.452-6.452-6.452c-3.553 0-6.452 2.899-6.452 6.452s2.898 6.452 6.452 6.452Z" fill="#3E3965"/><path d="M70.562 297.331a2.57 2.57 0 0 0 2.564-2.564 2.57 2.57 0 0 0-2.564-2.564 2.57 2.57 0 0 0-2.564 2.564 2.57 2.57 0 0 0 2.564 2.564Z" fill="#F14F1B"/><path d="M88.577 228.599c5.19 0 9.423-4.233 9.423-9.423 0-5.191-4.234-9.424-9.423-9.424-5.19 0-9.424 4.233-9.424 9.424 0 5.19 4.234 9.423 9.424 9.423Z" fill="#B43221"/><path d="M88.577 225.627c3.553 0 6.452-2.898 6.452-6.451 0-3.554-2.898-6.452-6.452-6.452-3.553 0-6.452 2.898-6.452 6.452 0 3.553 2.899 6.451 6.452 6.451Z" fill="#3E3965"/><path d="M88.577 221.739a2.569 2.569 0 0 0 2.564-2.563 2.57 2.57 0 0 0-2.564-2.564 2.57 2.57 0 0 0-2.565 2.564 2.57 2.57 0 0 0 2.565 2.563Z" fill="#F14F1B"/><path d="M88.577 250.148c5.19 0 9.423-4.234 9.423-9.424 0-5.19-4.234-9.423-9.423-9.423-5.19 0-9.424 4.233-9.424 9.423s4.234 9.424 9.424 9.424Z" fill="#B43221"/><path d="M88.577 247.175c3.553 0 6.452-2.897 6.452-6.451s-2.898-6.452-6.452-6.452c-3.553 0-6.452 2.898-6.452 6.452s2.899 6.451 6.452 6.451Z" fill="#3E3965"/><path d="M88.577 243.288a2.57 2.57 0 0 0 2.564-2.564 2.57 2.57 0 0 0-2.564-2.564 2.57 2.57 0 0 0-2.565 2.564 2.57 2.57 0 0 0 2.565 2.564Z" fill="#F14F1B"/><path d="M88.577 271.696c5.19 0 9.423-4.234 9.423-9.424 0-5.191-4.234-9.423-9.423-9.423-5.19 0-9.424 4.232-9.424 9.423 0 5.19 4.234 9.424 9.424 9.424Z" fill="#B43221"/><path d="M88.577 268.724c3.553 0 6.452-2.899 6.452-6.452s-2.898-6.452-6.452-6.452c-3.553 0-6.452 2.899-6.452 6.452s2.899 6.452 6.452 6.452Z" fill="#3E3965"/><path d="M88.577 264.836a2.57 2.57 0 0 0 2.564-2.564 2.57 2.57 0 0 0-2.564-2.564 2.57 2.57 0 0 0-2.565 2.564 2.57 2.57 0 0 0 2.565 2.564Z" fill="#F14F1B"/><path d="M88.577 293.243c5.19 0 9.423-4.233 9.423-9.422 0-5.191-4.234-9.424-9.423-9.424-5.19 0-9.424 4.233-9.424 9.424 0 5.189 4.234 9.422 9.424 9.422Z" fill="#B43221"/><path d="M88.577 290.271c3.553 0 6.452-2.897 6.452-6.45 0-3.555-2.898-6.452-6.452-6.452-3.553 0-6.452 2.897-6.452 6.452 0 3.553 2.899 6.45 6.452 6.45Z" fill="#3E3965"/><path d="M88.577 286.385a2.57 2.57 0 0 0 2.564-2.564 2.57 2.57 0 0 0-2.564-2.564 2.57 2.57 0 0 0-2.565 2.564 2.57 2.57 0 0 0 2.565 2.564Z" fill="#F14F1B"/></g><path fill-rule="evenodd" clip-rule="evenodd" d="m197.716 53.525-4.327 13.865c5.974-.224 8.139-12.32 4.327-13.865Zm1.177-28.615-4.326 13.863c5.974-.222 8.138-12.32 4.326-13.863Zm.511-22.989-9.059 19.727c8.858 3.416 12.871-18.182 9.059-19.727Zm19.013.05 7.65 20.314c-9.074 2.785-11.561-19.043-7.65-20.315Zm-2.2 23.977 4.326 13.864c-5.974-.223-8.138-12.32-4.326-13.864Zm.876 28.658 4.328 13.864c-5.975-.223-8.14-12.32-4.328-13.864Z" fill="#F35E29"/><path fill-rule="evenodd" clip-rule="evenodd" d="M316.614 211.217c-4.954 0-9.008 4.053-9.008 9.007v60.142c0 4.955 4.054 9.006 9.008 9.006 4.955 0 9.008-4.051 9.008-9.006v-60.142c0-4.954-4.053-9.007-9.008-9.007Z" fill="#BC1491"/><mask id="f" style="mask-type:luminance" maskUnits="userSpaceOnUse" x="307" y="211" width="19" height="79"><path d="M316.614 211.217c-4.954 0-9.008 4.053-9.008 9.007v60.142c0 4.955 4.054 9.006 9.008 9.006 4.955 0 9.008-4.051 9.008-9.006v-60.142c0-4.954-4.053-9.007-9.008-9.007Z" fill="#fff"/></mask><g mask="url(#f)" fill-rule="evenodd" clip-rule="evenodd"><path d="M326.318 214.714c3.893 0 7.068-1.182 7.068-2.633 0-1.449-3.175-2.633-7.068-2.633-3.892 0-7.067 1.184-7.067 2.633 0 1.451 3.175 2.633 7.067 2.633Zm0 9.145c3.893 0 7.068-1.182 7.068-2.632 0-1.45-3.175-2.633-7.068-2.633-3.892 0-7.067 1.183-7.067 2.633s3.175 2.632 7.067 2.632Zm0 9.147c3.893 0 7.068-1.183 7.068-2.633s-3.175-2.634-7.068-2.634c-3.892 0-7.067 1.184-7.067 2.634s3.175 2.633 7.067 2.633Zm0 9.146c3.893 0 7.068-1.184 7.068-2.633 0-1.451-3.175-2.633-7.068-2.633-3.892 0-7.067 1.182-7.067 2.633 0 1.449 3.175 2.633 7.067 2.633Zm0 9.145c3.893 0 7.068-1.182 7.068-2.633 0-1.449-3.175-2.632-7.068-2.632-3.892 0-7.067 1.183-7.067 2.632 0 1.451 3.175 2.633 7.067 2.633Zm0 9.147c3.893 0 7.068-1.184 7.068-2.633 0-1.451-3.175-2.634-7.068-2.634-3.892 0-7.067 1.183-7.067 2.634 0 1.449 3.175 2.633 7.067 2.633Zm0 9.145c3.893 0 7.068-1.183 7.068-2.633s-3.175-2.632-7.068-2.632c-3.892 0-7.067 1.182-7.067 2.632 0 1.45 3.175 2.633 7.067 2.633Zm0 9.146c3.893 0 7.068-1.182 7.068-2.633s-3.175-2.633-7.068-2.633c-3.892 0-7.067 1.182-7.067 2.633s3.175 2.633 7.067 2.633Zm0 9.146c3.893 0 7.068-1.183 7.068-2.634 0-1.449-3.175-2.632-7.068-2.632-3.892 0-7.067 1.183-7.067 2.632 0 1.451 3.175 2.634 7.067 2.634Zm-18.712-68.872c3.894 0 7.068-1.183 7.068-2.632 0-1.451-3.174-2.633-7.068-2.633-3.891 0-7.066 1.182-7.066 2.633 0 1.449 3.175 2.632 7.066 2.632Zm0 9.146c3.894 0 7.068-1.182 7.068-2.633s-3.174-2.633-7.068-2.633c-3.891 0-7.066 1.182-7.066 2.633s3.175 2.633 7.066 2.633Zm0 9.145c3.894 0 7.068-1.182 7.068-2.632 0-1.45-3.174-2.633-7.068-2.633-3.891 0-7.066 1.183-7.066 2.633s3.175 2.632 7.066 2.632Zm0 9.147c3.894 0 7.068-1.183 7.068-2.633s-3.174-2.634-7.068-2.634c-3.891 0-7.066 1.184-7.066 2.634s3.175 2.633 7.066 2.633Zm0 9.146c3.894 0 7.068-1.184 7.068-2.633 0-1.451-3.174-2.633-7.068-2.633-3.891 0-7.066 1.182-7.066 2.633 0 1.449 3.175 2.633 7.066 2.633Zm0 9.145c3.894 0 7.068-1.182 7.068-2.633 0-1.449-3.174-2.632-7.068-2.632-3.891 0-7.066 1.183-7.066 2.632 0 1.451 3.175 2.633 7.066 2.633Zm0 9.147c3.894 0 7.068-1.183 7.068-2.633 0-1.451-3.174-2.634-7.068-2.634-3.891 0-7.066 1.183-7.066 2.634 0 1.45 3.175 2.633 7.066 2.633Zm0 9.145c3.894 0 7.068-1.183 7.068-2.633s-3.174-2.632-7.068-2.632c-3.891 0-7.066 1.182-7.066 2.632 0 1.45 3.175 2.633 7.066 2.633Zm0 9.146c3.894 0 7.068-1.182 7.068-2.633s-3.174-2.633-7.068-2.633c-3.891 0-7.066 1.182-7.066 2.633s3.175 2.633 7.066 2.633Z" fill="#BBDE15"/><path d="M326.177 214.16c3.893 0 7.067-1.183 7.067-2.634 0-1.449-3.174-2.632-7.067-2.632-3.892 0-7.067 1.183-7.067 2.632 0 1.451 3.175 2.634 7.067 2.634Zm0 9.146c3.893 0 7.067-1.183 7.067-2.633 0-1.451-3.174-2.633-7.067-2.633-3.892 0-7.067 1.182-7.067 2.633 0 1.45 3.175 2.633 7.067 2.633Zm0 9.145c3.893 0 7.067-1.182 7.067-2.633 0-1.449-3.174-2.632-7.067-2.632-3.892 0-7.067 1.183-7.067 2.632 0 1.451 3.175 2.633 7.067 2.633Zm0 9.147c3.893 0 7.067-1.183 7.067-2.634 0-1.45-3.174-2.633-7.067-2.633-3.892 0-7.067 1.183-7.067 2.633 0 1.451 3.175 2.634 7.067 2.634Zm0 9.145c3.893 0 7.067-1.183 7.067-2.632 0-1.451-3.174-2.633-7.067-2.633-3.892 0-7.067 1.182-7.067 2.633 0 1.449 3.175 2.632 7.067 2.632Zm0 9.146c3.893 0 7.067-1.182 7.067-2.633 0-1.449-3.174-2.633-7.067-2.633-3.892 0-7.067 1.184-7.067 2.633 0 1.451 3.175 2.633 7.067 2.633Zm0 9.145c3.893 0 7.067-1.182 7.067-2.632 0-1.45-3.174-2.633-7.067-2.633-3.892 0-7.067 1.183-7.067 2.633s3.175 2.632 7.067 2.632Zm0 9.147c3.893 0 7.067-1.183 7.067-2.634 0-1.449-3.174-2.633-7.067-2.633-3.892 0-7.067 1.184-7.067 2.633 0 1.451 3.175 2.634 7.067 2.634Zm0 9.146c3.893 0 7.067-1.184 7.067-2.633 0-1.451-3.174-2.633-7.067-2.633-3.892 0-7.067 1.182-7.067 2.633 0 1.449 3.175 2.633 7.067 2.633Z" fill="#BBDE15"/><path d="M316.86 219.978c.745 0 1.352-.544 1.352-1.212 0-.668-.607-1.212-1.352-1.212-.744 0-1.351.544-1.351 1.212 0 .668.607 1.212 1.351 1.212Zm-.172 8.835c.744 0 1.35-.544 1.35-1.212 0-.668-.606-1.214-1.35-1.214-.744 0-1.352.546-1.352 1.214 0 .668.608 1.212 1.352 1.212Zm.277 9.285c.744 0 1.351-.546 1.351-1.214 0-.668-.607-1.212-1.351-1.212s-1.352.544-1.352 1.212c0 .668.608 1.214 1.352 1.214Zm-.277 9.318c.744 0 1.35-.544 1.35-1.212 0-.668-.606-1.212-1.35-1.212-.744 0-1.352.544-1.352 1.212 0 .668.608 1.212 1.352 1.212Zm.138 9.46c.744 0 1.351-.545 1.351-1.213s-.607-1.212-1.351-1.212-1.352.544-1.352 1.212c0 .668.608 1.213 1.352 1.213Zm.07 9.076c.744 0 1.35-.544 1.35-1.212 0-.668-.606-1.214-1.35-1.214-.744 0-1.352.546-1.352 1.214 0 .668.608 1.212 1.352 1.212Zm.416 8.799c.744 0 1.35-.545 1.35-1.213s-.606-1.212-1.35-1.212c-.746 0-1.352.544-1.352 1.212 0 .668.606 1.213 1.352 1.213Zm-.624 9.146c.744 0 1.35-.544 1.35-1.212 0-.668-.606-1.212-1.35-1.212-.744 0-1.352.544-1.352 1.212 0 .668.608 1.212 1.352 1.212Z" fill="#F14F1B"/></g><path fill-rule="evenodd" clip-rule="evenodd" d="M280.862 202.487c-4.955 0-9.008 4.053-9.008 9.007v60.142c0 4.954 4.053 9.007 9.008 9.007 4.954 0 9.006-4.053 9.006-9.007v-60.142c0-4.954-4.052-9.007-9.006-9.007Z" fill="#F14F1B"/><mask id="g" style="mask-type:luminance" maskUnits="userSpaceOnUse" x="271" y="202" width="19" height="79"><path d="M280.862 202.487c-4.955 0-9.008 4.053-9.008 9.006v60.143c0 4.954 4.053 9.007 9.008 9.007 4.954 0 9.006-4.053 9.006-9.007v-60.143c0-4.953-4.052-9.006-9.006-9.006Z" fill="#fff"/></mask><g mask="url(#g)" fill-rule="evenodd" clip-rule="evenodd"><path d="M289.219 226.719c3.969 0 7.206-3.237 7.206-7.206 0-3.969-3.237-7.205-7.206-7.205-3.969 0-7.207 3.236-7.207 7.205s3.238 7.206 7.207 7.206Z" fill="#ED1B28"/><path d="M289.219 225.437a5.935 5.935 0 0 0 5.924-5.924 5.934 5.934 0 0 0-5.924-5.923 5.934 5.934 0 0 0-5.924 5.923 5.935 5.935 0 0 0 5.924 5.924Z" fill="#F7F566"/><path d="M289.219 223.947a4.442 4.442 0 0 0 4.434-4.434 4.442 4.442 0 0 0-4.434-4.433 4.443 4.443 0 0 0-4.435 4.433 4.443 4.443 0 0 0 4.435 4.434Z" fill="#F14F1B"/><path d="M271.335 233.302c3.97 0 7.207-3.237 7.207-7.207 0-3.969-3.237-7.205-7.207-7.205-3.969 0-7.206 3.236-7.206 7.205 0 3.97 3.237 7.207 7.206 7.207Z" fill="#ED1B28"/><path d="M271.335 232.019a5.935 5.935 0 0 0 5.924-5.924c0-3.262-2.661-5.922-5.924-5.922-3.262 0-5.924 2.66-5.924 5.922 0 3.263 2.662 5.924 5.924 5.924Z" fill="#F7F566"/><path d="M271.335 230.53a4.443 4.443 0 0 0 4.435-4.435 4.442 4.442 0 0 0-4.435-4.433 4.442 4.442 0 0 0-4.434 4.433 4.443 4.443 0 0 0 4.434 4.435Z" fill="#F14F1B"/><path d="M289.738 243.816c3.969 0 7.206-3.237 7.206-7.206 0-3.969-3.237-7.207-7.206-7.207-3.97 0-7.207 3.238-7.207 7.207s3.237 7.206 7.207 7.206Z" fill="#ED1B28"/><path d="M289.738 242.534c3.262 0 5.923-2.662 5.923-5.924 0-3.263-2.661-5.924-5.923-5.924a5.935 5.935 0 0 0-5.924 5.924c0 3.262 2.661 5.924 5.924 5.924Z" fill="#F7F566"/><path d="M289.738 241.044a4.443 4.443 0 0 0 4.434-4.434 4.443 4.443 0 0 0-4.434-4.435 4.443 4.443 0 0 0-4.435 4.435 4.443 4.443 0 0 0 4.435 4.434Z" fill="#F14F1B"/><path d="M271.854 250.399c3.969 0 7.207-3.237 7.207-7.207 0-3.969-3.238-7.206-7.207-7.206s-7.205 3.237-7.205 7.206c0 3.97 3.236 7.207 7.205 7.207Z" fill="#ED1B28"/><path d="M271.854 249.116a5.935 5.935 0 0 0 5.924-5.924c0-3.262-2.661-5.924-5.924-5.924-3.263 0-5.924 2.662-5.924 5.924a5.935 5.935 0 0 0 5.924 5.924Z" fill="#F7F566"/><path d="M271.854 247.627a4.443 4.443 0 0 0 4.435-4.435 4.443 4.443 0 0 0-4.435-4.434 4.443 4.443 0 0 0-4.435 4.434 4.443 4.443 0 0 0 4.435 4.435Z" fill="#F14F1B"/><path d="M290.256 260.912c3.969 0 7.207-3.237 7.207-7.207 0-3.968-3.238-7.205-7.207-7.205s-7.206 3.237-7.206 7.205c0 3.97 3.237 7.207 7.206 7.207Z" fill="#ED1B28"/><path d="M290.256 259.629a5.935 5.935 0 0 0 5.924-5.924c0-3.262-2.661-5.922-5.924-5.922-3.262 0-5.924 2.66-5.924 5.922a5.935 5.935 0 0 0 5.924 5.924Z" fill="#F7F566"/><path d="M290.256 258.14a4.443 4.443 0 0 0 4.435-4.435 4.443 4.443 0 0 0-4.435-4.433 4.443 4.443 0 0 0-4.434 4.433 4.443 4.443 0 0 0 4.434 4.435Z" fill="#F14F1B"/><path d="M272.373 267.494c3.969 0 7.206-3.237 7.206-7.206 0-3.969-3.237-7.205-7.206-7.205-3.97 0-7.205 3.236-7.205 7.205s3.235 7.206 7.205 7.206Z" fill="#ED1B28"/><path d="M272.373 266.212a5.935 5.935 0 0 0 5.924-5.924c0-3.263-2.662-5.923-5.924-5.923a5.934 5.934 0 0 0-5.924 5.923 5.935 5.935 0 0 0 5.924 5.924Z" fill="#F7F566"/><path d="M272.373 264.722a4.443 4.443 0 0 0 4.434-4.434 4.443 4.443 0 0 0-4.434-4.433 4.443 4.443 0 0 0-4.435 4.433 4.443 4.443 0 0 0 4.435 4.434Z" fill="#F14F1B"/><path d="M290.775 278.009c3.969 0 7.206-3.238 7.206-7.207s-3.237-7.206-7.206-7.206c-3.969 0-7.207 3.237-7.207 7.206 0 3.969 3.238 7.207 7.207 7.207Z" fill="#ED1B28"/><path d="M290.775 276.726c3.262 0 5.924-2.661 5.924-5.924 0-3.262-2.662-5.924-5.924-5.924-3.263 0-5.924 2.662-5.924 5.924a5.935 5.935 0 0 0 5.924 5.924Z" fill="#F7F566"/><path d="M290.775 275.237a4.443 4.443 0 0 0 4.434-4.435 4.443 4.443 0 0 0-4.434-4.434 4.443 4.443 0 0 0-4.435 4.434 4.443 4.443 0 0 0 4.435 4.435Z" fill="#F14F1B"/><path d="M272.891 284.591c3.97 0 7.207-3.237 7.207-7.206 0-3.969-3.237-7.207-7.207-7.207-3.969 0-7.205 3.238-7.205 7.207s3.236 7.206 7.205 7.206Z" fill="#ED1B28"/><path d="M272.891 283.309c3.263 0 5.924-2.662 5.924-5.924a5.935 5.935 0 0 0-5.924-5.924c-3.262 0-5.924 2.661-5.924 5.924 0 3.262 2.662 5.924 5.924 5.924Z" fill="#F7F566"/><path d="M272.891 281.819a4.443 4.443 0 0 0 4.435-4.434 4.443 4.443 0 0 0-4.435-4.435 4.443 4.443 0 0 0-4.434 4.435 4.443 4.443 0 0 0 4.434 4.434Z" fill="#F14F1B"/><path d="M289.19 208.202c3.969 0 7.206-3.237 7.206-7.206 0-3.969-3.237-7.206-7.206-7.206-3.97 0-7.207 3.237-7.207 7.206 0 3.969 3.237 7.206 7.207 7.206Z" fill="#ED1B28"/><path d="M289.19 206.92c3.262 0 5.923-2.661 5.923-5.924 0-3.263-2.661-5.924-5.923-5.924a5.935 5.935 0 0 0-5.924 5.924 5.935 5.935 0 0 0 5.924 5.924Z" fill="#F7F566"/><path d="M289.19 205.431a4.443 4.443 0 0 0 4.434-4.435 4.443 4.443 0 0 0-4.434-4.435 4.443 4.443 0 0 0-4.435 4.435 4.443 4.443 0 0 0 4.435 4.435Z" fill="#F14F1B"/><path d="M271.306 214.785c3.969 0 7.207-3.237 7.207-7.206 0-3.97-3.238-7.207-7.207-7.207s-7.206 3.237-7.206 7.207c0 3.969 3.237 7.206 7.206 7.206Z" fill="#ED1B28"/><path d="M271.306 213.502c3.263 0 5.924-2.661 5.924-5.923a5.935 5.935 0 0 0-5.924-5.924 5.935 5.935 0 0 0-5.924 5.924c0 3.262 2.661 5.923 5.924 5.923Z" fill="#F7F566"/><path d="M271.306 212.013a4.443 4.443 0 0 0 4.435-4.434 4.443 4.443 0 0 0-4.435-4.435 4.443 4.443 0 0 0-4.435 4.435 4.443 4.443 0 0 0 4.435 4.434Z" fill="#F14F1B"/></g><path fill-rule="evenodd" clip-rule="evenodd" d="M298.6 207.06c-4.955 0-9.008 4.053-9.008 9.008v60.141c0 4.954 4.053 9.008 9.008 9.008 4.955 0 9.008-4.054 9.008-9.008v-60.141c0-4.955-4.053-9.008-9.008-9.008Z" fill="#30AD41"/><mask id="h" style="mask-type:luminance" maskUnits="userSpaceOnUse" x="289" y="207" width="19" height="79"><path d="M298.6 207.06c-4.955 0-9.008 4.053-9.008 9.008v60.141c0 4.954 4.053 9.008 9.008 9.008 4.955 0 9.008-4.054 9.008-9.008v-60.141c0-4.955-4.053-9.008-9.008-9.008Z" fill="#fff"/></mask><g mask="url(#h)" fill-rule="evenodd" clip-rule="evenodd"><path d="m307.312 192.136-5.388 5.388-5.387 5.387 5.387 5.387 5.388 5.387 5.386-5.387 5.388-5.387-5.388-5.387-5.386-5.388Z" fill="#F14F1B"/><path d="m307.312 196.848-3.032 3.032-3.031 3.031 3.031 3.032 3.032 3.031 3.032-3.031 3.03-3.032-3.03-3.031-3.032-3.032Z" fill="#F2F358"/><path d="m307.46 216.384-5.388 5.386-5.387 5.388 5.387 5.387 5.388 5.387 5.386-5.387 5.388-5.387-5.388-5.388-5.386-5.386Z" fill="#F14F1B"/><path d="m307.46 221.094-3.032 3.032-3.032 3.032 3.032 3.031 3.032 3.032 3.03-3.032 3.032-3.031-3.032-3.032-3.03-3.032Z" fill="#F2F358"/><path d="m307.608 240.63-5.388 5.388-5.387 5.386 5.387 5.387 5.388 5.387 5.386-5.387 5.388-5.387-5.388-5.386-5.386-5.388Z" fill="#F14F1B"/><path d="m307.608 245.342-3.032 3.03-3.032 3.032 3.032 3.032 3.032 3.031 3.03-3.031 3.032-3.032-3.032-3.032-3.03-3.03Z" fill="#F2F358"/><path d="m307.756 264.876-5.388 5.388-5.387 5.386 5.387 5.388 5.388 5.387 5.386-5.387 5.388-5.388-5.388-5.386-5.386-5.388Z" fill="#F14F1B"/><path d="m307.756 269.588-3.032 3.032-3.032 3.03 3.032 3.032 3.032 3.031 3.03-3.031 3.032-3.032-3.032-3.03-3.03-3.032Z" fill="#F2F358"/><path d="m289.444 205.851-5.386 5.387-5.388 5.387 5.388 5.388 5.386 5.386 5.388-5.386 5.387-5.388-5.387-5.387-5.388-5.387Z" fill="#F14F1B"/><path d="m289.444 210.562-3.03 3.032-3.032 3.031 3.032 3.032 3.03 3.03 3.032-3.03 3.032-3.032-3.032-3.031-3.032-3.032Z" fill="#F2F358"/><path d="m289.592 230.097-5.386 5.387-5.388 5.387 5.388 5.388 5.386 5.388 5.388-5.388 5.387-5.388-5.387-5.387-5.388-5.387Z" fill="#F14F1B"/><path d="m289.592 234.808-3.03 3.032-3.032 3.031 3.032 3.032 3.03 3.032 3.032-3.032 3.032-3.032-3.032-3.031-3.032-3.032Z" fill="#F2F358"/><path d="m289.74 254.344-5.386 5.387-5.388 5.387 5.388 5.387 5.386 5.388 5.388-5.388 5.387-5.387-5.387-5.387-5.388-5.387Z" fill="#F14F1B"/><path d="m289.74 259.055-3.03 3.031-3.032 3.032 3.032 3.031 3.03 3.032 3.032-3.032 3.032-3.031-3.032-3.032-3.032-3.031Z" fill="#F2F358"/><path d="m289.888 278.59-5.386 5.388-5.388 5.386 5.388 5.387 5.386 5.388 5.388-5.388 5.387-5.387-5.387-5.386-5.388-5.388Z" fill="#F14F1B"/><path d="m289.888 283.302-3.03 3.031-3.032 3.031 3.032 3.032 3.03 3.031 3.032-3.031 3.031-3.032-3.031-3.031-3.032-3.031Z" fill="#F2F358"/></g><path fill-rule="evenodd" clip-rule="evenodd" d="M335.204 216.784c-4.954 0-9.006 4.053-9.006 9.007v60.142c0 4.954 4.052 9.007 9.006 9.007 4.955 0 9.008-4.053 9.008-9.007v-60.142c0-4.954-4.053-9.007-9.008-9.007Z" fill="#F9E605"/><mask id="i" style="mask-type:luminance" maskUnits="userSpaceOnUse" x="326" y="216" width="19" height="79"><path d="M335.204 216.784c-4.954 0-9.006 4.053-9.006 9.007v60.142c0 4.954 4.052 9.007 9.006 9.007 4.955 0 9.008-4.053 9.008-9.007v-60.142c0-4.954-4.053-9.007-9.008-9.007Z" fill="#fff"/></mask><g mask="url(#i)" fill-rule="evenodd" clip-rule="evenodd"><path d="M344.212 239.547c5.191 0 9.424-4.235 9.424-9.424 0-5.19-4.233-9.424-9.424-9.424-5.19 0-9.424 4.234-9.424 9.424 0 5.189 4.234 9.424 9.424 9.424Z" fill="#B43221"/><path d="M344.212 236.575c3.553 0 6.452-2.898 6.452-6.452s-2.899-6.452-6.452-6.452-6.452 2.898-6.452 6.452 2.899 6.452 6.452 6.452Z" fill="#3E3965"/><path d="M344.212 232.687a2.57 2.57 0 0 0 2.564-2.564 2.57 2.57 0 0 0-2.564-2.564 2.57 2.57 0 0 0-2.564 2.564 2.57 2.57 0 0 0 2.564 2.564Z" fill="#F14F1B"/><path d="M344.212 261.094c5.191 0 9.424-4.233 9.424-9.423 0-5.191-4.233-9.423-9.424-9.423-5.19 0-9.424 4.232-9.424 9.423 0 5.19 4.234 9.423 9.424 9.423Z" fill="#B43221"/><path d="M344.212 258.123c3.553 0 6.452-2.899 6.452-6.452 0-3.554-2.899-6.452-6.452-6.452s-6.452 2.898-6.452 6.452c0 3.553 2.899 6.452 6.452 6.452Z" fill="#3E3965"/><path d="M344.212 254.235a2.57 2.57 0 0 0 2.564-2.564 2.57 2.57 0 0 0-2.564-2.564 2.57 2.57 0 0 0-2.564 2.564 2.57 2.57 0 0 0 2.564 2.564Z" fill="#F14F1B"/><path d="M344.212 282.643c5.191 0 9.424-4.234 9.424-9.423 0-5.191-4.233-9.424-9.424-9.424-5.19 0-9.424 4.233-9.424 9.424 0 5.189 4.234 9.423 9.424 9.423Z" fill="#B43221"/><path d="M344.212 279.67c3.553 0 6.452-2.897 6.452-6.45 0-3.555-2.899-6.452-6.452-6.452s-6.452 2.897-6.452 6.452c0 3.553 2.899 6.45 6.452 6.45Z" fill="#3E3965"/><path d="M344.212 275.783a2.569 2.569 0 0 0 2.564-2.563 2.57 2.57 0 0 0-2.564-2.564 2.57 2.57 0 0 0-2.564 2.564 2.569 2.569 0 0 0 2.564 2.563Z" fill="#F14F1B"/><path d="M344.212 304.191c5.191 0 9.424-4.233 9.424-9.424s-4.233-9.422-9.424-9.422c-5.19 0-9.424 4.231-9.424 9.422 0 5.191 4.234 9.424 9.424 9.424Z" fill="#B43221"/><path d="M344.212 301.219c3.553 0 6.452-2.899 6.452-6.452s-2.899-6.452-6.452-6.452-6.452 2.899-6.452 6.452 2.899 6.452 6.452 6.452Z" fill="#3E3965"/><path d="M326.198 228.599c5.189 0 9.422-4.233 9.422-9.423 0-5.191-4.233-9.424-9.422-9.424-5.191 0-9.424 4.233-9.424 9.424 0 5.19 4.233 9.423 9.424 9.423Z" fill="#B43221"/><path d="M326.198 225.627c3.553 0 6.452-2.898 6.452-6.451 0-3.554-2.899-6.452-6.452-6.452-3.555 0-6.452 2.898-6.452 6.452 0 3.553 2.897 6.451 6.452 6.451Z" fill="#3E3965"/><path d="M326.198 221.739a2.569 2.569 0 0 0 2.564-2.563 2.57 2.57 0 0 0-2.564-2.564 2.57 2.57 0 0 0-2.564 2.564 2.569 2.569 0 0 0 2.564 2.563Z" fill="#F14F1B"/><path d="M326.198 250.148c5.189 0 9.422-4.234 9.422-9.424 0-5.19-4.233-9.423-9.422-9.423-5.191 0-9.424 4.233-9.424 9.423s4.233 9.424 9.424 9.424Z" fill="#B43221"/><path d="M326.198 247.175c3.553 0 6.452-2.897 6.452-6.451s-2.899-6.452-6.452-6.452c-3.555 0-6.452 2.898-6.452 6.452s2.897 6.451 6.452 6.451Z" fill="#3E3965"/><path d="M326.198 243.288a2.57 2.57 0 0 0 2.564-2.564 2.57 2.57 0 0 0-2.564-2.564 2.57 2.57 0 0 0-2.564 2.564 2.57 2.57 0 0 0 2.564 2.564Z" fill="#F14F1B"/><path d="M326.198 271.696c5.189 0 9.422-4.234 9.422-9.424 0-5.191-4.233-9.423-9.422-9.423-5.191 0-9.424 4.232-9.424 9.423 0 5.19 4.233 9.424 9.424 9.424Z" fill="#B43221"/><path d="M326.198 268.724c3.553 0 6.452-2.899 6.452-6.452s-2.899-6.452-6.452-6.452c-3.555 0-6.452 2.899-6.452 6.452s2.897 6.452 6.452 6.452Z" fill="#3E3965"/><path d="M326.198 264.836a2.57 2.57 0 0 0 2.564-2.564 2.57 2.57 0 0 0-2.564-2.564 2.57 2.57 0 0 0-2.564 2.564 2.57 2.57 0 0 0 2.564 2.564Z" fill="#F14F1B"/><path d="M326.198 293.243c5.189 0 9.422-4.233 9.422-9.422 0-5.191-4.233-9.424-9.422-9.424-5.191 0-9.424 4.233-9.424 9.424 0 5.189 4.233 9.422 9.424 9.422Z" fill="#B43221"/><path d="M326.198 290.271c3.553 0 6.452-2.897 6.452-6.45 0-3.555-2.899-6.452-6.452-6.452-3.555 0-6.452 2.897-6.452 6.452 0 3.553 2.897 6.45 6.452 6.45Z" fill="#3E3965"/><path d="M326.198 286.385a2.57 2.57 0 0 0 2.564-2.564 2.57 2.57 0 0 0-2.564-2.564 2.57 2.57 0 0 0-2.564 2.564 2.57 2.57 0 0 0 2.564 2.564Z" fill="#F14F1B"/></g></g><defs><clipPath id="a"><path fill="#fff" d="M0 0h415v308H0z"/></clipPath></defs></svg>