<svg
      xmlns="http://www.w3.org/2000/svg"
      width="546"
      height="384"
      fill="none"
    >
      <path
        fill="#3C1415"
        fillRule="evenodd"
        d="M79.074 346.624H49.483l1.514-2.853v-3.776l1.567-1.714-.83-1.074 1.433-1.365v-2.009l9.993-40.723-1.273-1.004 1.527-1.139v-2.922l3.296-6.227-1.045-.83 1.42-.94v-3.055l4.005-7.527-1.138-1.111 1.5-1.3v-1.54h2.157l2.25-9.084-.938-.734 1.366-.806-.066-.161.67-.507-.135-.203 1.166-.535 1.152-9.204 1.152 9.204 1.152.535-.134.203.67.507-.067.161 1.38.806-.938.734 2.237 9.084h2.143v1.54l1.514 1.3-1.126 1.111 3.992 7.527v3.055l1.434.94-1.072.83 3.322 6.227v2.922l1.514 1.139-1.286 1.004 10.02 40.723v2.009l1.433 1.365-.829 1.074 1.567 1.714v3.776l1.512 2.853h-29.59z"
        clipRule="evenodd"
      ></path>
      <path
        fill="#ED1F24"
        fillRule="evenodd"
        d="M97.64 227.028c-5.01-.093-4.046-3.148-7.903-3.001-3.845.162-3.242-.548-6.899-2.304l-3.697-1.619v14.506l5.746-1.138 6.993-1.245c2.451-2.051 3.697-3.148 7.153-2.144 3.441 1.005 6.589-2.654 6.589-2.654-3.587.94-2.987-.295-7.982-.401z"
        clipRule="evenodd"
      ></path>
      <path
        fill="#3C1415"
        fillRule="evenodd"
        d="M79.208 251.608h-.215v-31.56h.215v31.56zm387.734 95.016h-29.605l1.499-2.853v-3.776l1.581-1.714-.844-1.074 1.447-1.365v-2.009l10.021-40.723-1.273-1.004 1.499-1.139v-2.922l3.309-6.227-1.07-.83 1.447-.94v-3.055l3.978-7.527-1.138-1.111 1.512-1.3v-1.54h2.171l2.249-9.084-.936-.734 1.365-.806-.065-.161.682-.507-.147-.203 1.138-.535 1.18-9.204 1.139 9.204 1.166.535-.134.203.668.507-.068.161 1.382.806-.94.734 2.212 9.084h2.171v1.54l1.512 1.3-1.138 1.111 3.991 7.527v3.055l1.434.94-1.074.83 3.31 6.227v2.922l1.515 1.139-1.272 1.004 10.007 40.723v2.009l1.443 1.365-.843 1.074 1.581 1.714v3.776l1.502 2.853h-29.564z"
        clipRule="evenodd"
      ></path>
      <path
        fill="#ED1F24"
        fillRule="evenodd"
        d="M485.494 227.028c-4.996-.093-4.06-3.148-7.904-3.001-3.858.162-3.254-.548-6.9-2.304l-3.683-1.619v14.506l5.72-1.138 7.006-1.245c2.438-2.051 3.711-3.148 7.167-2.144 3.443 1.005 6.591-2.654 6.591-2.654-3.618.94-3-.295-7.997-.401z"
        clipRule="evenodd"
      ></path>
      <path
        fill="#3C1415"
        fillRule="evenodd"
        d="M467.076 251.608h-.244v-31.56h.244v31.56zm34.988 107.207H43.91l-4.862-4.89v-5.292l4.862-4.89h458.154l4.891 4.89v5.292l-4.891 4.89z"
        clipRule="evenodd"
      ></path>
      <path
        fill="#3C1415"
        fillRule="evenodd"
        d="M523.967 372.573H22.022l-4.876-4.853v-5.329l4.876-4.849h501.945l4.887 4.849v5.329l-4.887 4.853z"
        clipRule="evenodd"
      ></path>
      <path
        fill="#3C1415"
        fillRule="evenodd"
        d="M541.113 383.128H4.876L0 378.265v-5.319l4.876-4.862h536.237l4.887 4.862v5.319l-4.887 4.863z"
        clipRule="evenodd"
      ></path>
      <path
        fill="#ED1F24"
        fillRule="evenodd"
        d="M322.739 19.276c-13.33-.24-10.799-8.398-21.087-7.983-10.26.387-8.652-1.475-18.405-6.15-5.706-2.746-8.439-3.83-9.873-4.354v38.74c3.351.912 9.86 1.81 15.353-3.014 7.743-6.818 12.15 2.119 18.673-3.347 6.525-5.466 9.872-8.412 19.09-5.748 9.201 2.679 17.613-7.047 17.613-7.047-9.616 2.507-8.011-.83-21.364-1.097z"
        clipRule="evenodd"
      ></path>
      <path
        fill="#3C1415"
        fillRule="evenodd"
        d="M273.577 84.915h-1.125V.683h1.125v84.232z"
        clipRule="evenodd"
      ></path>
      <path
        fill="#3C1415"
        fillRule="evenodd"
        d="M350.09 334.393l3.19-1.968-3.149-4.757 1.475-5.198c-.106-37.667-4.06-75.818-11.855-113.889 3.549-.24 5.624-.789 5.785-1.742.203-1.043-1.9-2.449-5.891-4.043l1.31-7.678c-3.858-6.283-7.874-12.51-12.123-18.659 3.19-.268 4.983-.751 5.117-1.526.137-.899-2.102-2.092-6.187-3.392l1.005-8.007a408.072 408.072 0 00-16.827-21.999c3.577-.6 5.668-1.406 5.802-2.503.106-1.245-2.507-2.706-7.112-4.06l.333-4.112a483.07 483.07 0 00-10.768-.737 601.468 601.468 0 00-10.316-24.78c3.107-.415 4.983-.977 5.011-1.701.051-.871-2.747-1.797-7.195-2.479l.377-.442-3.511-1.407.751-.534c.013-.618-2.48-1.221-6.176-1.554a1007.27 1007.27 0 00-5.762-23.096v10.69h-.586V73.434a1121.354 1121.354 0 00-5.95 23.792c-3.696.333-6.162.936-6.135 1.553l.738.535-3.512 1.407.377.442c-4.461.682-7.235 1.608-7.208 2.479.041.724 1.917 1.286 5.01 1.701-3.628 8.223-7.085 16.474-10.325 24.78-3.591.202-7.167.456-10.758.737l.333 4.112c-4.619 1.354-7.205 2.815-7.099 4.06.107 1.097 2.212 1.917 5.803 2.503a438.673 438.673 0 00-16.855 21.999l1.032 8.007c-4.084 1.3-6.32 2.493-6.186 3.392.106.775 1.927 1.258 5.089 1.526a418.148 418.148 0 00-12.082 18.659l1.286 7.678c-4.005 1.58-6.097 3-5.895 4.043.175.967 2.25 1.502 5.813 1.742-7.836 38.071-11.776 76.222-11.869 113.889l1.475 5.198-3.148 4.757 3.175 1.968-3.148 5.734c.991 3.241 1.996 6.454 2.987 9.67l-1.701 8.481c17.308-5.627 35.082-8.642 52.965-10.449v-76.692c0-14.372 11.642-25.987 26.014-25.987 14.348 0 25.974 11.615 25.974 25.987v76.692c17.911 1.807 35.671 4.822 52.978 10.449l-1.701-8.481c1.005-3.216 1.969-6.429 2.973-9.67l-3.148-5.734z"
        clipRule="evenodd"
      ></path>
      <path
        fill="#ED1F24"
        fillRule="evenodd"
        d="M178.923 138.403c-8.611-.172-6.965-5.412-13.584-5.158-6.628.271-5.596-.936-11.865-3.951-3.686-1.755-5.452-2.479-6.365-2.798v24.955c2.157.603 6.338 1.166 9.887-1.941 4.983-4.396 7.822 1.365 12.043-2.143 4.205-3.539 6.362-5.425 12.298-3.711 5.919 1.729 11.344-4.554 11.344-4.554-6.19 1.632-5.158-.511-13.758-.699z"
        clipRule="evenodd"
      ></path>
      <path
        fill="#3C1415"
        fillRule="evenodd"
        d="M147.216 180.719h-.71v-54.305h.71v54.305z"
        clipRule="evenodd"
      ></path>
      <path
        fill="#3C1415"
        fillRule="evenodd"
        d="M196.552 341.533l2.065-1.272-2.037-3.083.936-3.347c-.065-24.286-2.586-48.867-7.647-73.41l3.751-1.111-3.806-2.613.843-4.955a263.386 263.386 0 00-7.808-12.016l3.296-.992-3.992-2.184.655-5.154c-3.416-4.798-7.057-9.54-10.85-14.201l3.724-1.608-4.568-2.613.216-2.637-6.941-.484c-2.074-5.342-4.314-10.675-6.656-15.98l3.241-1.084-4.647-1.608.254-.281-2.277-.899.48-.36-3.964-.991a661.944 661.944 0 00-3.738-14.883v6.886h-.36v-7.356a681.425 681.425 0 00-3.831 15.353l-3.954.991.47.36-2.263.899.226.281-4.633 1.608 3.227 1.084a398.723 398.723 0 00-6.656 15.98l-6.913.484.202 2.637-4.581 2.613 3.737 1.608a284.42 284.42 0 00-10.863 14.201l.668 5.154-3.991 2.184 3.281.992a280.323 280.323 0 00-7.798 12.016l.834 4.955-3.793 2.613 3.751 1.111c-5.05 24.543-7.595 49.162-7.662 73.41l.964 3.347-2.05 3.083 2.064 1.272-2.023 3.683 1.902 6.255-1.085 5.466c11.145-3.617 22.626-5.6 34.145-6.766v-49.429c0-9.242 7.517-16.745 16.759-16.745 9.255 0 16.758 7.503 16.758 16.745v49.429c11.533 1.166 22.987 3.149 34.145 6.766l-1.087-5.466 1.904-6.255-2.024-3.683z"
        clipRule="evenodd"
      ></path>
      <path
        fill="#ED1F24"
        fillRule="evenodd"
        d="M431.202 138.403c-8.6-.172-6.964-5.412-13.583-5.158-6.605.271-5.6-.936-11.869-3.951-3.683-1.755-5.452-2.479-6.364-2.798v24.955c2.143.603 6.364 1.166 9.886-1.941 4.983-4.396 7.836 1.365 12.058-2.143 4.18-3.539 6.361-5.425 12.283-3.711 5.933 1.729 11.358-4.554 11.358-4.554-6.2 1.632-5.154-.511-13.769-.699z"
        clipRule="evenodd"
      ></path>
      <path
        fill="#3C1415"
        fillRule="evenodd"
        d="M399.523 180.719h-.737v-54.305h.737v54.305z"
        clipRule="evenodd"
      ></path>
      <path
        fill="#3C1415"
        fillRule="evenodd"
        d="M448.856 341.533l2.051-1.272-2.051-3.083.94-3.347c-.028-24.286-2.586-48.867-7.637-73.41l3.751-1.111-3.792-2.613.806-4.955c-2.439-4.047-5.052-8.049-7.771-12.016l3.282-.992-3.978-2.184.631-5.154a265.548 265.548 0 00-10.85-14.201l3.748-1.608-4.582-2.613.203-2.637-6.938-.484c-2.064-5.342-4.314-10.675-6.632-15.98l3.213-1.084-4.646-1.608.267-.281-2.277-.899.47-.36-3.954-.991c-1.176-4.969-2.449-9.927-3.724-14.883v6.886h-.36v-7.356c-1.341 5.103-2.651 10.237-3.844 15.353l-3.965.991.467.36-2.236.899.226.281-4.646 1.608 3.24 1.084a349.765 349.765 0 00-6.656 15.98l-6.941.484.216 2.637-4.595 2.613 3.752 1.608a265.045 265.045 0 00-10.851 14.201l.628 5.154-3.978 2.184 3.323.992c-2.761 3.967-5.332 7.969-7.808 12.016l.829 4.955-3.816 2.613 3.748 1.111c-5.048 24.543-7.568 49.162-7.634 73.41l.937 3.347-2.037 3.083 2.037 1.272-2.01 3.683 1.917 6.255-1.073 5.466c11.145-3.617 22.598-5.6 34.121-6.766v-49.429c0-9.242 7.513-16.745 16.782-16.745 9.242 0 16.745 7.503 16.745 16.745v49.429c11.519 1.166 23 3.149 34.118 6.766l-1.07-5.466 1.914-6.255-2.01-3.683z"
        clipRule="evenodd"
      ></path>
    </svg>