<svg width="107" height="168" fill="none" xmlns="http://www.w3.org/2000/svg"><g clip-path="url(#a)"><path d="M.083 161.072h107.016v-5.88H.083v5.88Z" fill="#232329"/><path d="M107.179 142.477h-2.047a1.989 1.989 0 0 0-1.997 1.98v23.451h6.04v-23.451c0-1.094-.894-1.98-1.996-1.98Z" fill="#2E2E38"/><path d="m104.91 157.549-1.775-1.386v.825l1.37 1.07a.327.327 0 0 0 .46-.054.323.323 0 0 0-.055-.455Zm0-7.044-1.775-1.387v.826l1.37 1.07a.33.33 0 0 0 .46-.054.323.323 0 0 0-.055-.455Zm0 1.761-1.775-1.387v.826l1.37 1.07a.33.33 0 0 0 .46-.054.323.323 0 0 0-.055-.455Zm0-3.522-1.775-1.387v.826l1.37 1.07a.332.332 0 0 0 .46-.054.322.322 0 0 0-.055-.455Zm0-3.522-1.686-1.318a1.95 1.95 0 0 0-.089.553v.203l1.37 1.071a.33.33 0 0 0 .46-.055.321.321 0 0 0-.055-.454Zm0 1.76-1.775-1.386v.825l1.37 1.07a.33.33 0 0 0 .46-.054.323.323 0 0 0-.055-.455Zm.055 7.5a.323.323 0 0 0-.055-.455l-1.775-1.386v.825l1.37 1.07a.33.33 0 0 0 .46-.054Zm0 12.328a.323.323 0 0 0-.055-.455l-1.775-1.386v.825l1.37 1.07a.326.326 0 0 0 .241.067.327.327 0 0 0 .219-.121Zm-.322 1.098-1.508-1.178v.825l.451.353h1.057Zm-.138-23.939a.33.33 0 0 0 .46-.054.323.323 0 0 0-.055-.455l-.853-.667a2.01 2.01 0 0 0-.488.445l.936.731Zm.405 18.864-1.775-1.387v.826l1.37 1.07a.33.33 0 0 0 .46-.054.323.323 0 0 0-.055-.455Zm0-1.761-1.775-1.387v.826l1.37 1.07a.33.33 0 0 0 .46-.054.323.323 0 0 0-.055-.455Zm0 3.522-1.775-1.386v.825l1.37 1.07a.33.33 0 0 0 .46-.054.323.323 0 0 0-.055-.455Zm0-5.283-1.775-1.387v.826l1.37 1.07a.33.33 0 0 0 .46-.054.322.322 0 0 0-.055-.455Zm0-3.523-1.775-1.386v.825l1.37 1.071a.327.327 0 0 0 .241.066.323.323 0 0 0 .164-.576Zm2.49-8.806a.323.323 0 0 0-.054.455.328.328 0 0 0 .459.054l1.37-1.07v-.825l-1.775 1.386Zm0 1.762a.323.323 0 0 0-.054.455.33.33 0 0 0 .459.054l1.37-1.07v-.826l-1.775 1.387Zm0 1.761a.322.322 0 0 0-.053.455c.111.14.317.165.458.054l1.37-1.07v-.826l-1.775 1.387Zm0 1.761a.323.323 0 0 0-.054.455.33.33 0 0 0 .459.054l1.37-1.07v-.826l-1.775 1.387Zm1.687-8.362-1.687 1.318a.322.322 0 0 0-.054.454.33.33 0 0 0 .459.055l1.37-1.071v-.203a1.95 1.95 0 0 0-.088-.553Zm.088 23.651v-.825l-1.507 1.178h1.056l.451-.353Zm-1.37-.691 1.37-1.07v-.825l-1.775 1.386a.323.323 0 0 0-.054.455.328.328 0 0 0 .459.054Zm-.459-1.815a.328.328 0 0 0 .459.054l1.37-1.07v-.825l-1.775 1.386a.323.323 0 0 0-.054.455Zm.054-2.216a.323.323 0 0 0-.054.455.33.33 0 0 0 .459.054l1.37-1.07v-.826l-1.775 1.387Zm-.054-18.918a.328.328 0 0 0 .459.054l.936-.731a1.987 1.987 0 0 0-.487-.445l-.854.667a.323.323 0 0 0-.054.455Zm0 10.567a.328.328 0 0 0 .459.054l1.37-1.07v-.825l-1.775 1.386a.324.324 0 0 0-.054.455Zm.054 6.59a.323.323 0 0 0-.054.455.328.328 0 0 0 .459.054l1.37-1.07v-.826l-1.775 1.387Zm0-5.284a.323.323 0 0 0-.054.455.33.33 0 0 0 .459.055l1.37-1.071v-.825l-1.775 1.386Zm0 1.761a.323.323 0 0 0-.054.455.328.328 0 0 0 .459.054l1.37-1.07v-.825l-1.775 1.386Zm0 1.762a.323.323 0 0 0-.054.455.33.33 0 0 0 .459.054l1.37-1.07v-.826l-1.775 1.387Z" fill="#232329"/><path d="M92.962 142.477h-2.047a1.988 1.988 0 0 0-1.997 1.98v23.451h6.04v-23.451c0-1.094-.894-1.98-1.996-1.98Z" fill="#2E2E38"/><path d="m90.693 157.549-1.775-1.386v.825l1.37 1.07a.325.325 0 0 0 .46-.054.322.322 0 0 0-.055-.455Zm0-7.044-1.775-1.387v.826l1.37 1.07a.33.33 0 0 0 .46-.054.322.322 0 0 0-.055-.455Zm0 1.761-1.775-1.387v.826l1.37 1.07a.33.33 0 0 0 .46-.054.322.322 0 0 0-.055-.455Zm0-3.522-1.775-1.387v.826l1.37 1.07a.33.33 0 0 0 .46-.054.322.322 0 0 0-.055-.455Zm0-3.522-1.686-1.318a1.94 1.94 0 0 0-.089.553v.203l1.37 1.071a.33.33 0 0 0 .46-.055.321.321 0 0 0-.055-.454Zm0 1.76-1.775-1.386v.825l1.37 1.07a.328.328 0 0 0 .46-.054.322.322 0 0 0-.055-.455Zm.054 7.5a.323.323 0 0 0-.054-.455l-1.775-1.386v.825l1.37 1.07a.328.328 0 0 0 .46-.054Zm0 12.328a.322.322 0 0 0-.054-.455l-1.775-1.386v.825l1.37 1.07a.325.325 0 0 0 .46-.054Zm-.321 1.098-1.508-1.178v.825l.451.353h1.057Zm-.138-23.939a.328.328 0 0 0 .46-.054.322.322 0 0 0-.055-.455l-.853-.667c-.188.12-.35.272-.488.445l.936.731Zm.405 18.864-1.775-1.387v.826l1.37 1.07a.33.33 0 0 0 .46-.054.322.322 0 0 0-.055-.455Zm0-1.761-1.775-1.387v.826l1.37 1.07a.324.324 0 0 0 .241.067.325.325 0 0 0 .218-.121.322.322 0 0 0-.054-.455Zm0 3.522-1.775-1.386v.825l1.37 1.07a.328.328 0 0 0 .46-.054.322.322 0 0 0-.055-.455Zm0-5.283-1.775-1.387v.826l1.37 1.07a.324.324 0 0 0 .241.067.325.325 0 0 0 .218-.121.322.322 0 0 0-.054-.455Zm0-3.523-1.775-1.386v.825l1.37 1.071a.325.325 0 0 0 .241.066.325.325 0 0 0 .164-.576Zm2.49-8.806a.322.322 0 0 0-.054.455.329.329 0 0 0 .46.054l1.37-1.07v-.825l-1.776 1.386Zm0 1.762a.322.322 0 0 0-.054.455.33.33 0 0 0 .46.054l1.37-1.07v-.826l-1.776 1.387Zm0 1.761a.322.322 0 0 0-.054.455c.112.14.318.165.46.054l1.37-1.07v-.826l-1.776 1.387Zm0 1.761a.322.322 0 0 0-.054.455.33.33 0 0 0 .46.054l1.37-1.07v-.826l-1.776 1.387Zm1.686-8.362-1.686 1.318a.321.321 0 0 0-.054.454.33.33 0 0 0 .46.055l1.37-1.071v-.203a1.94 1.94 0 0 0-.09-.553Zm.09 23.651v-.825l-1.509 1.178h1.057l.451-.353Zm-1.37-.691 1.37-1.07v-.825l-1.776 1.386a.322.322 0 0 0-.054.455.329.329 0 0 0 .46.054Zm-.46-1.815a.329.329 0 0 0 .46.054l1.37-1.07v-.825l-1.776 1.386a.322.322 0 0 0-.054.455Zm.054-2.216a.322.322 0 0 0-.054.455.33.33 0 0 0 .46.054l1.37-1.07v-.826l-1.776 1.387Zm-.054-18.918a.329.329 0 0 0 .46.054l.935-.731a2.01 2.01 0 0 0-.487-.445l-.854.667a.322.322 0 0 0-.054.455Zm0 10.567a.329.329 0 0 0 .46.054l1.37-1.07v-.825l-1.776 1.386a.322.322 0 0 0-.054.455Zm.054 6.59a.322.322 0 0 0-.054.455.329.329 0 0 0 .46.054l1.37-1.07v-.826l-1.776 1.387Zm0-5.284a.322.322 0 0 0-.054.455.33.33 0 0 0 .46.055l1.37-1.071v-.825l-1.776 1.386Zm0 1.761a.322.322 0 0 0-.054.455.329.329 0 0 0 .46.054l1.37-1.07v-.825l-1.776 1.386Zm0 1.762a.322.322 0 0 0-.054.455.33.33 0 0 0 .46.054l1.37-1.07v-.826l-1.776 1.387Z" fill="#232329"/><path d="M16.267 142.477h-2.046a1.988 1.988 0 0 0-1.997 1.98v23.451h6.04v-23.451c0-1.094-.894-1.98-1.997-1.98Z" fill="#2E2E38"/><path d="m13.999 157.549-1.775-1.386v.825l1.37 1.07a.327.327 0 0 0 .46-.054.322.322 0 0 0-.055-.455Zm0-7.044-1.775-1.387v.826l1.37 1.07a.33.33 0 0 0 .46-.054.322.322 0 0 0-.055-.455Zm0 1.761-1.775-1.387v.826l1.37 1.07a.33.33 0 0 0 .46-.054.322.322 0 0 0-.055-.455Zm0-3.522-1.775-1.387v.826l1.37 1.07a.33.33 0 0 0 .46-.054.322.322 0 0 0-.055-.455Zm0-3.522-1.686-1.318a1.94 1.94 0 0 0-.089.553v.203l1.37 1.071a.33.33 0 0 0 .46-.055.321.321 0 0 0-.055-.454Zm0 1.76-1.775-1.386v.825l1.37 1.07a.329.329 0 0 0 .46-.054.322.322 0 0 0-.055-.455Zm.054 7.5a.323.323 0 0 0-.054-.455l-1.775-1.386v.825l1.37 1.07a.329.329 0 0 0 .46-.054Zm0 12.328a.322.322 0 0 0-.054-.455l-1.775-1.386v.825l1.37 1.07a.326.326 0 0 0 .24.067.325.325 0 0 0 .22-.121Zm-.321 1.098-1.508-1.178v.825l.45.353h1.058Zm-.138-23.939a.329.329 0 0 0 .46-.054.322.322 0 0 0-.055-.455l-.854-.667c-.188.12-.349.272-.487.445l.936.731Zm.405 18.864-1.775-1.387v.826l1.37 1.07a.33.33 0 0 0 .46-.054.322.322 0 0 0-.055-.455Zm0-1.761-1.775-1.387v.826l1.37 1.07a.33.33 0 0 0 .46-.054.322.322 0 0 0-.055-.455Zm0 3.522-1.775-1.386v.825l1.37 1.07a.329.329 0 0 0 .46-.054.322.322 0 0 0-.055-.455Zm0-5.283-1.775-1.387v.826l1.37 1.07a.33.33 0 0 0 .46-.054.322.322 0 0 0-.055-.455Zm0-3.523-1.775-1.386v.825l1.37 1.071a.326.326 0 0 0 .24.066.322.322 0 0 0 .164-.576Zm2.49-8.806a.322.322 0 0 0-.054.455.328.328 0 0 0 .459.054l1.37-1.07v-.825l-1.775 1.386Zm0 1.762a.322.322 0 0 0-.054.455.33.33 0 0 0 .459.054l1.37-1.07v-.826l-1.775 1.387Zm0 1.761a.322.322 0 0 0-.054.455c.112.14.317.165.459.054l1.37-1.07v-.826l-1.775 1.387Zm0 1.761a.322.322 0 0 0-.054.455.33.33 0 0 0 .459.054l1.37-1.07v-.826l-1.775 1.387Zm1.686-8.362-1.686 1.318a.321.321 0 0 0-.054.454.33.33 0 0 0 .459.055l1.37-1.071v-.203a1.94 1.94 0 0 0-.089-.553Zm.089 23.651v-.825l-1.508 1.178h1.057l.45-.353Zm-1.37-.691 1.37-1.07v-.825l-1.775 1.386a.322.322 0 0 0-.054.455.328.328 0 0 0 .459.054Zm-.46-1.815a.328.328 0 0 0 .46.054l1.37-1.07v-.825l-1.775 1.386a.322.322 0 0 0-.054.455Zm.055-2.216a.322.322 0 0 0-.054.455.33.33 0 0 0 .459.054l1.37-1.07v-.826l-1.775 1.387Zm-.054-18.918a.328.328 0 0 0 .459.054l.936-.731a2.007 2.007 0 0 0-.487-.445l-.854.667a.322.322 0 0 0-.054.455Zm0 10.567a.328.328 0 0 0 .459.054l1.37-1.07v-.825l-1.775 1.386a.325.325 0 0 0-.054.455Zm.054 6.59a.322.322 0 0 0 .164.576.325.325 0 0 0 .24-.067l1.37-1.07v-.826l-1.774 1.387Zm0-5.284a.322.322 0 0 0 .164.576.325.325 0 0 0 .24-.066l1.37-1.071v-.825l-1.774 1.386Zm0 1.761a.322.322 0 0 0 .043.538c.037.02.078.034.121.039a.327.327 0 0 0 .24-.068l1.37-1.07v-.825l-1.774 1.386Zm0 1.762a.322.322 0 0 0 .164.576.325.325 0 0 0 .24-.067l1.37-1.07v-.826l-1.774 1.387Z" fill="#232329"/><path d="M2.05 142.477H.004a1.988 1.988 0 0 0-1.997 1.98v23.451h6.04v-23.451c0-1.094-.894-1.98-1.997-1.98Z" fill="#2E2E38"/><path d="m-.218 157.549-1.775-1.386v.825l1.37 1.07a.328.328 0 0 0 .459-.054.322.322 0 0 0-.054-.455Zm0-7.044-1.775-1.387v.826l1.37 1.07a.329.329 0 0 0 .459-.054.322.322 0 0 0-.054-.455Zm0 1.761-1.775-1.387v.826l1.37 1.07a.329.329 0 0 0 .459-.054.322.322 0 0 0-.054-.455Zm0-3.522-1.775-1.387v.826l1.37 1.07a.33.33 0 0 0 .459-.054.322.322 0 0 0-.054-.455Zm0-3.522-1.687-1.318c-.051.177-.088.36-.088.553v.203l1.37 1.071a.33.33 0 0 0 .459-.055.321.321 0 0 0-.054-.454Zm0 1.76-1.775-1.386v.825l1.37 1.07a.328.328 0 0 0 .459-.054.322.322 0 0 0-.054-.455Zm.054 7.5a.323.323 0 0 0-.054-.455l-1.775-1.386v.825l1.37 1.07a.328.328 0 0 0 .459-.054Zm0 12.328a.322.322 0 0 0-.054-.455l-1.775-1.386v.825l1.37 1.07a.328.328 0 0 0 .459-.054Zm-.322 1.098-1.507-1.178v.825l.45.353h1.057Zm-.137-23.939a.328.328 0 0 0 .459-.054.322.322 0 0 0-.054-.455l-.854-.667c-.188.12-.35.272-.487.445l.936.731Zm.405 18.864-1.775-1.387v.826l1.37 1.07a.329.329 0 0 0 .459-.054.322.322 0 0 0-.054-.455Zm0-1.761-1.775-1.387v.826l1.37 1.07a.328.328 0 0 0 .459-.054.322.322 0 0 0-.054-.455Zm0 3.522-1.775-1.386v.825l1.37 1.07a.328.328 0 0 0 .459-.054.322.322 0 0 0-.054-.455Zm0-5.283-1.775-1.387v.826l1.37 1.07a.33.33 0 0 0 .459-.054.322.322 0 0 0-.054-.455Zm0-3.523-1.775-1.386v.825l1.37 1.071a.33.33 0 0 0 .459-.055.322.322 0 0 0-.054-.455Zm2.49-8.806a.323.323 0 0 0-.055.455.329.329 0 0 0 .46.054l1.37-1.07v-.825l-1.775 1.386Zm0 1.762a.323.323 0 0 0-.055.455.33.33 0 0 0 .46.054l1.37-1.07v-.826l-1.775 1.387Zm0 1.761a.323.323 0 0 0-.054.455.33.33 0 0 0 .459.054l1.37-1.07v-.826l-1.775 1.387Zm0 1.761a.323.323 0 0 0-.055.455.33.33 0 0 0 .46.054l1.37-1.07v-.826l-1.775 1.387Zm1.686-8.362-1.686 1.318a.321.321 0 0 0-.055.454.33.33 0 0 0 .46.055l1.37-1.071v-.203c0-.193-.037-.376-.089-.553Zm.089 23.651v-.825l-1.508 1.178h1.057l.45-.353Zm-1.37-.691 1.37-1.07v-.825l-1.775 1.386a.323.323 0 0 0-.055.455.329.329 0 0 0 .46.054Zm-.46-1.815a.329.329 0 0 0 .46.054l1.37-1.07v-.825l-1.775 1.386a.323.323 0 0 0-.055.455Zm.055-2.216a.323.323 0 0 0-.055.455.33.33 0 0 0 .46.054l1.37-1.07v-.826l-1.775 1.387Zm-.055-18.918a.329.329 0 0 0 .46.054l.936-.731a2.004 2.004 0 0 0-.487-.445l-.854.667a.323.323 0 0 0-.055.455Zm0 10.567a.329.329 0 0 0 .46.054l1.37-1.07v-.825l-1.775 1.386a.323.323 0 0 0-.055.455Zm.055 6.59a.323.323 0 0 0-.055.455.329.329 0 0 0 .46.054l1.37-1.07v-.826l-1.775 1.387Zm0-5.284a.323.323 0 0 0-.055.455.33.33 0 0 0 .46.055l1.37-1.071v-.825l-1.775 1.386Zm0 1.761a.323.323 0 0 0-.055.455.329.329 0 0 0 .46.054l1.37-1.07v-.825l-1.775 1.386Zm0 1.762a.323.323 0 0 0-.055.455.33.33 0 0 0 .46.054l1.37-1.07v-.826l-1.775 1.387Z" fill="#232329"/><path d="M101.343 167.908h-4.602v-29.67h4.602v29.67Z" fill="#6245A3"/><path d="M100.162 142.477h.374v-4.239h-.374v4.239Zm-2.614 0h.373v-4.239h-.373v4.239Zm.753-2.119.74-.754.743.754-.742.754-.741-.754Zm1.861 6.357h.374v-4.238h-.374v4.238Zm-2.614 0h.373v-4.238h-.373v4.238Zm.753-2.119.74-.754.743.754-.742.755-.741-.755Zm1.861 6.358h.374v-4.239h-.374v4.239Zm-2.614 0h.373v-4.239h-.373v4.239Zm.753-2.119.74-.755.743.755-.742.754-.741-.754Zm1.861 6.357h.374v-4.238h-.374v4.238Zm-2.614 0h.373v-4.238h-.373v4.238Zm.753-2.119.74-.754.743.754-.742.755-.741-.755ZM100.162 159.431h.374v-4.239h-.374v4.239Zm-2.614 0h.373v-4.239h-.373v4.239Zm.753-2.119.74-.755.743.755-.742.754-.741-.754Zm1.861 6.357h.374v-4.238h-.374v4.238Zm-2.614 0h.373v-4.238h-.373v4.238Zm.753-2.119.74-.755.743.755-.742.754-.741-.754Zm1.861 6.358h.374v-4.239h-.374v4.239Zm-2.614 0h.373v-4.239h-.373v4.239Zm.753-2.12.74-.754.743.754-.742.755-.741-.755Z" fill="#F6C60D"/><path d="M86.678 167.908h-4.602v-29.67h4.602v29.67Z" fill="#6245A3"/><path d="M85.497 142.477h.374v-4.239h-.374v4.239Zm-2.614 0h.373v-4.239h-.373v4.239Zm.752-2.119.741-.754.742.754-.742.754-.74-.754Zm1.862 6.357h.374v-4.238h-.374v4.238Zm-2.614 0h.373v-4.238h-.373v4.238Zm.752-2.119.741-.754.742.754-.742.755-.74-.755Zm1.862 6.358h.374v-4.239h-.374v4.239Zm-2.614 0h.373v-4.239h-.373v4.239Zm.752-2.119.741-.755.742.755-.742.754-.74-.754Zm1.862 6.357h.374v-4.238h-.374v4.238Zm-2.614 0h.373v-4.238h-.373v4.238Zm.752-2.119.741-.754.742.754-.742.755-.74-.755ZM85.497 159.431h.374v-4.239h-.374v4.239Zm-2.614 0h.373v-4.239h-.373v4.239Zm.752-2.119.741-.755.742.755-.742.754-.74-.754Zm1.862 6.357h.374v-4.238h-.374v4.238Zm-2.614 0h.373v-4.238h-.373v4.238Zm.752-2.119.741-.755.742.755-.742.754-.74-.754Zm1.862 6.358h.374v-4.239h-.374v4.239Zm-2.614 0h.373v-4.239h-.373v4.239Zm.752-2.12.741-.754.742.754-.742.755-.74-.755Z" fill="#F6C60D"/><path d="M25.107 167.908h-4.603v-29.67h4.603v29.67Z" fill="#6245A3"/><path d="M23.925 142.477h.374v-4.239h-.374v4.239Zm-2.614 0h.373v-4.239h-.373v4.239Zm.753-2.119.74-.754.743.754-.742.754-.741-.754Zm1.861 6.357h.374v-4.238h-.374v4.238Zm-2.614 0h.373v-4.238h-.373v4.238Zm.753-2.119.74-.754.743.754-.742.755-.741-.755Zm1.861 6.358h.374v-4.239h-.374v4.239Zm-2.614 0h.373v-4.239h-.373v4.239Zm.753-2.119.74-.755.743.755-.742.754-.741-.754Zm1.861 6.357h.374v-4.238h-.374v4.238Zm-2.614 0h.373v-4.238h-.373v4.238Zm.753-2.119.74-.754.743.754-.742.755-.741-.755ZM23.925 159.431h.374v-4.239h-.374v4.239Zm-2.614 0h.373v-4.239h-.373v4.239Zm.753-2.119.74-.755.743.755-.742.754-.741-.754Zm1.861 6.357h.374v-4.238h-.374v4.238Zm-2.614 0h.373v-4.238h-.373v4.238Zm.753-2.119.74-.755.743.755-.742.754-.741-.754Zm1.861 6.358h.374v-4.239h-.374v4.239Zm-2.614 0h.373v-4.239h-.373v4.239Zm.753-2.12.74-.754.743.754-.742.755-.741-.755Z" fill="#F6C60D"/><path d="M10.441 167.908H5.839v-29.67h4.602v29.67Z" fill="#6245A3"/><path d="M9.26 142.477h.374v-4.239H9.26v4.239Zm-2.614 0h.373v-4.239h-.373v4.239Zm.752-2.119.741-.754.742.754-.742.754-.74-.754Zm1.862 6.357h.374v-4.238H9.26v4.238Zm-2.614 0h.373v-4.238h-.373v4.238Zm.752-2.119.741-.754.742.754-.742.755-.74-.755Zm1.862 6.358h.374v-4.239H9.26v4.239Zm-2.614 0h.373v-4.239h-.373v4.239Zm.752-2.119.741-.755.742.755-.742.754-.74-.754Zm1.862 6.357h.374v-4.238H9.26v4.238Zm-2.614 0h.373v-4.238h-.373v4.238Zm.752-2.119.741-.754.742.754-.742.755-.74-.755ZM9.26 159.431h.374v-4.239H9.26v4.239Zm-2.614 0h.373v-4.239h-.373v4.239Zm.752-2.119.741-.755.742.755-.742.754-.74-.754Zm1.862 6.357h.374v-4.238H9.26v4.238Zm-2.614 0h.373v-4.238h-.373v4.238Zm.752-2.119.741-.755.742.755-.742.754-.74-.754Zm1.862 6.358h.374v-4.239H9.26v4.239Zm-2.614 0h.373v-4.239h-.373v4.239Zm.752-2.12.741-.754.742.754-.742.755-.74-.755Z" fill="#F6C60D"/><path d="M78.961 142.963h-50.74v-4.259h50.74v4.259Z" fill="#AC9476"/><path d="M28.22 132.92h50.741V87.993h-50.74v44.927Z" fill="#232329"/><path d="M78.961 119.591h-50.74v13.329h50.74v-13.329Z" fill="#3C3B4B"/><path d="M78.961 119.591H45.277l19.25 13.329H78.96v-13.329Z" fill="#2C2B36"/><path d="M39.482 119.591v1.568h15.487l-2.264-1.568H39.482Zm4.247 2.94v1.568h15.488l-2.265-1.568H43.73Zm4.247 2.941v1.567h15.488l-2.265-1.567H47.976Zm4.247 2.94v1.568H67.71l-2.265-1.568H52.223Zm4.247 2.94v1.568h15.488l-2.264-1.568H56.47Z" fill="#3C3B4B"/><path d="M30.275 132.92h3.5v-27.66h-3.5v27.66Z" fill="#6D4EAB"/><path d="M29.805 106.263h4.44v-4.751h-4.44v4.751Z" fill="#B31C2A"/><path d="M31.015 132.92h.374v-4.443h-.374v4.443Zm1.646 0h.373v-4.443h-.373v4.443Z" fill="#fff"/><path d="m32.492 130.699-.467.79-.467-.79.467-.792.467.792Z" fill="#F6C60D"/><path d="M31.015 128.477h.374v-4.443h-.374v4.443Zm1.646 0h.373v-4.443h-.373v4.443Z" fill="#fff"/><path d="m32.492 126.256-.467.791-.467-.791.467-.792.467.792Z" fill="#D31C31"/><path d="M31.015 124.034h.374v-4.443h-.374v4.443Zm1.646 0h.373v-4.443h-.373v4.443Z" fill="#fff"/><path d="m32.492 121.813-.467.791-.467-.791.467-.791.467.791Z" fill="#F6C60D"/><path d="M31.015 119.591h.374v-4.442h-.374v4.442Zm1.646 0h.373v-4.442h-.373v4.442Z" fill="#fff"/><path d="m32.492 117.37-.467.791-.467-.791.467-.791.467.791Z" fill="#D31C31"/><path d="M31.015 115.149h.374v-4.443h-.374v4.443Zm1.646 0h.373v-4.443h-.373v4.443Z" fill="#fff"/><path d="m32.492 112.927-.467.791-.467-.791.467-.791.467.791Z" fill="#F6C60D"/><path d="M31.015 110.706h.374v-4.443h-.374v4.443Zm1.646 0h.373v-4.443h-.373v4.443Z" fill="#fff"/><path d="m32.492 108.484-.467.791-.467-.791.467-.791.467.791Z" fill="#D31C31"/><path d="M22.584 132.92h3.5v-27.66h-3.5v27.66Z" fill="#6D4EAB"/><path d="M22.114 106.263h4.44v-6.232h-4.44v6.232Z" fill="#B31C2A"/><path d="M23.325 132.92h.373v-4.443h-.373v4.443Zm1.646 0h.373v-4.443h-.373v4.443Z" fill="#fff"/><path d="m24.801 130.699-.466.79-.467-.79.467-.792.466.792Z" fill="#F6C60D"/><path d="M23.325 128.477h.373v-4.443h-.373v4.443Zm1.646 0h.373v-4.443h-.373v4.443Z" fill="#fff"/><path d="m24.801 126.256-.466.791-.467-.791.467-.792.466.792Z" fill="#D31C31"/><path d="M23.325 124.034h.373v-4.443h-.373v4.443Zm1.646 0h.373v-4.443h-.373v4.443Z" fill="#fff"/><path d="m24.801 121.813-.466.791-.467-.791.467-.791.466.791Z" fill="#F6C60D"/><path d="M23.325 119.591h.373v-4.442h-.373v4.442Zm1.646 0h.373v-4.442h-.373v4.442Z" fill="#fff"/><path d="m24.801 117.37-.466.791-.467-.791.467-.791.466.791Z" fill="#D31C31"/><path d="M23.325 115.149h.373v-4.443h-.373v4.443Zm1.646 0h.373v-4.443h-.373v4.443Z" fill="#fff"/><path d="m24.801 112.927-.466.791-.467-.791.467-.791.466.791Z" fill="#F6C60D"/><path d="M23.325 110.706h.373v-4.443h-.373v4.443Zm1.646 0h.373v-4.443h-.373v4.443Z" fill="#fff"/><path d="m24.801 108.484-.466.791-.467-.791.467-.791.466.791Z" fill="#D31C31"/><path d="M37.227 132.92h5.56v-27.66h-5.56v27.66Z" fill="#6D4EAB"/><path d="M36.48 106.263h7.054v-4.751H36.48v4.751Z" fill="#B31C2A"/><path d="M38.513 132.92h.374v-4.443h-.374v4.443Zm2.614 0h.374v-4.443h-.374v4.443Z" fill="#fff"/><path d="m40.749 130.699-.742.79-.741-.79.741-.792.742.792Z" fill="#F6C60D"/><path d="M38.513 128.477h.374v-4.443h-.374v4.443Zm2.614 0h.374v-4.443h-.374v4.443Z" fill="#fff"/><path d="m40.749 126.256-.742.791-.741-.791.741-.792.742.792Z" fill="#D31C31"/><path d="M38.513 124.034h.374v-4.443h-.374v4.443Zm2.614 0h.374v-4.443h-.374v4.443Z" fill="#fff"/><path d="m40.749 121.813-.742.791-.741-.791.741-.791.742.791Z" fill="#F6C60D"/><path d="M38.513 119.591h.374v-4.442h-.374v4.442Zm2.614 0h.374v-4.442h-.374v4.442Z" fill="#fff"/><path d="m40.749 117.37-.742.791-.741-.791.741-.791.742.791Z" fill="#D31C31"/><path d="M38.513 115.149h.374v-4.443h-.374v4.443Zm2.614 0h.374v-4.443h-.374v4.443Z" fill="#fff"/><path d="m40.749 112.927-.742.791-.741-.791.741-.791.742.791Z" fill="#F6C60D"/><path d="M38.513 110.706h.374v-4.443h-.374v4.443Zm2.614 0h.374v-4.443h-.374v4.443Z" fill="#fff"/><path d="m40.749 108.484-.742.791-.741-.791.741-.791.742.791Z" fill="#D31C31"/><path d="M15.26 102.622h11.892v-2.591H15.261v2.591Z" fill="#F6C60D"/><path d="M18.217 114.257h.373v-11.635h-.373v11.635Z" fill="#2E2E38"/><path d="M19.68 104.412a1.27 1.27 0 0 1-1.276 1.265 1.27 1.27 0 0 1-1.276-1.265 1.27 1.27 0 0 1 1.276-1.265 1.27 1.27 0 0 1 1.276 1.265Zm0 3.281a1.27 1.27 0 0 1-1.276 1.265 1.27 1.27 0 0 1-1.276-1.265c0-.698.571-1.265 1.276-1.265.704 0 1.276.567 1.276 1.265Zm0 3.282c0 .698-.572 1.265-1.276 1.265a1.271 1.271 0 0 1-1.276-1.265 1.27 1.27 0 0 1 1.276-1.265 1.27 1.27 0 0 1 1.276 1.265Zm0 3.281a1.27 1.27 0 0 1-1.276 1.265 1.27 1.27 0 0 1-1.276-1.265 1.27 1.27 0 0 1 1.276-1.264 1.27 1.27 0 0 1 1.276 1.264Z" fill="#F6C60D"/><path d="M24.148 114.257h.373v-11.635h-.373v11.635Z" fill="#2E2E38"/><path d="M25.61 104.412a1.27 1.27 0 0 1-1.275 1.265 1.27 1.27 0 0 1-1.277-1.265 1.27 1.27 0 0 1 1.277-1.265 1.27 1.27 0 0 1 1.275 1.265Zm0 3.281a1.27 1.27 0 0 1-1.275 1.265 1.27 1.27 0 0 1-1.277-1.265c0-.698.572-1.265 1.277-1.265.704 0 1.275.567 1.275 1.265Zm0 3.282c0 .698-.571 1.265-1.275 1.265a1.271 1.271 0 0 1-1.277-1.265 1.27 1.27 0 0 1 1.277-1.265 1.27 1.27 0 0 1 1.275 1.265Zm0 3.281a1.27 1.27 0 0 1-1.275 1.265 1.27 1.27 0 0 1-1.277-1.265 1.27 1.27 0 0 1 1.277-1.264 1.27 1.27 0 0 1 1.275 1.264Z" fill="#F6C60D"/><path d="M31.838 114.257h.373v-11.635h-.373v11.635Z" fill="#2E2E38"/><path d="M33.3 104.412a1.27 1.27 0 0 1-1.275 1.265 1.27 1.27 0 0 1-1.276-1.265 1.27 1.27 0 0 1 1.276-1.265 1.27 1.27 0 0 1 1.276 1.265Zm0 3.281a1.27 1.27 0 0 1-1.275 1.265 1.27 1.27 0 0 1-1.276-1.265c0-.698.571-1.265 1.276-1.265.704 0 1.276.567 1.276 1.265Zm0 3.282c0 .698-.57 1.265-1.275 1.265a1.271 1.271 0 0 1-1.276-1.265 1.27 1.27 0 0 1 1.276-1.265 1.27 1.27 0 0 1 1.276 1.265Zm0 3.281a1.27 1.27 0 0 1-1.275 1.265 1.27 1.27 0 0 1-1.276-1.265 1.27 1.27 0 0 1 1.276-1.264 1.27 1.27 0 0 1 1.276 1.264Z" fill="#F6C60D"/><path d="M39.82 114.257h.374v-11.635h-.374v11.635Z" fill="#2E2E38"/><path d="M41.283 104.412a1.27 1.27 0 0 1-1.276 1.265 1.27 1.27 0 0 1-1.276-1.265 1.27 1.27 0 0 1 1.276-1.265 1.27 1.27 0 0 1 1.276 1.265Zm0 3.281a1.27 1.27 0 0 1-1.276 1.265 1.27 1.27 0 0 1-1.276-1.265c0-.698.572-1.265 1.276-1.265.705 0 1.276.567 1.276 1.265Zm0 3.282c0 .698-.571 1.265-1.276 1.265a1.271 1.271 0 0 1-1.276-1.265 1.27 1.27 0 0 1 1.276-1.265 1.27 1.27 0 0 1 1.276 1.265Zm0 3.281a1.27 1.27 0 0 1-1.276 1.265 1.27 1.27 0 0 1-1.276-1.265 1.27 1.27 0 0 1 1.276-1.264 1.27 1.27 0 0 1 1.276 1.264Z" fill="#F6C60D"/><path d="M76.908 132.92h-3.5v-27.66h3.5v27.66Z" fill="#6D4EAB"/><path d="M77.377 106.263h-4.44v-4.751h4.44v4.751Z" fill="#B31C2A"/><path d="M75.793 132.92h.373v-4.443h-.373v4.443Zm-1.645 0h.373v-4.443h-.373v4.443Z" fill="#fff"/><path d="m74.69 130.699.467.79.467-.79-.467-.792-.466.792Z" fill="#F6C60D"/><path d="M75.793 128.477h.373v-4.443h-.373v4.443Zm-1.645 0h.373v-4.443h-.373v4.443Z" fill="#fff"/><path d="m74.69 126.256.467.791.467-.791-.467-.792-.466.792Z" fill="#D31C31"/><path d="M75.793 124.034h.373v-4.443h-.373v4.443Zm-1.645 0h.373v-4.443h-.373v4.443Z" fill="#fff"/><path d="m74.69 121.813.467.791.467-.791-.467-.791-.466.791Z" fill="#F6C60D"/><path d="M75.793 119.591h.373v-4.442h-.373v4.442Zm-1.645 0h.373v-4.442h-.373v4.442Z" fill="#fff"/><path d="m74.69 117.37.467.791.467-.791-.467-.791-.466.791Z" fill="#D31C31"/><path d="M75.793 115.149h.373v-4.443h-.373v4.443Zm-1.645 0h.373v-4.443h-.373v4.443Z" fill="#fff"/><path d="m74.69 112.927.467.791.467-.791-.467-.791-.466.791Z" fill="#F6C60D"/><path d="M75.793 110.706h.373v-4.443h-.373v4.443Zm-1.645 0h.373v-4.443h-.373v4.443Z" fill="#fff"/><path d="m74.69 108.484.467.791.467-.791-.467-.791-.466.791Z" fill="#D31C31"/><path d="M84.598 132.92h-3.5v-27.66h3.5v27.66Z" fill="#6D4EAB"/><path d="M80.628 106.263h4.44v-6.233h-4.44v6.233Z" fill="#B31C2A"/><path d="M83.483 132.92h.374v-4.443h-.374v4.443Zm-1.645 0h.373v-4.443h-.373v4.443Z" fill="#fff"/><path d="m82.381 130.699.466.79.467-.79-.467-.792-.466.792Z" fill="#F6C60D"/><path d="M83.483 128.477h.374v-4.443h-.374v4.443Zm-1.645 0h.373v-4.443h-.373v4.443Z" fill="#fff"/><path d="m82.381 126.256.466.791.467-.791-.467-.792-.466.792Z" fill="#D31C31"/><path d="M83.483 124.034h.374v-4.443h-.374v4.443Zm-1.645 0h.373v-4.443h-.373v4.443Z" fill="#fff"/><path d="m82.381 121.813.466.791.467-.791-.467-.791-.466.791Z" fill="#F6C60D"/><path d="M83.483 119.591h.374v-4.442h-.374v4.442Zm-1.645 0h.373v-4.442h-.373v4.442Z" fill="#fff"/><path d="m82.381 117.37.466.791.467-.791-.467-.791-.466.791Z" fill="#D31C31"/><path d="M83.483 115.149h.374v-4.443h-.374v4.443Zm-1.645 0h.373v-4.443h-.373v4.443Z" fill="#fff"/><path d="m82.381 112.927.466.791.467-.791-.467-.791-.466.791Z" fill="#F6C60D"/><path d="M83.483 110.706h.374v-4.443h-.374v4.443Zm-1.645 0h.373v-4.443h-.373v4.443Z" fill="#fff"/><path d="m82.381 108.484.466.791.467-.791-.467-.791-.466.791Z" fill="#D31C31"/><path d="M69.956 132.92h-5.561v-27.66h5.56v27.66Z" fill="#6D4EAB"/><path d="M70.702 106.263h-7.054v-4.751h7.054v4.751Z" fill="#B31C2A"/><path d="M68.295 132.92h.374v-4.443h-.374v4.443Zm-2.614 0h.374v-4.443h-.374v4.443Z" fill="#fff"/><path d="m66.433 130.699.741.79.742-.79-.742-.792-.74.792Z" fill="#F6C60D"/><path d="M68.295 128.477h.374v-4.443h-.374v4.443Zm-2.614 0h.374v-4.443h-.374v4.443Z" fill="#fff"/><path d="m66.433 126.256.741.791.742-.791-.742-.792-.74.792Z" fill="#D31C31"/><path d="M68.295 124.034h.374v-4.443h-.374v4.443Zm-2.614 0h.374v-4.443h-.374v4.443Z" fill="#fff"/><path d="m66.433 121.813.741.791.742-.791-.742-.791-.74.791Z" fill="#F6C60D"/><path d="M68.295 119.591h.374v-4.442h-.374v4.442Zm-2.614 0h.374v-4.442h-.374v4.442Z" fill="#fff"/><path d="m66.433 117.37.741.791.742-.791-.742-.791-.74.791Z" fill="#D31C31"/><path d="M68.295 115.149h.374v-4.443h-.374v4.443Zm-2.614 0h.374v-4.443h-.374v4.443Z" fill="#fff"/><path d="m66.433 112.927.741.791.742-.791-.742-.791-.74.791Z" fill="#F6C60D"/><path d="M68.295 110.706h.374v-4.443h-.374v4.443Zm-2.614 0h.374v-4.443h-.374v4.443Z" fill="#fff"/><path d="m66.433 108.484.741.791.742-.791-.742-.791-.74.791Z" fill="#D31C31"/><path d="M80.03 102.622H91.92v-2.592H80.03v2.592Z" fill="#F6C60D"/><path d="M88.592 114.257h.373v-11.635h-.373v11.635Z" fill="#2E2E38"/><path d="M87.503 104.412a1.27 1.27 0 0 0 1.275 1.265 1.27 1.27 0 0 0 1.276-1.265 1.27 1.27 0 0 0-1.276-1.265 1.27 1.27 0 0 0-1.275 1.265Zm0 3.281a1.27 1.27 0 0 0 1.275 1.265 1.27 1.27 0 0 0 1.276-1.265c0-.698-.571-1.265-1.276-1.265a1.27 1.27 0 0 0-1.275 1.265Zm0 3.282a1.27 1.27 0 0 0 1.275 1.265c.705 0 1.276-.567 1.276-1.265a1.27 1.27 0 0 0-1.276-1.265 1.27 1.27 0 0 0-1.275 1.265Zm0 3.281a1.27 1.27 0 0 0 1.275 1.265 1.27 1.27 0 0 0 1.276-1.265 1.27 1.27 0 0 0-1.276-1.264 1.27 1.27 0 0 0-1.275 1.264Z" fill="#F6C60D"/><path d="M82.66 114.257h.374v-11.635h-.373v11.635Z" fill="#2E2E38"/><path d="M81.572 104.412a1.27 1.27 0 0 0 1.275 1.265 1.27 1.27 0 0 0 1.277-1.265 1.27 1.27 0 0 0-1.277-1.265 1.27 1.27 0 0 0-1.275 1.265Zm0 3.281a1.27 1.27 0 0 0 1.275 1.265 1.27 1.27 0 0 0 1.277-1.265c0-.698-.572-1.265-1.277-1.265a1.27 1.27 0 0 0-1.275 1.265Zm0 3.282a1.27 1.27 0 0 0 1.275 1.265c.705 0 1.277-.567 1.277-1.265a1.27 1.27 0 0 0-1.277-1.265 1.27 1.27 0 0 0-1.275 1.265Zm0 3.281a1.27 1.27 0 0 0 1.275 1.265 1.27 1.27 0 0 0 1.277-1.265 1.27 1.27 0 0 0-1.277-1.264 1.27 1.27 0 0 0-1.275 1.264Z" fill="#F6C60D"/><path d="M74.97 114.257h.374v-11.635h-.374v11.635Z" fill="#2E2E38"/><path d="M73.881 104.412a1.27 1.27 0 0 0 1.276 1.265 1.27 1.27 0 0 0 1.276-1.265 1.27 1.27 0 0 0-1.276-1.265 1.27 1.27 0 0 0-1.276 1.265Zm0 3.281a1.27 1.27 0 0 0 1.276 1.265 1.27 1.27 0 0 0 1.276-1.265c0-.698-.571-1.265-1.276-1.265a1.27 1.27 0 0 0-1.276 1.265Zm0 3.282a1.27 1.27 0 0 0 1.276 1.265c.705 0 1.276-.567 1.276-1.265a1.27 1.27 0 0 0-1.276-1.265 1.27 1.27 0 0 0-1.276 1.265Zm0 3.281a1.27 1.27 0 0 0 1.276 1.265 1.27 1.27 0 0 0 1.276-1.265 1.27 1.27 0 0 0-1.276-1.264 1.27 1.27 0 0 0-1.276 1.264Z" fill="#F6C60D"/><path d="M66.988 114.257h.374v-11.635h-.374v11.635Z" fill="#2E2E38"/><path d="M65.899 104.412a1.27 1.27 0 0 0 1.276 1.265 1.27 1.27 0 0 0 1.276-1.265 1.27 1.27 0 0 0-1.276-1.265 1.27 1.27 0 0 0-1.276 1.265Zm0 3.281a1.27 1.27 0 0 0 1.276 1.265 1.27 1.27 0 0 0 1.276-1.265 1.27 1.27 0 0 0-1.276-1.265c-.705 0-1.276.567-1.276 1.265Zm0 3.282c0 .698.571 1.265 1.276 1.265a1.27 1.27 0 0 0 1.276-1.265 1.27 1.27 0 0 0-1.276-1.265 1.27 1.27 0 0 0-1.276 1.265Zm0 3.281a1.27 1.27 0 0 0 1.276 1.265 1.27 1.27 0 0 0 1.276-1.265 1.27 1.27 0 0 0-1.276-1.264 1.27 1.27 0 0 0-1.276 1.264Zm-2.841-26.444h-.187c0 3.482-1.05 6.632-2.736 8.901-1.689 2.271-4.001 3.657-6.544 3.657-2.543 0-4.855-1.386-6.544-3.657-1.686-2.27-2.736-5.419-2.736-8.9 0-3.483 1.05-6.632 2.736-8.902 1.689-2.27 4.002-3.657 6.544-3.657 2.543 0 4.855 1.386 6.544 3.657 1.686 2.27 2.737 5.42 2.736 8.901h.374c0-3.555-1.07-6.778-2.81-9.12-1.738-2.341-4.158-3.808-6.844-3.808-2.685 0-5.106 1.466-6.844 3.808-1.74 2.342-2.81 5.565-2.81 9.12 0 3.556 1.07 6.778 2.81 9.12 1.738 2.342 4.159 3.809 6.844 3.809 2.686 0 5.106-1.467 6.844-3.808 1.74-2.343 2.81-5.565 2.81-9.12h-.187Z" fill="#F6C60D"/><path d="m53.59 99.65.003-.186c-2.317-.03-4.428-1.322-5.969-3.426-1.54-2.103-2.499-5.01-2.498-8.226 0-3.215.958-6.123 2.498-8.225 1.541-2.104 3.652-3.397 5.97-3.427l-.003-.185-.003.185c2.318.03 4.428 1.323 5.97 3.427 1.54 2.102 2.498 5.01 2.498 8.225 0 3.216-.959 6.123-2.498 8.226-1.542 2.104-3.652 3.397-5.97 3.427l.003.185.002.185c2.46-.032 4.676-1.406 6.267-3.58 1.591-2.174 2.569-5.155 2.57-8.443-.001-3.288-.979-6.268-2.57-8.443-1.59-2.173-3.806-3.547-6.267-3.58h-.005c-2.46.033-4.676 1.407-6.266 3.58-1.592 2.175-2.57 5.155-2.57 8.443 0 3.288.978 6.269 2.57 8.443 1.59 2.174 3.806 3.547 6.266 3.58h.005l-.002-.185Z" fill="#B81C2C"/><path d="m53.591 98.743.005-.184c-2.092-.06-4-1.26-5.394-3.197-1.393-1.935-2.262-4.601-2.261-7.55 0-2.948.868-5.614 2.26-7.55 1.395-1.936 3.303-3.136 5.395-3.195l-.005-.185-.005.184c2.092.06 4 1.26 5.395 3.196 1.392 1.936 2.26 4.602 2.26 7.55 0 2.949-.867 5.615-2.26 7.55-1.395 1.937-3.303 3.137-5.395 3.197l.005.184.005.185c2.236-.064 4.246-1.345 5.689-3.35 1.443-2.008 2.33-4.745 2.33-7.766 0-3.02-.887-5.758-2.33-7.765-1.443-2.005-3.453-3.286-5.689-3.35h-.01c-2.236.064-4.246 1.345-5.688 3.35-1.444 2.007-2.33 4.745-2.33 7.765 0 3.021.886 5.758 2.33 7.765 1.442 2.006 3.452 3.287 5.688 3.351h.01l-.005-.185Z" fill="#F6C60D"/><path d="m53.591 97.837.009-.185c-1.867-.09-3.573-1.195-4.821-2.965-1.246-1.768-2.024-4.193-2.024-6.875 0-2.682.778-5.106 2.024-6.875 1.248-1.769 2.954-2.875 4.821-2.965l-.009-.184-.009.184c1.867.09 3.573 1.196 4.821 2.965 1.246 1.769 2.024 4.193 2.023 6.875 0 2.682-.777 5.107-2.023 6.875-1.248 1.77-2.954 2.876-4.82 2.965l.008.185.009.185c2.01-.097 3.815-1.285 5.109-3.123 1.295-1.839 2.09-4.334 2.091-7.087 0-2.753-.795-5.247-2.091-7.087-1.294-1.837-3.099-3.026-5.109-3.122h-.018c-2.01.096-3.815 1.285-5.11 3.122-1.295 1.84-2.09 4.334-2.09 7.087s.795 5.248 2.09 7.087c1.295 1.838 3.1 3.026 5.11 3.123h.018l-.009-.185Z" fill="#B81C2C"/><path d="m53.591 96.93.014-.184c-1.643-.118-3.148-1.131-4.249-2.734-1.1-1.6-1.786-3.784-1.786-6.2 0-2.415.687-4.599 1.786-6.2 1.101-1.602 2.606-2.615 4.248-2.733l-.013-.185-.013.185c1.642.118 3.146 1.13 4.248 2.733 1.1 1.601 1.786 3.785 1.786 6.2 0 2.416-.687 4.6-1.786 6.2-1.102 1.603-2.606 2.616-4.248 2.734l.013.184.014.185c1.784-.13 3.383-1.225 4.53-2.894 1.147-1.672 1.85-3.924 1.85-6.409s-.703-4.737-1.85-6.408c-1.147-1.67-2.746-2.765-4.53-2.895h-.027c-1.785.13-3.384 1.225-4.53 2.895-1.147 1.671-1.851 3.923-1.851 6.408 0 2.485.704 4.737 1.85 6.409 1.147 1.67 2.746 2.765 4.53 2.894h.028l-.014-.184Z" fill="#F6C60D"/><path d="m53.591 96.025.02-.185c-1.418-.146-2.722-1.067-3.676-2.502-.954-1.434-1.55-3.376-1.55-5.525 0-2.15.596-4.092 1.55-5.526.954-1.436 2.258-2.356 3.675-2.503l-.019-.184-.02.184c1.418.147 2.722 1.067 3.677 2.503.953 1.434 1.55 3.376 1.549 5.526 0 2.149-.596 4.09-1.55 5.525-.954 1.436-2.258 2.356-3.675 2.502l.019.185.02.184c1.559-.163 2.95-1.166 3.949-2.667.998-1.503 1.61-3.512 1.61-5.73 0-2.217-.612-4.226-1.61-5.73-.998-1.5-2.39-2.503-3.95-2.666h-.038c-1.56.163-2.952 1.166-3.95 2.667-.998 1.503-1.61 3.512-1.61 5.73 0 2.217.612 4.226 1.61 5.729.998 1.501 2.39 2.504 3.95 2.667h.038l-.019-.184Z" fill="#B81C2C"/><path d="m53.591 95.118.027-.183c-1.193-.174-2.297-1.002-3.105-2.27-.808-1.268-1.313-2.97-1.313-4.853 0-1.883.505-3.584 1.313-4.852.808-1.269 1.912-2.096 3.105-2.27l-.027-.184-.027.183c1.193.175 2.297 1.002 3.105 2.271.808 1.268 1.314 2.969 1.313 4.852 0 1.884-.505 3.585-1.313 4.852-.808 1.27-1.912 2.097-3.105 2.271l.027.183.027.184c1.333-.198 2.518-1.107 3.367-2.44.85-1.335 1.37-3.1 1.37-5.05 0-1.949-.52-3.715-1.37-5.05-.849-1.333-2.034-2.242-3.367-2.439h-.054c-1.333.197-2.518 1.106-3.367 2.44-.85 1.334-1.37 3.1-1.37 5.05 0 1.948.52 3.714 1.37 5.049.849 1.333 2.034 2.243 3.367 2.44h.054l-.027-.184Z" fill="#F6C60D"/><path d="m53.591 94.212.038-.181c-.97-.202-1.875-.937-2.537-2.04-.663-1.1-1.077-2.561-1.077-4.179 0-1.617.414-3.078 1.077-4.179.662-1.102 1.567-1.838 2.538-2.04l-.039-.18-.038.18c.97.202 1.876.938 2.538 2.04.662 1.101 1.077 2.562 1.076 4.18 0 1.617-.414 3.078-1.076 4.179-.663 1.102-1.568 1.837-2.538 2.039l.038.18.038.182c1.106-.232 2.083-1.047 2.782-2.212.701-1.166 1.13-2.688 1.13-4.369 0-1.68-.429-3.203-1.13-4.368-.7-1.165-1.676-1.98-2.782-2.213h-.076c-1.106.232-2.082 1.048-2.782 2.213-.7 1.165-1.13 2.688-1.13 4.368 0 1.68.43 3.203 1.13 4.37.7 1.163 1.676 1.98 2.782 2.21h.077l-.039-.18Z" fill="#B81C2C"/><path d="m53.591 93.306.055-.177c-.75-.227-1.458-.871-1.975-1.808-.517-.936-.842-2.156-.842-3.509 0-1.352.325-2.573.842-3.508.517-.937 1.225-1.581 1.975-1.808l-.055-.177-.055.177c.75.227 1.458.87 1.975 1.808.517.935.842 2.156.842 3.508 0 1.353-.325 2.573-.842 3.51-.517.936-1.225 1.58-1.975 1.807l.055.177.055.177c.876-.268 1.642-.989 2.193-1.984.55-.997.887-2.275.887-3.687 0-1.411-.337-2.69-.887-3.686s-1.317-1.716-2.193-1.984a.192.192 0 0 0-.11 0c-.876.268-1.642.988-2.193 1.984-.55.996-.887 2.275-.887 3.686 0 1.412.337 2.69.887 3.687.551.995 1.317 1.716 2.193 1.984.036.01.074.01.11 0l-.055-.177Z" fill="#F6C60D"/><path d="m53.591 92.4.08-.167c-.535-.252-1.047-.808-1.42-1.58-.372-.77-.607-1.752-.606-2.84 0-1.09.234-2.07.607-2.841.372-.772.884-1.328 1.42-1.58l-.081-.167-.08.167c.534.252 1.047.808 1.42 1.58.372.77.607 1.752.607 2.84 0 1.089-.235 2.07-.608 2.841-.372.772-.885 1.328-1.42 1.58l.081.167.08.167c.641-.305 1.196-.928 1.596-1.754.4-.826.644-1.86.644-3 0-1.142-.244-2.175-.644-3.002-.4-.825-.955-1.448-1.595-1.753a.189.189 0 0 0-.162 0c-.64.305-1.195.928-1.595 1.753-.4.827-.644 1.86-.644 3.001 0 1.141.244 2.175.644 3.001.4.826.955 1.449 1.595 1.754.052.024.11.024.162 0l-.081-.167Z" fill="#B81C2C"/><path d="m53.591 91.494.122-.14c-.666-.563-1.257-1.89-1.254-3.542-.003-1.652.588-2.978 1.254-3.54l-.122-.14-.122.14c.666.562 1.257 1.888 1.254 3.54.003 1.652-.588 2.98-1.254 3.541l.122.14.122.14c.784-.675 1.38-2.082 1.383-3.82-.003-1.74-.599-3.146-1.383-3.822a.187.187 0 0 0-.244 0c-.785.676-1.38 2.083-1.383 3.821.003 1.739.598 3.146 1.383 3.822a.187.187 0 0 0 .244 0l-.122-.14Z" fill="#F6C60D"/><path d="m53.591 90.587.173-.069c-.266-.659-.49-1.57-.49-2.706s.224-2.046.49-2.706l-.173-.069-.173.07c.266.659.49 1.569.49 2.705 0 1.137-.224 2.047-.49 2.706l.173.07.173.068c.284-.702.518-1.659.518-2.844 0-1.185-.234-2.141-.518-2.843a.185.185 0 0 0-.173-.117.187.187 0 0 0-.173.117c-.284.702-.517 1.658-.517 2.843s.233 2.142.517 2.844a.187.187 0 0 0 .346 0l-.173-.069Z" fill="#B81C2C"/><path d="m33.906 37.863-1.727-3.67-2.343 3.317 4.07.353Z" fill="#D31C31"/><path d="m35.334 40.46-3.096-6.58-.338.157 3.095 6.58" fill="#232329"/><path d="m29.703 46.113-1.897-3.565-2.166 3.411 4.063.154Z" fill="#F6C60D"/><path d="m31.25 48.626-3.4-6.39-.33.172 3.4 6.39" fill="#232329"/><path d="m25.74 56.488-2.066-3.46-1.99 3.505 4.057-.045Z" fill="#D31C31"/><path d="m27.407 58.915-3.705-6.2-.321.188 3.705 6.201" fill="#232329"/><path d="m22.48 67.727-2.236-3.355-1.812 3.598 4.049-.243Z" fill="#F6C60D"/><path d="m24.267 70.069-4.01-6.012-.312.204 4.01 6.012" fill="#232329"/><path d="m20.385 78.567-2.407-3.248-1.634 3.69 4.041-.442Z" fill="#D31C31"/><path d="m22.29 80.825-4.315-5.823-.3.22 4.314 5.822" fill="#232329"/><path d="m19.916 87.75-2.577-3.143-1.457 3.784 4.034-.641Z" fill="#F6C60D"/><path d="m21.94 89.923-4.62-5.633-.29.234 4.62 5.633" fill="#232329"/><path d="m73.276 37.863 1.727-3.67 2.343 3.317-4.07.353Z" fill="#D31C31"/><path d="m72.187 40.617 3.096-6.58-.339-.157-3.096 6.58" fill="#232329"/><path d="m77.48 46.113 1.896-3.565 2.166 3.411-4.063.154Z" fill="#F6C60D"/><path d="m76.262 48.798 3.4-6.39-.33-.173-3.4 6.39" fill="#232329"/><path d="m81.441 56.488 2.067-3.46 1.99 3.505-4.057-.045Z" fill="#D31C31"/><path d="m80.096 59.104 3.705-6.201-.321-.189-3.705 6.201" fill="#232329"/><path d="m84.701 67.727 2.237-3.355 1.812 3.598-4.049-.243Z" fill="#F6C60D"/><path d="m83.227 70.273 4.01-6.012-.312-.204-4.01 6.012" fill="#232329"/><path d="m86.796 78.567 2.407-3.248 1.635 3.69-4.042-.442Z" fill="#D31C31"/><path d="m85.193 81.044 4.315-5.823-.3-.219-4.316 5.823" fill="#232329"/><path d="m87.266 87.75 2.577-3.143 1.457 3.784-4.034-.641Z" fill="#F6C60D"/><path d="m85.533 90.157 4.62-5.633-.29-.234-4.62 5.633.29.234Z" fill="#232329"/><path d="M56.065 32.987h-4.948v-5.615h4.948v5.615ZM52.09 20.985s.06-.341.143-.938c.087-.596.192-1.448.297-2.47.058-.512.102-1.066.155-1.652.057-.585.093-1.203.14-1.842.05-.64.08-1.3.117-1.97.04-.672.069-1.353.09-2.035.023-.682.056-1.363.07-2.034l.044-1.971c.015-1.278.022-2.47.01-3.493-.017-2.046-.101-3.409-.1-3.409h1.073s-.083 1.363-.1 3.409c-.012 1.022-.006 2.215.009 3.493l.044 1.97c.014.672.047 1.353.07 2.035.021.682.05 1.363.09 2.034.037.671.066 1.332.117 1.97.047.64.083 1.258.14 1.843.053.586.097 1.14.155 1.651.105 1.023.21 1.875.297 2.471.082.597.143.938.143.938h-3.004Z" fill="#F0F0EF"/><path d="M55.622 19.797c.855 0 1.229.246 1.525 1.018.296.771.716 2.036 1.51 2.622.793.586 1.12.447 1.12.941 0 .494-.327.355-1.12.941-.794.586-1.214 1.851-1.51 2.623-.296.771-.67 1.018-1.525 1.018H51.56c-.855 0-1.229-.247-1.525-1.018-.295-.772-.715-2.037-1.509-2.623-.794-.586-1.12-.447-1.12-.94 0-.495.327-.356 1.12-.942.794-.586 1.214-1.85 1.51-2.622.295-.772.669-1.018 1.524-1.018h4.062Z" fill="#F6C60D"/><path d="M48.526 25.319c.794.586 1.214 1.851 1.51 2.623.295.771.669 1.018 1.524 1.018h4.062c.855 0 1.229-.247 1.525-1.018.296-.772.716-2.037 1.51-2.623.793-.586 1.12-.447 1.12-.94H47.406c0 .493.327.354 1.12.94Z" fill="#F68712"/><path d="M53.591 14.783c-1.087 0-1.968.69-1.968 1.543h3.937c0-.852-.882-1.543-1.969-1.543Z" fill="#F6C60D"/><path d="M51.623 16.326c0 .852.88 1.542 1.968 1.542 1.087 0 1.969-.69 1.969-1.542h-3.938Z" fill="#F68712"/><path d="M53.591 11.709c-.938 0-1.698.596-1.698 1.33h3.396c0-.734-.76-1.33-1.698-1.33Z" fill="#F6C60D"/><path d="M51.893 13.04c0 .735.76 1.331 1.698 1.331s1.698-.596 1.698-1.331h-3.396Z" fill="#F68712"/><path d="M53.591 8.635c-.789 0-1.428.5-1.428 1.119h2.856c0-.618-.64-1.12-1.428-1.12Z" fill="#F6C60D"/><path d="M52.163 9.754c0 .618.64 1.119 1.428 1.119.789 0 1.428-.5 1.428-1.12h-2.856Z" fill="#F68712"/><path d="M35.26 38.463C26.67 50.603 20.51 81.272 20.51 100.03h23.02V36.843s-4.099.37-8.269 1.62Z" fill="#2E2E38"/><path d="M48.882 31.752h-2.698s-7.142 2.962-10.924 6.71l8.268-1.619 5.354-5.09Z" fill="#B81C2C"/><path d="M71.921 38.463c8.59 12.14 14.752 42.809 14.752 61.568h-23.02V36.843s4.098.37 8.268 1.62Z" fill="#232329"/><path d="M58.3 31.752h2.698s7.142 2.962 10.923 6.71l-8.268-1.619-5.353-5.09Z" fill="#B81C2C"/><path d="M42.645 85.035h21.892s2.822 6.424 8.622 11.417h3.877c0-39.325-13.382-59.609-13.382-59.609H43.528S30.146 57.127 30.146 96.452h3.877c5.8-4.993 8.622-11.416 8.622-11.416Z" fill="#B31C2A"/><path d="M43.372 36.742c-.015.022-13.413 20.343-13.413 59.71h.374c0-19.642 3.342-34.523 6.681-44.493 1.67-4.985 3.34-8.741 4.59-11.25a51.334 51.334 0 0 1 1.511-2.825c.182-.315.325-.55.422-.707l.11-.175.038-.058-.313-.202Zm.041 2.877a.313.313 0 0 1-.16-.413.311.311 0 0 1 .416-.15c.159.073.231.258.16.413a.314.314 0 0 1-.416.15Z" fill="#fff"/><path d="M42.19 42.464a.308.308 0 0 1-.176-.405.317.317 0 0 1 .414-.167.31.31 0 0 1 .175.404.32.32 0 0 1-.414.168Zm-1.115 2.888a.306.306 0 0 1-.188-.397.32.32 0 0 1 .409-.181c.165.06.249.238.188.397a.321.321 0 0 1-.409.181Zm-1.014 2.925a.307.307 0 0 1-.2-.392.32.32 0 0 1 .403-.193c.166.055.256.23.2.392a.321.321 0 0 1-.403.193Zm-.922 2.954a.308.308 0 0 1-.212-.386.317.317 0 0 1 .396-.204.31.31 0 0 1 .212.386.318.318 0 0 1-.395.204Zm-.842 2.978a.31.31 0 0 1-.224-.38.315.315 0 0 1 .388-.217c.17.047.27.217.225.382a.316.316 0 0 1-.389.215Zm-.775 2.995a.315.315 0 0 1-.236-.376.311.311 0 0 1 .38-.225c.17.041.276.21.237.376a.312.312 0 0 1-.38.225Zm-.717 3.01a.307.307 0 0 1-.239-.37.32.32 0 0 1 .382-.232.307.307 0 0 1 .238.37.321.321 0 0 1-.381.232Zm-.617 3.032a.312.312 0 0 1-.25-.365.315.315 0 0 1 .372-.242.312.312 0 0 1 .25.365.316.316 0 0 1-.372.242Zm-.575 3.04a.317.317 0 0 1-.262-.361.31.31 0 0 1 .363-.25c.173.03.29.192.262.36a.31.31 0 0 1-.363.25Zm-.506 3.051a.31.31 0 0 1-.264-.354.317.317 0 0 1 .365-.257.31.31 0 0 1 .263.355.318.318 0 0 1-.364.256Zm-.44 3.061a.316.316 0 0 1-.275-.349.311.311 0 0 1 .354-.264c.174.023.297.18.276.35a.312.312 0 0 1-.355.263Zm-.396 3.068a.308.308 0 0 1-.276-.343.318.318 0 0 1 .355-.27.31.31 0 0 1 .276.343.319.319 0 0 1-.355.27Zm-.316 3.076a.315.315 0 0 1-.288-.338.31.31 0 0 1 .344-.277c.175.017.304.169.288.338a.311.311 0 0 1-.344.277Zm-.285 3.08a.308.308 0 0 1-.288-.333.318.318 0 0 1 .345-.283.31.31 0 0 1 .288.334.318.318 0 0 1-.345.282Zm-.207 3.085a.316.316 0 0 1-.3-.328.31.31 0 0 1 .334-.289c.175.011.31.159.3.329a.31.31 0 0 1-.334.288Zm-.171 3.089a.31.31 0 0 1-.3-.324c.009-.17.159-.302.334-.294a.31.31 0 0 1 .3.324.317.317 0 0 1-.334.294Zm-.113 3.09a.318.318 0 0 1-.312-.32.31.31 0 0 1 .324-.299.318.318 0 0 1 .311.32.31.31 0 0 1-.323.299Zm-.057 3.092a.311.311 0 0 1-.312-.314.315.315 0 0 1 .323-.304.313.313 0 0 1 .313.313.316.316 0 0 1-.324.305Zm12.754-57.216c-.01.02-10.055 20.334-10.055 59.69h.373c0-19.647 2.507-34.534 5.013-44.506 1.253-4.987 2.505-8.745 3.444-11.255.47-1.255.86-2.198 1.133-2.827.137-.314.244-.55.317-.706.073-.157.11-.233.11-.233l-.335-.163Zm.36 3.118a.318.318 0 0 1-.202-.404.319.319 0 0 1 .401-.209.32.32 0 0 1 .203.404.321.321 0 0 1-.401.209Z" fill="#fff"/><path d="M45.304 42.96a.318.318 0 0 1-.218-.397.324.324 0 0 1 .398-.222.315.315 0 0 1 .213.395.322.322 0 0 1-.393.223Zm-.83 3.107a.32.32 0 0 1-.23-.39.317.317 0 1 1 .615.156.318.318 0 0 1-.385.234Zm-.754 3.128a.321.321 0 0 1-.24-.385.317.317 0 1 1 .62.141.318.318 0 0 1-.38.244Zm-.686 3.142a.323.323 0 0 1-.25-.38.32.32 0 0 1 .379-.25.32.32 0 0 1 .244.378.317.317 0 0 1-.373.252Zm-.62 3.156a.315.315 0 0 1-.25-.373.323.323 0 0 1 .375-.258c.172.032.284.2.25.374a.324.324 0 0 1-.374.257Zm-.549 3.17a.318.318 0 0 1-.26-.37.32.32 0 0 1 .368-.264.321.321 0 0 1-.108.634Zm-.502 3.176a.32.32 0 0 1-.268-.365.318.318 0 0 1 .36-.272.322.322 0 0 1-.091.637Zm-.46 3.183a.315.315 0 0 1-.268-.36.323.323 0 0 1 .36-.277.315.315 0 0 1 .27.36.325.325 0 0 1-.361.277Zm-.382 3.193a.318.318 0 0 1-.278-.356.32.32 0 0 1 .354-.283c.174.02.298.18.277.356a.32.32 0 0 1-.353.283Zm-.356 3.196a.323.323 0 0 1-.286-.352.316.316 0 0 1 .345-.289.324.324 0 0 1 .287.353.317.317 0 0 1-.346.288Zm-.295 3.202a.318.318 0 0 1-.287-.348.321.321 0 0 1 .346-.293.322.322 0 0 1-.059.64Zm-.257 3.205a.322.322 0 0 1 .042-.642.323.323 0 0 1 .296.344.317.317 0 0 1-.338.298Zm-.212 3.209a.322.322 0 0 1 .043-.642.322.322 0 0 1-.043.642Zm-.169 3.21a.322.322 0 0 1 .026-.642c.175.008.311.159.305.336a.318.318 0 0 1-.33.307Zm-.127 3.213a.322.322 0 0 1 .025-.642.322.322 0 0 1-.025.642Zm-.091 3.214a.323.323 0 0 1-.313-.329.315.315 0 0 1 .321-.313.324.324 0 0 1 .314.328.316.316 0 0 1-.322.314Zm-.043 3.216a.318.318 0 0 1-.313-.325.32.32 0 0 1 .322-.319.319.319 0 0 1 .313.325.321.321 0 0 1-.322.319Zm9.411-57.094c-.006.016-6.7 20.32-6.7 59.666h.373c0-19.652 1.672-34.544 3.343-44.521.836-4.989 1.671-8.748 2.297-11.26.313-1.255.574-2.2.756-2.828a41.092 41.092 0 0 1 .286-.943l-.355-.114Zm10.063.114s.026.078.074.235c.73 2.356 6.608 22.47 6.608 59.317h.373c0-39.345-6.694-59.65-6.7-59.666l-.355.114Zm2.5 2.98a.321.321 0 0 1-.198-.613.318.318 0 0 1 .4.21.317.317 0 0 1-.202.403Zm.933 3.079a.321.321 0 0 1-.393-.223.315.315 0 0 1 .214-.395.324.324 0 0 1 .397.222.317.317 0 0 1-.218.396Zm.83 3.108a.322.322 0 0 1-.155-.624.317.317 0 0 1 .385.234.32.32 0 0 1-.23.39Zm.754 3.128a.322.322 0 0 1-.14-.628c.171-.04.341.07.38.243a.321.321 0 0 1-.24.385Zm.686 3.142a.316.316 0 0 1-.373-.252.32.32 0 0 1 .244-.378.322.322 0 0 1 .129.63Zm.62 3.156a.325.325 0 0 1-.375-.257.316.316 0 0 1 .25-.374.323.323 0 0 1 .374.258.315.315 0 0 1-.25.373Zm.549 3.17a.322.322 0 0 1-.108-.635.32.32 0 0 1 .367.266.317.317 0 0 1-.259.368Zm.501 3.176a.322.322 0 0 1-.092-.637.318.318 0 0 1 .36.272.321.321 0 0 1-.268.365Zm.46 3.183a.325.325 0 0 1-.36-.277.315.315 0 0 1 .269-.36c.173-.023.335.1.36.277a.314.314 0 0 1-.268.36Zm.383 3.193a.32.32 0 0 1-.353-.283.32.32 0 0 1 .278-.356.32.32 0 0 1 .353.283.318.318 0 0 1-.278.356Zm.356 3.196a.317.317 0 0 1-.346-.288.324.324 0 0 1 .287-.353.316.316 0 0 1 .346.289.323.323 0 0 1-.287.352Zm.295 3.202a.322.322 0 0 1-.059-.64.321.321 0 0 1 .346.292.317.317 0 0 1-.287.348Zm.257 3.205a.318.318 0 0 1-.338-.298.317.317 0 1 1 .634-.047.323.323 0 0 1-.296.345Zm.212 3.209a.322.322 0 0 1-.338-.302.318.318 0 1 1 .634-.038.317.317 0 0 1-.296.34Zm.169 3.21a.317.317 0 0 1-.33-.306.323.323 0 0 1 .304-.336.317.317 0 0 1 .33.306.323.323 0 0 1-.304.337Zm.127 3.213a.321.321 0 0 1-.33-.31.318.318 0 0 1 .305-.332.322.322 0 0 1 .025.642Zm.091 3.214a.316.316 0 0 1-.322-.314.324.324 0 0 1 .314-.328.316.316 0 0 1 .321.313.323.323 0 0 1-.313.33Zm.043 3.216a.322.322 0 0 1-.009-.644.32.32 0 0 1 .322.319.318.318 0 0 1-.313.325Z" fill="#fff"/><path d="M60.97 36.925s.039.076.112.233c1.092 2.352 9.906 22.457 9.906 59.294h.374c0-39.356-10.045-59.67-10.056-59.69l-.335.163Zm2.799 2.694a.314.314 0 0 1-.417-.15.316.316 0 0 1 .161-.414.311.311 0 0 1 .417.15.313.313 0 0 1-.161.414Zm1.224 2.845a.32.32 0 0 1-.414-.168.31.31 0 0 1 .175-.404.317.317 0 0 1 .414.167.307.307 0 0 1-.175.405Zm1.114 2.888a.321.321 0 0 1-.408-.181.307.307 0 0 1 .187-.397.32.32 0 0 1 .41.18.307.307 0 0 1-.19.398Zm1.014 2.925a.321.321 0 0 1-.403-.194.308.308 0 0 1 .2-.39.319.319 0 0 1 .403.192.307.307 0 0 1-.2.392Zm.922 2.954a.318.318 0 0 1-.396-.204.31.31 0 0 1 .212-.386.318.318 0 0 1 .396.204.309.309 0 0 1-.212.386Zm.842 2.978a.316.316 0 0 1-.389-.215.313.313 0 0 1 .225-.382c.169-.046.343.05.389.216a.312.312 0 0 1-.225.381Zm.774 2.995a.311.311 0 0 1-.38-.225.316.316 0 0 1 .237-.376.31.31 0 0 1 .38.225.315.315 0 0 1-.237.376Zm.718 3.01a.32.32 0 0 1-.381-.233.307.307 0 0 1 .238-.369.32.32 0 0 1 .382.233.307.307 0 0 1-.239.37Zm.617 3.032a.316.316 0 0 1-.372-.242.312.312 0 0 1 .25-.365.315.315 0 0 1 .373.242.311.311 0 0 1-.25.365Zm.575 3.04a.31.31 0 0 1-.363-.25.318.318 0 0 1 .262-.361.31.31 0 0 1 .364.25.317.317 0 0 1-.263.36Zm.506 3.051a.318.318 0 0 1-.364-.257.31.31 0 0 1 .263-.353.317.317 0 0 1 .364.256.31.31 0 0 1-.263.354Zm.44 3.061a.311.311 0 0 1-.354-.264.316.316 0 0 1 .275-.35.311.311 0 0 1 .354.265.315.315 0 0 1-.275.35Zm.396 3.068a.319.319 0 0 1-.355-.27.31.31 0 0 1 .276-.343c.174-.021.333.1.355.27a.308.308 0 0 1-.276.343Zm.316 3.076a.312.312 0 0 1-.344-.277.316.316 0 0 1 .288-.338.31.31 0 0 1 .344.276.315.315 0 0 1-.288.34Zm.285 3.08a.319.319 0 0 1-.345-.282.31.31 0 0 1 .288-.334.318.318 0 0 1 .345.283.309.309 0 0 1-.288.333Zm.207 3.085a.31.31 0 0 1-.334-.288.318.318 0 0 1 .3-.329.31.31 0 0 1 .334.29.316.316 0 0 1-.3.328Zm.172 3.089a.318.318 0 0 1-.335-.294.31.31 0 0 1 .3-.324.316.316 0 0 1 .335.294.31.31 0 0 1-.3.324Zm.112 3.09a.31.31 0 0 1-.323-.3.318.318 0 0 1 .311-.319.309.309 0 0 1 .324.3.318.318 0 0 1-.312.319Zm.057 3.092a.316.316 0 0 1-.324-.305.313.313 0 0 1 .312-.313.315.315 0 0 1 .324.304.312.312 0 0 1-.312.314Z" fill="#fff"/><path d="m63.498 36.944.037.057c.77 1.205 13.314 21.396 13.314 59.45h.374c0-39.366-13.398-59.687-13.413-59.71l-.313.203Zm-7.598 9.97c.331-.18.669-.421.96-.712.43-.41.74-.94.887-1.422.038-.119.066-.236.085-.344a2.12 2.12 0 0 0 .044-.288c.011-.08.009-.155.01-.202l.001-.074-.01-.012-.076.001c-.047.001-.123-.002-.203.01a2.07 2.07 0 0 0-.291.04c-.11.019-.227.045-.348.082a3.45 3.45 0 0 0-1.44.87c-.251.243-.462.52-.636.798.11-.314.307-1.006.256-1.876-.118-2.014-1.548-2.807-1.548-2.807s-1.43.793-1.548 2.807c-.051.87.145 1.562.256 1.876a4.207 4.207 0 0 0-.636-.799 3.451 3.451 0 0 0-1.44-.869 2.606 2.606 0 0 0-.348-.081 2.072 2.072 0 0 0-.29-.042c-.081-.01-.157-.008-.204-.009h-.075l-.011.01v.075c.002.047 0 .122.011.202.008.085.02.184.044.288.019.108.047.225.085.344a3.42 3.42 0 0 0 .887 1.422c.291.291.629.531.96.712-1.684-.17-2.938 1.332-2.168 3.142.338-.3 1.132-.185 1.365.08.082 1.61.642 2.546 2.206 2.546v.787c-.782.278-1.132 1.11-1.132 1.828h4.076c0-.717-.35-1.55-1.132-1.828v-.787c1.564 0 2.124-.937 2.206-2.545.233-.266 1.027-.382 1.365-.08.77-1.81-.483-3.314-2.168-3.143Zm4.43 22.687s-.177-.354-.508-.723c-.339-.373-.854-.729-1.401-.833.183-.201.34-.45.446-.71a3.16 3.16 0 0 0 .194-.78 4.58 4.58 0 0 0 .012-.629 3.859 3.859 0 0 0-.035-.25s-.086-.045-.233-.107a2.92 2.92 0 0 0-.605-.182c-.489-.109-1.12-.094-1.627.144.075-.555-.109-1.148-.362-1.58-.121-.225-.262-.39-.365-.512-.103-.121-.173-.191-.173-.191s-.096.009-.253.052c-.157.04-.37.1-.598.2a3.41 3.41 0 0 0-.688.426 2.595 2.595 0 0 0-.543.64 2.577 2.577 0 0 0-.543-.64 3.41 3.41 0 0 0-.688-.426 4 4 0 0 0-.598-.2c-.157-.043-.253-.052-.253-.052s-.07.07-.173.19c-.103.124-.244.288-.364.514-.254.431-.438 1.024-.363 1.579-.507-.238-1.138-.254-1.627-.144-.245.05-.463.116-.605.182-.147.062-.233.107-.233.107s-.018.094-.035.25c-.009.16-.01.385.012.63.024.244.097.523.194.778.107.261.263.51.447.71-.548.105-1.063.46-1.401.834-.332.369-.51.723-.51.723s.178.353.51.722c.338.374.853.729 1.4.833-.183.201-.34.45-.446.71-.097.256-.17.535-.194.78-.022.244-.02.469-.012.629.017.155.035.25.035.25s.086.045.233.107c.142.066.36.132.605.182.489.109 1.12.094 1.627-.144-.075.555.109 1.148.363 1.58.12.225.26.39.364.512.104.121.173.191.173.191s.096-.009.253-.052c.157-.04.37-.1.599-.2.23-.112.472-.248.687-.426.217-.189.406-.405.543-.64.136.235.326.451.543.64.215.178.457.313.688.426.227.1.441.16.598.2.157.043.253.052.253.052s.07-.07.173-.19c.103-.124.244-.288.365-.514.253-.431.437-1.024.362-1.58.507.239 1.139.255 1.627.145a2.92 2.92 0 0 0 .605-.182c.147-.062.233-.107.233-.107s.018-.095.035-.25a4.58 4.58 0 0 0-.012-.63 3.16 3.16 0 0 0-.194-.778 2.467 2.467 0 0 0-.446-.711c.547-.104 1.062-.46 1.4-.833.332-.369.51-.722.51-.722Z" fill="#fff"/><path d="M57.657 69.6c0 2.227-1.82 4.031-4.066 4.031-2.245 0-4.066-1.805-4.066-4.03 0-2.227 1.82-4.031 4.066-4.031 2.245 0 4.066 1.804 4.066 4.03Z" fill="#F6C60D"/><path d="M55.89 59.894a2.29 2.29 0 0 1-2.299 2.279 2.29 2.29 0 0 1-2.299-2.28c0-1.258 1.03-2.279 2.299-2.279 1.27 0 2.3 1.02 2.3 2.28Z" fill="#fff"/><path d="M54.975 59.894c0 .758-.62 1.372-1.384 1.372a1.379 1.379 0 0 1-1.384-1.372c0-.758.62-1.373 1.384-1.373.764 0 1.384.615 1.384 1.373Z" fill="#6D4EAB"/><path d="M55.156 60.769a.251.251 0 0 1-.118-.026.102.102 0 0 1 .096-.18c.014.006.079.005.178-.032l.075-.042c-.039-.087-.108-.202-.147-.21a.1.1 0 0 1-.07-.036.102.102 0 0 1-.023-.075.104.104 0 0 1 .111-.092c.073.006.142.052.206.138.044.058.162.264.148.337l-.04.06a1.117 1.117 0 0 1-.18.107.7.7 0 0 1-.236.051Zm-.316.73c-.142 0-.357-.024-.426-.155a.101.101 0 0 1 .043-.137.103.103 0 0 1 .138.042c.026.031.158.048.255.049l.005-.088c-.005-.105-.028-.162-.04-.173a.103.103 0 0 1-.036-.069.1.1 0 0 1 .023-.074.103.103 0 0 1 .144-.014c.085.068.109.213.114.322.004.118-.026.214-.029.224l-.06.065a.75.75 0 0 1-.13.009Zm-.847.471c-.065 0-.206-.111-.265-.161-.11-.094-.16-.176-.156-.257.003-.055.04-.1.108-.096a.102.102 0 0 1 .097.103c.012.041.115.125.194.176.05-.078.114-.197.107-.238a.099.099 0 0 1 .048-.133.106.106 0 0 1 .138.049c.043.085.017.202-.082.369-.109.183-.142.185-.179.187l-.01.001Zm-1.05-.072-.014-.001-.061-.039c-.003-.003-.064-.085-.109-.18-.035-.09-.08-.247-.025-.35a.101.101 0 0 1 .139-.042.1.1 0 0 1 .042.136c-.005.016-.004.08.033.177l.042.076c.087-.04.204-.107.213-.146.005-.057.058-.092.11-.093a.104.104 0 0 1 .07.036.1.1 0 0 1 .024.075c-.006.072-.052.14-.138.203-.055.041-.243.148-.326.148Zm-.698-.548a.742.742 0 0 1-.2-.028l-.065-.06c-.008-.021-.05-.45.148-.553a.104.104 0 0 1 .138.043.101.101 0 0 1-.042.137c-.032.026-.049.156-.05.253l.088.005c.106-.005.165-.029.176-.04a.102.102 0 0 1 .158.13c-.073.09-.235.11-.326.112h-.025Zm-.274-.77a.555.555 0 0 1-.255-.084c-.21-.115-.215-.158-.219-.19-.013-.08.176-.292.178-.294.088-.097.175-.135.243-.138a.102.102 0 0 1 .097.107c-.003.055-.055.09-.104.096-.041.013-.125.116-.178.193.08.05.19.117.24.106a.101.101 0 0 1 .135.048.103.103 0 0 1-.05.137l-.087.02Zm-.038-.868h-.01c-.072-.006-.14-.053-.205-.138-.044-.059-.162-.265-.147-.337l.039-.06c.003-.003.085-.064.18-.108.093-.035.251-.08.354-.025a.1.1 0 0 1 .042.137.1.1 0 0 1-.137.043c-.016-.006-.08-.006-.178.032l-.076.042c.038.087.108.202.147.211a.1.1 0 0 1 .06.176.103.103 0 0 1-.07.027Zm.368-.782-.065-.022c-.085-.069-.109-.214-.114-.323-.004-.118.025-.214.028-.224l.06-.065c.022-.007.454-.05.558.147a.101.101 0 0 1-.043.138.105.105 0 0 1-.138-.042c-.026-.032-.158-.049-.255-.05l-.005.088c.005.105.029.163.04.174a.1.1 0 0 1 .013.142l-.08.037Zm.712-.496a.107.107 0 0 1-.095-.06c-.042-.084-.016-.202.082-.369.109-.183.141-.185.18-.187.06-.01.212.108.274.16.11.095.16.177.157.257a.102.102 0 0 1-.103.096h-.005a.102.102 0 0 1-.097-.102c-.013-.042-.116-.125-.194-.177-.052.078-.115.197-.108.239a.098.098 0 0 1-.048.133l-.043.01Zm1.345.08-.048-.013a.1.1 0 0 1-.043-.136c.005-.015.004-.08-.033-.177l-.042-.076c-.087.04-.204.107-.213.147a.1.1 0 0 1-.11.092.103.103 0 0 1-.09-.07.1.1 0 0 1-.004-.04c.006-.072.052-.14.138-.204.06-.043.27-.16.34-.146l.062.038c.002.004.063.085.108.18.035.091.08.247.025.35a.1.1 0 0 1-.09.054Zm.649.576a.103.103 0 0 1-.091-.055.101.101 0 0 1 .042-.137c.032-.025.049-.156.05-.252l-.088-.005c-.106.004-.165.028-.176.038a.101.101 0 0 1-.069.037.102.102 0 0 1-.09-.166c.074-.09.237-.109.327-.112.112-.007.214.024.226.027l.064.06c.008.021.05.45-.148.553l-.047.012Zm.267.823h-.01a.103.103 0 0 1-.096-.104.102.102 0 0 1 .102-.099c.042-.013.126-.115.179-.192-.08-.052-.19-.113-.24-.107a.1.1 0 0 1-.135-.048.103.103 0 0 1 .05-.137c.078-.04.188-.02.342.065.211.116.216.158.219.19.013.08-.176.292-.178.295-.084.092-.16.137-.233.137Z" fill="#FABD09"/><path d="M86.673 100.031h-23.02V85.035h.884s.141.322.425.876c.106 3.347.165 6.86.165 10.54h.373c0-3.407-.05-6.67-.141-9.792.98 1.794 2.845 4.813 5.62 7.718.006.685.01 1.378.01 2.075h.373c0-.567-.003-1.128-.007-1.687a30.684 30.684 0 0 0 1.804 1.687h4.064c0-5.24-.237-10.14-.649-14.703 1.158.732 7.048 4.458 9.399 5.94.449 4.354.692 8.484.7 12.164v.178Zm-18.468-6.795h-.003a.322.322 0 0 0 .006.644h.003a.318.318 0 0 0 .313-.325.32.32 0 0 0-.319-.319Z" fill="#1C181A"/><path d="M76.85 96.452h-3.69a30.718 30.718 0 0 1-1.805-1.687 214.859 214.859 0 0 0-.595-14.622c1.57.488 3.395.99 5.424 1.438.421 4.608.665 9.566.665 14.87Zm-2.796-3.092h-.006a.313.313 0 0 0-.312.313c.004.17.146.305.32.305h.004a.312.312 0 0 0 .312-.314.315.315 0 0 0-.318-.304Zm-.052-3.093h-.01a.318.318 0 0 0-.312.32.31.31 0 0 0 .314.299h.01a.318.318 0 0 0 .31-.32.309.309 0 0 0-.312-.299Zm-.13-3.09-.016.001a.31.31 0 0 0-.3.324c.01.165.15.294.32.294h.015a.31.31 0 0 0 .3-.324.316.316 0 0 0-.318-.294Zm-.165-3.088h-.022a.318.318 0 0 0-.3.33.31.31 0 0 0 .334.288.316.316 0 0 0 .3-.328.31.31 0 0 0-.312-.29Zm-.224-3.084-.028.001a.31.31 0 0 0-.288.334.318.318 0 0 0 .345.282.309.309 0 0 0 .288-.333.317.317 0 0 0-.317-.284Zm-2.504 13.372c-2.775-2.904-4.64-5.924-5.62-7.718a306.305 306.305 0 0 0-.375-8.64c.814.36 2.703 1.151 5.392 2.004.34 4.448.556 9.232.603 14.354Zm-2.811-4.355h-.008a.324.324 0 0 0-.314.328.316.316 0 0 0 .315.314h.007a.323.323 0 0 0 .313-.329.316.316 0 0 0-.313-.313Zm-.105-3.214h-.011a.322.322 0 0 0 .015.643h.01a.317.317 0 0 0 .305-.333.322.322 0 0 0-.32-.31Zm-.124-3.214h-.015a.323.323 0 0 0-.304.337.318.318 0 0 0 .315.307h.015a.323.323 0 0 0 .304-.337.317.317 0 0 0-.315-.307Zm-.18-3.21-.02.001a.318.318 0 0 0-.296.34.323.323 0 0 0 .32.302h.018a.317.317 0 0 0 .296-.34.322.322 0 0 0-.319-.303Zm-2.797 5.527c-.284-.554-.425-.876-.425-.876h-2.772v-7.22h2.772l.063.03c.15 2.57.273 5.26.362 8.066Z" fill="#7B151F"/><path d="M65.5 96.452h-.373c0-3.682-.059-7.194-.165-10.54a305.54 305.54 0 0 0-.362-8.066c.071.033.2.092.384.173.159 2.745.286 5.627.375 8.64.091 3.121.141 6.385.141 9.793Zm2.263-15.425a.323.323 0 0 1-.32-.302.318.318 0 0 1 .296-.34h.02c.166 0 .306.13.318.302a.317.317 0 0 1-.296.34h-.018Zm.172 3.211a.318.318 0 0 1-.315-.307.323.323 0 0 1 .304-.336h.015c.169 0 .309.134.315.306a.323.323 0 0 1-.304.337h-.015Zm.132 3.213a.322.322 0 0 1-.015-.643h.01c.171 0 .313.136.32.31a.317.317 0 0 1-.316.333Zm.094 3.213a.316.316 0 0 1-.315-.314.324.324 0 0 1 .314-.328h.008c.171 0 .311.139.313.313a.323.323 0 0 1-.313.33h-.007Zm.047 3.216a.322.322 0 0 1-.006-.644h.003a.32.32 0 0 1 .319.319.318.318 0 0 1-.313.325h-.003Zm3.154 2.572h-.374c0-.697-.003-1.39-.01-2.075a213.864 213.864 0 0 0-.602-14.354l.384.12a214.859 214.859 0 0 1 .602 16.309Zm2.124-14.829a.318.318 0 0 1-.32-.283.31.31 0 0 1 .317-.335c.162 0 .302.122.317.284a.309.309 0 0 1-.314.334Zm.213 3.085a.31.31 0 0 1-.314-.29.318.318 0 0 1 .3-.328h.022a.31.31 0 0 1 .312.29.316.316 0 0 1-.32.328Zm.177 3.088c-.17 0-.31-.13-.32-.294a.31.31 0 0 1 .3-.324h.017c.168 0 .309.129.317.294a.31.31 0 0 1-.3.324h-.014Zm.118 3.09a.31.31 0 0 1-.314-.3.318.318 0 0 1 .311-.319h.01c.172 0 .31.133.314.3a.318.318 0 0 1-.312.319h-.009Zm.062 3.092a.316.316 0 0 1-.32-.305.313.313 0 0 1 .312-.313h.006c.173 0 .315.135.318.304a.312.312 0 0 1-.312.314h-.004Zm3.167 2.474h-.374c0-5.305-.244-10.263-.665-14.87l.19.041.2.126c.412 4.563.649 9.463.649 14.703Z" fill="#AF9A9E"/><path d="m63.653 36.843-5.353-5.09h-9.418l-5.354 5.09h20.125Z" fill="#D31C31"/><path d="M58.077 58.063h-.28v-2.187h.28v2.187Z" fill="#F6C60D"/><path d="M58.66 55.566a.72.72 0 0 1-.723.717.72.72 0 0 1-.723-.717.72.72 0 0 1 .723-.718c.4 0 .724.322.724.718ZM58.279 58a.34.34 0 0 1-.34.338.34.34 0 0 1-.342-.338.34.34 0 0 1 .341-.338.34.34 0 0 1 .341.338Z" fill="#fff"/><path d="M62.045 69.315h-.28v-2.186h.28v2.186Z" fill="#F6C60D"/><path d="M62.629 66.818a.72.72 0 0 1-.724.717.72.72 0 0 1-.724-.717.72.72 0 0 1 .724-.717c.4 0 .724.322.724.717Zm-.383 2.434a.34.34 0 0 1-.34.338.34.34 0 0 1-.342-.338.34.34 0 0 1 .341-.338.34.34 0 0 1 .341.338Z" fill="#fff"/><path d="M62.045 75.762h-.28v-2.186h.28v2.186Z" fill="#F6C60D"/><path d="M62.629 73.265a.72.72 0 0 1-.724.718.72.72 0 0 1-.724-.718.72.72 0 0 1 .724-.717c.4 0 .724.322.724.717Zm-.383 2.434a.34.34 0 0 1-.34.338.34.34 0 0 1-.342-.338.34.34 0 0 1 .341-.338.34.34 0 0 1 .341.338Z" fill="#fff"/><path d="M49.105 58.063h.28v-2.187h-.28v2.187Z" fill="#F6C60D"/><path d="M48.521 55.566a.72.72 0 0 0 .724.717.72.72 0 0 0 .723-.717.72.72 0 0 0-.723-.718.72.72 0 0 0-.724.718ZM48.904 58a.34.34 0 0 0 .34.338.34.34 0 0 0 .342-.338.34.34 0 0 0-.341-.338.34.34 0 0 0-.341.338Z" fill="#fff"/><path d="M45.137 69.315h.28v-2.186h-.28v2.186Z" fill="#F6C60D"/><path d="M44.554 66.818a.72.72 0 0 0 .723.717c.4 0 .724-.32.724-.717a.72.72 0 0 0-.724-.717c-.4 0-.723.322-.723.717Zm.382 2.434a.34.34 0 0 0 .341.338.34.34 0 0 0 .341-.338.34.34 0 0 0-.341-.338.34.34 0 0 0-.341.338Z" fill="#fff"/><path d="M45.137 75.762h.28v-2.186h-.28v2.186Z" fill="#F6C60D"/><path d="M44.554 73.265a.72.72 0 0 0 .723.718.72.72 0 0 0 .724-.718.72.72 0 0 0-.724-.717.72.72 0 0 0-.723.717Zm.382 2.434a.34.34 0 0 0 .341.338.34.34 0 0 0 .341-.338.34.34 0 0 0-.341-.338.34.34 0 0 0-.341.338Z" fill="#fff"/><path d="M64.537 77.816H42.645S37.603 89.294 27.146 93.49v9.132H44.14s1.29-10.243 9.452-14.81c8.163 4.567 9.452 14.81 9.452 14.81h16.993V93.49c-10.457-4.196-15.5-15.674-15.5-15.674Z" fill="#D31C31"/><path d="M64.935 83.701h-.238v-1.855h.238V83.7Z" fill="#F6C60D"/><path d="M65.43 81.583a.611.611 0 0 1-.614.608.611.611 0 0 1-.614-.608c0-.336.275-.61.614-.61.34 0 .614.274.614.61Zm-.325 2.066c0 .158-.13.287-.289.287a.288.288 0 0 1-.29-.287.29.29 0 0 1 .579 0Z" fill="#fff"/><path d="M70.743 91.466h-.238V89.61h.238v1.856Z" fill="#F6C60D"/><path d="M71.238 89.347a.612.612 0 0 1-.614.609.611.611 0 0 1-.614-.609c0-.336.274-.61.614-.61.339 0 .614.274.614.61Zm-.325 2.066c0 .158-.13.287-.29.287a.286.286 0 0 1-.205-.49.29.29 0 0 1 .495.203Z" fill="#fff"/><path d="M77.779 96.397h-.238v-1.856h.238v1.856Z" fill="#F6C60D"/><path d="M78.274 94.278a.612.612 0 0 1-.614.608.611.611 0 0 1-.614-.608c0-.336.274-.61.614-.61.339 0 .614.274.614.61Zm-.325 2.066a.29.29 0 0 1-.579 0c0-.159.13-.287.29-.287.16 0 .29.128.29.287Z" fill="#fff"/><path d="M42.247 83.701h.238v-1.855h-.238V83.7Z" fill="#F6C60D"/><path d="M41.752 81.583c0 .336.275.608.614.608.34 0 .614-.272.614-.608a.612.612 0 0 0-.614-.61.612.612 0 0 0-.614.61Zm.325 2.066c0 .158.13.287.289.287.16 0 .29-.129.29-.287a.29.29 0 0 0-.494-.203.285.285 0 0 0-.085.203Z" fill="#fff"/><path d="M36.44 91.466h.237V89.61h-.238v1.856Z" fill="#F6C60D"/><path d="M35.944 89.347c0 .336.275.609.614.609.34 0 .614-.273.614-.609a.612.612 0 0 0-.613-.61.612.612 0 0 0-.615.61Zm.325 2.066c0 .158.13.287.29.287a.286.286 0 0 0 .205-.49.29.29 0 0 0-.495.203Z" fill="#fff"/><path d="M29.403 96.397h.238v-1.856h-.238v1.856Z" fill="#F6C60D"/><path d="M28.908 94.278c0 .336.275.608.614.608.34 0 .614-.272.614-.608a.612.612 0 0 0-.614-.61.612.612 0 0 0-.614.61Zm.325 2.066a.29.29 0 0 0 .579 0 .288.288 0 0 0-.29-.287c-.16 0-.289.128-.289.287ZM39.45 94.99l-1 .27.303.979.998-.272-.301-.977Zm1.956-3.508-1 .272.303.977 1-.272-.303-.977Zm1.956-3.508-1 .273.303.976 1-.273-.303-.976Zm1.956-3.507-1 .273.304.976 1-.275-.304-.974Zm-7.824 14.03-.998.27.301.979.998-.27-.301-.979Zm22.63-14.46v-.006l.044-.022-.044.029Zm9.91 17.374-1.957-3.51-1.957-3.509-1.957-3.51-1.958-3.509-1.878-3.365-.046-.072a.41.41 0 0 0-.062-.09l-.026-.032c-.04-.05-.09-.113-.152-.17-.146-.146-.412-.34-.668-.4l-.107-.032H59.182l-.09-.013h-9.544l-1.496.004-.055.009h-.081l-.095.03c-.268.062-.534.256-.672.396-.07.063-.12.126-.16.176l-.022.028a.443.443 0 0 0-.065.094l-1.925 3.437-1.958 3.51-1.956 3.51-1.958 3.509-1.956 3.509-.675 1.21h.427l.574-1.03 1.957-3.51 1.957-3.51 1.957-3.509 1.958-3.51 1.864-3.343.004-.006.022-.003.057-.117.033-.042c.03-.037.065-.083.124-.137.141-.142.346-.267.511-.306l.048-.015.066-.003.058-.01H57.634l1.42-.005.093.014.068.004.06.018c.153.036.358.16.507.31.052.047.087.093.116.13l.053.07.033.018-.016.01 1.91 3.414 1.958 3.509 1.957 3.51 1.957 3.509 1.957 3.51.574 1.03h.427l-.674-1.21Zm-34.496.594-.998.269.107.347h1.08l-.19-.616Zm12.075-19.217.108.09s.065-.22.201-.406c.067-.096.142-.202.212-.269l.112-.114-.112-.116a2.16 2.16 0 0 0-.281-.233c-.227-.178-.506-.284-.506-.284s-.192.228-.299.49c-.123.245-.172.502-.172.501 0 0 .25.056.466.174.107.053.202.107.271.167Zm3.956-1.435-.72.736.72.734.72-.734-.72-.736Zm19.117 17.414-.997-.27-.302.979.998.27.301-.979Zm-1.955-3.506-.999-.271-.301.977.998.272.302-.978Z" fill="#fff"/><path d="m72.323 100.162-1.955-3.507-1.955-3.505-1.955-3.507-1.955-3.505-1.65-2.959-.362-.624-.002-.004c-.017-.03-.215-.362-.604-.742-.303-.301-.947-.841-1.861-1.074l-.065-.016a3.209 3.209 0 0 0-.251-.057l-.241-.026-1.833-.028h-9.56l-.614.055a3.49 3.49 0 0 0-.236.056l-.066.016c-.914.233-1.558.773-1.86 1.073-.39.381-.588.713-.605.742l-.002.005-2.012 3.583-1.955 3.505-1.955 3.507-1.955 3.505-1.955 3.507-1.372 2.46h.427l1.272-2.281 1.955-3.506 1.955-3.506 1.955-3.506 1.955-3.506 1.65-2.958.356-.616-.16-.096.162.092c.002-.003.185-.314.547-.669.276-.274.862-.766 1.689-.976l.067-.017c.07-.018.14-.036.197-.047l.24-.025 1.794-.027h9.365l.74.05c.072.013.142.03.212.049l.066.017c.828.21 1.414.702 1.691.977.361.354.544.665.546.668l.161-.092-.16.096 2.007 3.574 1.955 3.506 1.955 3.506 1.955 3.506 1.955 3.506 1.273 2.281h.426l-1.372-2.46Z" fill="#fff"/><path d="m66.776 91.755-1-.272-.302.977.998.272.304-.977Zm4.68 10.867h1.08l.106-.347-.997-.269-.19.616ZM55.613 81.354l-.72.736.72.734.72-.734-.72-.736Zm9.207 6.895-1-.274-.302.976.999.273.303-.975Zm-5.36-5.37.11-.09c.068-.06.163-.114.27-.167.215-.118.465-.173.465-.173s-.048-.257-.17-.502c-.108-.263-.3-.49-.3-.49s-.279.106-.506.285a2.18 2.18 0 0 0-.28.232l-.113.115.112.115c.07.068.146.173.212.27.136.184.2.406.2.406Zm3.405 1.863-1.001-.274-.303.974 1 .275.304-.975Zm-2.995 1.906c0 1.055-.862 1.91-1.926 1.91a1.918 1.918 0 0 1-1.925-1.91c0-1.054.862-1.909 1.925-1.909 1.064 0 1.926.855 1.926 1.91Z" fill="#fff"/><path d="M59.104 86.648c0 .635-.52 1.15-1.16 1.15-.64 0-1.16-.515-1.16-1.15 0-.634.52-1.149 1.16-1.149.64 0 1.16.515 1.16 1.15Z" fill="#6D4EAB"/><path d="M59.255 87.382a.21.21 0 0 1-.1-.023.083.083 0 0 1-.034-.114.085.085 0 0 1 .115-.035c.012.004.066.004.15-.027l.063-.036c-.033-.073-.091-.169-.124-.176a.085.085 0 0 1-.078-.092.087.087 0 0 1 .093-.078c.061.005.12.044.173.115.037.05.136.222.124.283l-.033.05a1.011 1.011 0 0 1-.152.09.601.601 0 0 1-.197.043Zm-.265.611c-.118 0-.299-.02-.357-.13a.085.085 0 0 1 .037-.115.086.086 0 0 1 .115.035c.022.027.132.04.213.041l.005-.073c-.004-.087-.024-.136-.033-.145a.084.084 0 0 1-.012-.12.087.087 0 0 1 .122-.012c.07.057.09.179.095.27.003.099-.021.18-.024.188l-.05.054a.665.665 0 0 1-.11.007Zm-.709.395c-.054 0-.172-.094-.221-.136-.094-.078-.135-.147-.132-.214.002-.047.034-.084.09-.08a.085.085 0 0 1 .081.086c.011.034.098.103.163.147.042-.066.096-.165.09-.2a.081.081 0 0 1 .04-.11c.044-.022.095-.002.116.04.036.07.014.169-.069.309-.09.154-.118.155-.15.157l-.008.001Zm-.88-.06-.012-.002-.051-.032c-.002-.003-.053-.072-.09-.15-.03-.077-.068-.208-.022-.294a.086.086 0 0 1 .152.079c-.004.013-.003.067.028.148l.035.063c.073-.033.17-.09.178-.122.004-.047.05-.076.093-.078a.086.086 0 0 1 .078.093c-.005.06-.043.117-.115.17-.047.035-.204.124-.273.124Zm-.584-.46a.62.62 0 0 1-.168-.023l-.054-.05c-.007-.018-.041-.377.124-.463a.088.088 0 0 1 .116.036.085.085 0 0 1-.036.114c-.026.022-.04.131-.041.212l.074.004c.087-.003.137-.023.146-.033a.086.086 0 0 1 .133.108c-.061.076-.198.092-.273.094l-.02.001Zm-.23-.644a.463.463 0 0 1-.213-.071c-.177-.097-.18-.132-.183-.159-.011-.068.147-.245.148-.247.074-.081.147-.113.204-.115a.087.087 0 0 1 .06.028.084.084 0 0 1 .02.062c-.001.046-.045.076-.086.08-.035.011-.105.097-.149.161.066.043.16.099.202.09a.085.085 0 1 1 .07.154l-.073.017Zm-.031-.728h-.008c-.06-.005-.119-.044-.173-.115-.036-.05-.135-.222-.123-.283l.033-.05a.952.952 0 0 1 .151-.09c.077-.03.21-.068.297-.02a.084.084 0 0 1 .035.114.083.083 0 0 1-.05.042.085.085 0 0 1-.065-.007c-.014-.005-.067-.004-.15.027l-.063.036c.032.072.09.169.123.176a.085.085 0 0 1 .05.148.086.086 0 0 1-.057.022Zm.307-.654-.054-.02c-.07-.056-.09-.178-.095-.27-.003-.098.02-.178.023-.187l.051-.054c.017-.007.38-.042.467.122a.085.085 0 0 1-.036.116.089.089 0 0 1-.116-.036c-.022-.026-.132-.04-.213-.04l-.005.073c.005.087.025.136.033.145.037.03.042.083.012.12l-.067.03Zm.597-.416-.08-.05c-.035-.07-.013-.17.07-.309.09-.154.118-.155.15-.157.05-.007.177.09.23.134.093.08.134.148.13.215a.084.084 0 0 1-.085.08h-.004a.086.086 0 0 1-.082-.085c-.01-.035-.097-.104-.162-.148-.043.065-.097.165-.091.2a.082.082 0 0 1-.04.11l-.036.01Zm1.126.066-.04-.01a.085.085 0 0 1-.042-.05.083.083 0 0 1 .006-.064c.005-.013.004-.067-.027-.148l-.035-.063c-.073.032-.17.09-.179.122a.084.084 0 0 1-.093.078.086.086 0 0 1-.078-.093c.005-.06.044-.117.116-.17.05-.037.226-.134.285-.123l.051.032c.002.003.053.071.09.15.03.077.068.208.022.294l-.076.045Zm.544.483-.076-.046a.084.084 0 0 1 .035-.114c.027-.022.04-.131.042-.212l-.074-.004c-.088.003-.137.023-.147.032a.086.086 0 0 1-.133-.108c.062-.075.198-.091.274-.094.094-.005.18.02.188.023l.055.05c.006.018.04.377-.124.463l-.04.01Zm.224.69h-.009a.085.085 0 0 1 .006-.17c.035-.011.105-.097.149-.161-.066-.043-.16-.095-.201-.09a.085.085 0 0 1-.113-.04.086.086 0 0 1 .042-.114c.066-.034.158-.017.287.054.176.097.18.132.183.158.01.068-.148.246-.15.248-.07.077-.134.114-.194.114Z" fill="#FABD09"/><path d="M51.163 86.648c0 1.055-.862 1.91-1.925 1.91a1.917 1.917 0 0 1-1.926-1.91c0-1.054.862-1.909 1.926-1.909 1.063 0 1.925.855 1.925 1.91Z" fill="#fff"/><path d="M50.398 86.648c0 .635-.52 1.15-1.16 1.15-.64 0-1.16-.515-1.16-1.15 0-.634.52-1.149 1.16-1.149.64 0 1.16.515 1.16 1.15Z" fill="#6D4EAB"/><path d="M50.549 87.382a.208.208 0 0 1-.1-.023.083.083 0 0 1-.035-.114.086.086 0 0 1 .115-.035c.013.004.067.004.15-.027l.063-.036c-.032-.073-.09-.169-.123-.176a.085.085 0 0 1-.078-.092.087.087 0 0 1 .093-.078c.06.005.119.044.172.115.038.05.137.222.124.283l-.033.05a1.014 1.014 0 0 1-.151.09.604.604 0 0 1-.197.043Zm-.265.611c-.119 0-.3-.02-.357-.13a.085.085 0 0 1 .01-.094.085.085 0 0 1 .058-.03.086.086 0 0 1 .084.044c.022.027.132.04.213.041l.005-.073c-.004-.087-.025-.136-.033-.145a.084.084 0 0 1-.012-.12.087.087 0 0 1 .121-.012c.07.057.091.179.095.27.003.099-.02.18-.023.188l-.051.054a.653.653 0 0 1-.11.007Zm-.71.395c-.054 0-.171-.094-.221-.136-.093-.078-.135-.147-.132-.214.003-.047.034-.084.09-.08a.085.085 0 0 1 .081.086c.012.034.098.103.163.147.043-.066.097-.165.091-.2a.082.082 0 0 1 .04-.11c.043-.022.095-.002.116.04.035.07.013.169-.07.309-.09.154-.118.155-.15.157l-.008.001Zm-.88-.06-.011-.002-.051-.032c-.002-.003-.053-.072-.09-.15-.03-.077-.068-.208-.022-.294a.085.085 0 0 1 .116-.035.084.084 0 0 1 .036.114c-.005.013-.004.067.027.148l.035.063c.074-.033.17-.09.179-.122.004-.047.049-.076.093-.078a.085.085 0 0 1 .078.093c-.005.06-.044.117-.116.17-.046.035-.204.124-.273.124Zm-.583-.46a.62.62 0 0 1-.168-.023l-.055-.05c-.006-.018-.04-.377.124-.463a.088.088 0 0 1 .116.036.085.085 0 0 1-.035.114c-.027.022-.04.131-.042.212l.074.004c.088-.003.138-.023.147-.033a.086.086 0 0 1 .133.108c-.062.076-.198.092-.274.094l-.02.001Zm-.23-.644a.462.462 0 0 1-.214-.071c-.176-.097-.18-.132-.183-.159-.01-.068.148-.245.15-.247.073-.081.145-.113.202-.115a.086.086 0 0 1 .082.09c-.003.046-.046.076-.087.08-.035.011-.106.097-.15.161.067.043.16.099.202.09a.085.085 0 0 1 .113.04.086.086 0 0 1-.042.114l-.074.017Zm-.032-.728h-.007c-.061-.005-.12-.044-.173-.115-.037-.05-.136-.222-.123-.283l.033-.05a.936.936 0 0 1 .15-.09c.078-.03.21-.068.297-.02a.084.084 0 0 1 .035.114.084.084 0 0 1-.114.035c-.014-.005-.067-.004-.15.027l-.064.036c.033.072.091.169.124.176a.085.085 0 0 1-.008.17Zm.308-.654-.054-.02c-.071-.056-.092-.178-.096-.27-.003-.098.022-.178.024-.187l.05-.054c.018-.007.38-.042.468.122a.085.085 0 0 1-.037.116.088.088 0 0 1-.115-.036c-.022-.026-.132-.04-.213-.04l-.005.073c.004.087.024.136.033.145.037.03.042.083.012.12l-.067.03Zm.597-.416-.08-.05c-.035-.07-.013-.17.07-.309.09-.154.117-.155.149-.157.051-.007.178.09.23.134.093.08.134.148.131.215a.084.084 0 0 1-.085.08h-.005a.086.086 0 0 1-.081-.085c-.011-.035-.097-.104-.163-.148-.043.065-.096.165-.09.2a.082.082 0 0 1-.04.11l-.036.01Zm1.126.066-.04-.01a.084.084 0 0 1-.036-.114c.004-.013.003-.067-.028-.148l-.035-.063c-.073.032-.17.09-.178.122a.084.084 0 0 1-.093.078.086.086 0 0 1-.078-.093c.005-.06.044-.117.116-.17.05-.037.225-.134.285-.123l.05.032c.003.003.054.071.091.15.03.077.068.208.022.294l-.076.045Zm.544.483-.077-.046a.084.084 0 0 1 .036-.114c.026-.022.04-.131.041-.212l-.074-.004c-.088.003-.137.023-.146.032a.086.086 0 0 1-.12.013.085.085 0 0 1-.013-.12c.061-.076.198-.092.273-.095.095-.005.18.02.19.023l.054.05c.006.018.04.377-.125.463l-.04.01Zm.223.69h-.008a.085.085 0 0 1 .005-.17c.036-.011.106-.097.15-.161-.066-.043-.16-.095-.201-.09a.085.085 0 0 1-.113-.04.086.086 0 0 1 .042-.114c.066-.034.157-.017.286.054.177.097.18.132.184.158.01.068-.148.246-.15.248-.07.077-.134.114-.195.114Z" fill="#FABD09"/><path d="M65.282 100.313a.917.917 0 0 1-.92-.912c0-.503.412-.912.92-.912.506 0 .92.409.92.912a.918.918 0 0 1-.92.912Zm0-2.554c-.914 0-1.657.737-1.657 1.642a1.65 1.65 0 0 0 1.657 1.641 1.65 1.65 0 0 0 1.655-1.641 1.65 1.65 0 0 0-1.655-1.642Zm-4.519-7.067-.329.176 3.13 5.762.329-.176-3.13-5.762Zm-18.862 9.621a.918.918 0 0 1-.92-.912c0-.503.413-.912.92-.912.507 0 .92.409.92.912a.917.917 0 0 1-.92.912Zm0-2.554c-.913 0-1.656.737-1.656 1.642a1.65 1.65 0 0 0 1.656 1.641 1.65 1.65 0 0 0 1.656-1.641c0-.905-.743-1.642-1.657-1.642Zm1.388-1.305.33.176 3.129-5.762-.33-.176-3.129 5.762Z" fill="#F6C60D"/><path d="M117.385 128.477H-10.203v10.227h127.588v-10.227Z" fill="#C6AA87"/><path d="M117.385 128.477H-10.203v4.443h127.588v-4.443Z" fill="#F9CEB3"/><path d="M-1.993 129.588h4.105v-.37h-4.105v.37Zm0 2.591h4.105v-.37h-4.105v.37Zm2.053-.745-.731-.735.73-.735.732.735-.731.735Zm2.052-1.846h4.106v-.37H2.112v.37Zm0 2.591h4.106v-.37H2.112v.37Zm2.053-.745-.73-.735.73-.735.731.735-.73.735Zm2.053-1.846h4.105v-.37H6.218v.37Zm0 2.591h4.105v-.37H6.218v.37Zm2.052-.745-.73-.735.73-.735.731.735-.73.735Zm2.053-1.846h4.106v-.37h-4.106v.37Zm0 2.591h4.106v-.37h-4.106v.37Zm2.053-.745-.73-.735.73-.735.73.735-.73.735Z" fill="#D31C31"/><path d="M14.428 129.588h4.105v-.37h-4.105v.37Zm0 2.591h4.105v-.37h-4.105v.37Zm2.053-.745-.73-.735.73-.735.73.735-.73.735Zm2.053-1.846h4.105v-.37h-4.105v.37Zm0 2.591h4.105v-.37h-4.105v.37Zm2.053-.745-.731-.735.73-.735.731.735-.73.735Zm2.052-1.846h4.106v-.37h-4.106v.37Zm0 2.591h4.106v-.37h-4.106v.37Zm2.053-.745-.73-.735.73-.735.73.735-.73.735Zm2.053-1.846h4.105v-.37h-4.105v.37Zm0 2.591h4.105v-.37h-4.105v.37Zm2.052-.745-.73-.735.73-.735.731.735-.73.735Z" fill="#D31C31"/><path d="M30.85 129.588h4.105v-.37H30.85v.37Zm0 2.591h4.105v-.37H30.85v.37Zm2.053-.745-.732-.735.732-.735.73.735-.73.735Zm2.052-1.846h4.105v-.37h-4.105v.37Zm0 2.591h4.105v-.37h-4.105v.37Zm2.053-.745-.731-.735.73-.735.732.735-.731.735ZM39.06 129.588h4.106v-.37H39.06v.37Zm0 2.591h4.106v-.37H39.06v.37Zm2.053-.745-.73-.735.73-.735.731.735-.73.735Zm2.053-1.846h4.105v-.37h-4.105v.37Zm0 2.591h4.105v-.37h-4.105v.37Zm2.052-.745-.73-.735.73-.735.731.735-.73.735Zm2.053-1.846h4.105v-.37h-4.105v.37Zm0 2.591h4.105v-.37h-4.105v.37Zm2.053-.745-.731-.735.73-.735.732.735-.731.735Zm2.052-1.846h4.106v-.37h-4.106v.37Zm0 2.591h4.106v-.37h-4.106v.37Zm2.053-.745-.73-.735.73-.735.73.735-.73.735Zm2.053-1.846h4.105v-.37h-4.105v.37Zm0 2.591h4.105v-.37h-4.105v.37Zm2.052-.745-.73-.735.73-.735.731.735-.73.735ZM59.587 129.588h4.105v-.37h-4.105v.37Zm0 2.591h4.105v-.37h-4.105v.37Zm2.052-.745-.73-.735.73-.735.731.735-.73.735Zm2.053-1.846h4.106v-.37h-4.106v.37Zm0 2.591h4.106v-.37h-4.106v.37Zm2.053-.745-.73-.735.73-.735.73.735-.73.735Zm2.053-1.846h4.105v-.37h-4.105v.37Zm0 2.591h4.105v-.37h-4.105v.37Zm2.052-.745-.73-.735.73-.735.731.735-.73.735Zm2.053-1.846h4.105v-.37h-4.105v.37Zm0 2.591h4.105v-.37h-4.105v.37Zm2.053-.745-.731-.735.73-.735.731.735-.73.735Z" fill="#D31C31"/><path d="M76.008 129.588h4.106v-.37h-4.106v.37Zm0 2.591h4.106v-.37h-4.106v.37Zm2.053-.745-.731-.735.73-.735.732.735-.731.735Zm2.053-1.846h4.105v-.37h-4.105v.37Zm0 2.591h4.105v-.37h-4.105v.37Zm2.052-.745-.73-.735.73-.735.731.735-.73.735ZM84.219 129.588h4.105v-.37H84.22v.37Zm0 2.591h4.105v-.37H84.22v.37Zm2.053-.745-.731-.735.73-.735.732.735-.731.735Zm2.052-1.846h4.106v-.37h-4.106v.37Zm0 2.591h4.106v-.37h-4.106v.37Zm2.053-.745-.73-.735.73-.735.731.735-.73.735Zm2.053-1.846h4.105v-.37H92.43v.37Zm0 2.591h4.105v-.37H92.43v.37Zm2.052-.745-.73-.735.73-.735.731.735-.73.735Zm2.053-1.846h4.105v-.37h-4.105v.37Zm0 2.591h4.105v-.37h-4.105v.37Zm2.052-.745-.73-.735.73-.735.731.735-.73.735ZM100.64 129.588h4.105v-.37h-4.105v.37Zm0 2.591h4.105v-.37h-4.105v.37Zm2.053-.745-.731-.735.731-.735.731.735-.731.735Zm2.052-1.846h4.106v-.37h-4.106v.37Zm0 2.591h4.106v-.37h-4.106v.37Zm2.053-.745-.73-.735.73-.735.731.735-.731.735Zm2.053-1.846h4.105v-.37h-4.105v.37Zm0 2.591h4.105v-.37h-4.105v.37Zm2.053-.745-.731-.735.731-.735.73.735-.73.735Z" fill="#D31C31"/><path d="M16.413 138.238H-12.67v-3.702h29.083v3.702Zm0-11.815H-12.67v-1.589h29.083v1.589Z" fill="#F36535"/><path d="M16.413 139.395H-12.67v-3.702h29.083v3.702Z" fill="#6D4EAB"/><path d="M14.605 123.983a.738.738 0 0 0 .322-.608c0-.409-.334-1.373-.746-1.373-.413 0-.747.964-.747 1.373 0 .252.127.474.322.608h-.346v11.153h1.54v-11.153h-.345Zm-4.167 0a.738.738 0 0 0 .322-.608c0-.409-.334-1.373-.747-1.373-.412 0-.747.964-.747 1.373 0 .252.128.474.322.608h-.345v11.153h1.54v-11.153h-.345Zm-4.167 0a.738.738 0 0 0 .322-.608c0-.409-.335-1.373-.747-1.373-.413 0-.747.964-.747 1.373 0 .252.128.474.322.608h-.346v11.153h1.541v-11.153h-.345Zm-4.168 0a.738.738 0 0 0 .322-.608c0-.41-.334-1.373-.747-1.373-.412 0-.746.963-.746 1.373 0 .252.127.474.321.608H.908v11.153h1.54v-11.153h-.345Zm-4.167 0a.738.738 0 0 0 .322-.608c0-.409-.334-1.373-.747-1.373-.412 0-.747.964-.747 1.373 0 .252.128.474.322.608h-.345v11.153h1.54v-11.153h-.345Zm-4.167 0a.738.738 0 0 0 .322-.608c0-.409-.335-1.373-.747-1.373s-.747.964-.747 1.373c0 .252.128.474.322.608h-.345v11.153h1.54v-11.153h-.345Zm-4.168 0a.738.738 0 0 0 .322-.608c0-.409-.334-1.373-.746-1.373-.413 0-.747.964-.747 1.373 0 .252.127.474.322.608h-.346v11.153h1.54v-11.153h-.345Zm80.98 17.823H90.77v-3.703H70.58v3.703Zm0-11.815H90.77v-1.589H70.58v1.589Z" fill="#F36535"/><path d="M70.581 142.963H90.77v-3.703H70.58v3.703Z" fill="#6D4EAB"/><path d="M71.829 127.55a.738.738 0 0 1-.322-.608c0-.409.334-1.373.747-1.373.412 0 .747.964.747 1.373a.739.739 0 0 1-.323.608h.346v11.154h-1.54V127.55h.345Zm4.168 0a.737.737 0 0 1-.323-.608c0-.409.334-1.373.747-1.373.412 0 .747.964.747 1.373a.737.737 0 0 1-.322.608h.345v11.154h-1.54V127.55h.346Zm4.167 0a.737.737 0 0 1-.323-.608c0-.409.335-1.373.747-1.373.413 0 .747.964.747 1.373a.737.737 0 0 1-.322.608h.346v11.154h-1.54V127.55h.345Zm4.167 0a.737.737 0 0 1-.323-.608c0-.409.335-1.373.748-1.373.412 0 .746.964.746 1.373a.737.737 0 0 1-.322.608h.346v11.154h-1.54V127.55h.345Zm4.167 0a.738.738 0 0 1-.322-.608c0-.409.335-1.373.747-1.373.413 0 .746.964.746 1.373a.737.737 0 0 1-.321.608h.345v11.154h-1.54V127.55h.345Zm-51.897 14.256H16.413v-3.703H36.6v3.703Zm0-11.815H16.413v-1.589H36.6v1.589Z" fill="#F36535"/><path d="M36.6 142.963H16.414v-3.703H36.6v3.703Z" fill="#6D4EAB"/><path d="M35.353 127.55a.738.738 0 0 0 .322-.608c0-.409-.334-1.373-.747-1.373-.412 0-.747.964-.747 1.373 0 .252.129.474.323.608h-.346v11.154h1.54V127.55h-.345Zm-4.168 0a.738.738 0 0 0 .323-.608c0-.409-.334-1.373-.747-1.373-.412 0-.747.964-.747 1.373 0 .252.128.474.322.608h-.345v11.154h1.54V127.55h-.345Zm-4.167 0a.737.737 0 0 0 .323-.608c0-.409-.335-1.373-.747-1.373-.413 0-.747.964-.747 1.373 0 .252.127.474.322.608h-.345v11.154h1.54V127.55h-.346Zm-4.167 0a.738.738 0 0 0 .322-.608c0-.409-.334-1.373-.746-1.373-.413 0-.747.964-.747 1.373 0 .252.127.474.322.608h-.346v11.154h1.54V127.55h-.345Zm-4.167 0a.737.737 0 0 0 .322-.608c0-.409-.334-1.373-.747-1.373-.412 0-.747.964-.747 1.373 0 .252.128.474.322.608h-.345v11.154h1.54V127.55h-.345Zm72.086 10.688h29.082v-3.702H90.77v3.702Zm0-11.815h29.082v-1.589H90.77v1.589Z" fill="#F36535"/><path d="M90.77 139.395h29.082v-3.702H90.77v3.702Z" fill="#6D4EAB"/><path d="M92.577 123.983a.737.737 0 0 1-.322-.608c0-.409.334-1.373.746-1.373.413 0 .748.964.748 1.373a.736.736 0 0 1-.323.608h.346v11.153h-1.54v-11.153h.345Zm4.167 0a.737.737 0 0 1-.322-.608c0-.409.334-1.373.747-1.373.412 0 .747.964.747 1.373a.737.737 0 0 1-.322.608h.345v11.153H96.4v-11.153h.345Zm4.167 0a.738.738 0 0 1-.321-.608c0-.409.334-1.373.746-1.373.413 0 .747.964.747 1.373a.738.738 0 0 1-.322.608h.345v11.153h-1.54v-11.153h.345Zm4.168 0a.738.738 0 0 1-.322-.608c0-.41.334-1.373.747-1.373.412 0 .747.963.747 1.373a.738.738 0 0 1-.322.608h.345v11.153h-1.541v-11.153h.346Zm4.167 0a.738.738 0 0 1-.322-.608c0-.409.334-1.373.747-1.373.412 0 .747.964.747 1.373a.738.738 0 0 1-.322.608h.345v11.153h-1.54v-11.153h.345Zm4.168 0a.737.737 0 0 1-.323-.608c0-.409.335-1.373.747-1.373s.747.964.747 1.373a.738.738 0 0 1-.322.608h.346v11.153h-1.541v-11.153h.346Zm4.167 0a.736.736 0 0 1-.322-.608c0-.409.334-1.373.747-1.373.412 0 .747.964.747 1.373a.737.737 0 0 1-.323.608h.346v11.153h-1.541v-11.153h.346Z" fill="#F36535"/><path d="M88.209 164.009v-2.056l-1.682-1.595v-1.857l-1.526-1.445v-1.689l-1.39-1.316v-1.539l-1.273-1.203v-1.411l-1.169-1.104v-1.297l-1.077-1.017v-1.196l-1.13-.94v-1.381H28.22v1.381l-1.13.94v1.196l-1.078 1.017v1.297l-1.17 1.104v1.411l-1.272 1.203v1.539l-1.39 1.316V157.056l-1.526 1.445v1.857l-1.681 1.595v2.056l-1.863 1.769v2.129h72.96v-2.129l-1.862-1.769Z" fill="#C6AA87"/><path d="M23.57 152.512h60.041l-1.273-1.203H24.844l-1.273 1.203Zm-1.39 2.855h62.821l-1.39-1.316h-60.04l-1.39 1.316Zm3.833-7.87h55.156l-1.077-1.017H27.09l-1.078 1.017Zm-1.17 2.401h57.495l-1.169-1.104H26.013l-1.17 1.104Zm-4.188 8.603h65.872l-1.526-1.445h-62.82l-1.526 1.445Zm67.553 5.508H18.974l-1.862 1.769h72.96l-1.862-1.769Zm-1.68-3.651H20.654l-1.681 1.595h69.234l-1.68-1.595ZM27.09 145.284h53l-1.13-.94h-50.74l-1.13.94Z" fill="#AC9476"/><path d="M31.57 167.907h-3.104l8.135-24.944H38.7l-7.13 24.944Zm47.146 0h-3.104l-7.13-24.944h2.1l8.134 24.944Z" fill="#7E6D58"/></g><defs><clipPath id="a"><path fill="#fff" d="M0 0h107v168H0z"/></clipPath></defs></svg>