<svg xmlns="http://www.w3.org/2000/svg" width="490" height="485" fill="none"><path fill="#fff" d="M437.7 134.7c-12.9 20.5-12.8 42.9-26.2 74.9-9.8-1-19.6-1.4-29.4-1 1.5-7.7 2.2-15.5 2.1-23.3-.3-15.4-1.9-30.8-4.8-45.9 19.2-3.7 38.7-5.3 58.3-4.7zM375 188.2c0 7-.6 14-1.9 20.9-26.3 2.1-51.6 11.1-73.4 26 18.7-20.3 29.1-46.9 29.2-74.5 0-.9 0-1.7-.1-2.6 12.7-7.4 26.3-12.9 40.5-16.4 3.2 15.4 5.1 31 5.7 46.6zm-87.1 59.6c24.2-18.7 53.3-29.7 83.8-31.9-8.7 32.5-32.6 45.5-51.5 45.5-12.2 0-23.8-4.9-32.3-13.6zm34.4-78.8c0 34.2-19.2 59.3-36.1 75.5-2.4-5.6-3.6-11.5-3.5-17.6 0-20.6 12-45.7 39.4-64.5.2 2.2.2 4.4.2 6.6zM279 225.9c0 5 .8 10 2.5 14.7-4.8-9.2-7.3-19.5-7.3-29.9 0-33.9 15.3-65.6 35.8-91.3 5.7 11.3 9.5 23.4 11.4 35.8-26.3 17.7-42.4 42.4-42.4 70.7zm15.3 30.5c7.7 5.3 16.9 8.2 26.2 8.4 29.5 0 51.6-18.2 60-49.4 9.3-.3 18.7.1 28 1.1 0 .1-.1.1-.1.1-16.2 35.1-46.5 53.7-76.3 53.7-13.9.6-27.5-4.4-37.8-13.9zm75.5-187.9c-7.1 21.6-5 44-1.6 65.7-13.9 3.8-27.2 9.3-39.7 16.5-1.4-13.8-5.2-27.3-11.2-39.9 15-16.9 32.8-31.3 52.5-42.3zm-96.2-27.4c6.7 29.3 21.7 50.1 33.3 72.1-16.5 20.4-28 44.4-33.3 70.1h.6V41.1h-.6zm22.8 220.3c10.9 8.4 24.2 12.9 37.9 12.9 32.6 0 64.7-18.7 83.7-56.6 15.9 2.5 31.6 6.6 46.6 12.3-33.9 9-70.8 50-117.2 50-21.3 0-38.5-7.1-49.8-17.8l-1.2-.8zm-26.8-45.6c6 36 34.1 69.5 82.6 69.5 56 0 103.7-52.1 135.9-53.5 2.4-.1 2.4-1.2.5-1.9-21.6-9-44.1-15.4-67.2-19 14-31.7 14.3-59.3 27.8-80.9 1.2-1.9 1-2.5-1.2-2.7-23.3-2-46.8-.5-69.7 4.5-3.9-24.5-6.8-48.5 2.6-76 .7-2.1.3-3.1-1.9-2.1-24.6 12.7-46.5 30-64.7 50.8C299 73.9 276.7 45.7 270.6 2c-.4-2.7-1.8-2.5-1.8 0v199.3c0 17.5-12.2 25.6-23.8 25.6-11.6 0-23.8-8.2-23.8-25.6V2.1c0-2.5-1.4-2.7-1.8 0-6.1 43.6-28.4 71.9-43.6 102.4-18.2-20.9-40.2-38.1-64.7-50.8-2.1-1-2.6-.1-1.9 2.1 9.5 27.6 6.6 51.5 2.6 76-22.9-5-46.4-6.5-69.7-4.5-2.1.2-2.3.8-1.2 2.7 13.5 21.6 13.9 49.2 27.8 80.9-23.1 3.6-45.7 10-67.2 19-1.9.8-1.9 1.9.5 1.9 32.1 1.3 79.9 53.5 135.9 53.5 48.6 0 76.6-33.5 82.6-69.5l-1 .2c3.9 8.8 12.3 14.7 21.9 15.4l.1-.6c-13.2 1.4-23.8 11.4-23.8 24.2 0 20.4 20 27 25.9 42.4.4 1 .6 2.1 1.5 2.1s1-1 1.5-2.1c6-15.4 25.9-22 25.9-42.4-.6-13-10.9-23.5-23.8-24.2l.1.6c9.6-.7 18-6.6 21.9-15.4l-1.1-.2zm-158.9-76.3c-2.9 15.1-4.5 30.5-4.8 45.9 0 7.8.7 15.6 2.1 23.3-9.8-.4-19.6-.1-29.4 1-13.4-32-13.3-54.4-26.2-74.9 19.5-.7 39 .9 58.3 4.7zm10 2.2c14.2 3.5 27.8 9.1 40.5 16.4 0 .9-.1 1.7-.1 2.6 0 27.6 10.5 54.2 29.2 74.5-21.8-14.9-47.1-23.9-73.4-26-1.3-6.9-1.9-13.9-1.9-20.9.7-15.7 2.6-31.2 5.7-46.6zm49.2 119.8c-18.9 0-42.8-13.1-51.5-45.5 30.5 2.1 59.6 13.2 83.8 31.9-8.5 8.6-20.1 13.5-32.3 13.6zm-1.9-99c27.4 18.8 39.4 43.9 39.4 64.5.1 6-1.1 12-3.5 17.6-16.9-16.2-36.1-41.3-36.1-75.5 0-2.3 0-4.5.2-6.6zm.7-7.2c1.8-12.5 5.7-24.6 11.4-35.8 20.5 25.6 35.8 57.4 35.8 91.3 0 10.4-2.5 20.6-7.3 29.9 1.7-4.7 2.5-9.7 2.5-14.7 0-28.4-16.1-53.1-42.4-70.7zm-10.7 115c-29.8 0-60.1-18.6-76.3-53.7 0-.1-.1-.1-.1-.1 9.3-1 18.6-1.4 28-1.1 8.4 31.2 30.5 49.4 60 49.4 9.4-.1 18.5-3 26.2-8.4-10.2 9.5-23.9 14.5-37.8 13.9zm14.8-159.5c-6 12.6-9.8 26.1-11.2 39.9-12.5-7.2-25.8-12.7-39.7-16.5 3.4-21.8 5.5-44.1-1.6-65.7 19.8 11.1 37.5 25.4 52.5 42.3zm43-69.7v142.2h.6c-5.3-25.7-16.7-49.7-33.3-70.1 11.6-22.1 26.6-42.8 33.3-72.1h-.6zm-23.3 221c-11.3 10.7-28.5 17.8-49.8 17.8-46.4 0-83.3-41-117.2-49.9 15.1-5.7 30.7-9.8 46.6-12.3 19 37.9 51.1 56.6 83.7 56.6 13.7 0 27.1-4.6 37.9-12.9l-1.2.7zm-54.565 90.809c-.9.1-1.3 0-1.5-.6-1-5.4-5.7-9.3-11.1-9.3-4.7-.6-8.9 2.8-9.5 7.4 0 .2 0 .5-.1.7 0 6 5 8.6 11.6 10.7 9.5 3.1 15.7 7 15.7 16.2s-7.2 15.7-19.6 15.7c-4.7.2-9.5-.8-13.8-2.7-1-.4-1.7-1.2-2-2.1-1.1-3.3-1.7-6.8-1.6-10.3 0-.6.6-.8 1.3-.9.7-.1 1.2.1 1.3.6 2 5.3 6.2 12.4 14.6 12.4 6.6 0 10.8-3.9 10.8-9.2 0-4.5-1.6-8.2-10.4-11.1-8.8-2.9-16.1-7.5-16.1-16.4 0-7.7 6.3-14.3 18.7-14.3 3.4.1 6.8.5 10.2 1.3 1.2.3 1.3.5 1.6 1.3.9 3.1 1.3 6.3 1.3 9.5-.1.7-.5 1-1.4 1.1zm141.9 25.9c.7.1 1.1.4 1 .8-.4 3.7-1.5 7.4-3.1 10.7-.3.6-.8 1-1.5 1.2-4.6 1.6-9.4 2.4-14.3 2.5-17.3 0-30.6-8.7-30.6-27.1 0-17.9 14.1-27.3 30.4-27.3 5.3.1 10.5.9 15.6 2.1 1 .2 1.1.4 1.2 1.3.1 2.2.3 6.1 1 10.8.1.5-.2.7-1 .9-.9.1-1.3 0-1.4-.5-1.4-7.1-7.9-12-15.1-11.4-9.9 0-19.9 7-19.9 23 0 16.6 10.4 24.8 20.5 24.8 7.3.1 13.8-4.6 16.1-11.5 0-.3.4-.4 1.1-.3zm20.1-11.8c.3-15.3 12.8-27.5 28.1-27.2 14.9.2 27 12.3 27.2 27.2-.4 15.3-13.2 27.3-28.5 26.9-14.6-.4-26.4-12.2-26.8-26.9zm27.7 23.6c9.4 0 16.9-10.1 16.9-23.6 0-12.5-6.1-23.8-16.9-23.8-10.8 0-16.9 11.4-16.9 23.8-.1 13.5 7.4 23.6 16.9 23.6zm-261.1-23.7v14.5c0 8.3-.7 8.5-4.4 9l-1.7.2c-.5.1-.6.6-.6 1.2.1.6.2 1.1.7 1 0 0 6.8-.2 10.5-.2s10.5.2 10.5.2c.5 0 .7-.4.7-1 .1-.6-.1-1.2-.6-1.2l-1.7-.2c-3.7-.5-4.4-.7-4.4-9v-29c0-8.3.7-8.5 4.4-9l1.7-.2c.5-.1.6-.6.6-1.2s-.2-1-.7-1c0 0-6.8.2-10.5.2s-10.5-.2-10.5-.2c-.5 0-.7.4-.7 1-.1.6.1 1.2.6 1.2l1.7.2c3.7.5 4.4.7 4.4 9v14.5zm133.6 21.5c.9 1.2.2 1.8-.8 2l-2 .3c-.5.1-.6.5-.5 1.2.1.7.3 1.1.7 1 0 0 6.6-.2 10.2-.2 3.7 0 10.3.2 10.3.2.5 0 .7-.3.8-1.1.1-.8-.2-1.2-.6-1.2-3.2.1-6.2-1.3-8.1-3.8-5-5.6-14.9-18.3-18.9-23.6-.5-.5-.5-1.4 0-1.9l.1-.1c2.2-2.4 9.4-9.7 12.6-12.6 3.2-3.2 7.4-5.1 11.9-5.5.4-.1.7-.6.6-1.3-.1-.6-.3-1-.8-.9 0 0-5.6.2-8.6.2s-8.6-.2-8.6-.2c-.5 0-.7.5-.7 1-.1.7.1 1.1.5 1.2l2.1.6c.4.1.7.3.7.7.1.9-1.6 2.8-3.8 5.3-3.1 3.5-8.5 9.2-11.4 12-2.4 2.3-3.4 2.7-4.3 2.2-.7-.3-1-1.1-1-3.5v-8.2c0-8.3.7-8.5 4.4-9l1.7-.2c.5-.1.6-.6.6-1.2-.1-.6-.2-1-.7-1 0 0-6.8.2-10.5.2s-10.5-.2-10.5-.2c-.5 0-.7.4-.7 1-.1.6.1 1.2.6 1.2l1.7.2c3.7.5 4.4.7 4.4 9v29c0 8.3-.7 8.5-4.4 9l-1.7.2c-.5.1-.6.6-.6 1.2s.2 1.1.7 1c0 0 6.8-.2 10.5-.2s10.5.2 10.5.2c.5 0 .7-.4.7-1 .1-.6-.1-1.2-.6-1.2l-1.7-.2c-3.7-.5-4.4-.7-4.4-9v-11.6c0-1.3.5-2.1 1.3-2.3.9-.2 1.6.2 2.5 1.2 4.3 4.7 12.4 15.3 15.8 19.9zm183.9-36.5c9.9 10.2 25.2 27.9 36.8 41.8.5.6 1 .7 2 .3.9-.4 1-.7 1-1.4-.2-3.9-.3-7.6-.3-11.1v-26.5c0-9.2.7-11 4.4-11.5l1.7-.2c.5-.1.6-.6.6-1.2s-.2-1.1-.7-1c-3 .2-5.9.2-7.9.2-2.1 0-5.8-.1-8.8-.2-.5 0-.7.4-.7 1-.1.6.2 1.2.6 1.2 6.2.3 7 1.6 7 11.7v24.4l.6-.6c-11.4-11.6-22-23.8-31.9-36.7-.5-.7-.6-1-1.5-.9-4.5.2-9 .2-13.5-.1-.5-.1-.7.4-.7 1-.1.6.1 1.1.6 1.2 6 1.2 7.7 3 7.7 9.2v26.5c0 9.2-.7 11-4.4 11.5l-1.7.2c-.5.1-.6.6-.6 1.2s.2 1.1.7 1c3-.2 5.9-.2 7.9-.2 2.1 0 4.9.1 7.9.2.5 0 .7-.4.7-1 .1-.6-.1-1.2-.6-1.2l-1.7-.2c-3.7-.5-4.4-2.3-4.4-11.5v-27.5l-.8.4zm45.693-26.454c.9 0 1.6-1 1.6-2.6s-.7-2.6-1.6-2.6h-369.3c-.9 0-1.6 1-1.6 2.6s.7 2.6 1.6 2.6h369.3zm0 88.1c.9 0 1.6-1 1.6-2.6s-.7-2.6-1.6-2.6h-369.3c-.9 0-1.6 1-1.6 2.6s.7 2.6 1.6 2.6h369.3zm33.573-107.948c.1 6-4.6 10.9-10.6 11-6 .1-10.9-4.6-11-10.6-.1-6 4.6-10.9 10.6-11h.2c5.9 0 10.8 4.7 10.8 10.6zm-19 0c.3 4.5 4.1 8 8.7 7.8 4.5-.3 8-4.1 7.8-8.7-.2-4.4-3.8-7.8-8.2-7.8-4.7.2-8.4 4-8.3 8.7zm4.7-2.4c0-1.1-.2-1.6-.9-1.7h-.3c-.2-.3-.2-.8.1-.9 1.7-.1 3.2-.2 4.6-.2 1.9 0 4.2.4 4.2 2.8 0 1-.6 1.9-1.5 2.3-.2.1-.2.2 0 .6.5 1.2 1.2 2.4 2.1 3.3.3.2.5.4.7.5.2 0 .2.5 0 .6-.4 0-.8.1-1.2.1-1.3.1-2.5-.6-3.1-1.7l-1.2-2.1c-.1-.3-.4-.5-.7-.5-.4 0-.5.2-.5.4v1.2c0 1.2 0 1.6 1.2 1.7l.2.1c.2.1.2.7 0 .8-.8 0-1.5-.1-2.5-.1-.9 0-1.7.1-2.4.1-.2-.1-.2-.7-.1-.8l.3-.1c.9-.2.9-.4.9-1.7l.1-4.7zm2.3 1.6c0 .6.1.6 1 .6.9.1 1.6-.6 1.7-1.4v-.2c0-1.3-.6-2.1-1.6-2.1s-1.1.2-1.1.6v2.5zM68.24 470.76c-.587 1.6-.88 3.173-.88 4.72 0 1.493.267 2.64.8 3.44.587.8 1.493 1.36 2.72 1.68 1.867.48 4.347.72 7.44.72h1.36v1.28H56v-1.28c2.827 0 4.96-.773 6.4-2.32 1.493-1.6 2.8-4.08 3.92-7.44l13.04-37.68c.373-1.173.72-2.053 1.04-2.64.747-1.493 1.973-2.24 3.68-2.24h.24l16.16 52.32h5.68v1.28H85.68v-1.28h5.92l-5.52-18.08H70.8l-2.56 7.52zm10.4-30.24-7.36 21.44h14.4l-6.56-21.44h-.48zm56.939 42.16c3.307 0 5.92-.987 7.84-2.96 1.92-1.973 2.88-4.453 2.88-7.44 0-3.04-.96-5.467-2.88-7.28-1.92-1.813-4.24-3.253-6.96-4.32-2.72-1.12-5.44-2.293-8.16-3.52a19.338 19.338 0 0 1-6.96-5.28c-1.92-2.293-2.88-5.12-2.88-8.48 0-4.533 1.334-8.053 4-10.56 2.667-2.56 6.294-3.84 10.88-3.84 2.4 0 5.094.453 8.08 1.36 2.987.907 4.72 1.36 5.2 1.36 1.547 0 2.454-.907 2.72-2.72h.96v17.52h-1.28c-.8-4.853-2.426-8.72-4.88-11.6-2.453-2.933-5.813-4.4-10.08-4.4-2.88 0-5.2.853-6.96 2.56-1.706 1.653-2.56 3.893-2.56 6.72 0 2.773.96 5.067 2.88 6.88 1.92 1.813 4.24 3.28 6.96 4.4a177.32 177.32 0 0 1 8.16 3.44 19.338 19.338 0 0 1 6.96 5.28c1.92 2.293 2.88 5.12 2.88 8.48 0 4.747-1.68 8.587-5.04 11.52-3.36 2.933-7.546 4.4-12.56 4.4-2.453 0-5.066-.453-7.84-1.36-2.72-.907-4.32-1.36-4.8-1.36-1.546 0-2.453.907-2.72 2.72h-.96l-.8-19.6h1.28c1.6 12.053 7.147 18.08 16.64 18.08zm39.833-11.92c-.587 1.6-.88 3.173-.88 4.72 0 1.493.267 2.64.8 3.44.587.8 1.493 1.36 2.72 1.68 1.867.48 4.347.72 7.44.72h1.36v1.28h-23.68v-1.28c2.827 0 4.96-.773 6.4-2.32 1.493-1.6 2.8-4.08 3.92-7.44l13.04-37.68c.373-1.173.72-2.053 1.04-2.64.747-1.493 1.973-2.24 3.68-2.24h.24l16.16 52.32h5.68v1.28h-20.48v-1.28h5.92l-5.52-18.08h-15.28l-2.56 7.52zm10.4-30.24-7.36 21.44h14.4l-6.56-21.44h-.48zm79.099 1.52v41.12h-1.28c-1.76 0-3.2-.56-4.32-1.68-1.066-1.12-2.506-3.253-4.32-6.4l-21.12-36.32h-.32v32.4c0 3.893.72 6.56 2.16 8 1.494 1.44 4.187 2.16 8.08 2.16h.56v1.28h-22.88v-1.28c3.894 0 6.614-.72 8.16-2.16 1.547-1.493 2.32-4.16 2.32-8v-35.68c-1.44-2.453-4.24-3.68-8.4-3.68v-1.2h8.32c2.56 0 4.48.453 5.76 1.36 1.334.853 2.667 2.4 4 4.64l21.2 36.4h.48v-30.96c0-3.893-.746-6.56-2.24-8-1.44-1.44-4.106-2.16-8-2.16h-.56v-1.28h22.88v1.28c-3.893 0-6.613.747-8.16 2.24-1.546 1.44-2.32 4.08-2.32 7.92zm38.809 40.64c3.307 0 5.92-.987 7.84-2.96 1.92-1.973 2.88-4.453 2.88-7.44 0-3.04-.96-5.467-2.88-7.28-1.92-1.813-4.24-3.253-6.96-4.32-2.72-1.12-5.44-2.293-8.16-3.52a19.338 19.338 0 0 1-6.96-5.28c-1.92-2.293-2.88-5.12-2.88-8.48 0-4.533 1.333-8.053 4-10.56 2.667-2.56 6.293-3.84 10.88-3.84 2.4 0 5.093.453 8.08 1.36s4.72 1.36 5.2 1.36c1.547 0 2.453-.907 2.72-2.72h.96v17.52h-1.28c-.8-4.853-2.427-8.72-4.88-11.6-2.453-2.933-5.813-4.4-10.08-4.4-2.88 0-5.2.853-6.96 2.56-1.707 1.653-2.56 3.893-2.56 6.72 0 2.773.96 5.067 2.88 6.88 1.92 1.813 4.24 3.28 6.96 4.4a177.32 177.32 0 0 1 8.16 3.44 19.338 19.338 0 0 1 6.96 5.28c1.92 2.293 2.88 5.12 2.88 8.48 0 4.747-1.68 8.587-5.04 11.52-3.36 2.933-7.547 4.4-12.56 4.4-2.453 0-5.067-.453-7.84-1.36-2.72-.907-4.32-1.36-4.8-1.36-1.547 0-2.453.907-2.72 2.72h-.96l-.8-19.6h1.28c1.6 12.053 7.147 18.08 16.64 18.08zm70.953-6.48c-3.947 5.333-9.494 8-16.64 8-7.147 0-12.721-2.667-16.721-8-3.946-5.387-5.92-11.947-5.92-19.68 0-7.733 2.027-14.24 6.081-19.52 4.053-5.333 9.573-8 16.56-8 6.986 0 12.506 2.667 16.559 8 4.054 5.28 6.081 11.787 6.081 19.52 0 7.733-2 14.293-6 19.68zm-25.521 2.4a8.496 8.496 0 0 0 3.601 3.12c1.493.64 3.226.96 5.2.96 2.026 0 3.759-.347 5.199-1.04a8.496 8.496 0 0 0 3.601-3.12 23.768 23.768 0 0 0 2.239-4.32c.587-1.547 1.014-3.44 1.28-5.68.267-2.24.427-4.213.481-5.92.106-1.707.16-3.787.16-6.24 0-2.453-.054-4.507-.16-6.16-.054-1.707-.214-3.653-.481-5.84-.266-2.24-.693-4.08-1.28-5.52a21.493 21.493 0 0 0-2.239-4.24c-.907-1.387-2.107-2.4-3.601-3.04-1.44-.693-3.146-1.04-5.119-1.04-1.974 0-3.707.347-5.201 1.04-1.44.64-2.613 1.653-3.52 3.04a21.493 21.493 0 0 0-2.239 4.24c-.587 1.44-1.014 3.28-1.28 5.52a88.278 88.278 0 0 0-.641 10.64c0 3.52.027 6.107.081 7.76.053 1.6.186 3.573.4 5.92.266 2.293.693 4.16 1.28 5.6a27.817 27.817 0 0 0 2.239 4.32zm47.834 4v-1.28h5.84v-49.44h-5.84v-1.28h21.6v1.28h-7.44v49.44h4.08c4.054 0 7.174-.187 9.36-.56 2.187-.427 3.974-1.387 5.36-2.88 1.387-1.493 2.294-3.307 2.72-5.44.48-2.133.827-5.28 1.04-9.44h1.28l-.8 19.6h-37.2z"/></svg>