<svg width="256" height="256" fill="none" xmlns="http://www.w3.org/2000/svg"><rect width="256" height="256" rx="128" fill="#fff"/><path d="M212.291 108.856c-5.639 8.961-5.596 18.752-11.454 32.739-4.284-.437-8.568-.612-12.852-.437.655-3.365.961-6.775.918-10.184a118.828 118.828 0 0 0-2.099-20.063 115.792 115.792 0 0 1 25.487-2.055Zm-27.41 23.385c0 3.06-.263 6.12-.831 9.136-11.498.918-22.558 4.852-32.088 11.364a48.323 48.323 0 0 0 12.765-32.564c0-.393 0-.743-.044-1.136a66.933 66.933 0 0 1 17.706-7.169 123.556 123.556 0 0 1 2.492 20.369Zm-38.078 26.052c10.58-8.174 23.301-12.982 36.635-13.944-3.803 14.206-14.252 19.888-22.514 19.888a19.711 19.711 0 0 1-14.121-5.944Zm15.039-34.444c0 14.949-8.394 25.92-15.782 33.001a18.606 18.606 0 0 1-1.53-7.693c0-9.004 5.246-19.975 17.224-28.193.088.962.088 1.923.088 2.885Zm-18.93 24.871c0 2.186.35 4.371 1.093 6.426a28.307 28.307 0 0 1-3.191-13.07c0-14.818 6.689-28.674 15.651-39.907a52.3 52.3 0 0 1 4.983 15.648c-11.497 7.737-18.536 18.533-18.536 30.903Zm6.689 13.332c3.366 2.316 7.388 3.584 11.454 3.671 12.896 0 22.558-7.955 26.23-21.592a88.09 88.09 0 0 1 12.241.48c0 .044-.044.044-.044.044-7.082 15.342-20.328 23.473-33.356 23.473-6.077.262-12.022-1.924-16.525-6.076Zm33.006-82.132c-3.104 9.442-2.185 19.233-.699 28.718a73.57 73.57 0 0 0-17.356 7.212 53.03 53.03 0 0 0-4.896-17.44c6.558-7.388 14.339-13.682 22.951-18.49Zm-42.055-11.977c2.929 12.808 9.486 21.9 14.557 31.516-7.213 8.916-12.24 19.407-14.557 30.641h.262V67.943h-.262Zm9.967 96.294a27.107 27.107 0 0 0 16.569 5.639c14.252 0 28.285-8.174 36.591-24.74 6.951 1.093 13.814 2.885 20.372 5.376-14.82 3.934-30.952 21.855-51.236 21.855-9.312 0-16.831-3.103-21.771-7.78l-.525-.35Zm-11.716-19.932c2.623 15.736 14.908 30.379 36.11 30.379 24.482 0 45.335-22.773 59.411-23.385 1.05-.044 1.05-.524.219-.83-9.443-3.934-19.279-6.732-29.378-8.305 6.121-13.857 6.252-25.921 12.154-35.362.524-.831.437-1.093-.525-1.18a101.975 101.975 0 0 0-30.471 1.967c-1.705-10.71-2.972-21.2 1.137-33.22.306-.918.131-1.355-.831-.918-10.754 5.551-20.328 13.113-28.285 22.205-6.688-13.376-16.437-25.702-19.104-44.803-.175-1.18-.787-1.093-.787 0v87.114c0 7.65-5.333 11.19-10.404 11.19s-10.405-3.584-10.405-11.19v-87.07c0-1.093-.612-1.18-.787 0-2.667 19.057-12.415 31.427-19.06 44.759A96.209 96.209 0 0 0 69.512 73.45c-.918-.437-1.137-.044-.83.918 4.152 12.064 2.885 22.51 1.136 33.22a101.973 101.973 0 0 0-30.47-1.967c-.919.087-1.006.349-.526 1.18 5.902 9.441 6.077 21.505 12.154 35.362a126.639 126.639 0 0 0-29.378 8.305c-.83.349-.83.83.219.83 14.033.568 34.93 23.385 59.41 23.385 21.247 0 33.488-14.643 36.111-30.379l-.437.088a11.358 11.358 0 0 0 9.574 6.731l.044-.262c-5.771.612-10.405 4.983-10.405 10.578 0 8.917 8.743 11.802 11.323 18.533.175.437.262.918.655.918.394 0 .438-.437.656-.918 2.623-6.731 11.323-9.616 11.323-18.533-.262-5.683-4.765-10.272-10.405-10.578l.044.262a11.358 11.358 0 0 0 9.574-6.731l-.481-.088Zm-69.466-33.351a118.777 118.777 0 0 0-2.099 20.063c0 3.41.306 6.819.918 10.185a84.207 84.207 0 0 0-12.852.437c-5.858-13.987-5.815-23.778-11.454-32.739 8.525-.306 17.05.393 25.487 2.054Zm4.372.962c6.207 1.53 12.153 3.978 17.705 7.169 0 .393-.044.743-.044 1.136 0 12.064 4.59 23.691 12.766 32.564-9.53-6.513-20.591-10.447-32.089-11.364a49.333 49.333 0 0 1-.83-9.136 132.954 132.954 0 0 1 2.492-20.369Zm21.508 52.365c-8.262 0-18.71-5.726-22.514-19.888a67.456 67.456 0 0 1 36.635 13.943 20.072 20.072 0 0 1-14.12 5.945Zm-.83-43.273c11.978 8.217 17.224 19.189 17.224 28.193a18.747 18.747 0 0 1-1.53 7.693c-7.388-7.081-15.782-18.052-15.782-33.001 0-1.006 0-1.967.088-2.885Zm.306-3.147a50.374 50.374 0 0 1 4.983-15.649c8.962 11.19 15.651 25.09 15.651 39.908 0 4.546-1.093 9.004-3.191 13.069.743-2.054 1.093-4.24 1.093-6.425 0-12.414-7.039-23.21-18.536-30.903Zm-4.678 50.267c-13.028 0-26.274-8.131-33.356-23.473 0-.044-.044-.044-.044-.044a87.821 87.821 0 0 1 12.241-.48c3.672 13.637 13.334 21.592 26.23 21.592a20.274 20.274 0 0 0 11.454-3.671c-4.459 4.152-10.448 6.338-16.525 6.076Zm6.47-69.718a53.03 53.03 0 0 0-4.896 17.44 73.567 73.567 0 0 0-17.356-7.212c1.487-9.53 2.405-19.276-.7-28.718a88.606 88.606 0 0 1 22.952 18.49Zm18.798-30.467V130.1h.263a71.326 71.326 0 0 0-14.558-30.641c5.071-9.66 11.629-18.709 14.558-31.516h-.263Zm-10.186 96.6c-4.94 4.677-12.459 7.781-21.77 7.781-20.285 0-36.417-17.922-51.237-21.812a102.96 102.96 0 0 1 20.372-5.376c8.306 16.566 22.34 24.74 36.591 24.74 5.99 0 11.847-2.011 16.569-5.639l-.525.306Z" fill="#B74233"/></svg>